%TF.GenerationSoftware,KiCad,Pcbnew,7.0.7*%
%TF.CreationDate,2024-01-26T16:38:05-05:00*%
%TF.ProjectId,midi-controller_main-board,6d696469-2d63-46f6-9e74-726f6c6c6572,rev?*%
%TF.SameCoordinates,Original*%
%TF.FileFunction,Soldermask,Bot*%
%TF.FilePolarity,Negative*%
%FSLAX46Y46*%
G04 Gerber Fmt 4.6, Leading zero omitted, Abs format (unit mm)*
G04 Created by KiCad (PCBNEW 7.0.7) date 2024-01-26 16:38:05*
%MOMM*%
%LPD*%
G01*
G04 APERTURE LIST*
G04 Aperture macros list*
%AMRoundRect*
0 Rectangle with rounded corners*
0 $1 Rounding radius*
0 $2 $3 $4 $5 $6 $7 $8 $9 X,Y pos of 4 corners*
0 Add a 4 corners polygon primitive as box body*
4,1,4,$2,$3,$4,$5,$6,$7,$8,$9,$2,$3,0*
0 Add four circle primitives for the rounded corners*
1,1,$1+$1,$2,$3*
1,1,$1+$1,$4,$5*
1,1,$1+$1,$6,$7*
1,1,$1+$1,$8,$9*
0 Add four rect primitives between the rounded corners*
20,1,$1+$1,$2,$3,$4,$5,0*
20,1,$1+$1,$4,$5,$6,$7,0*
20,1,$1+$1,$6,$7,$8,$9,0*
20,1,$1+$1,$8,$9,$2,$3,0*%
G04 Aperture macros list end*
%ADD10R,1.800000X1.800000*%
%ADD11C,1.800000*%
%ADD12C,4.500000*%
%ADD13C,3.200000*%
%ADD14C,1.524000*%
%ADD15RoundRect,0.250000X0.350000X0.450000X-0.350000X0.450000X-0.350000X-0.450000X0.350000X-0.450000X0*%
%ADD16RoundRect,0.250000X-0.450000X0.350000X-0.450000X-0.350000X0.450000X-0.350000X0.450000X0.350000X0*%
%ADD17RoundRect,0.150000X-0.150000X0.875000X-0.150000X-0.875000X0.150000X-0.875000X0.150000X0.875000X0*%
%ADD18R,0.650000X1.560000*%
%ADD19RoundRect,0.150000X0.587500X0.150000X-0.587500X0.150000X-0.587500X-0.150000X0.587500X-0.150000X0*%
%ADD20R,1.300000X0.300000*%
%ADD21R,2.200000X1.800000*%
%ADD22RoundRect,0.150000X-0.150000X0.825000X-0.150000X-0.825000X0.150000X-0.825000X0.150000X0.825000X0*%
%ADD23R,0.300000X1.300000*%
%ADD24R,1.800000X2.200000*%
G04 APERTURE END LIST*
D10*
%TO.C,RV8*%
X356928000Y-137664000D03*
D11*
X359428000Y-137664000D03*
X361928000Y-137664000D03*
X354428000Y-137664000D03*
X355678000Y-119764000D03*
X360678000Y-119764000D03*
D12*
X351578000Y-126764000D03*
X364778000Y-126764000D03*
%TD*%
D13*
%TO.C,H1*%
X52178000Y-98554000D03*
%TD*%
D10*
%TO.C,RV16*%
X356928000Y-180664000D03*
D11*
X359428000Y-180664000D03*
X361928000Y-180664000D03*
X354428000Y-180664000D03*
X355678000Y-162764000D03*
X360678000Y-162764000D03*
D12*
X351578000Y-169764000D03*
X364778000Y-169764000D03*
%TD*%
D10*
%TO.C,RV2*%
X146928000Y-137664000D03*
D11*
X149428000Y-137664000D03*
X151928000Y-137664000D03*
X144428000Y-137664000D03*
X145678000Y-119764000D03*
X150678000Y-119764000D03*
D12*
X141578000Y-126764000D03*
X154778000Y-126764000D03*
%TD*%
D10*
%TO.C,RV10*%
X146928000Y-180664000D03*
D11*
X149428000Y-180664000D03*
X151928000Y-180664000D03*
X144428000Y-180664000D03*
X145678000Y-162764000D03*
X150678000Y-162764000D03*
D12*
X141578000Y-169764000D03*
X154778000Y-169764000D03*
%TD*%
D10*
%TO.C,RV11*%
X181928000Y-180664000D03*
D11*
X184428000Y-180664000D03*
X186928000Y-180664000D03*
X179428000Y-180664000D03*
X180678000Y-162764000D03*
X185678000Y-162764000D03*
D12*
X176578000Y-169764000D03*
X189778000Y-169764000D03*
%TD*%
D13*
%TO.C,H4*%
X89178000Y-117554000D03*
%TD*%
%TO.C,H8*%
X89178000Y-160554000D03*
%TD*%
%TO.C,H6*%
X89178000Y-141554000D03*
%TD*%
D10*
%TO.C,RV15*%
X321928000Y-180664000D03*
D11*
X324428000Y-180664000D03*
X326928000Y-180664000D03*
X319428000Y-180664000D03*
X320678000Y-162764000D03*
X325678000Y-162764000D03*
D12*
X316578000Y-169764000D03*
X329778000Y-169764000D03*
%TD*%
D10*
%TO.C,RV6*%
X286928000Y-137664000D03*
D11*
X289428000Y-137664000D03*
X291928000Y-137664000D03*
X284428000Y-137664000D03*
X285678000Y-119764000D03*
X290678000Y-119764000D03*
D12*
X281578000Y-126764000D03*
X294778000Y-126764000D03*
%TD*%
D13*
%TO.C,H5*%
X382178000Y-117554000D03*
%TD*%
D10*
%TO.C,RV13*%
X251928000Y-180664000D03*
D11*
X254428000Y-180664000D03*
X256928000Y-180664000D03*
X249428000Y-180664000D03*
X250678000Y-162764000D03*
X255678000Y-162764000D03*
D12*
X246578000Y-169764000D03*
X259778000Y-169764000D03*
%TD*%
D13*
%TO.C,H11*%
X382178000Y-188554000D03*
%TD*%
D10*
%TO.C,RV3*%
X181928000Y-137664000D03*
D11*
X184428000Y-137664000D03*
X186928000Y-137664000D03*
X179428000Y-137664000D03*
X180678000Y-119764000D03*
X185678000Y-119764000D03*
D12*
X176578000Y-126764000D03*
X189778000Y-126764000D03*
%TD*%
D10*
%TO.C,RV1*%
X111928000Y-137664000D03*
D11*
X114428000Y-137664000D03*
X116928000Y-137664000D03*
X109428000Y-137664000D03*
X110678000Y-119764000D03*
X115678000Y-119764000D03*
D12*
X106578000Y-126764000D03*
X119778000Y-126764000D03*
%TD*%
D13*
%TO.C,H10*%
X52178000Y-188554000D03*
%TD*%
D10*
%TO.C,RV9*%
X111928000Y-180664000D03*
D11*
X114428000Y-180664000D03*
X116928000Y-180664000D03*
X109428000Y-180664000D03*
X110678000Y-162764000D03*
X115678000Y-162764000D03*
D12*
X106578000Y-169764000D03*
X119778000Y-169764000D03*
%TD*%
D10*
%TO.C,RV14*%
X286928000Y-180664000D03*
D11*
X289428000Y-180664000D03*
X291928000Y-180664000D03*
X284428000Y-180664000D03*
X285678000Y-162764000D03*
X290678000Y-162764000D03*
D12*
X281578000Y-169764000D03*
X294778000Y-169764000D03*
%TD*%
D10*
%TO.C,RV7*%
X321928000Y-137664000D03*
D11*
X324428000Y-137664000D03*
X326928000Y-137664000D03*
X319428000Y-137664000D03*
X320678000Y-119764000D03*
X325678000Y-119764000D03*
D12*
X316578000Y-126764000D03*
X329778000Y-126764000D03*
%TD*%
D13*
%TO.C,H2*%
X89178000Y-98554000D03*
%TD*%
%TO.C,H9*%
X382178000Y-160554000D03*
%TD*%
%TO.C,H3*%
X382178000Y-98554000D03*
%TD*%
D10*
%TO.C,RV4*%
X216928000Y-137664000D03*
D11*
X219428000Y-137664000D03*
X221928000Y-137664000D03*
X214428000Y-137664000D03*
X215678000Y-119764000D03*
X220678000Y-119764000D03*
D12*
X211578000Y-126764000D03*
X224778000Y-126764000D03*
%TD*%
D14*
%TO.C,SW1*%
X65178000Y-166573000D03*
X65178000Y-169113000D03*
X65178000Y-171653000D03*
X65178000Y-164033000D03*
X65178000Y-174193000D03*
X67718000Y-164033000D03*
X67718000Y-174193000D03*
%TD*%
D10*
%TO.C,RV5*%
X251928000Y-137664000D03*
D11*
X254428000Y-137664000D03*
X256928000Y-137664000D03*
X249428000Y-137664000D03*
X250678000Y-119764000D03*
X255678000Y-119764000D03*
D12*
X246578000Y-126764000D03*
X259778000Y-126764000D03*
%TD*%
D10*
%TO.C,RV12*%
X216928000Y-180664000D03*
D11*
X219428000Y-180664000D03*
X221928000Y-180664000D03*
X214428000Y-180664000D03*
X215678000Y-162764000D03*
X220678000Y-162764000D03*
D12*
X211578000Y-169764000D03*
X224778000Y-169764000D03*
%TD*%
D13*
%TO.C,H7*%
X382178000Y-141554000D03*
%TD*%
D15*
%TO.C,R10*%
X269240500Y-123754000D03*
X267240500Y-123754000D03*
%TD*%
D16*
%TO.C,R7*%
X238240500Y-127604000D03*
X238240500Y-129604000D03*
%TD*%
D17*
%TO.C,U9*%
X54193000Y-128904000D03*
X55463000Y-128904000D03*
X56733000Y-128904000D03*
X58003000Y-128904000D03*
X59273000Y-128904000D03*
X60543000Y-128904000D03*
X61813000Y-128904000D03*
X63083000Y-128904000D03*
X64353000Y-128904000D03*
X65623000Y-128904000D03*
X66893000Y-128904000D03*
X68163000Y-128904000D03*
X68163000Y-138204000D03*
X66893000Y-138204000D03*
X65623000Y-138204000D03*
X64353000Y-138204000D03*
X63083000Y-138204000D03*
X61813000Y-138204000D03*
X60543000Y-138204000D03*
X59273000Y-138204000D03*
X58003000Y-138204000D03*
X56733000Y-138204000D03*
X55463000Y-138204000D03*
X54193000Y-138204000D03*
%TD*%
D16*
%TO.C,R11*%
X308178000Y-127554000D03*
X308178000Y-129554000D03*
%TD*%
D18*
%TO.C,U13*%
X62128000Y-144904000D03*
X61178000Y-144904000D03*
X60228000Y-144904000D03*
X60228000Y-142204000D03*
X62128000Y-142204000D03*
%TD*%
D19*
%TO.C,Q4*%
X304115500Y-127604000D03*
X304115500Y-129504000D03*
X302240500Y-128554000D03*
%TD*%
D20*
%TO.C,J4*%
X71328000Y-148054000D03*
X71328000Y-148554000D03*
X71328000Y-149054000D03*
X71328000Y-149554000D03*
X71328000Y-150054000D03*
X71328000Y-150554000D03*
X71328000Y-151054000D03*
X71328000Y-151554000D03*
X71328000Y-152054000D03*
X71328000Y-152554000D03*
X71328000Y-153054000D03*
X71328000Y-153554000D03*
X71328000Y-154054000D03*
X71328000Y-154554000D03*
X71328000Y-155054000D03*
D21*
X74578000Y-146154000D03*
X74578000Y-156954000D03*
%TD*%
D15*
%TO.C,R8*%
X234240500Y-123904000D03*
X232240500Y-123904000D03*
%TD*%
D22*
%TO.C,U8*%
X162368000Y-161604000D03*
X163638000Y-161604000D03*
X164908000Y-161604000D03*
X166178000Y-161604000D03*
X167448000Y-161604000D03*
X168718000Y-161604000D03*
X169988000Y-161604000D03*
X169988000Y-166554000D03*
X168718000Y-166554000D03*
X167448000Y-166554000D03*
X166178000Y-166554000D03*
X164908000Y-166554000D03*
X163638000Y-166554000D03*
X162368000Y-166554000D03*
%TD*%
D23*
%TO.C,J3*%
X161428000Y-184704000D03*
X160928000Y-184704000D03*
X160428000Y-184704000D03*
X159928000Y-184704000D03*
X159428000Y-184704000D03*
X158928000Y-184704000D03*
X158428000Y-184704000D03*
X157928000Y-184704000D03*
X157428000Y-184704000D03*
X156928000Y-184704000D03*
D24*
X163328000Y-187954000D03*
X155028000Y-187954000D03*
%TD*%
D16*
%TO.C,R9*%
X273240500Y-127504000D03*
X273240500Y-129504000D03*
%TD*%
D19*
%TO.C,Q2*%
X234178000Y-127654000D03*
X234178000Y-129554000D03*
X232303000Y-128604000D03*
%TD*%
D15*
%TO.C,R6*%
X199240500Y-123454000D03*
X197240500Y-123454000D03*
%TD*%
D23*
%TO.C,DS1*%
X302428000Y-184704000D03*
X301928000Y-184704000D03*
X301428000Y-184704000D03*
X300928000Y-184704000D03*
X300428000Y-184704000D03*
X299928000Y-184704000D03*
X299428000Y-184704000D03*
X298928000Y-184704000D03*
X298428000Y-184704000D03*
X297928000Y-184704000D03*
X297428000Y-184704000D03*
X296928000Y-184704000D03*
X296428000Y-184704000D03*
X295928000Y-184704000D03*
X295428000Y-184704000D03*
X294928000Y-184704000D03*
X294428000Y-184704000D03*
X293928000Y-184704000D03*
D24*
X304328000Y-187954000D03*
X292028000Y-187954000D03*
%TD*%
D20*
%TO.C,J2*%
X71328000Y-104554000D03*
X71328000Y-105054000D03*
X71328000Y-105554000D03*
X71328000Y-106054000D03*
X71328000Y-106554000D03*
X71328000Y-107054000D03*
X71328000Y-107554000D03*
X71328000Y-108054000D03*
X71328000Y-108554000D03*
X71328000Y-109054000D03*
X71328000Y-109554000D03*
X71328000Y-110054000D03*
X71328000Y-110554000D03*
X71328000Y-111054000D03*
X71328000Y-111554000D03*
D21*
X74578000Y-102654000D03*
X74578000Y-113454000D03*
%TD*%
D22*
%TO.C,U10*%
X162368000Y-172079000D03*
X163638000Y-172079000D03*
X164908000Y-172079000D03*
X166178000Y-172079000D03*
X167448000Y-172079000D03*
X168718000Y-172079000D03*
X169988000Y-172079000D03*
X169988000Y-177029000D03*
X168718000Y-177029000D03*
X167448000Y-177029000D03*
X166178000Y-177029000D03*
X164908000Y-177029000D03*
X163638000Y-177029000D03*
X162368000Y-177029000D03*
%TD*%
D23*
%TO.C,J6*%
X67428000Y-184704000D03*
X66928000Y-184704000D03*
X66428000Y-184704000D03*
X65928000Y-184704000D03*
X65428000Y-184704000D03*
X64928000Y-184704000D03*
D24*
X69328000Y-187954000D03*
X63028000Y-187954000D03*
%TD*%
D19*
%TO.C,Q1*%
X199178000Y-127554000D03*
X199178000Y-129454000D03*
X197303000Y-128504000D03*
%TD*%
D16*
%TO.C,R5*%
X203240500Y-127504000D03*
X203240500Y-129504000D03*
%TD*%
D15*
%TO.C,R12*%
X304178000Y-123804000D03*
X302178000Y-123804000D03*
%TD*%
D22*
%TO.C,U5*%
X336733000Y-172079000D03*
X338003000Y-172079000D03*
X339273000Y-172079000D03*
X340543000Y-172079000D03*
X341813000Y-172079000D03*
X343083000Y-172079000D03*
X344353000Y-172079000D03*
X345623000Y-172079000D03*
X345623000Y-177029000D03*
X344353000Y-177029000D03*
X343083000Y-177029000D03*
X341813000Y-177029000D03*
X340543000Y-177029000D03*
X339273000Y-177029000D03*
X338003000Y-177029000D03*
X336733000Y-177029000D03*
%TD*%
D23*
%TO.C,J5*%
X362428000Y-184704000D03*
X361928000Y-184704000D03*
X361428000Y-184704000D03*
X360928000Y-184704000D03*
X360428000Y-184704000D03*
X359928000Y-184704000D03*
D24*
X364328000Y-187954000D03*
X358028000Y-187954000D03*
%TD*%
D17*
%TO.C,U7*%
X54193000Y-113904000D03*
X55463000Y-113904000D03*
X56733000Y-113904000D03*
X58003000Y-113904000D03*
X59273000Y-113904000D03*
X60543000Y-113904000D03*
X61813000Y-113904000D03*
X63083000Y-113904000D03*
X64353000Y-113904000D03*
X65623000Y-113904000D03*
X66893000Y-113904000D03*
X68163000Y-113904000D03*
X68163000Y-123204000D03*
X66893000Y-123204000D03*
X65623000Y-123204000D03*
X64353000Y-123204000D03*
X63083000Y-123204000D03*
X61813000Y-123204000D03*
X60543000Y-123204000D03*
X59273000Y-123204000D03*
X58003000Y-123204000D03*
X56733000Y-123204000D03*
X55463000Y-123204000D03*
X54193000Y-123204000D03*
%TD*%
D19*
%TO.C,Q3*%
X269178000Y-127554000D03*
X269178000Y-129454000D03*
X267303000Y-128504000D03*
%TD*%
M02*
