%TF.GenerationSoftware,KiCad,Pcbnew,7.0.7*%
%TF.CreationDate,2024-01-18T22:30:25-05:00*%
%TF.ProjectId,oled_test-board,6f6c6564-5f74-4657-9374-2d626f617264,rev?*%
%TF.SameCoordinates,Original*%
%TF.FileFunction,Legend,Top*%
%TF.FilePolarity,Positive*%
%FSLAX46Y46*%
G04 Gerber Fmt 4.6, Leading zero omitted, Abs format (unit mm)*
G04 Created by KiCad (PCBNEW 7.0.7) date 2024-01-18 22:30:25*
%MOMM*%
%LPD*%
G01*
G04 APERTURE LIST*
%ADD10C,0.100000*%
%ADD11C,0.203200*%
G04 APERTURE END LIST*
D10*
X152765714Y-83767419D02*
X152765714Y-82767419D01*
X152765714Y-82767419D02*
X153003809Y-82767419D01*
X153003809Y-82767419D02*
X153146666Y-82815038D01*
X153146666Y-82815038D02*
X153241904Y-82910276D01*
X153241904Y-82910276D02*
X153289523Y-83005514D01*
X153289523Y-83005514D02*
X153337142Y-83195990D01*
X153337142Y-83195990D02*
X153337142Y-83338847D01*
X153337142Y-83338847D02*
X153289523Y-83529323D01*
X153289523Y-83529323D02*
X153241904Y-83624561D01*
X153241904Y-83624561D02*
X153146666Y-83719800D01*
X153146666Y-83719800D02*
X153003809Y-83767419D01*
X153003809Y-83767419D02*
X152765714Y-83767419D01*
X153718095Y-83719800D02*
X153860952Y-83767419D01*
X153860952Y-83767419D02*
X154099047Y-83767419D01*
X154099047Y-83767419D02*
X154194285Y-83719800D01*
X154194285Y-83719800D02*
X154241904Y-83672180D01*
X154241904Y-83672180D02*
X154289523Y-83576942D01*
X154289523Y-83576942D02*
X154289523Y-83481704D01*
X154289523Y-83481704D02*
X154241904Y-83386466D01*
X154241904Y-83386466D02*
X154194285Y-83338847D01*
X154194285Y-83338847D02*
X154099047Y-83291228D01*
X154099047Y-83291228D02*
X153908571Y-83243609D01*
X153908571Y-83243609D02*
X153813333Y-83195990D01*
X153813333Y-83195990D02*
X153765714Y-83148371D01*
X153765714Y-83148371D02*
X153718095Y-83053133D01*
X153718095Y-83053133D02*
X153718095Y-82957895D01*
X153718095Y-82957895D02*
X153765714Y-82862657D01*
X153765714Y-82862657D02*
X153813333Y-82815038D01*
X153813333Y-82815038D02*
X153908571Y-82767419D01*
X153908571Y-82767419D02*
X154146666Y-82767419D01*
X154146666Y-82767419D02*
X154289523Y-82815038D01*
X155241904Y-83767419D02*
X154670476Y-83767419D01*
X154956190Y-83767419D02*
X154956190Y-82767419D01*
X154956190Y-82767419D02*
X154860952Y-82910276D01*
X154860952Y-82910276D02*
X154765714Y-83005514D01*
X154765714Y-83005514D02*
X154670476Y-83053133D01*
D11*
%TO.C,DS1*%
X126480000Y-81810000D02*
X126480000Y-93310000D01*
X156480000Y-81810000D02*
X126480000Y-81810000D01*
X156480000Y-81810000D02*
X156480000Y-93310000D01*
X156480000Y-93310000D02*
X126480000Y-93310000D01*
%TD*%
M02*
