%TF.GenerationSoftware,KiCad,Pcbnew,7.0.7*%
%TF.CreationDate,2024-01-26T16:38:05-05:00*%
%TF.ProjectId,midi-controller_main-board,6d696469-2d63-46f6-9e74-726f6c6c6572,rev?*%
%TF.SameCoordinates,Original*%
%TF.FileFunction,Legend,Bot*%
%TF.FilePolarity,Positive*%
%FSLAX46Y46*%
G04 Gerber Fmt 4.6, Leading zero omitted, Abs format (unit mm)*
G04 Created by KiCad (PCBNEW 7.0.7) date 2024-01-26 16:38:05*
%MOMM*%
%LPD*%
G01*
G04 APERTURE LIST*
%ADD10C,0.150000*%
%ADD11C,0.120000*%
G04 APERTURE END LIST*
D10*
X268883357Y-122558819D02*
X269216690Y-122082628D01*
X269454785Y-122558819D02*
X269454785Y-121558819D01*
X269454785Y-121558819D02*
X269073833Y-121558819D01*
X269073833Y-121558819D02*
X268978595Y-121606438D01*
X268978595Y-121606438D02*
X268930976Y-121654057D01*
X268930976Y-121654057D02*
X268883357Y-121749295D01*
X268883357Y-121749295D02*
X268883357Y-121892152D01*
X268883357Y-121892152D02*
X268930976Y-121987390D01*
X268930976Y-121987390D02*
X268978595Y-122035009D01*
X268978595Y-122035009D02*
X269073833Y-122082628D01*
X269073833Y-122082628D02*
X269454785Y-122082628D01*
X267930976Y-122558819D02*
X268502404Y-122558819D01*
X268216690Y-122558819D02*
X268216690Y-121558819D01*
X268216690Y-121558819D02*
X268311928Y-121701676D01*
X268311928Y-121701676D02*
X268407166Y-121796914D01*
X268407166Y-121796914D02*
X268502404Y-121844533D01*
X267311928Y-121558819D02*
X267216690Y-121558819D01*
X267216690Y-121558819D02*
X267121452Y-121606438D01*
X267121452Y-121606438D02*
X267073833Y-121654057D01*
X267073833Y-121654057D02*
X267026214Y-121749295D01*
X267026214Y-121749295D02*
X266978595Y-121939771D01*
X266978595Y-121939771D02*
X266978595Y-122177866D01*
X266978595Y-122177866D02*
X267026214Y-122368342D01*
X267026214Y-122368342D02*
X267073833Y-122463580D01*
X267073833Y-122463580D02*
X267121452Y-122511200D01*
X267121452Y-122511200D02*
X267216690Y-122558819D01*
X267216690Y-122558819D02*
X267311928Y-122558819D01*
X267311928Y-122558819D02*
X267407166Y-122511200D01*
X267407166Y-122511200D02*
X267454785Y-122463580D01*
X267454785Y-122463580D02*
X267502404Y-122368342D01*
X267502404Y-122368342D02*
X267550023Y-122177866D01*
X267550023Y-122177866D02*
X267550023Y-121939771D01*
X267550023Y-121939771D02*
X267502404Y-121749295D01*
X267502404Y-121749295D02*
X267454785Y-121654057D01*
X267454785Y-121654057D02*
X267407166Y-121606438D01*
X267407166Y-121606438D02*
X267311928Y-121558819D01*
X237045319Y-128437333D02*
X236569128Y-128104000D01*
X237045319Y-127865905D02*
X236045319Y-127865905D01*
X236045319Y-127865905D02*
X236045319Y-128246857D01*
X236045319Y-128246857D02*
X236092938Y-128342095D01*
X236092938Y-128342095D02*
X236140557Y-128389714D01*
X236140557Y-128389714D02*
X236235795Y-128437333D01*
X236235795Y-128437333D02*
X236378652Y-128437333D01*
X236378652Y-128437333D02*
X236473890Y-128389714D01*
X236473890Y-128389714D02*
X236521509Y-128342095D01*
X236521509Y-128342095D02*
X236569128Y-128246857D01*
X236569128Y-128246857D02*
X236569128Y-127865905D01*
X236045319Y-128770667D02*
X236045319Y-129437333D01*
X236045319Y-129437333D02*
X237045319Y-129008762D01*
X51982819Y-132792095D02*
X52792342Y-132792095D01*
X52792342Y-132792095D02*
X52887580Y-132839714D01*
X52887580Y-132839714D02*
X52935200Y-132887333D01*
X52935200Y-132887333D02*
X52982819Y-132982571D01*
X52982819Y-132982571D02*
X52982819Y-133173047D01*
X52982819Y-133173047D02*
X52935200Y-133268285D01*
X52935200Y-133268285D02*
X52887580Y-133315904D01*
X52887580Y-133315904D02*
X52792342Y-133363523D01*
X52792342Y-133363523D02*
X51982819Y-133363523D01*
X52982819Y-133887333D02*
X52982819Y-134077809D01*
X52982819Y-134077809D02*
X52935200Y-134173047D01*
X52935200Y-134173047D02*
X52887580Y-134220666D01*
X52887580Y-134220666D02*
X52744723Y-134315904D01*
X52744723Y-134315904D02*
X52554247Y-134363523D01*
X52554247Y-134363523D02*
X52173295Y-134363523D01*
X52173295Y-134363523D02*
X52078057Y-134315904D01*
X52078057Y-134315904D02*
X52030438Y-134268285D01*
X52030438Y-134268285D02*
X51982819Y-134173047D01*
X51982819Y-134173047D02*
X51982819Y-133982571D01*
X51982819Y-133982571D02*
X52030438Y-133887333D01*
X52030438Y-133887333D02*
X52078057Y-133839714D01*
X52078057Y-133839714D02*
X52173295Y-133792095D01*
X52173295Y-133792095D02*
X52411390Y-133792095D01*
X52411390Y-133792095D02*
X52506628Y-133839714D01*
X52506628Y-133839714D02*
X52554247Y-133887333D01*
X52554247Y-133887333D02*
X52601866Y-133982571D01*
X52601866Y-133982571D02*
X52601866Y-134173047D01*
X52601866Y-134173047D02*
X52554247Y-134268285D01*
X52554247Y-134268285D02*
X52506628Y-134315904D01*
X52506628Y-134315904D02*
X52411390Y-134363523D01*
X306982819Y-127911142D02*
X306506628Y-127577809D01*
X306982819Y-127339714D02*
X305982819Y-127339714D01*
X305982819Y-127339714D02*
X305982819Y-127720666D01*
X305982819Y-127720666D02*
X306030438Y-127815904D01*
X306030438Y-127815904D02*
X306078057Y-127863523D01*
X306078057Y-127863523D02*
X306173295Y-127911142D01*
X306173295Y-127911142D02*
X306316152Y-127911142D01*
X306316152Y-127911142D02*
X306411390Y-127863523D01*
X306411390Y-127863523D02*
X306459009Y-127815904D01*
X306459009Y-127815904D02*
X306506628Y-127720666D01*
X306506628Y-127720666D02*
X306506628Y-127339714D01*
X306982819Y-128863523D02*
X306982819Y-128292095D01*
X306982819Y-128577809D02*
X305982819Y-128577809D01*
X305982819Y-128577809D02*
X306125676Y-128482571D01*
X306125676Y-128482571D02*
X306220914Y-128387333D01*
X306220914Y-128387333D02*
X306268533Y-128292095D01*
X306982819Y-129815904D02*
X306982819Y-129244476D01*
X306982819Y-129530190D02*
X305982819Y-129530190D01*
X305982819Y-129530190D02*
X306125676Y-129434952D01*
X306125676Y-129434952D02*
X306220914Y-129339714D01*
X306220914Y-129339714D02*
X306268533Y-129244476D01*
X63532819Y-142315905D02*
X64342342Y-142315905D01*
X64342342Y-142315905D02*
X64437580Y-142363524D01*
X64437580Y-142363524D02*
X64485200Y-142411143D01*
X64485200Y-142411143D02*
X64532819Y-142506381D01*
X64532819Y-142506381D02*
X64532819Y-142696857D01*
X64532819Y-142696857D02*
X64485200Y-142792095D01*
X64485200Y-142792095D02*
X64437580Y-142839714D01*
X64437580Y-142839714D02*
X64342342Y-142887333D01*
X64342342Y-142887333D02*
X63532819Y-142887333D01*
X64532819Y-143887333D02*
X64532819Y-143315905D01*
X64532819Y-143601619D02*
X63532819Y-143601619D01*
X63532819Y-143601619D02*
X63675676Y-143506381D01*
X63675676Y-143506381D02*
X63770914Y-143411143D01*
X63770914Y-143411143D02*
X63818533Y-143315905D01*
X63532819Y-144220667D02*
X63532819Y-144839714D01*
X63532819Y-144839714D02*
X63913771Y-144506381D01*
X63913771Y-144506381D02*
X63913771Y-144649238D01*
X63913771Y-144649238D02*
X63961390Y-144744476D01*
X63961390Y-144744476D02*
X64009009Y-144792095D01*
X64009009Y-144792095D02*
X64104247Y-144839714D01*
X64104247Y-144839714D02*
X64342342Y-144839714D01*
X64342342Y-144839714D02*
X64437580Y-144792095D01*
X64437580Y-144792095D02*
X64485200Y-144744476D01*
X64485200Y-144744476D02*
X64532819Y-144649238D01*
X64532819Y-144649238D02*
X64532819Y-144363524D01*
X64532819Y-144363524D02*
X64485200Y-144268286D01*
X64485200Y-144268286D02*
X64437580Y-144220667D01*
X303273238Y-126704057D02*
X303368476Y-126656438D01*
X303368476Y-126656438D02*
X303463714Y-126561200D01*
X303463714Y-126561200D02*
X303606571Y-126418342D01*
X303606571Y-126418342D02*
X303701809Y-126370723D01*
X303701809Y-126370723D02*
X303797047Y-126370723D01*
X303749428Y-126608819D02*
X303844666Y-126561200D01*
X303844666Y-126561200D02*
X303939904Y-126465961D01*
X303939904Y-126465961D02*
X303987523Y-126275485D01*
X303987523Y-126275485D02*
X303987523Y-125942152D01*
X303987523Y-125942152D02*
X303939904Y-125751676D01*
X303939904Y-125751676D02*
X303844666Y-125656438D01*
X303844666Y-125656438D02*
X303749428Y-125608819D01*
X303749428Y-125608819D02*
X303558952Y-125608819D01*
X303558952Y-125608819D02*
X303463714Y-125656438D01*
X303463714Y-125656438D02*
X303368476Y-125751676D01*
X303368476Y-125751676D02*
X303320857Y-125942152D01*
X303320857Y-125942152D02*
X303320857Y-126275485D01*
X303320857Y-126275485D02*
X303368476Y-126465961D01*
X303368476Y-126465961D02*
X303463714Y-126561200D01*
X303463714Y-126561200D02*
X303558952Y-126608819D01*
X303558952Y-126608819D02*
X303749428Y-126608819D01*
X302463714Y-125942152D02*
X302463714Y-126608819D01*
X302701809Y-125561200D02*
X302939904Y-126275485D01*
X302939904Y-126275485D02*
X302320857Y-126275485D01*
X68932819Y-151220666D02*
X69647104Y-151220666D01*
X69647104Y-151220666D02*
X69789961Y-151173047D01*
X69789961Y-151173047D02*
X69885200Y-151077809D01*
X69885200Y-151077809D02*
X69932819Y-150934952D01*
X69932819Y-150934952D02*
X69932819Y-150839714D01*
X69266152Y-152125428D02*
X69932819Y-152125428D01*
X68885200Y-151887333D02*
X69599485Y-151649238D01*
X69599485Y-151649238D02*
X69599485Y-152268285D01*
X233407166Y-122708819D02*
X233740499Y-122232628D01*
X233978594Y-122708819D02*
X233978594Y-121708819D01*
X233978594Y-121708819D02*
X233597642Y-121708819D01*
X233597642Y-121708819D02*
X233502404Y-121756438D01*
X233502404Y-121756438D02*
X233454785Y-121804057D01*
X233454785Y-121804057D02*
X233407166Y-121899295D01*
X233407166Y-121899295D02*
X233407166Y-122042152D01*
X233407166Y-122042152D02*
X233454785Y-122137390D01*
X233454785Y-122137390D02*
X233502404Y-122185009D01*
X233502404Y-122185009D02*
X233597642Y-122232628D01*
X233597642Y-122232628D02*
X233978594Y-122232628D01*
X232835737Y-122137390D02*
X232930975Y-122089771D01*
X232930975Y-122089771D02*
X232978594Y-122042152D01*
X232978594Y-122042152D02*
X233026213Y-121946914D01*
X233026213Y-121946914D02*
X233026213Y-121899295D01*
X233026213Y-121899295D02*
X232978594Y-121804057D01*
X232978594Y-121804057D02*
X232930975Y-121756438D01*
X232930975Y-121756438D02*
X232835737Y-121708819D01*
X232835737Y-121708819D02*
X232645261Y-121708819D01*
X232645261Y-121708819D02*
X232550023Y-121756438D01*
X232550023Y-121756438D02*
X232502404Y-121804057D01*
X232502404Y-121804057D02*
X232454785Y-121899295D01*
X232454785Y-121899295D02*
X232454785Y-121946914D01*
X232454785Y-121946914D02*
X232502404Y-122042152D01*
X232502404Y-122042152D02*
X232550023Y-122089771D01*
X232550023Y-122089771D02*
X232645261Y-122137390D01*
X232645261Y-122137390D02*
X232835737Y-122137390D01*
X232835737Y-122137390D02*
X232930975Y-122185009D01*
X232930975Y-122185009D02*
X232978594Y-122232628D01*
X232978594Y-122232628D02*
X233026213Y-122327866D01*
X233026213Y-122327866D02*
X233026213Y-122518342D01*
X233026213Y-122518342D02*
X232978594Y-122613580D01*
X232978594Y-122613580D02*
X232930975Y-122661200D01*
X232930975Y-122661200D02*
X232835737Y-122708819D01*
X232835737Y-122708819D02*
X232645261Y-122708819D01*
X232645261Y-122708819D02*
X232550023Y-122661200D01*
X232550023Y-122661200D02*
X232502404Y-122613580D01*
X232502404Y-122613580D02*
X232454785Y-122518342D01*
X232454785Y-122518342D02*
X232454785Y-122327866D01*
X232454785Y-122327866D02*
X232502404Y-122232628D01*
X232502404Y-122232628D02*
X232550023Y-122185009D01*
X232550023Y-122185009D02*
X232645261Y-122137390D01*
X160352819Y-163317095D02*
X161162342Y-163317095D01*
X161162342Y-163317095D02*
X161257580Y-163364714D01*
X161257580Y-163364714D02*
X161305200Y-163412333D01*
X161305200Y-163412333D02*
X161352819Y-163507571D01*
X161352819Y-163507571D02*
X161352819Y-163698047D01*
X161352819Y-163698047D02*
X161305200Y-163793285D01*
X161305200Y-163793285D02*
X161257580Y-163840904D01*
X161257580Y-163840904D02*
X161162342Y-163888523D01*
X161162342Y-163888523D02*
X160352819Y-163888523D01*
X160781390Y-164507571D02*
X160733771Y-164412333D01*
X160733771Y-164412333D02*
X160686152Y-164364714D01*
X160686152Y-164364714D02*
X160590914Y-164317095D01*
X160590914Y-164317095D02*
X160543295Y-164317095D01*
X160543295Y-164317095D02*
X160448057Y-164364714D01*
X160448057Y-164364714D02*
X160400438Y-164412333D01*
X160400438Y-164412333D02*
X160352819Y-164507571D01*
X160352819Y-164507571D02*
X160352819Y-164698047D01*
X160352819Y-164698047D02*
X160400438Y-164793285D01*
X160400438Y-164793285D02*
X160448057Y-164840904D01*
X160448057Y-164840904D02*
X160543295Y-164888523D01*
X160543295Y-164888523D02*
X160590914Y-164888523D01*
X160590914Y-164888523D02*
X160686152Y-164840904D01*
X160686152Y-164840904D02*
X160733771Y-164793285D01*
X160733771Y-164793285D02*
X160781390Y-164698047D01*
X160781390Y-164698047D02*
X160781390Y-164507571D01*
X160781390Y-164507571D02*
X160829009Y-164412333D01*
X160829009Y-164412333D02*
X160876628Y-164364714D01*
X160876628Y-164364714D02*
X160971866Y-164317095D01*
X160971866Y-164317095D02*
X161162342Y-164317095D01*
X161162342Y-164317095D02*
X161257580Y-164364714D01*
X161257580Y-164364714D02*
X161305200Y-164412333D01*
X161305200Y-164412333D02*
X161352819Y-164507571D01*
X161352819Y-164507571D02*
X161352819Y-164698047D01*
X161352819Y-164698047D02*
X161305200Y-164793285D01*
X161305200Y-164793285D02*
X161257580Y-164840904D01*
X161257580Y-164840904D02*
X161162342Y-164888523D01*
X161162342Y-164888523D02*
X160971866Y-164888523D01*
X160971866Y-164888523D02*
X160876628Y-164840904D01*
X160876628Y-164840904D02*
X160829009Y-164793285D01*
X160829009Y-164793285D02*
X160781390Y-164698047D01*
X159511333Y-182308819D02*
X159511333Y-183023104D01*
X159511333Y-183023104D02*
X159558952Y-183165961D01*
X159558952Y-183165961D02*
X159654190Y-183261200D01*
X159654190Y-183261200D02*
X159797047Y-183308819D01*
X159797047Y-183308819D02*
X159892285Y-183308819D01*
X159130380Y-182308819D02*
X158511333Y-182308819D01*
X158511333Y-182308819D02*
X158844666Y-182689771D01*
X158844666Y-182689771D02*
X158701809Y-182689771D01*
X158701809Y-182689771D02*
X158606571Y-182737390D01*
X158606571Y-182737390D02*
X158558952Y-182785009D01*
X158558952Y-182785009D02*
X158511333Y-182880247D01*
X158511333Y-182880247D02*
X158511333Y-183118342D01*
X158511333Y-183118342D02*
X158558952Y-183213580D01*
X158558952Y-183213580D02*
X158606571Y-183261200D01*
X158606571Y-183261200D02*
X158701809Y-183308819D01*
X158701809Y-183308819D02*
X158987523Y-183308819D01*
X158987523Y-183308819D02*
X159082761Y-183261200D01*
X159082761Y-183261200D02*
X159130380Y-183213580D01*
X272045319Y-128337333D02*
X271569128Y-128004000D01*
X272045319Y-127765905D02*
X271045319Y-127765905D01*
X271045319Y-127765905D02*
X271045319Y-128146857D01*
X271045319Y-128146857D02*
X271092938Y-128242095D01*
X271092938Y-128242095D02*
X271140557Y-128289714D01*
X271140557Y-128289714D02*
X271235795Y-128337333D01*
X271235795Y-128337333D02*
X271378652Y-128337333D01*
X271378652Y-128337333D02*
X271473890Y-128289714D01*
X271473890Y-128289714D02*
X271521509Y-128242095D01*
X271521509Y-128242095D02*
X271569128Y-128146857D01*
X271569128Y-128146857D02*
X271569128Y-127765905D01*
X272045319Y-128813524D02*
X272045319Y-129004000D01*
X272045319Y-129004000D02*
X271997700Y-129099238D01*
X271997700Y-129099238D02*
X271950080Y-129146857D01*
X271950080Y-129146857D02*
X271807223Y-129242095D01*
X271807223Y-129242095D02*
X271616747Y-129289714D01*
X271616747Y-129289714D02*
X271235795Y-129289714D01*
X271235795Y-129289714D02*
X271140557Y-129242095D01*
X271140557Y-129242095D02*
X271092938Y-129194476D01*
X271092938Y-129194476D02*
X271045319Y-129099238D01*
X271045319Y-129099238D02*
X271045319Y-128908762D01*
X271045319Y-128908762D02*
X271092938Y-128813524D01*
X271092938Y-128813524D02*
X271140557Y-128765905D01*
X271140557Y-128765905D02*
X271235795Y-128718286D01*
X271235795Y-128718286D02*
X271473890Y-128718286D01*
X271473890Y-128718286D02*
X271569128Y-128765905D01*
X271569128Y-128765905D02*
X271616747Y-128813524D01*
X271616747Y-128813524D02*
X271664366Y-128908762D01*
X271664366Y-128908762D02*
X271664366Y-129099238D01*
X271664366Y-129099238D02*
X271616747Y-129194476D01*
X271616747Y-129194476D02*
X271569128Y-129242095D01*
X271569128Y-129242095D02*
X271473890Y-129289714D01*
X233335738Y-126754057D02*
X233430976Y-126706438D01*
X233430976Y-126706438D02*
X233526214Y-126611200D01*
X233526214Y-126611200D02*
X233669071Y-126468342D01*
X233669071Y-126468342D02*
X233764309Y-126420723D01*
X233764309Y-126420723D02*
X233859547Y-126420723D01*
X233811928Y-126658819D02*
X233907166Y-126611200D01*
X233907166Y-126611200D02*
X234002404Y-126515961D01*
X234002404Y-126515961D02*
X234050023Y-126325485D01*
X234050023Y-126325485D02*
X234050023Y-125992152D01*
X234050023Y-125992152D02*
X234002404Y-125801676D01*
X234002404Y-125801676D02*
X233907166Y-125706438D01*
X233907166Y-125706438D02*
X233811928Y-125658819D01*
X233811928Y-125658819D02*
X233621452Y-125658819D01*
X233621452Y-125658819D02*
X233526214Y-125706438D01*
X233526214Y-125706438D02*
X233430976Y-125801676D01*
X233430976Y-125801676D02*
X233383357Y-125992152D01*
X233383357Y-125992152D02*
X233383357Y-126325485D01*
X233383357Y-126325485D02*
X233430976Y-126515961D01*
X233430976Y-126515961D02*
X233526214Y-126611200D01*
X233526214Y-126611200D02*
X233621452Y-126658819D01*
X233621452Y-126658819D02*
X233811928Y-126658819D01*
X233002404Y-125754057D02*
X232954785Y-125706438D01*
X232954785Y-125706438D02*
X232859547Y-125658819D01*
X232859547Y-125658819D02*
X232621452Y-125658819D01*
X232621452Y-125658819D02*
X232526214Y-125706438D01*
X232526214Y-125706438D02*
X232478595Y-125754057D01*
X232478595Y-125754057D02*
X232430976Y-125849295D01*
X232430976Y-125849295D02*
X232430976Y-125944533D01*
X232430976Y-125944533D02*
X232478595Y-126087390D01*
X232478595Y-126087390D02*
X233050023Y-126658819D01*
X233050023Y-126658819D02*
X232430976Y-126658819D01*
X198407166Y-122258819D02*
X198740499Y-121782628D01*
X198978594Y-122258819D02*
X198978594Y-121258819D01*
X198978594Y-121258819D02*
X198597642Y-121258819D01*
X198597642Y-121258819D02*
X198502404Y-121306438D01*
X198502404Y-121306438D02*
X198454785Y-121354057D01*
X198454785Y-121354057D02*
X198407166Y-121449295D01*
X198407166Y-121449295D02*
X198407166Y-121592152D01*
X198407166Y-121592152D02*
X198454785Y-121687390D01*
X198454785Y-121687390D02*
X198502404Y-121735009D01*
X198502404Y-121735009D02*
X198597642Y-121782628D01*
X198597642Y-121782628D02*
X198978594Y-121782628D01*
X197550023Y-121258819D02*
X197740499Y-121258819D01*
X197740499Y-121258819D02*
X197835737Y-121306438D01*
X197835737Y-121306438D02*
X197883356Y-121354057D01*
X197883356Y-121354057D02*
X197978594Y-121496914D01*
X197978594Y-121496914D02*
X198026213Y-121687390D01*
X198026213Y-121687390D02*
X198026213Y-122068342D01*
X198026213Y-122068342D02*
X197978594Y-122163580D01*
X197978594Y-122163580D02*
X197930975Y-122211200D01*
X197930975Y-122211200D02*
X197835737Y-122258819D01*
X197835737Y-122258819D02*
X197645261Y-122258819D01*
X197645261Y-122258819D02*
X197550023Y-122211200D01*
X197550023Y-122211200D02*
X197502404Y-122163580D01*
X197502404Y-122163580D02*
X197454785Y-122068342D01*
X197454785Y-122068342D02*
X197454785Y-121830247D01*
X197454785Y-121830247D02*
X197502404Y-121735009D01*
X197502404Y-121735009D02*
X197550023Y-121687390D01*
X197550023Y-121687390D02*
X197645261Y-121639771D01*
X197645261Y-121639771D02*
X197835737Y-121639771D01*
X197835737Y-121639771D02*
X197930975Y-121687390D01*
X197930975Y-121687390D02*
X197978594Y-121735009D01*
X197978594Y-121735009D02*
X198026213Y-121830247D01*
X299392285Y-183308819D02*
X299392285Y-182308819D01*
X299392285Y-182308819D02*
X299154190Y-182308819D01*
X299154190Y-182308819D02*
X299011333Y-182356438D01*
X299011333Y-182356438D02*
X298916095Y-182451676D01*
X298916095Y-182451676D02*
X298868476Y-182546914D01*
X298868476Y-182546914D02*
X298820857Y-182737390D01*
X298820857Y-182737390D02*
X298820857Y-182880247D01*
X298820857Y-182880247D02*
X298868476Y-183070723D01*
X298868476Y-183070723D02*
X298916095Y-183165961D01*
X298916095Y-183165961D02*
X299011333Y-183261200D01*
X299011333Y-183261200D02*
X299154190Y-183308819D01*
X299154190Y-183308819D02*
X299392285Y-183308819D01*
X298439904Y-183261200D02*
X298297047Y-183308819D01*
X298297047Y-183308819D02*
X298058952Y-183308819D01*
X298058952Y-183308819D02*
X297963714Y-183261200D01*
X297963714Y-183261200D02*
X297916095Y-183213580D01*
X297916095Y-183213580D02*
X297868476Y-183118342D01*
X297868476Y-183118342D02*
X297868476Y-183023104D01*
X297868476Y-183023104D02*
X297916095Y-182927866D01*
X297916095Y-182927866D02*
X297963714Y-182880247D01*
X297963714Y-182880247D02*
X298058952Y-182832628D01*
X298058952Y-182832628D02*
X298249428Y-182785009D01*
X298249428Y-182785009D02*
X298344666Y-182737390D01*
X298344666Y-182737390D02*
X298392285Y-182689771D01*
X298392285Y-182689771D02*
X298439904Y-182594533D01*
X298439904Y-182594533D02*
X298439904Y-182499295D01*
X298439904Y-182499295D02*
X298392285Y-182404057D01*
X298392285Y-182404057D02*
X298344666Y-182356438D01*
X298344666Y-182356438D02*
X298249428Y-182308819D01*
X298249428Y-182308819D02*
X298011333Y-182308819D01*
X298011333Y-182308819D02*
X297868476Y-182356438D01*
X296916095Y-183308819D02*
X297487523Y-183308819D01*
X297201809Y-183308819D02*
X297201809Y-182308819D01*
X297201809Y-182308819D02*
X297297047Y-182451676D01*
X297297047Y-182451676D02*
X297392285Y-182546914D01*
X297392285Y-182546914D02*
X297487523Y-182594533D01*
X68932819Y-107720666D02*
X69647104Y-107720666D01*
X69647104Y-107720666D02*
X69789961Y-107673047D01*
X69789961Y-107673047D02*
X69885200Y-107577809D01*
X69885200Y-107577809D02*
X69932819Y-107434952D01*
X69932819Y-107434952D02*
X69932819Y-107339714D01*
X69028057Y-108149238D02*
X68980438Y-108196857D01*
X68980438Y-108196857D02*
X68932819Y-108292095D01*
X68932819Y-108292095D02*
X68932819Y-108530190D01*
X68932819Y-108530190D02*
X68980438Y-108625428D01*
X68980438Y-108625428D02*
X69028057Y-108673047D01*
X69028057Y-108673047D02*
X69123295Y-108720666D01*
X69123295Y-108720666D02*
X69218533Y-108720666D01*
X69218533Y-108720666D02*
X69361390Y-108673047D01*
X69361390Y-108673047D02*
X69932819Y-108101619D01*
X69932819Y-108101619D02*
X69932819Y-108720666D01*
X160352819Y-173315905D02*
X161162342Y-173315905D01*
X161162342Y-173315905D02*
X161257580Y-173363524D01*
X161257580Y-173363524D02*
X161305200Y-173411143D01*
X161305200Y-173411143D02*
X161352819Y-173506381D01*
X161352819Y-173506381D02*
X161352819Y-173696857D01*
X161352819Y-173696857D02*
X161305200Y-173792095D01*
X161305200Y-173792095D02*
X161257580Y-173839714D01*
X161257580Y-173839714D02*
X161162342Y-173887333D01*
X161162342Y-173887333D02*
X160352819Y-173887333D01*
X161352819Y-174887333D02*
X161352819Y-174315905D01*
X161352819Y-174601619D02*
X160352819Y-174601619D01*
X160352819Y-174601619D02*
X160495676Y-174506381D01*
X160495676Y-174506381D02*
X160590914Y-174411143D01*
X160590914Y-174411143D02*
X160638533Y-174315905D01*
X160352819Y-175506381D02*
X160352819Y-175601619D01*
X160352819Y-175601619D02*
X160400438Y-175696857D01*
X160400438Y-175696857D02*
X160448057Y-175744476D01*
X160448057Y-175744476D02*
X160543295Y-175792095D01*
X160543295Y-175792095D02*
X160733771Y-175839714D01*
X160733771Y-175839714D02*
X160971866Y-175839714D01*
X160971866Y-175839714D02*
X161162342Y-175792095D01*
X161162342Y-175792095D02*
X161257580Y-175744476D01*
X161257580Y-175744476D02*
X161305200Y-175696857D01*
X161305200Y-175696857D02*
X161352819Y-175601619D01*
X161352819Y-175601619D02*
X161352819Y-175506381D01*
X161352819Y-175506381D02*
X161305200Y-175411143D01*
X161305200Y-175411143D02*
X161257580Y-175363524D01*
X161257580Y-175363524D02*
X161162342Y-175315905D01*
X161162342Y-175315905D02*
X160971866Y-175268286D01*
X160971866Y-175268286D02*
X160733771Y-175268286D01*
X160733771Y-175268286D02*
X160543295Y-175315905D01*
X160543295Y-175315905D02*
X160448057Y-175363524D01*
X160448057Y-175363524D02*
X160400438Y-175411143D01*
X160400438Y-175411143D02*
X160352819Y-175506381D01*
X66511333Y-182308819D02*
X66511333Y-183023104D01*
X66511333Y-183023104D02*
X66558952Y-183165961D01*
X66558952Y-183165961D02*
X66654190Y-183261200D01*
X66654190Y-183261200D02*
X66797047Y-183308819D01*
X66797047Y-183308819D02*
X66892285Y-183308819D01*
X65606571Y-182308819D02*
X65797047Y-182308819D01*
X65797047Y-182308819D02*
X65892285Y-182356438D01*
X65892285Y-182356438D02*
X65939904Y-182404057D01*
X65939904Y-182404057D02*
X66035142Y-182546914D01*
X66035142Y-182546914D02*
X66082761Y-182737390D01*
X66082761Y-182737390D02*
X66082761Y-183118342D01*
X66082761Y-183118342D02*
X66035142Y-183213580D01*
X66035142Y-183213580D02*
X65987523Y-183261200D01*
X65987523Y-183261200D02*
X65892285Y-183308819D01*
X65892285Y-183308819D02*
X65701809Y-183308819D01*
X65701809Y-183308819D02*
X65606571Y-183261200D01*
X65606571Y-183261200D02*
X65558952Y-183213580D01*
X65558952Y-183213580D02*
X65511333Y-183118342D01*
X65511333Y-183118342D02*
X65511333Y-182880247D01*
X65511333Y-182880247D02*
X65558952Y-182785009D01*
X65558952Y-182785009D02*
X65606571Y-182737390D01*
X65606571Y-182737390D02*
X65701809Y-182689771D01*
X65701809Y-182689771D02*
X65892285Y-182689771D01*
X65892285Y-182689771D02*
X65987523Y-182737390D01*
X65987523Y-182737390D02*
X66035142Y-182785009D01*
X66035142Y-182785009D02*
X66082761Y-182880247D01*
X198335738Y-126654057D02*
X198430976Y-126606438D01*
X198430976Y-126606438D02*
X198526214Y-126511200D01*
X198526214Y-126511200D02*
X198669071Y-126368342D01*
X198669071Y-126368342D02*
X198764309Y-126320723D01*
X198764309Y-126320723D02*
X198859547Y-126320723D01*
X198811928Y-126558819D02*
X198907166Y-126511200D01*
X198907166Y-126511200D02*
X199002404Y-126415961D01*
X199002404Y-126415961D02*
X199050023Y-126225485D01*
X199050023Y-126225485D02*
X199050023Y-125892152D01*
X199050023Y-125892152D02*
X199002404Y-125701676D01*
X199002404Y-125701676D02*
X198907166Y-125606438D01*
X198907166Y-125606438D02*
X198811928Y-125558819D01*
X198811928Y-125558819D02*
X198621452Y-125558819D01*
X198621452Y-125558819D02*
X198526214Y-125606438D01*
X198526214Y-125606438D02*
X198430976Y-125701676D01*
X198430976Y-125701676D02*
X198383357Y-125892152D01*
X198383357Y-125892152D02*
X198383357Y-126225485D01*
X198383357Y-126225485D02*
X198430976Y-126415961D01*
X198430976Y-126415961D02*
X198526214Y-126511200D01*
X198526214Y-126511200D02*
X198621452Y-126558819D01*
X198621452Y-126558819D02*
X198811928Y-126558819D01*
X197430976Y-126558819D02*
X198002404Y-126558819D01*
X197716690Y-126558819D02*
X197716690Y-125558819D01*
X197716690Y-125558819D02*
X197811928Y-125701676D01*
X197811928Y-125701676D02*
X197907166Y-125796914D01*
X197907166Y-125796914D02*
X198002404Y-125844533D01*
X202045319Y-128337333D02*
X201569128Y-128004000D01*
X202045319Y-127765905D02*
X201045319Y-127765905D01*
X201045319Y-127765905D02*
X201045319Y-128146857D01*
X201045319Y-128146857D02*
X201092938Y-128242095D01*
X201092938Y-128242095D02*
X201140557Y-128289714D01*
X201140557Y-128289714D02*
X201235795Y-128337333D01*
X201235795Y-128337333D02*
X201378652Y-128337333D01*
X201378652Y-128337333D02*
X201473890Y-128289714D01*
X201473890Y-128289714D02*
X201521509Y-128242095D01*
X201521509Y-128242095D02*
X201569128Y-128146857D01*
X201569128Y-128146857D02*
X201569128Y-127765905D01*
X201045319Y-129242095D02*
X201045319Y-128765905D01*
X201045319Y-128765905D02*
X201521509Y-128718286D01*
X201521509Y-128718286D02*
X201473890Y-128765905D01*
X201473890Y-128765905D02*
X201426271Y-128861143D01*
X201426271Y-128861143D02*
X201426271Y-129099238D01*
X201426271Y-129099238D02*
X201473890Y-129194476D01*
X201473890Y-129194476D02*
X201521509Y-129242095D01*
X201521509Y-129242095D02*
X201616747Y-129289714D01*
X201616747Y-129289714D02*
X201854842Y-129289714D01*
X201854842Y-129289714D02*
X201950080Y-129242095D01*
X201950080Y-129242095D02*
X201997700Y-129194476D01*
X201997700Y-129194476D02*
X202045319Y-129099238D01*
X202045319Y-129099238D02*
X202045319Y-128861143D01*
X202045319Y-128861143D02*
X201997700Y-128765905D01*
X201997700Y-128765905D02*
X201950080Y-128718286D01*
X303820857Y-122608819D02*
X304154190Y-122132628D01*
X304392285Y-122608819D02*
X304392285Y-121608819D01*
X304392285Y-121608819D02*
X304011333Y-121608819D01*
X304011333Y-121608819D02*
X303916095Y-121656438D01*
X303916095Y-121656438D02*
X303868476Y-121704057D01*
X303868476Y-121704057D02*
X303820857Y-121799295D01*
X303820857Y-121799295D02*
X303820857Y-121942152D01*
X303820857Y-121942152D02*
X303868476Y-122037390D01*
X303868476Y-122037390D02*
X303916095Y-122085009D01*
X303916095Y-122085009D02*
X304011333Y-122132628D01*
X304011333Y-122132628D02*
X304392285Y-122132628D01*
X302868476Y-122608819D02*
X303439904Y-122608819D01*
X303154190Y-122608819D02*
X303154190Y-121608819D01*
X303154190Y-121608819D02*
X303249428Y-121751676D01*
X303249428Y-121751676D02*
X303344666Y-121846914D01*
X303344666Y-121846914D02*
X303439904Y-121894533D01*
X302487523Y-121704057D02*
X302439904Y-121656438D01*
X302439904Y-121656438D02*
X302344666Y-121608819D01*
X302344666Y-121608819D02*
X302106571Y-121608819D01*
X302106571Y-121608819D02*
X302011333Y-121656438D01*
X302011333Y-121656438D02*
X301963714Y-121704057D01*
X301963714Y-121704057D02*
X301916095Y-121799295D01*
X301916095Y-121799295D02*
X301916095Y-121894533D01*
X301916095Y-121894533D02*
X301963714Y-122037390D01*
X301963714Y-122037390D02*
X302535142Y-122608819D01*
X302535142Y-122608819D02*
X301916095Y-122608819D01*
X334732819Y-173792095D02*
X335542342Y-173792095D01*
X335542342Y-173792095D02*
X335637580Y-173839714D01*
X335637580Y-173839714D02*
X335685200Y-173887333D01*
X335685200Y-173887333D02*
X335732819Y-173982571D01*
X335732819Y-173982571D02*
X335732819Y-174173047D01*
X335732819Y-174173047D02*
X335685200Y-174268285D01*
X335685200Y-174268285D02*
X335637580Y-174315904D01*
X335637580Y-174315904D02*
X335542342Y-174363523D01*
X335542342Y-174363523D02*
X334732819Y-174363523D01*
X334732819Y-175315904D02*
X334732819Y-174839714D01*
X334732819Y-174839714D02*
X335209009Y-174792095D01*
X335209009Y-174792095D02*
X335161390Y-174839714D01*
X335161390Y-174839714D02*
X335113771Y-174934952D01*
X335113771Y-174934952D02*
X335113771Y-175173047D01*
X335113771Y-175173047D02*
X335161390Y-175268285D01*
X335161390Y-175268285D02*
X335209009Y-175315904D01*
X335209009Y-175315904D02*
X335304247Y-175363523D01*
X335304247Y-175363523D02*
X335542342Y-175363523D01*
X335542342Y-175363523D02*
X335637580Y-175315904D01*
X335637580Y-175315904D02*
X335685200Y-175268285D01*
X335685200Y-175268285D02*
X335732819Y-175173047D01*
X335732819Y-175173047D02*
X335732819Y-174934952D01*
X335732819Y-174934952D02*
X335685200Y-174839714D01*
X335685200Y-174839714D02*
X335637580Y-174792095D01*
X361511333Y-182308819D02*
X361511333Y-183023104D01*
X361511333Y-183023104D02*
X361558952Y-183165961D01*
X361558952Y-183165961D02*
X361654190Y-183261200D01*
X361654190Y-183261200D02*
X361797047Y-183308819D01*
X361797047Y-183308819D02*
X361892285Y-183308819D01*
X360558952Y-182308819D02*
X361035142Y-182308819D01*
X361035142Y-182308819D02*
X361082761Y-182785009D01*
X361082761Y-182785009D02*
X361035142Y-182737390D01*
X361035142Y-182737390D02*
X360939904Y-182689771D01*
X360939904Y-182689771D02*
X360701809Y-182689771D01*
X360701809Y-182689771D02*
X360606571Y-182737390D01*
X360606571Y-182737390D02*
X360558952Y-182785009D01*
X360558952Y-182785009D02*
X360511333Y-182880247D01*
X360511333Y-182880247D02*
X360511333Y-183118342D01*
X360511333Y-183118342D02*
X360558952Y-183213580D01*
X360558952Y-183213580D02*
X360606571Y-183261200D01*
X360606571Y-183261200D02*
X360701809Y-183308819D01*
X360701809Y-183308819D02*
X360939904Y-183308819D01*
X360939904Y-183308819D02*
X361035142Y-183261200D01*
X361035142Y-183261200D02*
X361082761Y-183213580D01*
X51982819Y-117792095D02*
X52792342Y-117792095D01*
X52792342Y-117792095D02*
X52887580Y-117839714D01*
X52887580Y-117839714D02*
X52935200Y-117887333D01*
X52935200Y-117887333D02*
X52982819Y-117982571D01*
X52982819Y-117982571D02*
X52982819Y-118173047D01*
X52982819Y-118173047D02*
X52935200Y-118268285D01*
X52935200Y-118268285D02*
X52887580Y-118315904D01*
X52887580Y-118315904D02*
X52792342Y-118363523D01*
X52792342Y-118363523D02*
X51982819Y-118363523D01*
X51982819Y-118744476D02*
X51982819Y-119411142D01*
X51982819Y-119411142D02*
X52982819Y-118982571D01*
X268335738Y-126654057D02*
X268430976Y-126606438D01*
X268430976Y-126606438D02*
X268526214Y-126511200D01*
X268526214Y-126511200D02*
X268669071Y-126368342D01*
X268669071Y-126368342D02*
X268764309Y-126320723D01*
X268764309Y-126320723D02*
X268859547Y-126320723D01*
X268811928Y-126558819D02*
X268907166Y-126511200D01*
X268907166Y-126511200D02*
X269002404Y-126415961D01*
X269002404Y-126415961D02*
X269050023Y-126225485D01*
X269050023Y-126225485D02*
X269050023Y-125892152D01*
X269050023Y-125892152D02*
X269002404Y-125701676D01*
X269002404Y-125701676D02*
X268907166Y-125606438D01*
X268907166Y-125606438D02*
X268811928Y-125558819D01*
X268811928Y-125558819D02*
X268621452Y-125558819D01*
X268621452Y-125558819D02*
X268526214Y-125606438D01*
X268526214Y-125606438D02*
X268430976Y-125701676D01*
X268430976Y-125701676D02*
X268383357Y-125892152D01*
X268383357Y-125892152D02*
X268383357Y-126225485D01*
X268383357Y-126225485D02*
X268430976Y-126415961D01*
X268430976Y-126415961D02*
X268526214Y-126511200D01*
X268526214Y-126511200D02*
X268621452Y-126558819D01*
X268621452Y-126558819D02*
X268811928Y-126558819D01*
X268050023Y-125558819D02*
X267430976Y-125558819D01*
X267430976Y-125558819D02*
X267764309Y-125939771D01*
X267764309Y-125939771D02*
X267621452Y-125939771D01*
X267621452Y-125939771D02*
X267526214Y-125987390D01*
X267526214Y-125987390D02*
X267478595Y-126035009D01*
X267478595Y-126035009D02*
X267430976Y-126130247D01*
X267430976Y-126130247D02*
X267430976Y-126368342D01*
X267430976Y-126368342D02*
X267478595Y-126463580D01*
X267478595Y-126463580D02*
X267526214Y-126511200D01*
X267526214Y-126511200D02*
X267621452Y-126558819D01*
X267621452Y-126558819D02*
X267907166Y-126558819D01*
X267907166Y-126558819D02*
X268002404Y-126511200D01*
X268002404Y-126511200D02*
X268050023Y-126463580D01*
D11*
%TO.C,R10*%
X268467564Y-124489000D02*
X268013436Y-124489000D01*
X268467564Y-123019000D02*
X268013436Y-123019000D01*
%TO.C,R7*%
X238975500Y-128376936D02*
X238975500Y-128831064D01*
X237505500Y-128376936D02*
X237505500Y-128831064D01*
%TO.C,U9*%
X68988000Y-129694000D02*
X68723000Y-129694000D01*
X53633000Y-129694000D02*
X53633000Y-127879000D01*
X53368000Y-129694000D02*
X53633000Y-129694000D01*
X68988000Y-133554000D02*
X68988000Y-129694000D01*
X68988000Y-133554000D02*
X68988000Y-137414000D01*
X53368000Y-133554000D02*
X53368000Y-129694000D01*
X53368000Y-133554000D02*
X53368000Y-137414000D01*
X68988000Y-137414000D02*
X68723000Y-137414000D01*
X53368000Y-137414000D02*
X53633000Y-137414000D01*
%TO.C,R11*%
X308913000Y-128326936D02*
X308913000Y-128781064D01*
X307443000Y-128326936D02*
X307443000Y-128781064D01*
%TO.C,U13*%
X59568000Y-144454000D02*
X59568000Y-142654000D01*
X62788000Y-142654000D02*
X62788000Y-145104000D01*
%TO.C,Q4*%
X303178000Y-130114000D02*
X303828000Y-130114000D01*
X303178000Y-130114000D02*
X302528000Y-130114000D01*
X303178000Y-126994000D02*
X304853000Y-126994000D01*
X303178000Y-126994000D02*
X302528000Y-126994000D01*
%TO.C,J4*%
X77678000Y-146154000D02*
X77678000Y-156954000D01*
X75938000Y-146154000D02*
X77678000Y-146154000D01*
X71878000Y-146154000D02*
X73218000Y-146154000D01*
X71878000Y-147644000D02*
X71878000Y-146154000D01*
X71878000Y-147644000D02*
X70678000Y-147644000D01*
X71878000Y-155464000D02*
X71878000Y-156954000D01*
X77678000Y-156954000D02*
X75938000Y-156954000D01*
X71878000Y-156954000D02*
X73218000Y-156954000D01*
%TO.C,R8*%
X233467564Y-124639000D02*
X233013436Y-124639000D01*
X233467564Y-123169000D02*
X233013436Y-123169000D01*
%TO.C,U8*%
X170613000Y-164079000D02*
X170613000Y-162129000D01*
X170613000Y-164079000D02*
X170613000Y-166029000D01*
X161743000Y-164079000D02*
X161743000Y-160629000D01*
X161743000Y-164079000D02*
X161743000Y-166029000D01*
%TO.C,J3*%
X163328000Y-191054000D02*
X155028000Y-191054000D01*
X163328000Y-189314000D02*
X163328000Y-191054000D01*
X163328000Y-185254000D02*
X163328000Y-186594000D01*
X161838000Y-185254000D02*
X163328000Y-185254000D01*
X161838000Y-185254000D02*
X161838000Y-184054000D01*
X156518000Y-185254000D02*
X155028000Y-185254000D01*
X155028000Y-191054000D02*
X155028000Y-189314000D01*
X155028000Y-185254000D02*
X155028000Y-186594000D01*
%TO.C,R9*%
X273975500Y-128276936D02*
X273975500Y-128731064D01*
X272505500Y-128276936D02*
X272505500Y-128731064D01*
%TO.C,Q2*%
X233240500Y-130164000D02*
X233890500Y-130164000D01*
X233240500Y-130164000D02*
X232590500Y-130164000D01*
X233240500Y-127044000D02*
X234915500Y-127044000D01*
X233240500Y-127044000D02*
X232590500Y-127044000D01*
%TO.C,R6*%
X198467564Y-124189000D02*
X198013436Y-124189000D01*
X198467564Y-122719000D02*
X198013436Y-122719000D01*
%TO.C,DS1*%
X304328000Y-191054000D02*
X292028000Y-191054000D01*
X304328000Y-189314000D02*
X304328000Y-191054000D01*
X304328000Y-185254000D02*
X304328000Y-186594000D01*
X302838000Y-185254000D02*
X304328000Y-185254000D01*
X302838000Y-185254000D02*
X302838000Y-184054000D01*
X293518000Y-185254000D02*
X292028000Y-185254000D01*
X292028000Y-191054000D02*
X292028000Y-189314000D01*
X292028000Y-185254000D02*
X292028000Y-186594000D01*
%TO.C,J2*%
X77678000Y-102654000D02*
X77678000Y-113454000D01*
X75938000Y-102654000D02*
X77678000Y-102654000D01*
X71878000Y-102654000D02*
X73218000Y-102654000D01*
X71878000Y-104144000D02*
X71878000Y-102654000D01*
X71878000Y-104144000D02*
X70678000Y-104144000D01*
X71878000Y-111964000D02*
X71878000Y-113454000D01*
X77678000Y-113454000D02*
X75938000Y-113454000D01*
X71878000Y-113454000D02*
X73218000Y-113454000D01*
%TO.C,U10*%
X170613000Y-174554000D02*
X170613000Y-172604000D01*
X170613000Y-174554000D02*
X170613000Y-176504000D01*
X161743000Y-174554000D02*
X161743000Y-171104000D01*
X161743000Y-174554000D02*
X161743000Y-176504000D01*
%TO.C,J6*%
X69328000Y-191054000D02*
X63028000Y-191054000D01*
X69328000Y-189314000D02*
X69328000Y-191054000D01*
X69328000Y-185254000D02*
X69328000Y-186594000D01*
X67838000Y-185254000D02*
X69328000Y-185254000D01*
X67838000Y-185254000D02*
X67838000Y-184054000D01*
X64518000Y-185254000D02*
X63028000Y-185254000D01*
X63028000Y-191054000D02*
X63028000Y-189314000D01*
X63028000Y-185254000D02*
X63028000Y-186594000D01*
%TO.C,Q1*%
X198240500Y-130064000D02*
X198890500Y-130064000D01*
X198240500Y-130064000D02*
X197590500Y-130064000D01*
X198240500Y-126944000D02*
X199915500Y-126944000D01*
X198240500Y-126944000D02*
X197590500Y-126944000D01*
%TO.C,R5*%
X203975500Y-128276936D02*
X203975500Y-128731064D01*
X202505500Y-128276936D02*
X202505500Y-128731064D01*
%TO.C,R12*%
X303405064Y-124539000D02*
X302950936Y-124539000D01*
X303405064Y-123069000D02*
X302950936Y-123069000D01*
%TO.C,U5*%
X346238000Y-174554000D02*
X346238000Y-172604000D01*
X346238000Y-174554000D02*
X346238000Y-176504000D01*
X336118000Y-174554000D02*
X336118000Y-171104000D01*
X336118000Y-174554000D02*
X336118000Y-176504000D01*
%TO.C,J5*%
X364328000Y-191054000D02*
X358028000Y-191054000D01*
X364328000Y-189314000D02*
X364328000Y-191054000D01*
X364328000Y-185254000D02*
X364328000Y-186594000D01*
X362838000Y-185254000D02*
X364328000Y-185254000D01*
X362838000Y-185254000D02*
X362838000Y-184054000D01*
X359518000Y-185254000D02*
X358028000Y-185254000D01*
X358028000Y-191054000D02*
X358028000Y-189314000D01*
X358028000Y-185254000D02*
X358028000Y-186594000D01*
%TO.C,U7*%
X68988000Y-114694000D02*
X68723000Y-114694000D01*
X53633000Y-114694000D02*
X53633000Y-112879000D01*
X53368000Y-114694000D02*
X53633000Y-114694000D01*
X68988000Y-118554000D02*
X68988000Y-114694000D01*
X68988000Y-118554000D02*
X68988000Y-122414000D01*
X53368000Y-118554000D02*
X53368000Y-114694000D01*
X53368000Y-118554000D02*
X53368000Y-122414000D01*
X68988000Y-122414000D02*
X68723000Y-122414000D01*
X53368000Y-122414000D02*
X53633000Y-122414000D01*
%TO.C,Q3*%
X268240500Y-130064000D02*
X268890500Y-130064000D01*
X268240500Y-130064000D02*
X267590500Y-130064000D01*
X268240500Y-126944000D02*
X269915500Y-126944000D01*
X268240500Y-126944000D02*
X267590500Y-126944000D01*
%TD*%
M02*
