%TF.GenerationSoftware,KiCad,Pcbnew,7.0.7*%
%TF.CreationDate,2024-03-28T21:52:13-04:00*%
%TF.ProjectId,midi-controller_control-faceplate_teensy,6d696469-2d63-46f6-9e74-726f6c6c6572,rev?*%
%TF.SameCoordinates,Original*%
%TF.FileFunction,Legend,Top*%
%TF.FilePolarity,Positive*%
%FSLAX46Y46*%
G04 Gerber Fmt 4.6, Leading zero omitted, Abs format (unit mm)*
G04 Created by KiCad (PCBNEW 7.0.7) date 2024-03-28 21:52:13*
%MOMM*%
%LPD*%
G01*
G04 APERTURE LIST*
%ADD10C,0.150000*%
%ADD11C,0.203200*%
G04 APERTURE END LIST*
D10*
G36*
X154052323Y-127737416D02*
G01*
X154001241Y-127738198D01*
X153952100Y-127740510D01*
X153904847Y-127744304D01*
X153859433Y-127749529D01*
X153815804Y-127756137D01*
X153773909Y-127764078D01*
X153733698Y-127773303D01*
X153695118Y-127783762D01*
X153658118Y-127795405D01*
X153622647Y-127808185D01*
X153588652Y-127822051D01*
X153556083Y-127836953D01*
X153524888Y-127852843D01*
X153495015Y-127869671D01*
X153466412Y-127887388D01*
X153439030Y-127905944D01*
X153606824Y-127033997D01*
X154791646Y-127033997D01*
X154823874Y-127029880D01*
X154853221Y-127018232D01*
X154878630Y-127000112D01*
X154899044Y-126976574D01*
X154913408Y-126948675D01*
X154920664Y-126917473D01*
X154921339Y-126904304D01*
X154917222Y-126871784D01*
X154905575Y-126842235D01*
X154887454Y-126816698D01*
X154863916Y-126796212D01*
X154836018Y-126781818D01*
X154804816Y-126774554D01*
X154791646Y-126773878D01*
X153514501Y-126773878D01*
X153483011Y-126777660D01*
X153455399Y-126788033D01*
X153427855Y-126807126D01*
X153406958Y-126831088D01*
X153393285Y-126857397D01*
X153388471Y-126874995D01*
X153145205Y-128119168D01*
X153138569Y-128149138D01*
X153136413Y-128173390D01*
X153140533Y-128205570D01*
X153152200Y-128234794D01*
X153170374Y-128260041D01*
X153194015Y-128280287D01*
X153222084Y-128294508D01*
X153253540Y-128301683D01*
X153266838Y-128302350D01*
X153296889Y-128299544D01*
X153325487Y-128290314D01*
X153351624Y-128274334D01*
X153375553Y-128252963D01*
X153380411Y-128248128D01*
X153415665Y-128215085D01*
X153450936Y-128184610D01*
X153486414Y-128156642D01*
X153522286Y-128131121D01*
X153558742Y-128107987D01*
X153595971Y-128087180D01*
X153634161Y-128068640D01*
X153673503Y-128052307D01*
X153714183Y-128038120D01*
X153756393Y-128026020D01*
X153800319Y-128015946D01*
X153846152Y-128007839D01*
X153894080Y-128001638D01*
X153944292Y-127997283D01*
X153996977Y-127994714D01*
X154052323Y-127993871D01*
X154090166Y-127994498D01*
X154127286Y-127996385D01*
X154163652Y-127999544D01*
X154199233Y-128003987D01*
X154233996Y-128009723D01*
X154267912Y-128016766D01*
X154300948Y-128025125D01*
X154333073Y-128034813D01*
X154364255Y-128045840D01*
X154394464Y-128058218D01*
X154423668Y-128071958D01*
X154451835Y-128087071D01*
X154478934Y-128103569D01*
X154504934Y-128121463D01*
X154529803Y-128140764D01*
X154553510Y-128161483D01*
X154576023Y-128183632D01*
X154597311Y-128207222D01*
X154617343Y-128232264D01*
X154636088Y-128258770D01*
X154653513Y-128286750D01*
X154669587Y-128316217D01*
X154684280Y-128347181D01*
X154697559Y-128379653D01*
X154709394Y-128413645D01*
X154719753Y-128449168D01*
X154728604Y-128486234D01*
X154735916Y-128524853D01*
X154741658Y-128565038D01*
X154745798Y-128606798D01*
X154748305Y-128650146D01*
X154749148Y-128695093D01*
X154748305Y-128741146D01*
X154745798Y-128785481D01*
X154741658Y-128828115D01*
X154735916Y-128869066D01*
X154728604Y-128908348D01*
X154719753Y-128945980D01*
X154709394Y-128981979D01*
X154697559Y-129016360D01*
X154684280Y-129049141D01*
X154669587Y-129080338D01*
X154653513Y-129109968D01*
X154636088Y-129138049D01*
X154617343Y-129164596D01*
X154597311Y-129189626D01*
X154576023Y-129213157D01*
X154553510Y-129235205D01*
X154529803Y-129255787D01*
X154504934Y-129274919D01*
X154478934Y-129292619D01*
X154451835Y-129308903D01*
X154423668Y-129323788D01*
X154394464Y-129337290D01*
X154364255Y-129349427D01*
X154333073Y-129360216D01*
X154300948Y-129369672D01*
X154267912Y-129377813D01*
X154233996Y-129384655D01*
X154199233Y-129390216D01*
X154163652Y-129394512D01*
X154127286Y-129397559D01*
X154090166Y-129399376D01*
X154052323Y-129399977D01*
X154020028Y-129399609D01*
X153988524Y-129398497D01*
X153957791Y-129396633D01*
X153927811Y-129394007D01*
X153898563Y-129390610D01*
X153842182Y-129381469D01*
X153788492Y-129369136D01*
X153737332Y-129353537D01*
X153688545Y-129334600D01*
X153641971Y-129312253D01*
X153597451Y-129286421D01*
X153554826Y-129257032D01*
X153513939Y-129224013D01*
X153474629Y-129187292D01*
X153436738Y-129146794D01*
X153400107Y-129102447D01*
X153382214Y-129078808D01*
X153364577Y-129054179D01*
X153347176Y-129028551D01*
X153329990Y-129001915D01*
X153313000Y-128974262D01*
X153294900Y-128947400D01*
X153272707Y-128924752D01*
X153246530Y-128909057D01*
X153216801Y-128901435D01*
X153195031Y-128900257D01*
X153162803Y-128904377D01*
X153133456Y-128916044D01*
X153108048Y-128934218D01*
X153087633Y-128957859D01*
X153073270Y-128985928D01*
X153066014Y-129017384D01*
X153065338Y-129030682D01*
X153069319Y-129060863D01*
X153079828Y-129088948D01*
X153082191Y-129093697D01*
X153098811Y-129126717D01*
X153116382Y-129158863D01*
X153134898Y-129190123D01*
X153154350Y-129220486D01*
X153174733Y-129249941D01*
X153196040Y-129278475D01*
X153218264Y-129306078D01*
X153241399Y-129332738D01*
X153265437Y-129358444D01*
X153290373Y-129383185D01*
X153316198Y-129406948D01*
X153342908Y-129429723D01*
X153370494Y-129451498D01*
X153398950Y-129472262D01*
X153428270Y-129492004D01*
X153458447Y-129510711D01*
X153489474Y-129528373D01*
X153521344Y-129544978D01*
X153554051Y-129560515D01*
X153587587Y-129574972D01*
X153621947Y-129588338D01*
X153657124Y-129600602D01*
X153693110Y-129611752D01*
X153729900Y-129621777D01*
X153767486Y-129630665D01*
X153805861Y-129638405D01*
X153845020Y-129644985D01*
X153884955Y-129650395D01*
X153925659Y-129654622D01*
X153967127Y-129657656D01*
X154009350Y-129659484D01*
X154052323Y-129660096D01*
X154105726Y-129659220D01*
X154158056Y-129656583D01*
X154209275Y-129652173D01*
X154259341Y-129645974D01*
X154308212Y-129637974D01*
X154355848Y-129628160D01*
X154402209Y-129616518D01*
X154447253Y-129603035D01*
X154490938Y-129587697D01*
X154533226Y-129570491D01*
X154574073Y-129551403D01*
X154613440Y-129530420D01*
X154651286Y-129507529D01*
X154687569Y-129482716D01*
X154722249Y-129455968D01*
X154755285Y-129427272D01*
X154786635Y-129396613D01*
X154816260Y-129363979D01*
X154844117Y-129329356D01*
X154870167Y-129292730D01*
X154894368Y-129254089D01*
X154916679Y-129213419D01*
X154937060Y-129170706D01*
X154955468Y-129125937D01*
X154971865Y-129079099D01*
X154986208Y-129030178D01*
X154998456Y-128979161D01*
X155008570Y-128926034D01*
X155016507Y-128870784D01*
X155022227Y-128813398D01*
X155025689Y-128753861D01*
X155026852Y-128692162D01*
X155025689Y-128631660D01*
X155022227Y-128573248D01*
X155016507Y-128516912D01*
X155008570Y-128462643D01*
X154998456Y-128410430D01*
X154986208Y-128360260D01*
X154971865Y-128312125D01*
X154955468Y-128266011D01*
X154937060Y-128221910D01*
X154916679Y-128179808D01*
X154894368Y-128139696D01*
X154870167Y-128101562D01*
X154844117Y-128065396D01*
X154816260Y-128031187D01*
X154786635Y-127998922D01*
X154755285Y-127968592D01*
X154722249Y-127940186D01*
X154687569Y-127913692D01*
X154651286Y-127889099D01*
X154613440Y-127866397D01*
X154574073Y-127845574D01*
X154533226Y-127826619D01*
X154490938Y-127809522D01*
X154447253Y-127794272D01*
X154402209Y-127780856D01*
X154355848Y-127769265D01*
X154308212Y-127759488D01*
X154259341Y-127751513D01*
X154209275Y-127745329D01*
X154158056Y-127740926D01*
X154105726Y-127738292D01*
X154052323Y-127737416D01*
G37*
G36*
X154018618Y-106848100D02*
G01*
X154804103Y-105966628D01*
X154821461Y-105941898D01*
X154832964Y-105914421D01*
X154837703Y-105884196D01*
X154837808Y-105878700D01*
X154833931Y-105846468D01*
X154822893Y-105817651D01*
X154805583Y-105793087D01*
X154782889Y-105773614D01*
X154755701Y-105760071D01*
X154724907Y-105753298D01*
X154711779Y-105752671D01*
X153342309Y-105752671D01*
X153310077Y-105756503D01*
X153281260Y-105767438D01*
X153256696Y-105784640D01*
X153237223Y-105807268D01*
X153223680Y-105834485D01*
X153216906Y-105865452D01*
X153216280Y-105878700D01*
X153220112Y-105910640D01*
X153231047Y-105939255D01*
X153248249Y-105963691D01*
X153270877Y-105983093D01*
X153298094Y-105996604D01*
X153329060Y-106003371D01*
X153342309Y-106003997D01*
X154426015Y-106003997D01*
X153652986Y-106886202D01*
X153635753Y-106910108D01*
X153623548Y-106939302D01*
X153619317Y-106970660D01*
X153619281Y-106974130D01*
X153623158Y-107006362D01*
X153634196Y-107035179D01*
X153651506Y-107059743D01*
X153674200Y-107079216D01*
X153701388Y-107092759D01*
X153732182Y-107099532D01*
X153745310Y-107100159D01*
X154039867Y-107100159D01*
X154083782Y-107100961D01*
X154125835Y-107103347D01*
X154166055Y-107107286D01*
X154204475Y-107112748D01*
X154241124Y-107119703D01*
X154276033Y-107128120D01*
X154309233Y-107137968D01*
X154340755Y-107149217D01*
X154370629Y-107161837D01*
X154398887Y-107175798D01*
X154425558Y-107191068D01*
X154450674Y-107207617D01*
X154474266Y-107225415D01*
X154516997Y-107264635D01*
X154553999Y-107308486D01*
X154585516Y-107356723D01*
X154611795Y-107409102D01*
X154623047Y-107436769D01*
X154633082Y-107465380D01*
X154641929Y-107494905D01*
X154649621Y-107525313D01*
X154656188Y-107556575D01*
X154661660Y-107588658D01*
X154666068Y-107621534D01*
X154669443Y-107655171D01*
X154671816Y-107689539D01*
X154673217Y-107724608D01*
X154673677Y-107760347D01*
X154673013Y-107796740D01*
X154671020Y-107832135D01*
X154667696Y-107866522D01*
X154663037Y-107899891D01*
X154657041Y-107932230D01*
X154649706Y-107963531D01*
X154641029Y-107993782D01*
X154631007Y-108022973D01*
X154619638Y-108051094D01*
X154606920Y-108078135D01*
X154592850Y-108104085D01*
X154560643Y-108152672D01*
X154522996Y-108196771D01*
X154479890Y-108236300D01*
X154456284Y-108254326D01*
X154431305Y-108271178D01*
X154404950Y-108286846D01*
X154377218Y-108301320D01*
X154348106Y-108314589D01*
X154317612Y-108326644D01*
X154285732Y-108337474D01*
X154252464Y-108347069D01*
X154217806Y-108355417D01*
X154181755Y-108362510D01*
X154144308Y-108368336D01*
X154105463Y-108372885D01*
X154065218Y-108376148D01*
X154023570Y-108378113D01*
X153980516Y-108378770D01*
X153949010Y-108378362D01*
X153918235Y-108377146D01*
X153888183Y-108375133D01*
X153858846Y-108372335D01*
X153802286Y-108364430D01*
X153748493Y-108353525D01*
X153697405Y-108339714D01*
X153648959Y-108323090D01*
X153603094Y-108303746D01*
X153559747Y-108281775D01*
X153518855Y-108257272D01*
X153480357Y-108230328D01*
X153444190Y-108201039D01*
X153410293Y-108169496D01*
X153378602Y-108135794D01*
X153349056Y-108100026D01*
X153321592Y-108062285D01*
X153296147Y-108022664D01*
X153276415Y-107997667D01*
X153251864Y-107977348D01*
X153222690Y-107963871D01*
X153193378Y-107958552D01*
X153182575Y-107958184D01*
X153150587Y-107962061D01*
X153121850Y-107973099D01*
X153097252Y-107990409D01*
X153077681Y-108013103D01*
X153064028Y-108040291D01*
X153057180Y-108071085D01*
X153056545Y-108084213D01*
X153059984Y-108114211D01*
X153070199Y-108141992D01*
X153077794Y-108156021D01*
X153093485Y-108181362D01*
X153109925Y-108206264D01*
X153127119Y-108230701D01*
X153145074Y-108254650D01*
X153163795Y-108278087D01*
X153183288Y-108300988D01*
X153203559Y-108323330D01*
X153224615Y-108345088D01*
X153246460Y-108366238D01*
X153269102Y-108386757D01*
X153292545Y-108406621D01*
X153316796Y-108425805D01*
X153341860Y-108444287D01*
X153367744Y-108462041D01*
X153394453Y-108479045D01*
X153421994Y-108495274D01*
X153450371Y-108510705D01*
X153479592Y-108525313D01*
X153509662Y-108539075D01*
X153540587Y-108551966D01*
X153572372Y-108563964D01*
X153605025Y-108575043D01*
X153638550Y-108585181D01*
X153672953Y-108594353D01*
X153708241Y-108602535D01*
X153744419Y-108609704D01*
X153781494Y-108615835D01*
X153819470Y-108620906D01*
X153858355Y-108624891D01*
X153898153Y-108627767D01*
X153938872Y-108629510D01*
X153980516Y-108630096D01*
X154039514Y-108629178D01*
X154096705Y-108626431D01*
X154152084Y-108621871D01*
X154205647Y-108615510D01*
X154257389Y-108607364D01*
X154307307Y-108597445D01*
X154355396Y-108585769D01*
X154401652Y-108572348D01*
X154446070Y-108557197D01*
X154488646Y-108540330D01*
X154529376Y-108521760D01*
X154568256Y-108501502D01*
X154605281Y-108479570D01*
X154640447Y-108455977D01*
X154673749Y-108430738D01*
X154705184Y-108403866D01*
X154734748Y-108375376D01*
X154762435Y-108345281D01*
X154788241Y-108313595D01*
X154812163Y-108280333D01*
X154834195Y-108245508D01*
X154854335Y-108209134D01*
X154872576Y-108171225D01*
X154888916Y-108131795D01*
X154903350Y-108090858D01*
X154915873Y-108048428D01*
X154926481Y-108004520D01*
X154935170Y-107959146D01*
X154941935Y-107912321D01*
X154946773Y-107864058D01*
X154949679Y-107814373D01*
X154950648Y-107763278D01*
X154950039Y-107718814D01*
X154948177Y-107674634D01*
X154945012Y-107630812D01*
X154940495Y-107587422D01*
X154934574Y-107544538D01*
X154927199Y-107502235D01*
X154918320Y-107460585D01*
X154907887Y-107419663D01*
X154895849Y-107379543D01*
X154882156Y-107340298D01*
X154866758Y-107302004D01*
X154849605Y-107264732D01*
X154830646Y-107228559D01*
X154809830Y-107193556D01*
X154787108Y-107159799D01*
X154762429Y-107127361D01*
X154735743Y-107096317D01*
X154706999Y-107066739D01*
X154676148Y-107038703D01*
X154643139Y-107012282D01*
X154607921Y-106987549D01*
X154570444Y-106964579D01*
X154530659Y-106943446D01*
X154488514Y-106924224D01*
X154443960Y-106906986D01*
X154396946Y-106891807D01*
X154347421Y-106878760D01*
X154295336Y-106867920D01*
X154240640Y-106859360D01*
X154183283Y-106853154D01*
X154123214Y-106849376D01*
X154060383Y-106848100D01*
X154018618Y-106848100D01*
G37*
G36*
X146781367Y-99822350D02*
G01*
X146773893Y-99851618D01*
X146772575Y-99868512D01*
X146776695Y-99900740D01*
X146788361Y-99930086D01*
X146806535Y-99955495D01*
X146830177Y-99975910D01*
X146858245Y-99990273D01*
X146889702Y-99997529D01*
X146903000Y-99998205D01*
X146932225Y-99995143D01*
X146962886Y-99983988D01*
X146989497Y-99964932D01*
X147008804Y-99942517D01*
X147024633Y-99914674D01*
X147043439Y-99875915D01*
X147063725Y-99838094D01*
X147085704Y-99801425D01*
X147109584Y-99766125D01*
X147135576Y-99732409D01*
X147163892Y-99700493D01*
X147194740Y-99670592D01*
X147228332Y-99642923D01*
X147264877Y-99617702D01*
X147304587Y-99595143D01*
X147347671Y-99575463D01*
X147394340Y-99558877D01*
X147444805Y-99545601D01*
X147499275Y-99535852D01*
X147557961Y-99529844D01*
X147588951Y-99528310D01*
X147621074Y-99527793D01*
X147657981Y-99528509D01*
X147693820Y-99530638D01*
X147728585Y-99534148D01*
X147762269Y-99539009D01*
X147794865Y-99545191D01*
X147826367Y-99552663D01*
X147856767Y-99561395D01*
X147886059Y-99571356D01*
X147914235Y-99582517D01*
X147941290Y-99594845D01*
X147992005Y-99622886D01*
X148038150Y-99655236D01*
X148079671Y-99691650D01*
X148116511Y-99731885D01*
X148148617Y-99775697D01*
X148175934Y-99822844D01*
X148198407Y-99873080D01*
X148215981Y-99926163D01*
X148228602Y-99981849D01*
X148236215Y-100039894D01*
X148238126Y-100069725D01*
X148238764Y-100100054D01*
X148234281Y-100183986D01*
X148221212Y-100263423D01*
X148200130Y-100338668D01*
X148171608Y-100410023D01*
X148136217Y-100477789D01*
X148094531Y-100542268D01*
X148047121Y-100603762D01*
X147994560Y-100662572D01*
X147937420Y-100719001D01*
X147876273Y-100773350D01*
X147811692Y-100825920D01*
X147744250Y-100877014D01*
X147674518Y-100926933D01*
X147603069Y-100975980D01*
X147530475Y-101024454D01*
X147457309Y-101072660D01*
X147384143Y-101120897D01*
X147311550Y-101169469D01*
X147240101Y-101218676D01*
X147170369Y-101268821D01*
X147102926Y-101320204D01*
X147038346Y-101373129D01*
X146977199Y-101427896D01*
X146920059Y-101484808D01*
X146867498Y-101544166D01*
X146820088Y-101606272D01*
X146778401Y-101671427D01*
X146743011Y-101739934D01*
X146714488Y-101812093D01*
X146693407Y-101888208D01*
X146680338Y-101968579D01*
X146675854Y-102053509D01*
X146680020Y-102085736D01*
X146691789Y-102115083D01*
X146710072Y-102140492D01*
X146733779Y-102160906D01*
X146761819Y-102175270D01*
X146793103Y-102182526D01*
X146806280Y-102183202D01*
X148427808Y-102183202D01*
X148460036Y-102179084D01*
X148489383Y-102167437D01*
X148514792Y-102149316D01*
X148535206Y-102125778D01*
X148549570Y-102097880D01*
X148556826Y-102066678D01*
X148557501Y-102053509D01*
X148553384Y-102020988D01*
X148541737Y-101991439D01*
X148523616Y-101965902D01*
X148500078Y-101945417D01*
X148472180Y-101931022D01*
X148440978Y-101923759D01*
X148427808Y-101923083D01*
X146961618Y-101923083D01*
X146966089Y-101876002D01*
X146979121Y-101829990D01*
X147000144Y-101784878D01*
X147028586Y-101740495D01*
X147063877Y-101696669D01*
X147105446Y-101653229D01*
X147152723Y-101610006D01*
X147205136Y-101566828D01*
X147262116Y-101523524D01*
X147323090Y-101479924D01*
X147387489Y-101435857D01*
X147454742Y-101391152D01*
X147524278Y-101345638D01*
X147595526Y-101299145D01*
X147667915Y-101251501D01*
X147740875Y-101202536D01*
X147813835Y-101152079D01*
X147886225Y-101099959D01*
X147957473Y-101046006D01*
X148027009Y-100990049D01*
X148094261Y-100931916D01*
X148158660Y-100871438D01*
X148219635Y-100808443D01*
X148276614Y-100742760D01*
X148329028Y-100674219D01*
X148376304Y-100602649D01*
X148417874Y-100527879D01*
X148453165Y-100449739D01*
X148481607Y-100368057D01*
X148502629Y-100282663D01*
X148515661Y-100193385D01*
X148520132Y-100100054D01*
X148519150Y-100054110D01*
X148516218Y-100009170D01*
X148511355Y-99965264D01*
X148504582Y-99922422D01*
X148495918Y-99880674D01*
X148485385Y-99840049D01*
X148473002Y-99800578D01*
X148458789Y-99762289D01*
X148442766Y-99725214D01*
X148424954Y-99689381D01*
X148405373Y-99654821D01*
X148384042Y-99621562D01*
X148360982Y-99589636D01*
X148336213Y-99559072D01*
X148309756Y-99529899D01*
X148281629Y-99502148D01*
X148251854Y-99475847D01*
X148220450Y-99451028D01*
X148187438Y-99427720D01*
X148152838Y-99405951D01*
X148116669Y-99385754D01*
X148078953Y-99367156D01*
X148039708Y-99350188D01*
X147998956Y-99334880D01*
X147956716Y-99321261D01*
X147913009Y-99309361D01*
X147867854Y-99299210D01*
X147821272Y-99290839D01*
X147773283Y-99284275D01*
X147723907Y-99279550D01*
X147673164Y-99276694D01*
X147621074Y-99275735D01*
X147580950Y-99276336D01*
X147541641Y-99278131D01*
X147503155Y-99281107D01*
X147465501Y-99285252D01*
X147428686Y-99290552D01*
X147392718Y-99296996D01*
X147357606Y-99304571D01*
X147323357Y-99313264D01*
X147289980Y-99323063D01*
X147257483Y-99333954D01*
X147225873Y-99345926D01*
X147195159Y-99358965D01*
X147165348Y-99373060D01*
X147136449Y-99388197D01*
X147108471Y-99404364D01*
X147081420Y-99421548D01*
X147055305Y-99439736D01*
X147030134Y-99458917D01*
X147005915Y-99479077D01*
X146982656Y-99500204D01*
X146960365Y-99522286D01*
X146939051Y-99545308D01*
X146918720Y-99569260D01*
X146899382Y-99594128D01*
X146881045Y-99619900D01*
X146863716Y-99646563D01*
X146847403Y-99674104D01*
X146832114Y-99702512D01*
X146817859Y-99731773D01*
X146804644Y-99761874D01*
X146792477Y-99792803D01*
X146781367Y-99824548D01*
X146781367Y-99822350D01*
G37*
G36*
X120459958Y-106131708D02*
G01*
X120459958Y-108510878D01*
X120464381Y-108545442D01*
X120476877Y-108576934D01*
X120496289Y-108604213D01*
X120521460Y-108626139D01*
X120551233Y-108641572D01*
X120584451Y-108649370D01*
X120598444Y-108650096D01*
X120633008Y-108645671D01*
X120664500Y-108633155D01*
X120691780Y-108613690D01*
X120713706Y-108588415D01*
X120729138Y-108558472D01*
X120736936Y-108524999D01*
X120737662Y-108510878D01*
X120737662Y-105882580D01*
X120733237Y-105847968D01*
X120720722Y-105816354D01*
X120701256Y-105788913D01*
X120675982Y-105766818D01*
X120646038Y-105751244D01*
X120612565Y-105743364D01*
X120598444Y-105742629D01*
X120566862Y-105746532D01*
X120538795Y-105757617D01*
X120514913Y-105772671D01*
X119855457Y-106232825D01*
X119833008Y-106252045D01*
X119815792Y-106275875D01*
X119802760Y-106306567D01*
X119797079Y-106338513D01*
X119796839Y-106346398D01*
X119801245Y-106379206D01*
X119813623Y-106409486D01*
X119832717Y-106435996D01*
X119857268Y-106457495D01*
X119886018Y-106472741D01*
X119917710Y-106480494D01*
X119930928Y-106481220D01*
X119962510Y-106477781D01*
X119991928Y-106467309D01*
X120010796Y-106456307D01*
X120459958Y-106131708D01*
G37*
G36*
X121934208Y-106131708D02*
G01*
X121934208Y-108510878D01*
X121938631Y-108545442D01*
X121951127Y-108576934D01*
X121970539Y-108604213D01*
X121995710Y-108626139D01*
X122025483Y-108641572D01*
X122058701Y-108649370D01*
X122072694Y-108650096D01*
X122107258Y-108645671D01*
X122138750Y-108633155D01*
X122166029Y-108613690D01*
X122187955Y-108588415D01*
X122203388Y-108558472D01*
X122211186Y-108524999D01*
X122211912Y-108510878D01*
X122211912Y-105882580D01*
X122207487Y-105847968D01*
X122194971Y-105816354D01*
X122175506Y-105788913D01*
X122150231Y-105766818D01*
X122120288Y-105751244D01*
X122086815Y-105743364D01*
X122072694Y-105742629D01*
X122041112Y-105746532D01*
X122013045Y-105757617D01*
X121989163Y-105772671D01*
X121329707Y-106232825D01*
X121307258Y-106252045D01*
X121290042Y-106275875D01*
X121277010Y-106306567D01*
X121271328Y-106338513D01*
X121271089Y-106346398D01*
X121275494Y-106379206D01*
X121287873Y-106409486D01*
X121306967Y-106435996D01*
X121331517Y-106457495D01*
X121360268Y-106472741D01*
X121391959Y-106480494D01*
X121405178Y-106481220D01*
X121436760Y-106477781D01*
X121466178Y-106467309D01*
X121485046Y-106456307D01*
X121934208Y-106131708D01*
G37*
G36*
X147786022Y-133096089D02*
G01*
X147816356Y-133097136D01*
X147846153Y-133098849D01*
X147904101Y-133104180D01*
X147959785Y-133111882D01*
X148013122Y-133121757D01*
X148064031Y-133133606D01*
X148112430Y-133147231D01*
X148158239Y-133162434D01*
X148201375Y-133179015D01*
X148241757Y-133196776D01*
X148279303Y-133215519D01*
X148313932Y-133235045D01*
X148345561Y-133255155D01*
X148374111Y-133275651D01*
X148399498Y-133296335D01*
X148431472Y-133327277D01*
X148441923Y-133338497D01*
X148459722Y-133365144D01*
X148470164Y-133393095D01*
X148473970Y-133424730D01*
X148473286Y-133438165D01*
X148465949Y-133469958D01*
X148451443Y-133498339D01*
X148430860Y-133522252D01*
X148405289Y-133540642D01*
X148375820Y-133552450D01*
X148343545Y-133556621D01*
X148340809Y-133556597D01*
X148311731Y-133552718D01*
X148282263Y-133540593D01*
X148255617Y-133522915D01*
X148230001Y-133504044D01*
X148203699Y-133485938D01*
X148176698Y-133468662D01*
X148148982Y-133452276D01*
X148120536Y-133436843D01*
X148091346Y-133422426D01*
X148061395Y-133409086D01*
X148030669Y-133396886D01*
X147999154Y-133385888D01*
X147966833Y-133376155D01*
X147933693Y-133367748D01*
X147899717Y-133360731D01*
X147864891Y-133355164D01*
X147829201Y-133351111D01*
X147792630Y-133348633D01*
X147755163Y-133347793D01*
X147700846Y-133349319D01*
X147648875Y-133353849D01*
X147599209Y-133361315D01*
X147551808Y-133371648D01*
X147506631Y-133384779D01*
X147463638Y-133400638D01*
X147422786Y-133419157D01*
X147384036Y-133440266D01*
X147347347Y-133463896D01*
X147312678Y-133489979D01*
X147279989Y-133518444D01*
X147249237Y-133549223D01*
X147220384Y-133582248D01*
X147193387Y-133617448D01*
X147168206Y-133654755D01*
X147144801Y-133694099D01*
X147123130Y-133735412D01*
X147103152Y-133778624D01*
X147084828Y-133823667D01*
X147068116Y-133870471D01*
X147052975Y-133918966D01*
X147039365Y-133969085D01*
X147027245Y-134020758D01*
X147016573Y-134073916D01*
X147007310Y-134128489D01*
X146999414Y-134184409D01*
X146992845Y-134241607D01*
X146987562Y-134300013D01*
X146983523Y-134359558D01*
X146980689Y-134420174D01*
X146979019Y-134481790D01*
X146978471Y-134544339D01*
X146989547Y-134528515D01*
X147014247Y-134496434D01*
X147042302Y-134464066D01*
X147073657Y-134431757D01*
X147108259Y-134399855D01*
X147146054Y-134368706D01*
X147186989Y-134338656D01*
X147231010Y-134310053D01*
X147278062Y-134283243D01*
X147328094Y-134258572D01*
X147381050Y-134236388D01*
X147408608Y-134226336D01*
X147436877Y-134217037D01*
X147465850Y-134208532D01*
X147495521Y-134200865D01*
X147525884Y-134194080D01*
X147556930Y-134188220D01*
X147588654Y-134183328D01*
X147621049Y-134179448D01*
X147654107Y-134176623D01*
X147687824Y-134174896D01*
X147722191Y-134174311D01*
X147773340Y-134175175D01*
X147823580Y-134177775D01*
X147872863Y-134182118D01*
X147921142Y-134188213D01*
X147968372Y-134196070D01*
X148014504Y-134205696D01*
X148059492Y-134217102D01*
X148103290Y-134230296D01*
X148145850Y-134245287D01*
X148187125Y-134262083D01*
X148227070Y-134280694D01*
X148265636Y-134301127D01*
X148302778Y-134323394D01*
X148338448Y-134347501D01*
X148372599Y-134373458D01*
X148405185Y-134401274D01*
X148436159Y-134430957D01*
X148465474Y-134462517D01*
X148493083Y-134495962D01*
X148518940Y-134531302D01*
X148542997Y-134568544D01*
X148565208Y-134607698D01*
X148585526Y-134648773D01*
X148603904Y-134691778D01*
X148620295Y-134736721D01*
X148634652Y-134783611D01*
X148646929Y-134832457D01*
X148657079Y-134883269D01*
X148665055Y-134936054D01*
X148670810Y-134990822D01*
X148674298Y-135047582D01*
X148675471Y-135106342D01*
X148674297Y-135168488D01*
X148670804Y-135228272D01*
X148665034Y-135285720D01*
X148657029Y-135340858D01*
X148646832Y-135393710D01*
X148634483Y-135444303D01*
X148620026Y-135492662D01*
X148603503Y-135538812D01*
X148584955Y-135582779D01*
X148564425Y-135624588D01*
X148541955Y-135664265D01*
X148517588Y-135701835D01*
X148491364Y-135737325D01*
X148463327Y-135770758D01*
X148433518Y-135802161D01*
X148401980Y-135831560D01*
X148368754Y-135858979D01*
X148333883Y-135884445D01*
X148297410Y-135907982D01*
X148259375Y-135929617D01*
X148219822Y-135949374D01*
X148178792Y-135967280D01*
X148136327Y-135983359D01*
X148092470Y-135997637D01*
X148047263Y-136010141D01*
X148000748Y-136020894D01*
X147952967Y-136029923D01*
X147903962Y-136037253D01*
X147853775Y-136042910D01*
X147802448Y-136046919D01*
X147750025Y-136049306D01*
X147696545Y-136050096D01*
X147631996Y-136048398D01*
X147569813Y-136043345D01*
X147509975Y-136035001D01*
X147452462Y-136023429D01*
X147397253Y-136008691D01*
X147344327Y-135990851D01*
X147293664Y-135969972D01*
X147245242Y-135946117D01*
X147199040Y-135919349D01*
X147155039Y-135889731D01*
X147113217Y-135857326D01*
X147073553Y-135822198D01*
X147036026Y-135784408D01*
X147000617Y-135744021D01*
X146967303Y-135701099D01*
X146936065Y-135655705D01*
X146906880Y-135607903D01*
X146879730Y-135557755D01*
X146854592Y-135505325D01*
X146831446Y-135450676D01*
X146810271Y-135393870D01*
X146791047Y-135334971D01*
X146773752Y-135274041D01*
X146758366Y-135211145D01*
X146744869Y-135146344D01*
X146733238Y-135079703D01*
X146723453Y-135011283D01*
X146715495Y-134941149D01*
X146710561Y-134883592D01*
X146999720Y-134883592D01*
X147000420Y-134932763D01*
X147002515Y-134981052D01*
X147006002Y-135028414D01*
X147010879Y-135074806D01*
X147017140Y-135120182D01*
X147024783Y-135164499D01*
X147033804Y-135207710D01*
X147044199Y-135249773D01*
X147055965Y-135290643D01*
X147069098Y-135330274D01*
X147083594Y-135368623D01*
X147099450Y-135405644D01*
X147116662Y-135441294D01*
X147135227Y-135475527D01*
X147155141Y-135508300D01*
X147176400Y-135539568D01*
X147199000Y-135569285D01*
X147222939Y-135597408D01*
X147248212Y-135623892D01*
X147274816Y-135648693D01*
X147302747Y-135671765D01*
X147332001Y-135693065D01*
X147362576Y-135712548D01*
X147394466Y-135730169D01*
X147427670Y-135745883D01*
X147462182Y-135759647D01*
X147498000Y-135771416D01*
X147535120Y-135781145D01*
X147573538Y-135788789D01*
X147613251Y-135794304D01*
X147654254Y-135797646D01*
X147696545Y-135798770D01*
X147734403Y-135798248D01*
X147771565Y-135796661D01*
X147808001Y-135793980D01*
X147843675Y-135790175D01*
X147878555Y-135785216D01*
X147912607Y-135779074D01*
X147945799Y-135771718D01*
X147978096Y-135763118D01*
X148009466Y-135753246D01*
X148039876Y-135742071D01*
X148069291Y-135729564D01*
X148097680Y-135715694D01*
X148125008Y-135700432D01*
X148151242Y-135683749D01*
X148176349Y-135665613D01*
X148200296Y-135645996D01*
X148223049Y-135624868D01*
X148244576Y-135602199D01*
X148264843Y-135577959D01*
X148283816Y-135552118D01*
X148301462Y-135524647D01*
X148317749Y-135495516D01*
X148332642Y-135464695D01*
X148346109Y-135432154D01*
X148358116Y-135397864D01*
X148368630Y-135361794D01*
X148377618Y-135323915D01*
X148385047Y-135284197D01*
X148390882Y-135242611D01*
X148395092Y-135199126D01*
X148397642Y-135153713D01*
X148398499Y-135106342D01*
X148397632Y-135061907D01*
X148395058Y-135019131D01*
X148390816Y-134977997D01*
X148384947Y-134938488D01*
X148377490Y-134900589D01*
X148368486Y-134864283D01*
X148357974Y-134829554D01*
X148345995Y-134796386D01*
X148332588Y-134764763D01*
X148317793Y-134734667D01*
X148301652Y-134706084D01*
X148284202Y-134678996D01*
X148265485Y-134653389D01*
X148245540Y-134629244D01*
X148224408Y-134606547D01*
X148202128Y-134585280D01*
X148178740Y-134565428D01*
X148154285Y-134546975D01*
X148128802Y-134529904D01*
X148102331Y-134514198D01*
X148074912Y-134499843D01*
X148046586Y-134486821D01*
X148017392Y-134475116D01*
X147987370Y-134464712D01*
X147956560Y-134455593D01*
X147925002Y-134447742D01*
X147892737Y-134441144D01*
X147859803Y-134435782D01*
X147826242Y-134431640D01*
X147792093Y-134428701D01*
X147757396Y-134426950D01*
X147722191Y-134426370D01*
X147689451Y-134426956D01*
X147657445Y-134428695D01*
X147626167Y-134431561D01*
X147595608Y-134435527D01*
X147565759Y-134440566D01*
X147536614Y-134446651D01*
X147480402Y-134461850D01*
X147426907Y-134480908D01*
X147376067Y-134503611D01*
X147327817Y-134529742D01*
X147282096Y-134559085D01*
X147238838Y-134591425D01*
X147197982Y-134626546D01*
X147159464Y-134664233D01*
X147123219Y-134704268D01*
X147089186Y-134746438D01*
X147057301Y-134790526D01*
X147027500Y-134836316D01*
X146999720Y-134883592D01*
X146710561Y-134883592D01*
X146709341Y-134869362D01*
X146704971Y-134795987D01*
X146702364Y-134721086D01*
X146701500Y-134644723D01*
X146702640Y-134543837D01*
X146706048Y-134446685D01*
X146711700Y-134353233D01*
X146719576Y-134263446D01*
X146729654Y-134177289D01*
X146741912Y-134094728D01*
X146756329Y-134015726D01*
X146772884Y-133940250D01*
X146791553Y-133868264D01*
X146812317Y-133799734D01*
X146835153Y-133734625D01*
X146860040Y-133672901D01*
X146886956Y-133614529D01*
X146915879Y-133559472D01*
X146946788Y-133507697D01*
X146979662Y-133459168D01*
X147014478Y-133413850D01*
X147051216Y-133371709D01*
X147089853Y-133332710D01*
X147130368Y-133296817D01*
X147172739Y-133263996D01*
X147216945Y-133234212D01*
X147262964Y-133207431D01*
X147310775Y-133183616D01*
X147360356Y-133162734D01*
X147411685Y-133144749D01*
X147464740Y-133129627D01*
X147519501Y-133117333D01*
X147575945Y-133107831D01*
X147634052Y-133101088D01*
X147693798Y-133097067D01*
X147755163Y-133095735D01*
X147786022Y-133096089D01*
G37*
G36*
X127892894Y-133106402D02*
G01*
X127939123Y-133108408D01*
X127984347Y-133111762D01*
X128028531Y-133116472D01*
X128071640Y-133122547D01*
X128113640Y-133129996D01*
X128154497Y-133138826D01*
X128194176Y-133149046D01*
X128232642Y-133160664D01*
X128269860Y-133173690D01*
X128305796Y-133188131D01*
X128340415Y-133203996D01*
X128373683Y-133221293D01*
X128405565Y-133240032D01*
X128436027Y-133260219D01*
X128465033Y-133281864D01*
X128492550Y-133304976D01*
X128518542Y-133329562D01*
X128542976Y-133355631D01*
X128565815Y-133383191D01*
X128587026Y-133412252D01*
X128606575Y-133442821D01*
X128624426Y-133474907D01*
X128640545Y-133508518D01*
X128654897Y-133543663D01*
X128667448Y-133580350D01*
X128678163Y-133618588D01*
X128687007Y-133658385D01*
X128693947Y-133699750D01*
X128698946Y-133742691D01*
X128701971Y-133787216D01*
X128702987Y-133833334D01*
X128702462Y-133863796D01*
X128700908Y-133893366D01*
X128694841Y-133949891D01*
X128685039Y-134003026D01*
X128671755Y-134052889D01*
X128655242Y-134099597D01*
X128635754Y-134143265D01*
X128613543Y-134184012D01*
X128588865Y-134221955D01*
X128561970Y-134257210D01*
X128533114Y-134289894D01*
X128502549Y-134320125D01*
X128470529Y-134348019D01*
X128437306Y-134373693D01*
X128403135Y-134397265D01*
X128368268Y-134418851D01*
X128332959Y-134438568D01*
X128361781Y-134450076D01*
X128389849Y-134462476D01*
X128417153Y-134475755D01*
X128443683Y-134489903D01*
X128469427Y-134504910D01*
X128494376Y-134520763D01*
X128518519Y-134537453D01*
X128564342Y-134573299D01*
X128606813Y-134612360D01*
X128645847Y-134654549D01*
X128681358Y-134699779D01*
X128713262Y-134747964D01*
X128741475Y-134799016D01*
X128754171Y-134825590D01*
X128765912Y-134852849D01*
X128776687Y-134880780D01*
X128786486Y-134909375D01*
X128795299Y-134938621D01*
X128803115Y-134968507D01*
X128809923Y-134999024D01*
X128815713Y-135030160D01*
X128820474Y-135061904D01*
X128824195Y-135094245D01*
X128826867Y-135127173D01*
X128828477Y-135160676D01*
X128829016Y-135194744D01*
X128827853Y-135248220D01*
X128824389Y-135299975D01*
X128818664Y-135350012D01*
X128810717Y-135398332D01*
X128800587Y-135444936D01*
X128788314Y-135489826D01*
X128773937Y-135533003D01*
X128757495Y-135574469D01*
X128739028Y-135614225D01*
X128718575Y-135652272D01*
X128696175Y-135688613D01*
X128671868Y-135723249D01*
X128645692Y-135756180D01*
X128617688Y-135787409D01*
X128587894Y-135816937D01*
X128556350Y-135844766D01*
X128523095Y-135870896D01*
X128488168Y-135895330D01*
X128451609Y-135918069D01*
X128413458Y-135939114D01*
X128373752Y-135958468D01*
X128332533Y-135976130D01*
X128289838Y-135992104D01*
X128245707Y-136006389D01*
X128200180Y-136018989D01*
X128153296Y-136029904D01*
X128105095Y-136039135D01*
X128055614Y-136046685D01*
X128004895Y-136052555D01*
X127952976Y-136056745D01*
X127899896Y-136059259D01*
X127845695Y-136060096D01*
X127791560Y-136059259D01*
X127738543Y-136056745D01*
X127686682Y-136052555D01*
X127636017Y-136046685D01*
X127586587Y-136039135D01*
X127538433Y-136029904D01*
X127491592Y-136018989D01*
X127446106Y-136006389D01*
X127402012Y-135992104D01*
X127359351Y-135976130D01*
X127318163Y-135958468D01*
X127278486Y-135939114D01*
X127240359Y-135918069D01*
X127203823Y-135895330D01*
X127168917Y-135870896D01*
X127135681Y-135844766D01*
X127104153Y-135816937D01*
X127074373Y-135787409D01*
X127046381Y-135756180D01*
X127020216Y-135723249D01*
X126995917Y-135688613D01*
X126973525Y-135652272D01*
X126953078Y-135614225D01*
X126934615Y-135574469D01*
X126918177Y-135533003D01*
X126903803Y-135489826D01*
X126891532Y-135444936D01*
X126881404Y-135398332D01*
X126873458Y-135350012D01*
X126867733Y-135299975D01*
X126864269Y-135248220D01*
X126863106Y-135194744D01*
X127140077Y-135194744D01*
X127140922Y-135234025D01*
X127143437Y-135271916D01*
X127147592Y-135308426D01*
X127153356Y-135343565D01*
X127160700Y-135377342D01*
X127169593Y-135409766D01*
X127180005Y-135440846D01*
X127191906Y-135470593D01*
X127205266Y-135499015D01*
X127220054Y-135526123D01*
X127236240Y-135551924D01*
X127253795Y-135576429D01*
X127272687Y-135599648D01*
X127292887Y-135621589D01*
X127314365Y-135642261D01*
X127337089Y-135661675D01*
X127361032Y-135679839D01*
X127386161Y-135696764D01*
X127412447Y-135712458D01*
X127439859Y-135726931D01*
X127468368Y-135740192D01*
X127497943Y-135752250D01*
X127528554Y-135763116D01*
X127560171Y-135772798D01*
X127592764Y-135781306D01*
X127626302Y-135788648D01*
X127660755Y-135794836D01*
X127696094Y-135799877D01*
X127732287Y-135803782D01*
X127769305Y-135806560D01*
X127807118Y-135808219D01*
X127845695Y-135808770D01*
X127884336Y-135808219D01*
X127922205Y-135806560D01*
X127959272Y-135803782D01*
X127995506Y-135799877D01*
X128030879Y-135794836D01*
X128065360Y-135788648D01*
X128098919Y-135781306D01*
X128131528Y-135772798D01*
X128163155Y-135763116D01*
X128193771Y-135752250D01*
X128223347Y-135740192D01*
X128251852Y-135726931D01*
X128279258Y-135712458D01*
X128305533Y-135696764D01*
X128330649Y-135679839D01*
X128354575Y-135661675D01*
X128377281Y-135642261D01*
X128398739Y-135621589D01*
X128418918Y-135599648D01*
X128437788Y-135576429D01*
X128455320Y-135551924D01*
X128471483Y-135526123D01*
X128486249Y-135499015D01*
X128499586Y-135470593D01*
X128511466Y-135440846D01*
X128521859Y-135409766D01*
X128530734Y-135377342D01*
X128538063Y-135343565D01*
X128543815Y-135308426D01*
X128547960Y-135271916D01*
X128550469Y-135234025D01*
X128551312Y-135194744D01*
X128550540Y-135155903D01*
X128548234Y-135118376D01*
X128544410Y-135082155D01*
X128539085Y-135047238D01*
X128532274Y-135013617D01*
X128523994Y-134981288D01*
X128514260Y-134950246D01*
X128503090Y-134920486D01*
X128490498Y-134892001D01*
X128476501Y-134864788D01*
X128461115Y-134838840D01*
X128444357Y-134814153D01*
X128426242Y-134790721D01*
X128406786Y-134768539D01*
X128386006Y-134747602D01*
X128363917Y-134727904D01*
X128340536Y-134709441D01*
X128315879Y-134692207D01*
X128289962Y-134676196D01*
X128262800Y-134661405D01*
X128234411Y-134647826D01*
X128204810Y-134635456D01*
X128174014Y-134624289D01*
X128142038Y-134614320D01*
X128108898Y-134605543D01*
X128074611Y-134597953D01*
X128039192Y-134591545D01*
X128002659Y-134586314D01*
X127965026Y-134582255D01*
X127926311Y-134579362D01*
X127886528Y-134577630D01*
X127845695Y-134577054D01*
X127804861Y-134577630D01*
X127765079Y-134579362D01*
X127726363Y-134582255D01*
X127688731Y-134586314D01*
X127652197Y-134591545D01*
X127616779Y-134597953D01*
X127582491Y-134605543D01*
X127549352Y-134614320D01*
X127517376Y-134624289D01*
X127486579Y-134635456D01*
X127456978Y-134647826D01*
X127428589Y-134661405D01*
X127401428Y-134676196D01*
X127375511Y-134692207D01*
X127350853Y-134709441D01*
X127327472Y-134727904D01*
X127305384Y-134747602D01*
X127284604Y-134768539D01*
X127265148Y-134790721D01*
X127247033Y-134814153D01*
X127230274Y-134838840D01*
X127214888Y-134864788D01*
X127200892Y-134892001D01*
X127188300Y-134920486D01*
X127177129Y-134950246D01*
X127167396Y-134981288D01*
X127159115Y-135013617D01*
X127152305Y-135047238D01*
X127146979Y-135082155D01*
X127143155Y-135118376D01*
X127140849Y-135155903D01*
X127140077Y-135194744D01*
X126863106Y-135194744D01*
X126863645Y-135160676D01*
X126865255Y-135127173D01*
X126867926Y-135094245D01*
X126871647Y-135061904D01*
X126876406Y-135030160D01*
X126882194Y-134999024D01*
X126888999Y-134968507D01*
X126896811Y-134938621D01*
X126905619Y-134909375D01*
X126915413Y-134880780D01*
X126926181Y-134852849D01*
X126937913Y-134825590D01*
X126950598Y-134799016D01*
X126978784Y-134747964D01*
X127010654Y-134699779D01*
X127046122Y-134654549D01*
X127085102Y-134612360D01*
X127127508Y-134573299D01*
X127173254Y-134537453D01*
X127197353Y-134520763D01*
X127222255Y-134504910D01*
X127247948Y-134489903D01*
X127274424Y-134475755D01*
X127301670Y-134462476D01*
X127329675Y-134450076D01*
X127358430Y-134438568D01*
X127323129Y-134418851D01*
X127288286Y-134397265D01*
X127254151Y-134373693D01*
X127220975Y-134348019D01*
X127189010Y-134320125D01*
X127158507Y-134289894D01*
X127129717Y-134257210D01*
X127102891Y-134221955D01*
X127078281Y-134184012D01*
X127056137Y-134143265D01*
X127036711Y-134099597D01*
X127020253Y-134052889D01*
X127007016Y-134003026D01*
X126997249Y-133949891D01*
X126991205Y-133893366D01*
X126989658Y-133863796D01*
X126989135Y-133833334D01*
X127266106Y-133833334D01*
X127266769Y-133863755D01*
X127272012Y-133921651D01*
X127282355Y-133975627D01*
X127297648Y-134025692D01*
X127317743Y-134071854D01*
X127342491Y-134114122D01*
X127371742Y-134152505D01*
X127405346Y-134187011D01*
X127443156Y-134217648D01*
X127485021Y-134244426D01*
X127530792Y-134267353D01*
X127580321Y-134286437D01*
X127633457Y-134301687D01*
X127690053Y-134313112D01*
X127719601Y-134317393D01*
X127749958Y-134320720D01*
X127781105Y-134323096D01*
X127813023Y-134324520D01*
X127845695Y-134324995D01*
X127878430Y-134324520D01*
X127910405Y-134323096D01*
X127941601Y-134320720D01*
X127971999Y-134317393D01*
X128030329Y-134307877D01*
X128085251Y-134294541D01*
X128136618Y-134277375D01*
X128184284Y-134256370D01*
X128228103Y-134231519D01*
X128267930Y-134202812D01*
X128303617Y-134170242D01*
X128335020Y-134133799D01*
X128361992Y-134093474D01*
X128384388Y-134049260D01*
X128402060Y-134001148D01*
X128414864Y-133949128D01*
X128422654Y-133893193D01*
X128424623Y-133863755D01*
X128425283Y-133833334D01*
X128422743Y-133775105D01*
X128415195Y-133720757D01*
X128402751Y-133670273D01*
X128385521Y-133623636D01*
X128363616Y-133580829D01*
X128337145Y-133541834D01*
X128306220Y-133506634D01*
X128270952Y-133475213D01*
X128231450Y-133447553D01*
X128187826Y-133423636D01*
X128140189Y-133403446D01*
X128088651Y-133386965D01*
X128033322Y-133374177D01*
X128004271Y-133369162D01*
X127974313Y-133365063D01*
X127943463Y-133361879D01*
X127911733Y-133359608D01*
X127879140Y-133358247D01*
X127845695Y-133357793D01*
X127812250Y-133358247D01*
X127779656Y-133359608D01*
X127747927Y-133361879D01*
X127717077Y-133365063D01*
X127687119Y-133369162D01*
X127629936Y-133380110D01*
X127576488Y-133394743D01*
X127526887Y-133413076D01*
X127481243Y-133435127D01*
X127439666Y-133460914D01*
X127402267Y-133490453D01*
X127369157Y-133523761D01*
X127340445Y-133560856D01*
X127316244Y-133601755D01*
X127296662Y-133646475D01*
X127281811Y-133695033D01*
X127271802Y-133747447D01*
X127266744Y-133803733D01*
X127266106Y-133833334D01*
X126989135Y-133833334D01*
X126990151Y-133787216D01*
X126993176Y-133742691D01*
X126998175Y-133699750D01*
X127005113Y-133658385D01*
X127013956Y-133618588D01*
X127024669Y-133580350D01*
X127037217Y-133543663D01*
X127051566Y-133508518D01*
X127067680Y-133474907D01*
X127085525Y-133442821D01*
X127105066Y-133412252D01*
X127126268Y-133383191D01*
X127149097Y-133355631D01*
X127173518Y-133329562D01*
X127199497Y-133304976D01*
X127226997Y-133281864D01*
X127255985Y-133260219D01*
X127286426Y-133240032D01*
X127318285Y-133221293D01*
X127351528Y-133203996D01*
X127386119Y-133188131D01*
X127422024Y-133173690D01*
X127459209Y-133160664D01*
X127497637Y-133149046D01*
X127537275Y-133138826D01*
X127578089Y-133129996D01*
X127620042Y-133122547D01*
X127663101Y-133116472D01*
X127707230Y-133111762D01*
X127752395Y-133108408D01*
X127798562Y-133106402D01*
X127845695Y-133105735D01*
X127892894Y-133106402D01*
G37*
G36*
X156867935Y-116248372D02*
G01*
X156901153Y-116256333D01*
X156930926Y-116272050D01*
X156956097Y-116294313D01*
X156975510Y-116321917D01*
X156988006Y-116353653D01*
X156992428Y-116388313D01*
X156992428Y-118217204D01*
X157232030Y-118217204D01*
X157245982Y-118217838D01*
X157278791Y-118224686D01*
X157307855Y-118238340D01*
X157332182Y-118257910D01*
X157350784Y-118282508D01*
X157362670Y-118311245D01*
X157366852Y-118343233D01*
X157366167Y-118357305D01*
X157358785Y-118390288D01*
X157344093Y-118419379D01*
X157323083Y-118443641D01*
X157296742Y-118462134D01*
X157266062Y-118473918D01*
X157232030Y-118478055D01*
X156992428Y-118478055D01*
X156992428Y-119016610D01*
X156991702Y-119030724D01*
X156983911Y-119064114D01*
X156968510Y-119093916D01*
X156946655Y-119119022D01*
X156919504Y-119138325D01*
X156888214Y-119150719D01*
X156853942Y-119155096D01*
X156839950Y-119154380D01*
X156806732Y-119146738D01*
X156776959Y-119131758D01*
X156751787Y-119110713D01*
X156732375Y-119084878D01*
X156719879Y-119055528D01*
X156715457Y-119023938D01*
X156715457Y-118478055D01*
X155488869Y-118478055D01*
X155475700Y-118477379D01*
X155444498Y-118470116D01*
X155416599Y-118455721D01*
X155393062Y-118435235D01*
X155374941Y-118409698D01*
X155363293Y-118380150D01*
X155359176Y-118347629D01*
X155362242Y-118318606D01*
X155372272Y-118290556D01*
X155388485Y-118264098D01*
X155420907Y-118217204D01*
X155732868Y-118217204D01*
X156715457Y-118217204D01*
X156715457Y-116788383D01*
X155732868Y-118217204D01*
X155420907Y-118217204D01*
X156741102Y-116307713D01*
X156743464Y-116304511D01*
X156764470Y-116281117D01*
X156790009Y-116262798D01*
X156821182Y-116251134D01*
X156853942Y-116247629D01*
X156867935Y-116248372D01*
G37*
G36*
X126100851Y-99731708D02*
G01*
X126100851Y-102110878D01*
X126105274Y-102145442D01*
X126117770Y-102176934D01*
X126137182Y-102204213D01*
X126162353Y-102226139D01*
X126192126Y-102241572D01*
X126225344Y-102249370D01*
X126239337Y-102250096D01*
X126273901Y-102245671D01*
X126305393Y-102233155D01*
X126332673Y-102213690D01*
X126354599Y-102188415D01*
X126370031Y-102158472D01*
X126377829Y-102124999D01*
X126378555Y-102110878D01*
X126378555Y-99482580D01*
X126374130Y-99447968D01*
X126361615Y-99416354D01*
X126342149Y-99388913D01*
X126316875Y-99366818D01*
X126286931Y-99351244D01*
X126253458Y-99343364D01*
X126239337Y-99342629D01*
X126207755Y-99346532D01*
X126179688Y-99357617D01*
X126155806Y-99372671D01*
X125496350Y-99832825D01*
X125473901Y-99852045D01*
X125456685Y-99875875D01*
X125443653Y-99906567D01*
X125437972Y-99938513D01*
X125437732Y-99946398D01*
X125442138Y-99979206D01*
X125454516Y-100009486D01*
X125473610Y-100035996D01*
X125498161Y-100057495D01*
X125526911Y-100072741D01*
X125558603Y-100080494D01*
X125571821Y-100081220D01*
X125603403Y-100077781D01*
X125632821Y-100067309D01*
X125651689Y-100056307D01*
X126100851Y-99731708D01*
G37*
G36*
X127038011Y-99842350D02*
G01*
X127030537Y-99871618D01*
X127029218Y-99888512D01*
X127033338Y-99920740D01*
X127045005Y-99950086D01*
X127063179Y-99975495D01*
X127086821Y-99995910D01*
X127114889Y-100010273D01*
X127146346Y-100017529D01*
X127159644Y-100018205D01*
X127188869Y-100015143D01*
X127219529Y-100003988D01*
X127246140Y-99984932D01*
X127265447Y-99962517D01*
X127281277Y-99934674D01*
X127300082Y-99895915D01*
X127320369Y-99858094D01*
X127342347Y-99821425D01*
X127366228Y-99786125D01*
X127392220Y-99752409D01*
X127420535Y-99720493D01*
X127451384Y-99690592D01*
X127484975Y-99662923D01*
X127521521Y-99637702D01*
X127561231Y-99615143D01*
X127604315Y-99595463D01*
X127650984Y-99578877D01*
X127701449Y-99565601D01*
X127755919Y-99555852D01*
X127814605Y-99549844D01*
X127845595Y-99548310D01*
X127877718Y-99547793D01*
X127914624Y-99548509D01*
X127950464Y-99550638D01*
X127985229Y-99554148D01*
X128018913Y-99559009D01*
X128051509Y-99565191D01*
X128083011Y-99572663D01*
X128113411Y-99581395D01*
X128142702Y-99591356D01*
X128170879Y-99602517D01*
X128197933Y-99614845D01*
X128248649Y-99642886D01*
X128294794Y-99675236D01*
X128336314Y-99711650D01*
X128373155Y-99751885D01*
X128405261Y-99795697D01*
X128432578Y-99842844D01*
X128455051Y-99893080D01*
X128472625Y-99946163D01*
X128485246Y-100001849D01*
X128492858Y-100059894D01*
X128494770Y-100089725D01*
X128495408Y-100120054D01*
X128490925Y-100203986D01*
X128477856Y-100283423D01*
X128456774Y-100358668D01*
X128428252Y-100430023D01*
X128392861Y-100497789D01*
X128351175Y-100562268D01*
X128303765Y-100623762D01*
X128251203Y-100682572D01*
X128194063Y-100739001D01*
X128132917Y-100793350D01*
X128068336Y-100845920D01*
X128000894Y-100897014D01*
X127931162Y-100946933D01*
X127859713Y-100995980D01*
X127787119Y-101044454D01*
X127713953Y-101092660D01*
X127640787Y-101140897D01*
X127568193Y-101189469D01*
X127496745Y-101238676D01*
X127427013Y-101288821D01*
X127359570Y-101340204D01*
X127294990Y-101393129D01*
X127233843Y-101447896D01*
X127176703Y-101504808D01*
X127124142Y-101564166D01*
X127076732Y-101626272D01*
X127035045Y-101691427D01*
X126999654Y-101759934D01*
X126971132Y-101832093D01*
X126950050Y-101908208D01*
X126936982Y-101988579D01*
X126932498Y-102073509D01*
X126936663Y-102105736D01*
X126948433Y-102135083D01*
X126966716Y-102160492D01*
X126990422Y-102180906D01*
X127018463Y-102195270D01*
X127049746Y-102202526D01*
X127062924Y-102203202D01*
X128684452Y-102203202D01*
X128716680Y-102199084D01*
X128746027Y-102187437D01*
X128771435Y-102169316D01*
X128791850Y-102145778D01*
X128806213Y-102117880D01*
X128813469Y-102086678D01*
X128814145Y-102073509D01*
X128810028Y-102040988D01*
X128798380Y-102011439D01*
X128780260Y-101985902D01*
X128756722Y-101965417D01*
X128728823Y-101951022D01*
X128697621Y-101943759D01*
X128684452Y-101943083D01*
X127218262Y-101943083D01*
X127222733Y-101896002D01*
X127235765Y-101849990D01*
X127256788Y-101804878D01*
X127285230Y-101760495D01*
X127320521Y-101716669D01*
X127362090Y-101673229D01*
X127409367Y-101630006D01*
X127461780Y-101586828D01*
X127518759Y-101543524D01*
X127579734Y-101499924D01*
X127644133Y-101455857D01*
X127711386Y-101411152D01*
X127780921Y-101365638D01*
X127852169Y-101319145D01*
X127924559Y-101271501D01*
X127997519Y-101222536D01*
X128070479Y-101172079D01*
X128142869Y-101119959D01*
X128214117Y-101066006D01*
X128283652Y-101010049D01*
X128350905Y-100951916D01*
X128415304Y-100891438D01*
X128476279Y-100828443D01*
X128533258Y-100762760D01*
X128585672Y-100694219D01*
X128632948Y-100622649D01*
X128674517Y-100547879D01*
X128709809Y-100469739D01*
X128738251Y-100388057D01*
X128759273Y-100302663D01*
X128772305Y-100213385D01*
X128776776Y-100120054D01*
X128775794Y-100074110D01*
X128772861Y-100029170D01*
X128767999Y-99985264D01*
X128761225Y-99942422D01*
X128752562Y-99900674D01*
X128742029Y-99860049D01*
X128729646Y-99820578D01*
X128715433Y-99782289D01*
X128699410Y-99745214D01*
X128681598Y-99709381D01*
X128662017Y-99674821D01*
X128640686Y-99641562D01*
X128617626Y-99609636D01*
X128592857Y-99579072D01*
X128566399Y-99549899D01*
X128538273Y-99522148D01*
X128508498Y-99495847D01*
X128477094Y-99471028D01*
X128444082Y-99447720D01*
X128409481Y-99425951D01*
X128373313Y-99405754D01*
X128335596Y-99387156D01*
X128296352Y-99370188D01*
X128255600Y-99354880D01*
X128213360Y-99341261D01*
X128169653Y-99329361D01*
X128124498Y-99319210D01*
X128077916Y-99310839D01*
X128029927Y-99304275D01*
X127980551Y-99299550D01*
X127929808Y-99296694D01*
X127877718Y-99295735D01*
X127837594Y-99296336D01*
X127798285Y-99298131D01*
X127759799Y-99301107D01*
X127722145Y-99305252D01*
X127685330Y-99310552D01*
X127649362Y-99316996D01*
X127614250Y-99324571D01*
X127580001Y-99333264D01*
X127546624Y-99343063D01*
X127514126Y-99353954D01*
X127482517Y-99365926D01*
X127451802Y-99378965D01*
X127421992Y-99393060D01*
X127393093Y-99408197D01*
X127365114Y-99424364D01*
X127338063Y-99441548D01*
X127311948Y-99459736D01*
X127286777Y-99478917D01*
X127262558Y-99499077D01*
X127239300Y-99520204D01*
X127217009Y-99542286D01*
X127195694Y-99565308D01*
X127175364Y-99589260D01*
X127156026Y-99614128D01*
X127137689Y-99639900D01*
X127120359Y-99666563D01*
X127104047Y-99694104D01*
X127088758Y-99722512D01*
X127074503Y-99751773D01*
X127061287Y-99781874D01*
X127049121Y-99812803D01*
X127038011Y-99844548D01*
X127038011Y-99842350D01*
G37*
G36*
X117067760Y-116636708D02*
G01*
X117067760Y-119015878D01*
X117072183Y-119050442D01*
X117084679Y-119081934D01*
X117104091Y-119109213D01*
X117129262Y-119131139D01*
X117159035Y-119146572D01*
X117192253Y-119154370D01*
X117206246Y-119155096D01*
X117240810Y-119150671D01*
X117272302Y-119138155D01*
X117299582Y-119118690D01*
X117321508Y-119093415D01*
X117336940Y-119063472D01*
X117344738Y-119029999D01*
X117345464Y-119015878D01*
X117345464Y-116387580D01*
X117341039Y-116352968D01*
X117328524Y-116321354D01*
X117309058Y-116293913D01*
X117283784Y-116271818D01*
X117253840Y-116256244D01*
X117220367Y-116248364D01*
X117206246Y-116247629D01*
X117174664Y-116251532D01*
X117146597Y-116262617D01*
X117122715Y-116277671D01*
X116463259Y-116737825D01*
X116440810Y-116757045D01*
X116423594Y-116780875D01*
X116410562Y-116811567D01*
X116404881Y-116843513D01*
X116404641Y-116851398D01*
X116409047Y-116884206D01*
X116421425Y-116914486D01*
X116440519Y-116940996D01*
X116465070Y-116962495D01*
X116493820Y-116977741D01*
X116525512Y-116985494D01*
X116538730Y-116986220D01*
X116570312Y-116982781D01*
X116599730Y-116972309D01*
X116618598Y-116961307D01*
X117067760Y-116636708D01*
G37*
G36*
X119052567Y-116202094D02*
G01*
X119115443Y-116206183D01*
X119176145Y-116213016D01*
X119234680Y-116222611D01*
X119291057Y-116234982D01*
X119345281Y-116250146D01*
X119397363Y-116268118D01*
X119447308Y-116288914D01*
X119495124Y-116312550D01*
X119540820Y-116339043D01*
X119584403Y-116368406D01*
X119625880Y-116400658D01*
X119665260Y-116435813D01*
X119702549Y-116473887D01*
X119737756Y-116514896D01*
X119770887Y-116558856D01*
X119801952Y-116605782D01*
X119830957Y-116655691D01*
X119857910Y-116708599D01*
X119882819Y-116764521D01*
X119905691Y-116823472D01*
X119926534Y-116885470D01*
X119945356Y-116950529D01*
X119962164Y-117018666D01*
X119976966Y-117089896D01*
X119989770Y-117164235D01*
X120000582Y-117241699D01*
X120009412Y-117322304D01*
X120016266Y-117406066D01*
X120021153Y-117493001D01*
X120024079Y-117583123D01*
X120025053Y-117676450D01*
X120024079Y-117769721D01*
X120021153Y-117859811D01*
X120016266Y-117946737D01*
X120009412Y-118030511D01*
X120000582Y-118111148D01*
X119989770Y-118188663D01*
X119976966Y-118263070D01*
X119962164Y-118334383D01*
X119945356Y-118402617D01*
X119926534Y-118467785D01*
X119905691Y-118529903D01*
X119882819Y-118588985D01*
X119857910Y-118645044D01*
X119830957Y-118698096D01*
X119801952Y-118748155D01*
X119770887Y-118795235D01*
X119737756Y-118839350D01*
X119702549Y-118880515D01*
X119665260Y-118918745D01*
X119625880Y-118954052D01*
X119584403Y-118986453D01*
X119540820Y-119015961D01*
X119495124Y-119042590D01*
X119447308Y-119066356D01*
X119397363Y-119087272D01*
X119345281Y-119105352D01*
X119291057Y-119120611D01*
X119234680Y-119133064D01*
X119176145Y-119142725D01*
X119115443Y-119149607D01*
X119052567Y-119153726D01*
X118987509Y-119155096D01*
X118922451Y-119153726D01*
X118859575Y-119149607D01*
X118798873Y-119142725D01*
X118740338Y-119133064D01*
X118683961Y-119120611D01*
X118629737Y-119105352D01*
X118577656Y-119087272D01*
X118527710Y-119066356D01*
X118479894Y-119042590D01*
X118434198Y-119015961D01*
X118390615Y-118986453D01*
X118349138Y-118954052D01*
X118309758Y-118918745D01*
X118272469Y-118880515D01*
X118237262Y-118839350D01*
X118204131Y-118795235D01*
X118173066Y-118748155D01*
X118144061Y-118698096D01*
X118117108Y-118645044D01*
X118092199Y-118588985D01*
X118069327Y-118529903D01*
X118048484Y-118467785D01*
X118029662Y-118402617D01*
X118012854Y-118334383D01*
X117998052Y-118263070D01*
X117985249Y-118188663D01*
X117974436Y-118111148D01*
X117965606Y-118030511D01*
X117958752Y-117946737D01*
X117953865Y-117859811D01*
X117950939Y-117769721D01*
X117949965Y-117676450D01*
X118226937Y-117676450D01*
X118227640Y-117756751D01*
X118229755Y-117834046D01*
X118233289Y-117908366D01*
X118238250Y-117979741D01*
X118244645Y-118048200D01*
X118252483Y-118113772D01*
X118261770Y-118176489D01*
X118272515Y-118236380D01*
X118284725Y-118293475D01*
X118298407Y-118347804D01*
X118313570Y-118399397D01*
X118330222Y-118448284D01*
X118348368Y-118494494D01*
X118368018Y-118538057D01*
X118389179Y-118579004D01*
X118411859Y-118617365D01*
X118436065Y-118653169D01*
X118461805Y-118686446D01*
X118489087Y-118717226D01*
X118517917Y-118745540D01*
X118548305Y-118771416D01*
X118580257Y-118794885D01*
X118613781Y-118815977D01*
X118648885Y-118834722D01*
X118685577Y-118851150D01*
X118723864Y-118865290D01*
X118763753Y-118877172D01*
X118805253Y-118886827D01*
X118848371Y-118894285D01*
X118893114Y-118899574D01*
X118939491Y-118902726D01*
X118987509Y-118903770D01*
X119035527Y-118902726D01*
X119081904Y-118899574D01*
X119126647Y-118894285D01*
X119169765Y-118886827D01*
X119211265Y-118877172D01*
X119251154Y-118865290D01*
X119289441Y-118851150D01*
X119326133Y-118834722D01*
X119361237Y-118815977D01*
X119394761Y-118794885D01*
X119426713Y-118771416D01*
X119457101Y-118745540D01*
X119485931Y-118717226D01*
X119513213Y-118686446D01*
X119538953Y-118653169D01*
X119563159Y-118617365D01*
X119585839Y-118579004D01*
X119607000Y-118538057D01*
X119626650Y-118494494D01*
X119644797Y-118448284D01*
X119661448Y-118399397D01*
X119676611Y-118347804D01*
X119690293Y-118293475D01*
X119702503Y-118236380D01*
X119713248Y-118176489D01*
X119722535Y-118113772D01*
X119730373Y-118048200D01*
X119736768Y-117979741D01*
X119741729Y-117908366D01*
X119745263Y-117834046D01*
X119747378Y-117756751D01*
X119748081Y-117676450D01*
X119747378Y-117596095D01*
X119745263Y-117518774D01*
X119741729Y-117444455D01*
X119736768Y-117373106D01*
X119730373Y-117304696D01*
X119722535Y-117239193D01*
X119713248Y-117176566D01*
X119702503Y-117116783D01*
X119690293Y-117059811D01*
X119676611Y-117005620D01*
X119661448Y-116954178D01*
X119644797Y-116905453D01*
X119626650Y-116859414D01*
X119607000Y-116816028D01*
X119585839Y-116775265D01*
X119563159Y-116737092D01*
X119538953Y-116701478D01*
X119513213Y-116668391D01*
X119485931Y-116637799D01*
X119457101Y-116609672D01*
X119426713Y-116583976D01*
X119394761Y-116560681D01*
X119361237Y-116539755D01*
X119326133Y-116521166D01*
X119289441Y-116504883D01*
X119251154Y-116490873D01*
X119211265Y-116479106D01*
X119169765Y-116469549D01*
X119126647Y-116462171D01*
X119081904Y-116456940D01*
X119035527Y-116453825D01*
X118987509Y-116452793D01*
X118939491Y-116453825D01*
X118893114Y-116456940D01*
X118848371Y-116462171D01*
X118805253Y-116469549D01*
X118763753Y-116479106D01*
X118723864Y-116490873D01*
X118685577Y-116504883D01*
X118648885Y-116521166D01*
X118613781Y-116539755D01*
X118580257Y-116560681D01*
X118548305Y-116583976D01*
X118517917Y-116609672D01*
X118489087Y-116637799D01*
X118461805Y-116668391D01*
X118436065Y-116701478D01*
X118411859Y-116737092D01*
X118389179Y-116775265D01*
X118368018Y-116816028D01*
X118348368Y-116859414D01*
X118330222Y-116905453D01*
X118313570Y-116954178D01*
X118298407Y-117005620D01*
X118284725Y-117059811D01*
X118272515Y-117116783D01*
X118261770Y-117176566D01*
X118252483Y-117239193D01*
X118244645Y-117304696D01*
X118238250Y-117373106D01*
X118233289Y-117444455D01*
X118229755Y-117518774D01*
X118227640Y-117596095D01*
X118226937Y-117676450D01*
X117949965Y-117676450D01*
X117950939Y-117583123D01*
X117953865Y-117493001D01*
X117958752Y-117406066D01*
X117965606Y-117322304D01*
X117974436Y-117241699D01*
X117985249Y-117164235D01*
X117998052Y-117089896D01*
X118012854Y-117018666D01*
X118029662Y-116950529D01*
X118048484Y-116885470D01*
X118069327Y-116823472D01*
X118092199Y-116764521D01*
X118117108Y-116708599D01*
X118144061Y-116655691D01*
X118173066Y-116605782D01*
X118204131Y-116558856D01*
X118237262Y-116514896D01*
X118272469Y-116473887D01*
X118309758Y-116435813D01*
X118349138Y-116400658D01*
X118390615Y-116368406D01*
X118434198Y-116339043D01*
X118479894Y-116312550D01*
X118527710Y-116288914D01*
X118577656Y-116268118D01*
X118629737Y-116250146D01*
X118683961Y-116234982D01*
X118740338Y-116222611D01*
X118798873Y-116213016D01*
X118859575Y-116206183D01*
X118922451Y-116202094D01*
X118987509Y-116200735D01*
X119052567Y-116202094D01*
G37*
G36*
X137201919Y-138274541D02*
G01*
X137206053Y-138308865D01*
X137217818Y-138339748D01*
X137236257Y-138366217D01*
X137260415Y-138387299D01*
X137289337Y-138402021D01*
X137322065Y-138409411D01*
X137336008Y-138410096D01*
X137370040Y-138405911D01*
X137400720Y-138394005D01*
X137427061Y-138375350D01*
X137448071Y-138350920D01*
X137462763Y-138321686D01*
X137470145Y-138288622D01*
X137470830Y-138274541D01*
X137474263Y-138147717D01*
X137484268Y-138027097D01*
X137500408Y-137912350D01*
X137522244Y-137803146D01*
X137549339Y-137699155D01*
X137581254Y-137600047D01*
X137617550Y-137505490D01*
X137657790Y-137415154D01*
X137701536Y-137328709D01*
X137748349Y-137245824D01*
X137797792Y-137166170D01*
X137849425Y-137089414D01*
X137902811Y-137015228D01*
X137957511Y-136943281D01*
X138013088Y-136873241D01*
X138069103Y-136804779D01*
X138125118Y-136737565D01*
X138180695Y-136671267D01*
X138235395Y-136605556D01*
X138288781Y-136540100D01*
X138340415Y-136474570D01*
X138389857Y-136408634D01*
X138436670Y-136341964D01*
X138480416Y-136274227D01*
X138520656Y-136205094D01*
X138556953Y-136134234D01*
X138588867Y-136061316D01*
X138615962Y-135986011D01*
X138637798Y-135907988D01*
X138653938Y-135826916D01*
X138663943Y-135742465D01*
X138667376Y-135654304D01*
X138663259Y-135621784D01*
X138651611Y-135592235D01*
X138633490Y-135566698D01*
X138609953Y-135546212D01*
X138582054Y-135531818D01*
X138550852Y-135524554D01*
X138537683Y-135523878D01*
X136971109Y-135523878D01*
X136938589Y-135527998D01*
X136909040Y-135539665D01*
X136883503Y-135557839D01*
X136863018Y-135581481D01*
X136848623Y-135609549D01*
X136841360Y-135641006D01*
X136840684Y-135654304D01*
X136844804Y-135686532D01*
X136856471Y-135715879D01*
X136874645Y-135741287D01*
X136898286Y-135761702D01*
X136926355Y-135776065D01*
X136957811Y-135783321D01*
X136971109Y-135783997D01*
X138386008Y-135783997D01*
X138382611Y-135844275D01*
X138372710Y-135903528D01*
X138356738Y-135961971D01*
X138335129Y-136019821D01*
X138308317Y-136077293D01*
X138276734Y-136134603D01*
X138240816Y-136191967D01*
X138200994Y-136249600D01*
X138157704Y-136307719D01*
X138111378Y-136366538D01*
X138062451Y-136426273D01*
X138011355Y-136487142D01*
X137958525Y-136549358D01*
X137904394Y-136613138D01*
X137849395Y-136678698D01*
X137793964Y-136746253D01*
X137738532Y-136816019D01*
X137683533Y-136888212D01*
X137629402Y-136963047D01*
X137576572Y-137040741D01*
X137525476Y-137121509D01*
X137476549Y-137205566D01*
X137430223Y-137293129D01*
X137386933Y-137384414D01*
X137347111Y-137479635D01*
X137311193Y-137579009D01*
X137279610Y-137682751D01*
X137252798Y-137791078D01*
X137231189Y-137904204D01*
X137215217Y-138022347D01*
X137205316Y-138145720D01*
X137201919Y-138274541D01*
G37*
G36*
X121467337Y-126717435D02*
G01*
X121529583Y-126722494D01*
X121589479Y-126730848D01*
X121647046Y-126742433D01*
X121702306Y-126757188D01*
X121755279Y-126775047D01*
X121805986Y-126795948D01*
X121854449Y-126819828D01*
X121900687Y-126846623D01*
X121944722Y-126876269D01*
X121986576Y-126908705D01*
X122026268Y-126943865D01*
X122063820Y-126981687D01*
X122099252Y-127022108D01*
X122132586Y-127065064D01*
X122163843Y-127110492D01*
X122193044Y-127158329D01*
X122220208Y-127208510D01*
X122245358Y-127260974D01*
X122268515Y-127315656D01*
X122289698Y-127372494D01*
X122308930Y-127431423D01*
X122326231Y-127492381D01*
X122341621Y-127555304D01*
X122355123Y-127620129D01*
X122366757Y-127686793D01*
X122376543Y-127755232D01*
X122384503Y-127825383D01*
X122390658Y-127897183D01*
X122395028Y-127970568D01*
X122397635Y-128045475D01*
X122398500Y-128121841D01*
X122397359Y-128222725D01*
X122393951Y-128319870D01*
X122388299Y-128413312D01*
X122380422Y-128503086D01*
X122370342Y-128589226D01*
X122358082Y-128671768D01*
X122343662Y-128750747D01*
X122327104Y-128826199D01*
X122308430Y-128898158D01*
X122287660Y-128966659D01*
X122264817Y-129031738D01*
X122239921Y-129093430D01*
X122212995Y-129151770D01*
X122184059Y-129206793D01*
X122153136Y-129258534D01*
X122120246Y-129307029D01*
X122085411Y-129352312D01*
X122048653Y-129394420D01*
X122009993Y-129433385D01*
X121969453Y-129469246D01*
X121927053Y-129502035D01*
X121882816Y-129531788D01*
X121836763Y-129558541D01*
X121788915Y-129582329D01*
X121739294Y-129603186D01*
X121687922Y-129621149D01*
X121634819Y-129636251D01*
X121580007Y-129648529D01*
X121523509Y-129658018D01*
X121465344Y-129664751D01*
X121405535Y-129668766D01*
X121344103Y-129670096D01*
X121313246Y-129669744D01*
X121282919Y-129668703D01*
X121253131Y-129666999D01*
X121195211Y-129661699D01*
X121139564Y-129654039D01*
X121086270Y-129644215D01*
X121035406Y-129632425D01*
X120987052Y-129618864D01*
X120941284Y-129603729D01*
X120898183Y-129587216D01*
X120857825Y-129569523D01*
X120820289Y-129550844D01*
X120785655Y-129531377D01*
X120753999Y-129511318D01*
X120725400Y-129490864D01*
X120699938Y-129470210D01*
X120667795Y-129439287D01*
X120657585Y-129428067D01*
X120640124Y-129401420D01*
X120629813Y-129373468D01*
X120626029Y-129341834D01*
X120626705Y-129328398D01*
X120633969Y-129296606D01*
X120648363Y-129268225D01*
X120668849Y-129244311D01*
X120694386Y-129225922D01*
X120723934Y-129214114D01*
X120756455Y-129209943D01*
X120759190Y-129209967D01*
X120788268Y-129213845D01*
X120817736Y-129225971D01*
X120844382Y-129243648D01*
X120869878Y-129262520D01*
X120896088Y-129280625D01*
X120923024Y-129297902D01*
X120950697Y-129314288D01*
X120979116Y-129329720D01*
X121008293Y-129344138D01*
X121038239Y-129357478D01*
X121068964Y-129369677D01*
X121100478Y-129380675D01*
X121132794Y-129390408D01*
X121165921Y-129398815D01*
X121199870Y-129405833D01*
X121234652Y-129411400D01*
X121270278Y-129415453D01*
X121306758Y-129417931D01*
X121344103Y-129418770D01*
X121398423Y-129417245D01*
X121450400Y-129412714D01*
X121500075Y-129405248D01*
X121547490Y-129394915D01*
X121592683Y-129381784D01*
X121635697Y-129365925D01*
X121676570Y-129347407D01*
X121715345Y-129326298D01*
X121752060Y-129302667D01*
X121786758Y-129276585D01*
X121819478Y-129248119D01*
X121850261Y-129217340D01*
X121879148Y-129184316D01*
X121906178Y-129149116D01*
X121931393Y-129111809D01*
X121954832Y-129072464D01*
X121976538Y-129031152D01*
X121996549Y-128987939D01*
X122014907Y-128942897D01*
X122031652Y-128896093D01*
X122046824Y-128847597D01*
X122060464Y-128797478D01*
X122072614Y-128745805D01*
X122083312Y-128692648D01*
X122092600Y-128638074D01*
X122100518Y-128582154D01*
X122107106Y-128524957D01*
X122112406Y-128466551D01*
X122116458Y-128407006D01*
X122119302Y-128346390D01*
X122120978Y-128284773D01*
X122121528Y-128222225D01*
X122110450Y-128238047D01*
X122085734Y-128270112D01*
X122057652Y-128302450D01*
X122026260Y-128334716D01*
X121991615Y-128366567D01*
X121953774Y-128397657D01*
X121912795Y-128427643D01*
X121868733Y-128456179D01*
X121821646Y-128482920D01*
X121771591Y-128507523D01*
X121718624Y-128529643D01*
X121691067Y-128539664D01*
X121662803Y-128548935D01*
X121633840Y-128557413D01*
X121604185Y-128565055D01*
X121573844Y-128571818D01*
X121542825Y-128577659D01*
X121511135Y-128582534D01*
X121478782Y-128586401D01*
X121445771Y-128589216D01*
X121412111Y-128590937D01*
X121377809Y-128591520D01*
X121326659Y-128590657D01*
X121276420Y-128588064D01*
X121227137Y-128583731D01*
X121178857Y-128577649D01*
X121131628Y-128569809D01*
X121085496Y-128560202D01*
X121040507Y-128548818D01*
X120996710Y-128535649D01*
X120954150Y-128520685D01*
X120912874Y-128503918D01*
X120872930Y-128485337D01*
X120834363Y-128464935D01*
X120797222Y-128442702D01*
X120761552Y-128418628D01*
X120727400Y-128392705D01*
X120694814Y-128364923D01*
X120663840Y-128335274D01*
X120634525Y-128303748D01*
X120606916Y-128270337D01*
X120581059Y-128235030D01*
X120557002Y-128197819D01*
X120534791Y-128158695D01*
X120514474Y-128117649D01*
X120496096Y-128074671D01*
X120479705Y-128029753D01*
X120465347Y-127982885D01*
X120453070Y-127934058D01*
X120442920Y-127883263D01*
X120434944Y-127830491D01*
X120429189Y-127775733D01*
X120425702Y-127718980D01*
X120424529Y-127660222D01*
X120701500Y-127660222D01*
X120702367Y-127704592D01*
X120704942Y-127747312D01*
X120709184Y-127788397D01*
X120715053Y-127827865D01*
X120722510Y-127865730D01*
X120731514Y-127902008D01*
X120742026Y-127936716D01*
X120754005Y-127969868D01*
X120767412Y-128001482D01*
X120782206Y-128031572D01*
X120798348Y-128060154D01*
X120815797Y-128087245D01*
X120834514Y-128112860D01*
X120854459Y-128137015D01*
X120875591Y-128159726D01*
X120897871Y-128181009D01*
X120921259Y-128200879D01*
X120945715Y-128219352D01*
X120971198Y-128236444D01*
X120997669Y-128252172D01*
X121025087Y-128266550D01*
X121053414Y-128279595D01*
X121082608Y-128291323D01*
X121112630Y-128301748D01*
X121143439Y-128310888D01*
X121174997Y-128318758D01*
X121207263Y-128325374D01*
X121240196Y-128330751D01*
X121273757Y-128334906D01*
X121307906Y-128337854D01*
X121342604Y-128339612D01*
X121377809Y-128340194D01*
X121410484Y-128339608D01*
X121442433Y-128337868D01*
X121473663Y-128335002D01*
X121504181Y-128331035D01*
X121533996Y-128325995D01*
X121563113Y-128319908D01*
X121619289Y-128304702D01*
X121672768Y-128285633D01*
X121723611Y-128262914D01*
X121771878Y-128236760D01*
X121817629Y-128207387D01*
X121860924Y-128175008D01*
X121901824Y-128139838D01*
X121940388Y-128102093D01*
X121976677Y-128061986D01*
X122010750Y-128019732D01*
X122042668Y-127975547D01*
X122072491Y-127929644D01*
X122100279Y-127882238D01*
X122099578Y-127833135D01*
X122097476Y-127784908D01*
X122093979Y-127737604D01*
X122089089Y-127691267D01*
X122082811Y-127645941D01*
X122075149Y-127601672D01*
X122066105Y-127558504D01*
X122055686Y-127516481D01*
X122043893Y-127475649D01*
X122030732Y-127436051D01*
X122016205Y-127397734D01*
X122000317Y-127360740D01*
X121983073Y-127325116D01*
X121964474Y-127290906D01*
X121944527Y-127258153D01*
X121923233Y-127226904D01*
X121900599Y-127197203D01*
X121876626Y-127169094D01*
X121851319Y-127142622D01*
X121824683Y-127117832D01*
X121796720Y-127094769D01*
X121767435Y-127073476D01*
X121736832Y-127054000D01*
X121704915Y-127036384D01*
X121671687Y-127020673D01*
X121637152Y-127006911D01*
X121601314Y-126995145D01*
X121564178Y-126985417D01*
X121525747Y-126977774D01*
X121486024Y-126972259D01*
X121445014Y-126968917D01*
X121402721Y-126967793D01*
X121364866Y-126968316D01*
X121327709Y-126969902D01*
X121291284Y-126972583D01*
X121255623Y-126976389D01*
X121220760Y-126981347D01*
X121186727Y-126987490D01*
X121153558Y-126994846D01*
X121121285Y-127003445D01*
X121089942Y-127013317D01*
X121059561Y-127024492D01*
X121030176Y-127036999D01*
X121001819Y-127050869D01*
X120974524Y-127066131D01*
X120948323Y-127082815D01*
X120923250Y-127100950D01*
X120899337Y-127120567D01*
X120876618Y-127141695D01*
X120855125Y-127164365D01*
X120834892Y-127188605D01*
X120815952Y-127214445D01*
X120798337Y-127241916D01*
X120782081Y-127271047D01*
X120767216Y-127301869D01*
X120753776Y-127334409D01*
X120741793Y-127368700D01*
X120731301Y-127404770D01*
X120722333Y-127442648D01*
X120714921Y-127482366D01*
X120709099Y-127523953D01*
X120704899Y-127567437D01*
X120702356Y-127612851D01*
X120701500Y-127660222D01*
X120424529Y-127660222D01*
X120425702Y-127598074D01*
X120429195Y-127538283D01*
X120434965Y-127480825D01*
X120442969Y-127425674D01*
X120453165Y-127372805D01*
X120465511Y-127322193D01*
X120479965Y-127273812D01*
X120496485Y-127227637D01*
X120515028Y-127183643D01*
X120535552Y-127141806D01*
X120558014Y-127102098D01*
X120582373Y-127064496D01*
X120608586Y-127028974D01*
X120636611Y-126995507D01*
X120666406Y-126964070D01*
X120697928Y-126934637D01*
X120731135Y-126907184D01*
X120765986Y-126881684D01*
X120802436Y-126858113D01*
X120840445Y-126836446D01*
X120879970Y-126816657D01*
X120920969Y-126798721D01*
X120963400Y-126782613D01*
X121007220Y-126768308D01*
X121052387Y-126755780D01*
X121098858Y-126745004D01*
X121146592Y-126735956D01*
X121195547Y-126728609D01*
X121245679Y-126722939D01*
X121296947Y-126718920D01*
X121349309Y-126716527D01*
X121402721Y-126715735D01*
X121467337Y-126717435D01*
G37*
G36*
X137831333Y-97381708D02*
G01*
X137831333Y-99760878D01*
X137835756Y-99795442D01*
X137848252Y-99826934D01*
X137867664Y-99854213D01*
X137892835Y-99876139D01*
X137922608Y-99891572D01*
X137955826Y-99899370D01*
X137969819Y-99900096D01*
X138004383Y-99895671D01*
X138035875Y-99883155D01*
X138063155Y-99863690D01*
X138085081Y-99838415D01*
X138100513Y-99808472D01*
X138108311Y-99774999D01*
X138109037Y-99760878D01*
X138109037Y-97132580D01*
X138104612Y-97097968D01*
X138092097Y-97066354D01*
X138072631Y-97038913D01*
X138047357Y-97016818D01*
X138017413Y-97001244D01*
X137983940Y-96993364D01*
X137969819Y-96992629D01*
X137938237Y-96996532D01*
X137910170Y-97007617D01*
X137886288Y-97022671D01*
X137226832Y-97482825D01*
X137204383Y-97502045D01*
X137187167Y-97525875D01*
X137174135Y-97556567D01*
X137168454Y-97588513D01*
X137168214Y-97596398D01*
X137172620Y-97629206D01*
X137184998Y-97659486D01*
X137204092Y-97685996D01*
X137228643Y-97707495D01*
X137257393Y-97722741D01*
X137289085Y-97730494D01*
X137302303Y-97731220D01*
X137333885Y-97727781D01*
X137363303Y-97717309D01*
X137382171Y-97706307D01*
X137831333Y-97381708D01*
G37*
D11*
%TO.C,H5*%
X109750000Y-181863202D02*
G75*
G03*
X109750000Y-181863202I-2000000J0D01*
G01*
%TO.C,H3*%
X109750000Y-95863201D02*
G75*
G03*
X109750000Y-95863201I-2000000J0D01*
G01*
%TO.C,H6*%
X169750000Y-181863202D02*
G75*
G03*
X169750000Y-181863202I-2000000J0D01*
G01*
%TO.C,H4*%
X169750000Y-95863201D02*
G75*
G03*
X169750000Y-95863201I-2000000J0D01*
G01*
%TD*%
M02*
