%TF.GenerationSoftware,KiCad,Pcbnew,7.0.7*%
%TF.CreationDate,2024-06-16T23:06:21-04:00*%
%TF.ProjectId,midi-controller_oled-board_teensy_v2,6d696469-2d63-46f6-9e74-726f6c6c6572,rev?*%
%TF.SameCoordinates,Original*%
%TF.FileFunction,Legend,Top*%
%TF.FilePolarity,Positive*%
%FSLAX46Y46*%
G04 Gerber Fmt 4.6, Leading zero omitted, Abs format (unit mm)*
G04 Created by KiCad (PCBNEW 7.0.7) date 2024-06-16 23:06:21*
%MOMM*%
%LPD*%
G01*
G04 APERTURE LIST*
%ADD10C,0.100000*%
%ADD11C,0.203200*%
G04 APERTURE END LIST*
D10*
X327995714Y-63067419D02*
X327995714Y-62067419D01*
X327995714Y-62067419D02*
X328233809Y-62067419D01*
X328233809Y-62067419D02*
X328376666Y-62115038D01*
X328376666Y-62115038D02*
X328471904Y-62210276D01*
X328471904Y-62210276D02*
X328519523Y-62305514D01*
X328519523Y-62305514D02*
X328567142Y-62495990D01*
X328567142Y-62495990D02*
X328567142Y-62638847D01*
X328567142Y-62638847D02*
X328519523Y-62829323D01*
X328519523Y-62829323D02*
X328471904Y-62924561D01*
X328471904Y-62924561D02*
X328376666Y-63019800D01*
X328376666Y-63019800D02*
X328233809Y-63067419D01*
X328233809Y-63067419D02*
X327995714Y-63067419D01*
X328948095Y-63019800D02*
X329090952Y-63067419D01*
X329090952Y-63067419D02*
X329329047Y-63067419D01*
X329329047Y-63067419D02*
X329424285Y-63019800D01*
X329424285Y-63019800D02*
X329471904Y-62972180D01*
X329471904Y-62972180D02*
X329519523Y-62876942D01*
X329519523Y-62876942D02*
X329519523Y-62781704D01*
X329519523Y-62781704D02*
X329471904Y-62686466D01*
X329471904Y-62686466D02*
X329424285Y-62638847D01*
X329424285Y-62638847D02*
X329329047Y-62591228D01*
X329329047Y-62591228D02*
X329138571Y-62543609D01*
X329138571Y-62543609D02*
X329043333Y-62495990D01*
X329043333Y-62495990D02*
X328995714Y-62448371D01*
X328995714Y-62448371D02*
X328948095Y-62353133D01*
X328948095Y-62353133D02*
X328948095Y-62257895D01*
X328948095Y-62257895D02*
X328995714Y-62162657D01*
X328995714Y-62162657D02*
X329043333Y-62115038D01*
X329043333Y-62115038D02*
X329138571Y-62067419D01*
X329138571Y-62067419D02*
X329376666Y-62067419D01*
X329376666Y-62067419D02*
X329519523Y-62115038D01*
X330090952Y-62495990D02*
X329995714Y-62448371D01*
X329995714Y-62448371D02*
X329948095Y-62400752D01*
X329948095Y-62400752D02*
X329900476Y-62305514D01*
X329900476Y-62305514D02*
X329900476Y-62257895D01*
X329900476Y-62257895D02*
X329948095Y-62162657D01*
X329948095Y-62162657D02*
X329995714Y-62115038D01*
X329995714Y-62115038D02*
X330090952Y-62067419D01*
X330090952Y-62067419D02*
X330281428Y-62067419D01*
X330281428Y-62067419D02*
X330376666Y-62115038D01*
X330376666Y-62115038D02*
X330424285Y-62162657D01*
X330424285Y-62162657D02*
X330471904Y-62257895D01*
X330471904Y-62257895D02*
X330471904Y-62305514D01*
X330471904Y-62305514D02*
X330424285Y-62400752D01*
X330424285Y-62400752D02*
X330376666Y-62448371D01*
X330376666Y-62448371D02*
X330281428Y-62495990D01*
X330281428Y-62495990D02*
X330090952Y-62495990D01*
X330090952Y-62495990D02*
X329995714Y-62543609D01*
X329995714Y-62543609D02*
X329948095Y-62591228D01*
X329948095Y-62591228D02*
X329900476Y-62686466D01*
X329900476Y-62686466D02*
X329900476Y-62876942D01*
X329900476Y-62876942D02*
X329948095Y-62972180D01*
X329948095Y-62972180D02*
X329995714Y-63019800D01*
X329995714Y-63019800D02*
X330090952Y-63067419D01*
X330090952Y-63067419D02*
X330281428Y-63067419D01*
X330281428Y-63067419D02*
X330376666Y-63019800D01*
X330376666Y-63019800D02*
X330424285Y-62972180D01*
X330424285Y-62972180D02*
X330471904Y-62876942D01*
X330471904Y-62876942D02*
X330471904Y-62686466D01*
X330471904Y-62686466D02*
X330424285Y-62591228D01*
X330424285Y-62591228D02*
X330376666Y-62543609D01*
X330376666Y-62543609D02*
X330281428Y-62495990D01*
X117995714Y-63067419D02*
X117995714Y-62067419D01*
X117995714Y-62067419D02*
X118233809Y-62067419D01*
X118233809Y-62067419D02*
X118376666Y-62115038D01*
X118376666Y-62115038D02*
X118471904Y-62210276D01*
X118471904Y-62210276D02*
X118519523Y-62305514D01*
X118519523Y-62305514D02*
X118567142Y-62495990D01*
X118567142Y-62495990D02*
X118567142Y-62638847D01*
X118567142Y-62638847D02*
X118519523Y-62829323D01*
X118519523Y-62829323D02*
X118471904Y-62924561D01*
X118471904Y-62924561D02*
X118376666Y-63019800D01*
X118376666Y-63019800D02*
X118233809Y-63067419D01*
X118233809Y-63067419D02*
X117995714Y-63067419D01*
X118948095Y-63019800D02*
X119090952Y-63067419D01*
X119090952Y-63067419D02*
X119329047Y-63067419D01*
X119329047Y-63067419D02*
X119424285Y-63019800D01*
X119424285Y-63019800D02*
X119471904Y-62972180D01*
X119471904Y-62972180D02*
X119519523Y-62876942D01*
X119519523Y-62876942D02*
X119519523Y-62781704D01*
X119519523Y-62781704D02*
X119471904Y-62686466D01*
X119471904Y-62686466D02*
X119424285Y-62638847D01*
X119424285Y-62638847D02*
X119329047Y-62591228D01*
X119329047Y-62591228D02*
X119138571Y-62543609D01*
X119138571Y-62543609D02*
X119043333Y-62495990D01*
X119043333Y-62495990D02*
X118995714Y-62448371D01*
X118995714Y-62448371D02*
X118948095Y-62353133D01*
X118948095Y-62353133D02*
X118948095Y-62257895D01*
X118948095Y-62257895D02*
X118995714Y-62162657D01*
X118995714Y-62162657D02*
X119043333Y-62115038D01*
X119043333Y-62115038D02*
X119138571Y-62067419D01*
X119138571Y-62067419D02*
X119376666Y-62067419D01*
X119376666Y-62067419D02*
X119519523Y-62115038D01*
X119900476Y-62162657D02*
X119948095Y-62115038D01*
X119948095Y-62115038D02*
X120043333Y-62067419D01*
X120043333Y-62067419D02*
X120281428Y-62067419D01*
X120281428Y-62067419D02*
X120376666Y-62115038D01*
X120376666Y-62115038D02*
X120424285Y-62162657D01*
X120424285Y-62162657D02*
X120471904Y-62257895D01*
X120471904Y-62257895D02*
X120471904Y-62353133D01*
X120471904Y-62353133D02*
X120424285Y-62495990D01*
X120424285Y-62495990D02*
X119852857Y-63067419D01*
X119852857Y-63067419D02*
X120471904Y-63067419D01*
X222995714Y-63067419D02*
X222995714Y-62067419D01*
X222995714Y-62067419D02*
X223233809Y-62067419D01*
X223233809Y-62067419D02*
X223376666Y-62115038D01*
X223376666Y-62115038D02*
X223471904Y-62210276D01*
X223471904Y-62210276D02*
X223519523Y-62305514D01*
X223519523Y-62305514D02*
X223567142Y-62495990D01*
X223567142Y-62495990D02*
X223567142Y-62638847D01*
X223567142Y-62638847D02*
X223519523Y-62829323D01*
X223519523Y-62829323D02*
X223471904Y-62924561D01*
X223471904Y-62924561D02*
X223376666Y-63019800D01*
X223376666Y-63019800D02*
X223233809Y-63067419D01*
X223233809Y-63067419D02*
X222995714Y-63067419D01*
X223948095Y-63019800D02*
X224090952Y-63067419D01*
X224090952Y-63067419D02*
X224329047Y-63067419D01*
X224329047Y-63067419D02*
X224424285Y-63019800D01*
X224424285Y-63019800D02*
X224471904Y-62972180D01*
X224471904Y-62972180D02*
X224519523Y-62876942D01*
X224519523Y-62876942D02*
X224519523Y-62781704D01*
X224519523Y-62781704D02*
X224471904Y-62686466D01*
X224471904Y-62686466D02*
X224424285Y-62638847D01*
X224424285Y-62638847D02*
X224329047Y-62591228D01*
X224329047Y-62591228D02*
X224138571Y-62543609D01*
X224138571Y-62543609D02*
X224043333Y-62495990D01*
X224043333Y-62495990D02*
X223995714Y-62448371D01*
X223995714Y-62448371D02*
X223948095Y-62353133D01*
X223948095Y-62353133D02*
X223948095Y-62257895D01*
X223948095Y-62257895D02*
X223995714Y-62162657D01*
X223995714Y-62162657D02*
X224043333Y-62115038D01*
X224043333Y-62115038D02*
X224138571Y-62067419D01*
X224138571Y-62067419D02*
X224376666Y-62067419D01*
X224376666Y-62067419D02*
X224519523Y-62115038D01*
X225424285Y-62067419D02*
X224948095Y-62067419D01*
X224948095Y-62067419D02*
X224900476Y-62543609D01*
X224900476Y-62543609D02*
X224948095Y-62495990D01*
X224948095Y-62495990D02*
X225043333Y-62448371D01*
X225043333Y-62448371D02*
X225281428Y-62448371D01*
X225281428Y-62448371D02*
X225376666Y-62495990D01*
X225376666Y-62495990D02*
X225424285Y-62543609D01*
X225424285Y-62543609D02*
X225471904Y-62638847D01*
X225471904Y-62638847D02*
X225471904Y-62876942D01*
X225471904Y-62876942D02*
X225424285Y-62972180D01*
X225424285Y-62972180D02*
X225376666Y-63019800D01*
X225376666Y-63019800D02*
X225281428Y-63067419D01*
X225281428Y-63067419D02*
X225043333Y-63067419D01*
X225043333Y-63067419D02*
X224948095Y-63019800D01*
X224948095Y-63019800D02*
X224900476Y-62972180D01*
X257995714Y-63067419D02*
X257995714Y-62067419D01*
X257995714Y-62067419D02*
X258233809Y-62067419D01*
X258233809Y-62067419D02*
X258376666Y-62115038D01*
X258376666Y-62115038D02*
X258471904Y-62210276D01*
X258471904Y-62210276D02*
X258519523Y-62305514D01*
X258519523Y-62305514D02*
X258567142Y-62495990D01*
X258567142Y-62495990D02*
X258567142Y-62638847D01*
X258567142Y-62638847D02*
X258519523Y-62829323D01*
X258519523Y-62829323D02*
X258471904Y-62924561D01*
X258471904Y-62924561D02*
X258376666Y-63019800D01*
X258376666Y-63019800D02*
X258233809Y-63067419D01*
X258233809Y-63067419D02*
X257995714Y-63067419D01*
X258948095Y-63019800D02*
X259090952Y-63067419D01*
X259090952Y-63067419D02*
X259329047Y-63067419D01*
X259329047Y-63067419D02*
X259424285Y-63019800D01*
X259424285Y-63019800D02*
X259471904Y-62972180D01*
X259471904Y-62972180D02*
X259519523Y-62876942D01*
X259519523Y-62876942D02*
X259519523Y-62781704D01*
X259519523Y-62781704D02*
X259471904Y-62686466D01*
X259471904Y-62686466D02*
X259424285Y-62638847D01*
X259424285Y-62638847D02*
X259329047Y-62591228D01*
X259329047Y-62591228D02*
X259138571Y-62543609D01*
X259138571Y-62543609D02*
X259043333Y-62495990D01*
X259043333Y-62495990D02*
X258995714Y-62448371D01*
X258995714Y-62448371D02*
X258948095Y-62353133D01*
X258948095Y-62353133D02*
X258948095Y-62257895D01*
X258948095Y-62257895D02*
X258995714Y-62162657D01*
X258995714Y-62162657D02*
X259043333Y-62115038D01*
X259043333Y-62115038D02*
X259138571Y-62067419D01*
X259138571Y-62067419D02*
X259376666Y-62067419D01*
X259376666Y-62067419D02*
X259519523Y-62115038D01*
X260376666Y-62067419D02*
X260186190Y-62067419D01*
X260186190Y-62067419D02*
X260090952Y-62115038D01*
X260090952Y-62115038D02*
X260043333Y-62162657D01*
X260043333Y-62162657D02*
X259948095Y-62305514D01*
X259948095Y-62305514D02*
X259900476Y-62495990D01*
X259900476Y-62495990D02*
X259900476Y-62876942D01*
X259900476Y-62876942D02*
X259948095Y-62972180D01*
X259948095Y-62972180D02*
X259995714Y-63019800D01*
X259995714Y-63019800D02*
X260090952Y-63067419D01*
X260090952Y-63067419D02*
X260281428Y-63067419D01*
X260281428Y-63067419D02*
X260376666Y-63019800D01*
X260376666Y-63019800D02*
X260424285Y-62972180D01*
X260424285Y-62972180D02*
X260471904Y-62876942D01*
X260471904Y-62876942D02*
X260471904Y-62638847D01*
X260471904Y-62638847D02*
X260424285Y-62543609D01*
X260424285Y-62543609D02*
X260376666Y-62495990D01*
X260376666Y-62495990D02*
X260281428Y-62448371D01*
X260281428Y-62448371D02*
X260090952Y-62448371D01*
X260090952Y-62448371D02*
X259995714Y-62495990D01*
X259995714Y-62495990D02*
X259948095Y-62543609D01*
X259948095Y-62543609D02*
X259900476Y-62638847D01*
X152995714Y-63067419D02*
X152995714Y-62067419D01*
X152995714Y-62067419D02*
X153233809Y-62067419D01*
X153233809Y-62067419D02*
X153376666Y-62115038D01*
X153376666Y-62115038D02*
X153471904Y-62210276D01*
X153471904Y-62210276D02*
X153519523Y-62305514D01*
X153519523Y-62305514D02*
X153567142Y-62495990D01*
X153567142Y-62495990D02*
X153567142Y-62638847D01*
X153567142Y-62638847D02*
X153519523Y-62829323D01*
X153519523Y-62829323D02*
X153471904Y-62924561D01*
X153471904Y-62924561D02*
X153376666Y-63019800D01*
X153376666Y-63019800D02*
X153233809Y-63067419D01*
X153233809Y-63067419D02*
X152995714Y-63067419D01*
X153948095Y-63019800D02*
X154090952Y-63067419D01*
X154090952Y-63067419D02*
X154329047Y-63067419D01*
X154329047Y-63067419D02*
X154424285Y-63019800D01*
X154424285Y-63019800D02*
X154471904Y-62972180D01*
X154471904Y-62972180D02*
X154519523Y-62876942D01*
X154519523Y-62876942D02*
X154519523Y-62781704D01*
X154519523Y-62781704D02*
X154471904Y-62686466D01*
X154471904Y-62686466D02*
X154424285Y-62638847D01*
X154424285Y-62638847D02*
X154329047Y-62591228D01*
X154329047Y-62591228D02*
X154138571Y-62543609D01*
X154138571Y-62543609D02*
X154043333Y-62495990D01*
X154043333Y-62495990D02*
X153995714Y-62448371D01*
X153995714Y-62448371D02*
X153948095Y-62353133D01*
X153948095Y-62353133D02*
X153948095Y-62257895D01*
X153948095Y-62257895D02*
X153995714Y-62162657D01*
X153995714Y-62162657D02*
X154043333Y-62115038D01*
X154043333Y-62115038D02*
X154138571Y-62067419D01*
X154138571Y-62067419D02*
X154376666Y-62067419D01*
X154376666Y-62067419D02*
X154519523Y-62115038D01*
X154852857Y-62067419D02*
X155471904Y-62067419D01*
X155471904Y-62067419D02*
X155138571Y-62448371D01*
X155138571Y-62448371D02*
X155281428Y-62448371D01*
X155281428Y-62448371D02*
X155376666Y-62495990D01*
X155376666Y-62495990D02*
X155424285Y-62543609D01*
X155424285Y-62543609D02*
X155471904Y-62638847D01*
X155471904Y-62638847D02*
X155471904Y-62876942D01*
X155471904Y-62876942D02*
X155424285Y-62972180D01*
X155424285Y-62972180D02*
X155376666Y-63019800D01*
X155376666Y-63019800D02*
X155281428Y-63067419D01*
X155281428Y-63067419D02*
X154995714Y-63067419D01*
X154995714Y-63067419D02*
X154900476Y-63019800D01*
X154900476Y-63019800D02*
X154852857Y-62972180D01*
X82995714Y-63067419D02*
X82995714Y-62067419D01*
X82995714Y-62067419D02*
X83233809Y-62067419D01*
X83233809Y-62067419D02*
X83376666Y-62115038D01*
X83376666Y-62115038D02*
X83471904Y-62210276D01*
X83471904Y-62210276D02*
X83519523Y-62305514D01*
X83519523Y-62305514D02*
X83567142Y-62495990D01*
X83567142Y-62495990D02*
X83567142Y-62638847D01*
X83567142Y-62638847D02*
X83519523Y-62829323D01*
X83519523Y-62829323D02*
X83471904Y-62924561D01*
X83471904Y-62924561D02*
X83376666Y-63019800D01*
X83376666Y-63019800D02*
X83233809Y-63067419D01*
X83233809Y-63067419D02*
X82995714Y-63067419D01*
X83948095Y-63019800D02*
X84090952Y-63067419D01*
X84090952Y-63067419D02*
X84329047Y-63067419D01*
X84329047Y-63067419D02*
X84424285Y-63019800D01*
X84424285Y-63019800D02*
X84471904Y-62972180D01*
X84471904Y-62972180D02*
X84519523Y-62876942D01*
X84519523Y-62876942D02*
X84519523Y-62781704D01*
X84519523Y-62781704D02*
X84471904Y-62686466D01*
X84471904Y-62686466D02*
X84424285Y-62638847D01*
X84424285Y-62638847D02*
X84329047Y-62591228D01*
X84329047Y-62591228D02*
X84138571Y-62543609D01*
X84138571Y-62543609D02*
X84043333Y-62495990D01*
X84043333Y-62495990D02*
X83995714Y-62448371D01*
X83995714Y-62448371D02*
X83948095Y-62353133D01*
X83948095Y-62353133D02*
X83948095Y-62257895D01*
X83948095Y-62257895D02*
X83995714Y-62162657D01*
X83995714Y-62162657D02*
X84043333Y-62115038D01*
X84043333Y-62115038D02*
X84138571Y-62067419D01*
X84138571Y-62067419D02*
X84376666Y-62067419D01*
X84376666Y-62067419D02*
X84519523Y-62115038D01*
X85471904Y-63067419D02*
X84900476Y-63067419D01*
X85186190Y-63067419D02*
X85186190Y-62067419D01*
X85186190Y-62067419D02*
X85090952Y-62210276D01*
X85090952Y-62210276D02*
X84995714Y-62305514D01*
X84995714Y-62305514D02*
X84900476Y-62353133D01*
X292995714Y-63067419D02*
X292995714Y-62067419D01*
X292995714Y-62067419D02*
X293233809Y-62067419D01*
X293233809Y-62067419D02*
X293376666Y-62115038D01*
X293376666Y-62115038D02*
X293471904Y-62210276D01*
X293471904Y-62210276D02*
X293519523Y-62305514D01*
X293519523Y-62305514D02*
X293567142Y-62495990D01*
X293567142Y-62495990D02*
X293567142Y-62638847D01*
X293567142Y-62638847D02*
X293519523Y-62829323D01*
X293519523Y-62829323D02*
X293471904Y-62924561D01*
X293471904Y-62924561D02*
X293376666Y-63019800D01*
X293376666Y-63019800D02*
X293233809Y-63067419D01*
X293233809Y-63067419D02*
X292995714Y-63067419D01*
X293948095Y-63019800D02*
X294090952Y-63067419D01*
X294090952Y-63067419D02*
X294329047Y-63067419D01*
X294329047Y-63067419D02*
X294424285Y-63019800D01*
X294424285Y-63019800D02*
X294471904Y-62972180D01*
X294471904Y-62972180D02*
X294519523Y-62876942D01*
X294519523Y-62876942D02*
X294519523Y-62781704D01*
X294519523Y-62781704D02*
X294471904Y-62686466D01*
X294471904Y-62686466D02*
X294424285Y-62638847D01*
X294424285Y-62638847D02*
X294329047Y-62591228D01*
X294329047Y-62591228D02*
X294138571Y-62543609D01*
X294138571Y-62543609D02*
X294043333Y-62495990D01*
X294043333Y-62495990D02*
X293995714Y-62448371D01*
X293995714Y-62448371D02*
X293948095Y-62353133D01*
X293948095Y-62353133D02*
X293948095Y-62257895D01*
X293948095Y-62257895D02*
X293995714Y-62162657D01*
X293995714Y-62162657D02*
X294043333Y-62115038D01*
X294043333Y-62115038D02*
X294138571Y-62067419D01*
X294138571Y-62067419D02*
X294376666Y-62067419D01*
X294376666Y-62067419D02*
X294519523Y-62115038D01*
X294852857Y-62067419D02*
X295519523Y-62067419D01*
X295519523Y-62067419D02*
X295090952Y-63067419D01*
X187995714Y-63067419D02*
X187995714Y-62067419D01*
X187995714Y-62067419D02*
X188233809Y-62067419D01*
X188233809Y-62067419D02*
X188376666Y-62115038D01*
X188376666Y-62115038D02*
X188471904Y-62210276D01*
X188471904Y-62210276D02*
X188519523Y-62305514D01*
X188519523Y-62305514D02*
X188567142Y-62495990D01*
X188567142Y-62495990D02*
X188567142Y-62638847D01*
X188567142Y-62638847D02*
X188519523Y-62829323D01*
X188519523Y-62829323D02*
X188471904Y-62924561D01*
X188471904Y-62924561D02*
X188376666Y-63019800D01*
X188376666Y-63019800D02*
X188233809Y-63067419D01*
X188233809Y-63067419D02*
X187995714Y-63067419D01*
X188948095Y-63019800D02*
X189090952Y-63067419D01*
X189090952Y-63067419D02*
X189329047Y-63067419D01*
X189329047Y-63067419D02*
X189424285Y-63019800D01*
X189424285Y-63019800D02*
X189471904Y-62972180D01*
X189471904Y-62972180D02*
X189519523Y-62876942D01*
X189519523Y-62876942D02*
X189519523Y-62781704D01*
X189519523Y-62781704D02*
X189471904Y-62686466D01*
X189471904Y-62686466D02*
X189424285Y-62638847D01*
X189424285Y-62638847D02*
X189329047Y-62591228D01*
X189329047Y-62591228D02*
X189138571Y-62543609D01*
X189138571Y-62543609D02*
X189043333Y-62495990D01*
X189043333Y-62495990D02*
X188995714Y-62448371D01*
X188995714Y-62448371D02*
X188948095Y-62353133D01*
X188948095Y-62353133D02*
X188948095Y-62257895D01*
X188948095Y-62257895D02*
X188995714Y-62162657D01*
X188995714Y-62162657D02*
X189043333Y-62115038D01*
X189043333Y-62115038D02*
X189138571Y-62067419D01*
X189138571Y-62067419D02*
X189376666Y-62067419D01*
X189376666Y-62067419D02*
X189519523Y-62115038D01*
X190376666Y-62400752D02*
X190376666Y-63067419D01*
X190138571Y-62019800D02*
X189900476Y-62734085D01*
X189900476Y-62734085D02*
X190519523Y-62734085D01*
D11*
%TO.C,DS8*%
X301710000Y-61110000D02*
X301710000Y-72610000D01*
X331710000Y-61110000D02*
X301710000Y-61110000D01*
X331710000Y-61110000D02*
X331710000Y-72610000D01*
X331710000Y-72610000D02*
X301710000Y-72610000D01*
%TO.C,DS2*%
X91710000Y-61110000D02*
X91710000Y-72610000D01*
X121710000Y-61110000D02*
X91710000Y-61110000D01*
X121710000Y-61110000D02*
X121710000Y-72610000D01*
X121710000Y-72610000D02*
X91710000Y-72610000D01*
%TO.C,H1*%
X56000000Y-57000000D02*
G75*
G03*
X56000000Y-57000000I-2000000J0D01*
G01*
%TO.C,DS5*%
X196710000Y-61110000D02*
X196710000Y-72610000D01*
X226710000Y-61110000D02*
X196710000Y-61110000D01*
X226710000Y-61110000D02*
X226710000Y-72610000D01*
X226710000Y-72610000D02*
X196710000Y-72610000D01*
%TO.C,DS6*%
X231710000Y-61110000D02*
X231710000Y-72610000D01*
X261710000Y-61110000D02*
X231710000Y-61110000D01*
X261710000Y-61110000D02*
X261710000Y-72610000D01*
X261710000Y-72610000D02*
X231710000Y-72610000D01*
%TO.C,H2*%
X337000000Y-57000000D02*
G75*
G03*
X337000000Y-57000000I-2000000J0D01*
G01*
%TO.C,DS3*%
X126710000Y-61110000D02*
X126710000Y-72610000D01*
X156710000Y-61110000D02*
X126710000Y-61110000D01*
X156710000Y-61110000D02*
X156710000Y-72610000D01*
X156710000Y-72610000D02*
X126710000Y-72610000D01*
%TO.C,DS1*%
X56710000Y-61110000D02*
X56710000Y-72610000D01*
X86710000Y-61110000D02*
X56710000Y-61110000D01*
X86710000Y-61110000D02*
X86710000Y-72610000D01*
X86710000Y-72610000D02*
X56710000Y-72610000D01*
%TO.C,DS7*%
X266710000Y-61110000D02*
X266710000Y-72610000D01*
X296710000Y-61110000D02*
X266710000Y-61110000D01*
X296710000Y-61110000D02*
X296710000Y-72610000D01*
X296710000Y-72610000D02*
X266710000Y-72610000D01*
%TO.C,DS4*%
X161710000Y-61110000D02*
X161710000Y-72610000D01*
X191710000Y-61110000D02*
X161710000Y-61110000D01*
X191710000Y-61110000D02*
X191710000Y-72610000D01*
X191710000Y-72610000D02*
X161710000Y-72610000D01*
%TD*%
M02*
