M48
; DRILL file {KiCad 7.0.7} date Sun Jun 16 23:06:23 2024
; FORMAT={-:-/ absolute / inch / decimal}
; #@! TF.CreationDate,2024-06-16T23:06:23-04:00
; #@! TF.GenerationSoftware,Kicad,Pcbnew,7.0.7
; #@! TF.FileFunction,Plated,1,2,PTH
FMAT,2
INCH
; #@! TA.AperFunction,Plated,PTH,ViaDrill
T1C0.0100
; #@! TA.AperFunction,Plated,PTH,ComponentDrill
T2C0.1000
%
G90
G05
T1
X2.3465Y-2.7561
X2.4367Y-2.1641
X2.4525Y-2.9161
X2.4559Y-2.1831
X2.4725Y-2.8971
X2.4764Y-2.2021
X2.4954Y-2.2214
X2.5144Y-2.2407
X2.5334Y-2.2597
X2.5523Y-2.2786
X2.5713Y-2.2983
X2.5903Y-2.3174
X2.6093Y-2.3365
X2.6378Y-2.6024
X2.6575Y-2.5827
X2.6575Y-2.7402
X2.7416Y-2.378
X2.7559Y-2.7205
X2.7605Y-2.3569
X2.7795Y-2.2981
X3.6654Y-2.3569
X3.689Y-2.3189
X3.689Y-2.878
X3.7165Y-2.9161
X3.7402Y-2.378
X3.7638Y-2.8583
X3.7677Y-2.3386
X3.7913Y-2.8976
X3.8228Y-2.3307
X3.8465Y-2.5039
X3.9961Y-2.8944
X4.0157Y-2.9134
X4.0354Y-2.7402
X4.122Y-2.378
X4.1339Y-2.7205
X4.1413Y-2.3583
X4.1614Y-2.2786
X5.374Y-2.8944
X5.3937Y-2.9134
X5.4134Y-2.7402
X5.4998Y-2.3782
X5.5118Y-2.7205
X5.5165Y-2.3583
X5.5354Y-2.2597
X6.752Y-2.8944
X6.7717Y-2.9134
X6.7913Y-2.7402
X6.8777Y-2.3782
X6.8898Y-2.7205
X6.8944Y-2.3583
X6.9134Y-2.2407
X8.1299Y-2.8944
X8.1496Y-2.9134
X8.1693Y-2.7402
X8.2557Y-2.3782
X8.2677Y-2.7205
X8.2724Y-2.3583
X8.2913Y-2.2214
X9.5079Y-2.8944
X9.5276Y-2.9134
X9.5472Y-2.7402
X9.6346Y-2.3788
X9.6457Y-2.7205
X9.6531Y-2.3583
X9.6732Y-2.2021
X10.8858Y-2.8944
X10.9055Y-2.9134
X10.9252Y-2.7402
X11.0118Y-2.378
X11.0236Y-2.7205
X11.0311Y-2.3583
X11.0512Y-2.1831
X12.2638Y-2.8944
X12.2835Y-2.9134
X12.3031Y-2.7402
X12.3874Y-2.3772
X12.4016Y-2.7205
X12.4062Y-2.3583
X12.4252Y-2.1641
T2
X2.126Y-2.2441
X13.189Y-2.2441
T0
M30
