M48
; DRILL file {KiCad 7.0.7} date Wed Mar 27 00:11:00 2024
; FORMAT={-:-/ absolute / inch / decimal}
; #@! TF.CreationDate,2024-03-27T00:11:00-04:00
; #@! TF.GenerationSoftware,Kicad,Pcbnew,7.0.7
; #@! TF.FileFunction,Plated,1,2,PTH
FMAT,2
INCH
; #@! TA.AperFunction,Plated,PTH,ViaDrill
T1C0.0100
; #@! TA.AperFunction,Plated,PTH,ComponentDrill
T2C0.1000
%
G90
G05
T1
X2.3465Y-2.7561
X2.4367Y-2.1641
X2.4525Y-2.9161
X2.4559Y-2.1831
X2.4725Y-2.8971
X2.4764Y-2.2021
X2.4954Y-2.2214
X2.5144Y-2.2407
X2.5334Y-2.2597
X2.5365Y-2.8971
X2.5523Y-2.2786
X2.5565Y-2.9161
X2.5713Y-2.2983
X2.5765Y-2.7401
X2.5903Y-2.3174
X2.6093Y-2.3365
X2.6625Y-2.3365
X2.6815Y-2.3173
X2.7005Y-2.2981
X3.9145Y-2.8971
X3.9345Y-2.9161
X3.9545Y-2.7401
X4.0405Y-2.3366
X4.0595Y-2.3171
X4.0785Y-2.2786
X5.2935Y-2.8971
X5.3125Y-2.9161
X5.3325Y-2.7401
X5.4185Y-2.3371
X5.4375Y-2.3171
X5.4565Y-2.2597
X6.6705Y-2.8971
X6.6905Y-2.9161
X6.7105Y-2.7421
X6.7945Y-2.3371
X6.8145Y-2.3171
X6.8345Y-2.2407
X8.0445Y-2.8971
X8.0685Y-2.9161
X8.0885Y-2.7401
X8.1745Y-2.3379
X8.1935Y-2.3171
X8.2125Y-2.2214
X9.4245Y-2.8971
X9.4445Y-2.9161
X9.4665Y-2.7401
X9.5505Y-2.3371
X9.5685Y-2.3171
X9.5885Y-2.2021
X10.8045Y-2.8971
X10.8245Y-2.9161
X10.8445Y-2.7421
X10.9265Y-2.3371
X10.9445Y-2.3171
X10.9645Y-2.1831
X12.1825Y-2.8971
X12.2025Y-2.9161
X12.2225Y-2.7401
X12.3045Y-2.3371
X12.3245Y-2.3141
X12.3445Y-2.1641
T2
X2.126Y-2.2441
X13.189Y-2.2441
T0
M30
