%TF.GenerationSoftware,KiCad,Pcbnew,7.0.7*%
%TF.CreationDate,2024-03-27T00:10:57-04:00*%
%TF.ProjectId,midi-controller_oled-board_teensy,6d696469-2d63-46f6-9e74-726f6c6c6572,rev?*%
%TF.SameCoordinates,Original*%
%TF.FileFunction,Profile,NP*%
%FSLAX46Y46*%
G04 Gerber Fmt 4.6, Leading zero omitted, Abs format (unit mm)*
G04 Created by KiCad (PCBNEW 7.0.7) date 2024-03-27 00:10:57*
%MOMM*%
%LPD*%
G01*
G04 APERTURE LIST*
%TA.AperFunction,Profile*%
%ADD10C,0.100000*%
%TD*%
G04 APERTURE END LIST*
D10*
X160750000Y-63250000D02*
G75*
G03*
X159250000Y-63250000I-750000J0D01*
G01*
X89250000Y-71250000D02*
G75*
G03*
X90750000Y-71250000I750000J0D01*
G01*
X195750000Y-63250000D02*
X195750000Y-71250000D01*
X335750000Y-63250000D02*
G75*
G03*
X334250000Y-63250000I-750000J0D01*
G01*
X265750000Y-63250000D02*
G75*
G03*
X264250000Y-63250000I-750000J0D01*
G01*
X230750000Y-63250000D02*
G75*
G03*
X229250000Y-63250000I-750000J0D01*
G01*
X265750000Y-63250000D02*
X265750000Y-71250000D01*
X300750000Y-63250000D02*
G75*
G03*
X299250000Y-63250000I-750000J0D01*
G01*
X338000000Y-57000000D02*
X338000000Y-72000000D01*
X335000000Y-75000000D02*
G75*
G03*
X338000000Y-72000000I0J3000000D01*
G01*
X338000000Y-57000000D02*
G75*
G03*
X335000000Y-54000000I-3000000J0D01*
G01*
X195750000Y-63250000D02*
G75*
G03*
X194250000Y-63250000I-750000J0D01*
G01*
X159250000Y-63250000D02*
X159250000Y-71250000D01*
X334250000Y-63250000D02*
X334250000Y-71250000D01*
X125750000Y-63250000D02*
X125750000Y-71250000D01*
X90750000Y-63250000D02*
X90750000Y-71250000D01*
X299250000Y-63250000D02*
X299250000Y-71250000D01*
X264250000Y-71250000D02*
G75*
G03*
X265750000Y-71250000I750000J0D01*
G01*
X51000000Y-72000000D02*
G75*
G03*
X54000000Y-75000000I3000000J0D01*
G01*
X230750000Y-63250000D02*
X230750000Y-71250000D01*
X335750000Y-63250000D02*
X335750000Y-71250000D01*
X299250000Y-71250000D02*
G75*
G03*
X300750000Y-71250000I750000J0D01*
G01*
X124250000Y-71250000D02*
G75*
G03*
X125750000Y-71250000I750000J0D01*
G01*
X89250000Y-63250000D02*
X89250000Y-71250000D01*
X124250000Y-63250000D02*
X124250000Y-71250000D01*
X51000000Y-57000000D02*
X51000000Y-72000000D01*
X54000000Y-75000000D02*
X335000000Y-75000000D01*
X159250000Y-71250000D02*
G75*
G03*
X160750000Y-71250000I750000J0D01*
G01*
X264250000Y-63250000D02*
X264250000Y-71250000D01*
X90750000Y-63250000D02*
G75*
G03*
X89250000Y-63250000I-750000J0D01*
G01*
X194250000Y-63250000D02*
X194250000Y-71250000D01*
X229250000Y-63250000D02*
X229250000Y-71250000D01*
X194250000Y-71250000D02*
G75*
G03*
X195750000Y-71250000I750000J0D01*
G01*
X300750000Y-63250000D02*
X300750000Y-71250000D01*
X334250000Y-71250000D02*
G75*
G03*
X335750000Y-71250000I750000J0D01*
G01*
X335000000Y-54000000D02*
X54000000Y-54000000D01*
X54000000Y-54000000D02*
G75*
G03*
X51000000Y-57000000I0J-3000000D01*
G01*
X229250000Y-71250000D02*
G75*
G03*
X230750000Y-71250000I750000J0D01*
G01*
X160750000Y-63250000D02*
X160750000Y-71250000D01*
X125750000Y-63250000D02*
G75*
G03*
X124250000Y-63250000I-750000J0D01*
G01*
M02*
