%TF.GenerationSoftware,KiCad,Pcbnew,7.0.7*%
%TF.CreationDate,2024-01-26T16:38:04-05:00*%
%TF.ProjectId,midi-controller_main-board,6d696469-2d63-46f6-9e74-726f6c6c6572,rev?*%
%TF.SameCoordinates,Original*%
%TF.FileFunction,Legend,Top*%
%TF.FilePolarity,Positive*%
%FSLAX46Y46*%
G04 Gerber Fmt 4.6, Leading zero omitted, Abs format (unit mm)*
G04 Created by KiCad (PCBNEW 7.0.7) date 2024-01-26 16:38:04*
%MOMM*%
%LPD*%
G01*
G04 APERTURE LIST*
%ADD10C,0.100000*%
%ADD11C,0.150000*%
%ADD12C,0.120000*%
%ADD13C,0.203200*%
G04 APERTURE END LIST*
D10*
X351252761Y-118331419D02*
X350919428Y-117855228D01*
X350681333Y-118331419D02*
X350681333Y-117331419D01*
X350681333Y-117331419D02*
X351062285Y-117331419D01*
X351062285Y-117331419D02*
X351157523Y-117379038D01*
X351157523Y-117379038D02*
X351205142Y-117426657D01*
X351205142Y-117426657D02*
X351252761Y-117521895D01*
X351252761Y-117521895D02*
X351252761Y-117664752D01*
X351252761Y-117664752D02*
X351205142Y-117759990D01*
X351205142Y-117759990D02*
X351157523Y-117807609D01*
X351157523Y-117807609D02*
X351062285Y-117855228D01*
X351062285Y-117855228D02*
X350681333Y-117855228D01*
X351538476Y-117331419D02*
X351871809Y-118331419D01*
X351871809Y-118331419D02*
X352205142Y-117331419D01*
X352681333Y-117759990D02*
X352586095Y-117712371D01*
X352586095Y-117712371D02*
X352538476Y-117664752D01*
X352538476Y-117664752D02*
X352490857Y-117569514D01*
X352490857Y-117569514D02*
X352490857Y-117521895D01*
X352490857Y-117521895D02*
X352538476Y-117426657D01*
X352538476Y-117426657D02*
X352586095Y-117379038D01*
X352586095Y-117379038D02*
X352681333Y-117331419D01*
X352681333Y-117331419D02*
X352871809Y-117331419D01*
X352871809Y-117331419D02*
X352967047Y-117379038D01*
X352967047Y-117379038D02*
X353014666Y-117426657D01*
X353014666Y-117426657D02*
X353062285Y-117521895D01*
X353062285Y-117521895D02*
X353062285Y-117569514D01*
X353062285Y-117569514D02*
X353014666Y-117664752D01*
X353014666Y-117664752D02*
X352967047Y-117712371D01*
X352967047Y-117712371D02*
X352871809Y-117759990D01*
X352871809Y-117759990D02*
X352681333Y-117759990D01*
X352681333Y-117759990D02*
X352586095Y-117807609D01*
X352586095Y-117807609D02*
X352538476Y-117855228D01*
X352538476Y-117855228D02*
X352490857Y-117950466D01*
X352490857Y-117950466D02*
X352490857Y-118140942D01*
X352490857Y-118140942D02*
X352538476Y-118236180D01*
X352538476Y-118236180D02*
X352586095Y-118283800D01*
X352586095Y-118283800D02*
X352681333Y-118331419D01*
X352681333Y-118331419D02*
X352871809Y-118331419D01*
X352871809Y-118331419D02*
X352967047Y-118283800D01*
X352967047Y-118283800D02*
X353014666Y-118236180D01*
X353014666Y-118236180D02*
X353062285Y-118140942D01*
X353062285Y-118140942D02*
X353062285Y-117950466D01*
X353062285Y-117950466D02*
X353014666Y-117855228D01*
X353014666Y-117855228D02*
X352967047Y-117807609D01*
X352967047Y-117807609D02*
X352871809Y-117759990D01*
D11*
X61282819Y-165720666D02*
X60806628Y-166053999D01*
X61282819Y-166292094D02*
X60282819Y-166292094D01*
X60282819Y-166292094D02*
X60282819Y-165911142D01*
X60282819Y-165911142D02*
X60330438Y-165815904D01*
X60330438Y-165815904D02*
X60378057Y-165768285D01*
X60378057Y-165768285D02*
X60473295Y-165720666D01*
X60473295Y-165720666D02*
X60616152Y-165720666D01*
X60616152Y-165720666D02*
X60711390Y-165768285D01*
X60711390Y-165768285D02*
X60759009Y-165815904D01*
X60759009Y-165815904D02*
X60806628Y-165911142D01*
X60806628Y-165911142D02*
X60806628Y-166292094D01*
X60282819Y-165387332D02*
X60282819Y-164768285D01*
X60282819Y-164768285D02*
X60663771Y-165101618D01*
X60663771Y-165101618D02*
X60663771Y-164958761D01*
X60663771Y-164958761D02*
X60711390Y-164863523D01*
X60711390Y-164863523D02*
X60759009Y-164815904D01*
X60759009Y-164815904D02*
X60854247Y-164768285D01*
X60854247Y-164768285D02*
X61092342Y-164768285D01*
X61092342Y-164768285D02*
X61187580Y-164815904D01*
X61187580Y-164815904D02*
X61235200Y-164863523D01*
X61235200Y-164863523D02*
X61282819Y-164958761D01*
X61282819Y-164958761D02*
X61282819Y-165244475D01*
X61282819Y-165244475D02*
X61235200Y-165339713D01*
X61235200Y-165339713D02*
X61187580Y-165387332D01*
X80217580Y-172180666D02*
X80265200Y-172228285D01*
X80265200Y-172228285D02*
X80312819Y-172371142D01*
X80312819Y-172371142D02*
X80312819Y-172466380D01*
X80312819Y-172466380D02*
X80265200Y-172609237D01*
X80265200Y-172609237D02*
X80169961Y-172704475D01*
X80169961Y-172704475D02*
X80074723Y-172752094D01*
X80074723Y-172752094D02*
X79884247Y-172799713D01*
X79884247Y-172799713D02*
X79741390Y-172799713D01*
X79741390Y-172799713D02*
X79550914Y-172752094D01*
X79550914Y-172752094D02*
X79455676Y-172704475D01*
X79455676Y-172704475D02*
X79360438Y-172609237D01*
X79360438Y-172609237D02*
X79312819Y-172466380D01*
X79312819Y-172466380D02*
X79312819Y-172371142D01*
X79312819Y-172371142D02*
X79360438Y-172228285D01*
X79360438Y-172228285D02*
X79408057Y-172180666D01*
X79408057Y-171799713D02*
X79360438Y-171752094D01*
X79360438Y-171752094D02*
X79312819Y-171656856D01*
X79312819Y-171656856D02*
X79312819Y-171418761D01*
X79312819Y-171418761D02*
X79360438Y-171323523D01*
X79360438Y-171323523D02*
X79408057Y-171275904D01*
X79408057Y-171275904D02*
X79503295Y-171228285D01*
X79503295Y-171228285D02*
X79598533Y-171228285D01*
X79598533Y-171228285D02*
X79741390Y-171275904D01*
X79741390Y-171275904D02*
X80312819Y-171847332D01*
X80312819Y-171847332D02*
X80312819Y-171228285D01*
D10*
X350776571Y-161331419D02*
X350443238Y-160855228D01*
X350205143Y-161331419D02*
X350205143Y-160331419D01*
X350205143Y-160331419D02*
X350586095Y-160331419D01*
X350586095Y-160331419D02*
X350681333Y-160379038D01*
X350681333Y-160379038D02*
X350728952Y-160426657D01*
X350728952Y-160426657D02*
X350776571Y-160521895D01*
X350776571Y-160521895D02*
X350776571Y-160664752D01*
X350776571Y-160664752D02*
X350728952Y-160759990D01*
X350728952Y-160759990D02*
X350681333Y-160807609D01*
X350681333Y-160807609D02*
X350586095Y-160855228D01*
X350586095Y-160855228D02*
X350205143Y-160855228D01*
X351062286Y-160331419D02*
X351395619Y-161331419D01*
X351395619Y-161331419D02*
X351728952Y-160331419D01*
X352586095Y-161331419D02*
X352014667Y-161331419D01*
X352300381Y-161331419D02*
X352300381Y-160331419D01*
X352300381Y-160331419D02*
X352205143Y-160474276D01*
X352205143Y-160474276D02*
X352109905Y-160569514D01*
X352109905Y-160569514D02*
X352014667Y-160617133D01*
X353443238Y-160331419D02*
X353252762Y-160331419D01*
X353252762Y-160331419D02*
X353157524Y-160379038D01*
X353157524Y-160379038D02*
X353109905Y-160426657D01*
X353109905Y-160426657D02*
X353014667Y-160569514D01*
X353014667Y-160569514D02*
X352967048Y-160759990D01*
X352967048Y-160759990D02*
X352967048Y-161140942D01*
X352967048Y-161140942D02*
X353014667Y-161236180D01*
X353014667Y-161236180D02*
X353062286Y-161283800D01*
X353062286Y-161283800D02*
X353157524Y-161331419D01*
X353157524Y-161331419D02*
X353348000Y-161331419D01*
X353348000Y-161331419D02*
X353443238Y-161283800D01*
X353443238Y-161283800D02*
X353490857Y-161236180D01*
X353490857Y-161236180D02*
X353538476Y-161140942D01*
X353538476Y-161140942D02*
X353538476Y-160902847D01*
X353538476Y-160902847D02*
X353490857Y-160807609D01*
X353490857Y-160807609D02*
X353443238Y-160759990D01*
X353443238Y-160759990D02*
X353348000Y-160712371D01*
X353348000Y-160712371D02*
X353157524Y-160712371D01*
X353157524Y-160712371D02*
X353062286Y-160759990D01*
X353062286Y-160759990D02*
X353014667Y-160807609D01*
X353014667Y-160807609D02*
X352967048Y-160902847D01*
D11*
X263632819Y-129292094D02*
X262632819Y-129292094D01*
X262632819Y-129292094D02*
X262632819Y-129053999D01*
X262632819Y-129053999D02*
X262680438Y-128911142D01*
X262680438Y-128911142D02*
X262775676Y-128815904D01*
X262775676Y-128815904D02*
X262870914Y-128768285D01*
X262870914Y-128768285D02*
X263061390Y-128720666D01*
X263061390Y-128720666D02*
X263204247Y-128720666D01*
X263204247Y-128720666D02*
X263394723Y-128768285D01*
X263394723Y-128768285D02*
X263489961Y-128815904D01*
X263489961Y-128815904D02*
X263585200Y-128911142D01*
X263585200Y-128911142D02*
X263632819Y-129053999D01*
X263632819Y-129053999D02*
X263632819Y-129292094D01*
X262632819Y-127815904D02*
X262632819Y-128292094D01*
X262632819Y-128292094D02*
X263109009Y-128339713D01*
X263109009Y-128339713D02*
X263061390Y-128292094D01*
X263061390Y-128292094D02*
X263013771Y-128196856D01*
X263013771Y-128196856D02*
X263013771Y-127958761D01*
X263013771Y-127958761D02*
X263061390Y-127863523D01*
X263061390Y-127863523D02*
X263109009Y-127815904D01*
X263109009Y-127815904D02*
X263204247Y-127768285D01*
X263204247Y-127768285D02*
X263442342Y-127768285D01*
X263442342Y-127768285D02*
X263537580Y-127815904D01*
X263537580Y-127815904D02*
X263585200Y-127863523D01*
X263585200Y-127863523D02*
X263632819Y-127958761D01*
X263632819Y-127958761D02*
X263632819Y-128196856D01*
X263632819Y-128196856D02*
X263585200Y-128292094D01*
X263585200Y-128292094D02*
X263537580Y-128339713D01*
D10*
X141252761Y-118331419D02*
X140919428Y-117855228D01*
X140681333Y-118331419D02*
X140681333Y-117331419D01*
X140681333Y-117331419D02*
X141062285Y-117331419D01*
X141062285Y-117331419D02*
X141157523Y-117379038D01*
X141157523Y-117379038D02*
X141205142Y-117426657D01*
X141205142Y-117426657D02*
X141252761Y-117521895D01*
X141252761Y-117521895D02*
X141252761Y-117664752D01*
X141252761Y-117664752D02*
X141205142Y-117759990D01*
X141205142Y-117759990D02*
X141157523Y-117807609D01*
X141157523Y-117807609D02*
X141062285Y-117855228D01*
X141062285Y-117855228D02*
X140681333Y-117855228D01*
X141538476Y-117331419D02*
X141871809Y-118331419D01*
X141871809Y-118331419D02*
X142205142Y-117331419D01*
X142490857Y-117426657D02*
X142538476Y-117379038D01*
X142538476Y-117379038D02*
X142633714Y-117331419D01*
X142633714Y-117331419D02*
X142871809Y-117331419D01*
X142871809Y-117331419D02*
X142967047Y-117379038D01*
X142967047Y-117379038D02*
X143014666Y-117426657D01*
X143014666Y-117426657D02*
X143062285Y-117521895D01*
X143062285Y-117521895D02*
X143062285Y-117617133D01*
X143062285Y-117617133D02*
X143014666Y-117759990D01*
X143014666Y-117759990D02*
X142443238Y-118331419D01*
X142443238Y-118331419D02*
X143062285Y-118331419D01*
D11*
X368632819Y-129292094D02*
X367632819Y-129292094D01*
X367632819Y-129292094D02*
X367632819Y-129053999D01*
X367632819Y-129053999D02*
X367680438Y-128911142D01*
X367680438Y-128911142D02*
X367775676Y-128815904D01*
X367775676Y-128815904D02*
X367870914Y-128768285D01*
X367870914Y-128768285D02*
X368061390Y-128720666D01*
X368061390Y-128720666D02*
X368204247Y-128720666D01*
X368204247Y-128720666D02*
X368394723Y-128768285D01*
X368394723Y-128768285D02*
X368489961Y-128815904D01*
X368489961Y-128815904D02*
X368585200Y-128911142D01*
X368585200Y-128911142D02*
X368632819Y-129053999D01*
X368632819Y-129053999D02*
X368632819Y-129292094D01*
X368061390Y-128149237D02*
X368013771Y-128244475D01*
X368013771Y-128244475D02*
X367966152Y-128292094D01*
X367966152Y-128292094D02*
X367870914Y-128339713D01*
X367870914Y-128339713D02*
X367823295Y-128339713D01*
X367823295Y-128339713D02*
X367728057Y-128292094D01*
X367728057Y-128292094D02*
X367680438Y-128244475D01*
X367680438Y-128244475D02*
X367632819Y-128149237D01*
X367632819Y-128149237D02*
X367632819Y-127958761D01*
X367632819Y-127958761D02*
X367680438Y-127863523D01*
X367680438Y-127863523D02*
X367728057Y-127815904D01*
X367728057Y-127815904D02*
X367823295Y-127768285D01*
X367823295Y-127768285D02*
X367870914Y-127768285D01*
X367870914Y-127768285D02*
X367966152Y-127815904D01*
X367966152Y-127815904D02*
X368013771Y-127863523D01*
X368013771Y-127863523D02*
X368061390Y-127958761D01*
X368061390Y-127958761D02*
X368061390Y-128149237D01*
X368061390Y-128149237D02*
X368109009Y-128244475D01*
X368109009Y-128244475D02*
X368156628Y-128292094D01*
X368156628Y-128292094D02*
X368251866Y-128339713D01*
X368251866Y-128339713D02*
X368442342Y-128339713D01*
X368442342Y-128339713D02*
X368537580Y-128292094D01*
X368537580Y-128292094D02*
X368585200Y-128244475D01*
X368585200Y-128244475D02*
X368632819Y-128149237D01*
X368632819Y-128149237D02*
X368632819Y-127958761D01*
X368632819Y-127958761D02*
X368585200Y-127863523D01*
X368585200Y-127863523D02*
X368537580Y-127815904D01*
X368537580Y-127815904D02*
X368442342Y-127768285D01*
X368442342Y-127768285D02*
X368251866Y-127768285D01*
X368251866Y-127768285D02*
X368156628Y-127815904D01*
X368156628Y-127815904D02*
X368109009Y-127863523D01*
X368109009Y-127863523D02*
X368061390Y-127958761D01*
D10*
X140776571Y-161331419D02*
X140443238Y-160855228D01*
X140205143Y-161331419D02*
X140205143Y-160331419D01*
X140205143Y-160331419D02*
X140586095Y-160331419D01*
X140586095Y-160331419D02*
X140681333Y-160379038D01*
X140681333Y-160379038D02*
X140728952Y-160426657D01*
X140728952Y-160426657D02*
X140776571Y-160521895D01*
X140776571Y-160521895D02*
X140776571Y-160664752D01*
X140776571Y-160664752D02*
X140728952Y-160759990D01*
X140728952Y-160759990D02*
X140681333Y-160807609D01*
X140681333Y-160807609D02*
X140586095Y-160855228D01*
X140586095Y-160855228D02*
X140205143Y-160855228D01*
X141062286Y-160331419D02*
X141395619Y-161331419D01*
X141395619Y-161331419D02*
X141728952Y-160331419D01*
X142586095Y-161331419D02*
X142014667Y-161331419D01*
X142300381Y-161331419D02*
X142300381Y-160331419D01*
X142300381Y-160331419D02*
X142205143Y-160474276D01*
X142205143Y-160474276D02*
X142109905Y-160569514D01*
X142109905Y-160569514D02*
X142014667Y-160617133D01*
X143205143Y-160331419D02*
X143300381Y-160331419D01*
X143300381Y-160331419D02*
X143395619Y-160379038D01*
X143395619Y-160379038D02*
X143443238Y-160426657D01*
X143443238Y-160426657D02*
X143490857Y-160521895D01*
X143490857Y-160521895D02*
X143538476Y-160712371D01*
X143538476Y-160712371D02*
X143538476Y-160950466D01*
X143538476Y-160950466D02*
X143490857Y-161140942D01*
X143490857Y-161140942D02*
X143443238Y-161236180D01*
X143443238Y-161236180D02*
X143395619Y-161283800D01*
X143395619Y-161283800D02*
X143300381Y-161331419D01*
X143300381Y-161331419D02*
X143205143Y-161331419D01*
X143205143Y-161331419D02*
X143109905Y-161283800D01*
X143109905Y-161283800D02*
X143062286Y-161236180D01*
X143062286Y-161236180D02*
X143014667Y-161140942D01*
X143014667Y-161140942D02*
X142967048Y-160950466D01*
X142967048Y-160950466D02*
X142967048Y-160712371D01*
X142967048Y-160712371D02*
X143014667Y-160521895D01*
X143014667Y-160521895D02*
X143062286Y-160426657D01*
X143062286Y-160426657D02*
X143109905Y-160379038D01*
X143109905Y-160379038D02*
X143205143Y-160331419D01*
D11*
X81857580Y-181720666D02*
X81905200Y-181768285D01*
X81905200Y-181768285D02*
X81952819Y-181911142D01*
X81952819Y-181911142D02*
X81952819Y-182006380D01*
X81952819Y-182006380D02*
X81905200Y-182149237D01*
X81905200Y-182149237D02*
X81809961Y-182244475D01*
X81809961Y-182244475D02*
X81714723Y-182292094D01*
X81714723Y-182292094D02*
X81524247Y-182339713D01*
X81524247Y-182339713D02*
X81381390Y-182339713D01*
X81381390Y-182339713D02*
X81190914Y-182292094D01*
X81190914Y-182292094D02*
X81095676Y-182244475D01*
X81095676Y-182244475D02*
X81000438Y-182149237D01*
X81000438Y-182149237D02*
X80952819Y-182006380D01*
X80952819Y-182006380D02*
X80952819Y-181911142D01*
X80952819Y-181911142D02*
X81000438Y-181768285D01*
X81000438Y-181768285D02*
X81048057Y-181720666D01*
X80952819Y-180815904D02*
X80952819Y-181292094D01*
X80952819Y-181292094D02*
X81429009Y-181339713D01*
X81429009Y-181339713D02*
X81381390Y-181292094D01*
X81381390Y-181292094D02*
X81333771Y-181196856D01*
X81333771Y-181196856D02*
X81333771Y-180958761D01*
X81333771Y-180958761D02*
X81381390Y-180863523D01*
X81381390Y-180863523D02*
X81429009Y-180815904D01*
X81429009Y-180815904D02*
X81524247Y-180768285D01*
X81524247Y-180768285D02*
X81762342Y-180768285D01*
X81762342Y-180768285D02*
X81857580Y-180815904D01*
X81857580Y-180815904D02*
X81905200Y-180863523D01*
X81905200Y-180863523D02*
X81952819Y-180958761D01*
X81952819Y-180958761D02*
X81952819Y-181196856D01*
X81952819Y-181196856D02*
X81905200Y-181292094D01*
X81905200Y-181292094D02*
X81857580Y-181339713D01*
D10*
X175776571Y-161331419D02*
X175443238Y-160855228D01*
X175205143Y-161331419D02*
X175205143Y-160331419D01*
X175205143Y-160331419D02*
X175586095Y-160331419D01*
X175586095Y-160331419D02*
X175681333Y-160379038D01*
X175681333Y-160379038D02*
X175728952Y-160426657D01*
X175728952Y-160426657D02*
X175776571Y-160521895D01*
X175776571Y-160521895D02*
X175776571Y-160664752D01*
X175776571Y-160664752D02*
X175728952Y-160759990D01*
X175728952Y-160759990D02*
X175681333Y-160807609D01*
X175681333Y-160807609D02*
X175586095Y-160855228D01*
X175586095Y-160855228D02*
X175205143Y-160855228D01*
X176062286Y-160331419D02*
X176395619Y-161331419D01*
X176395619Y-161331419D02*
X176728952Y-160331419D01*
X177586095Y-161331419D02*
X177014667Y-161331419D01*
X177300381Y-161331419D02*
X177300381Y-160331419D01*
X177300381Y-160331419D02*
X177205143Y-160474276D01*
X177205143Y-160474276D02*
X177109905Y-160569514D01*
X177109905Y-160569514D02*
X177014667Y-160617133D01*
X178538476Y-161331419D02*
X177967048Y-161331419D01*
X178252762Y-161331419D02*
X178252762Y-160331419D01*
X178252762Y-160331419D02*
X178157524Y-160474276D01*
X178157524Y-160474276D02*
X178062286Y-160569514D01*
X178062286Y-160569514D02*
X177967048Y-160617133D01*
D11*
X158632819Y-129292094D02*
X157632819Y-129292094D01*
X157632819Y-129292094D02*
X157632819Y-129053999D01*
X157632819Y-129053999D02*
X157680438Y-128911142D01*
X157680438Y-128911142D02*
X157775676Y-128815904D01*
X157775676Y-128815904D02*
X157870914Y-128768285D01*
X157870914Y-128768285D02*
X158061390Y-128720666D01*
X158061390Y-128720666D02*
X158204247Y-128720666D01*
X158204247Y-128720666D02*
X158394723Y-128768285D01*
X158394723Y-128768285D02*
X158489961Y-128815904D01*
X158489961Y-128815904D02*
X158585200Y-128911142D01*
X158585200Y-128911142D02*
X158632819Y-129053999D01*
X158632819Y-129053999D02*
X158632819Y-129292094D01*
X157728057Y-128339713D02*
X157680438Y-128292094D01*
X157680438Y-128292094D02*
X157632819Y-128196856D01*
X157632819Y-128196856D02*
X157632819Y-127958761D01*
X157632819Y-127958761D02*
X157680438Y-127863523D01*
X157680438Y-127863523D02*
X157728057Y-127815904D01*
X157728057Y-127815904D02*
X157823295Y-127768285D01*
X157823295Y-127768285D02*
X157918533Y-127768285D01*
X157918533Y-127768285D02*
X158061390Y-127815904D01*
X158061390Y-127815904D02*
X158632819Y-128387332D01*
X158632819Y-128387332D02*
X158632819Y-127768285D01*
X77011333Y-178593580D02*
X76963714Y-178641200D01*
X76963714Y-178641200D02*
X76820857Y-178688819D01*
X76820857Y-178688819D02*
X76725619Y-178688819D01*
X76725619Y-178688819D02*
X76582762Y-178641200D01*
X76582762Y-178641200D02*
X76487524Y-178545961D01*
X76487524Y-178545961D02*
X76439905Y-178450723D01*
X76439905Y-178450723D02*
X76392286Y-178260247D01*
X76392286Y-178260247D02*
X76392286Y-178117390D01*
X76392286Y-178117390D02*
X76439905Y-177926914D01*
X76439905Y-177926914D02*
X76487524Y-177831676D01*
X76487524Y-177831676D02*
X76582762Y-177736438D01*
X76582762Y-177736438D02*
X76725619Y-177688819D01*
X76725619Y-177688819D02*
X76820857Y-177688819D01*
X76820857Y-177688819D02*
X76963714Y-177736438D01*
X76963714Y-177736438D02*
X77011333Y-177784057D01*
X77344667Y-177688819D02*
X78011333Y-177688819D01*
X78011333Y-177688819D02*
X77582762Y-178688819D01*
X69857580Y-183720666D02*
X69905200Y-183768285D01*
X69905200Y-183768285D02*
X69952819Y-183911142D01*
X69952819Y-183911142D02*
X69952819Y-184006380D01*
X69952819Y-184006380D02*
X69905200Y-184149237D01*
X69905200Y-184149237D02*
X69809961Y-184244475D01*
X69809961Y-184244475D02*
X69714723Y-184292094D01*
X69714723Y-184292094D02*
X69524247Y-184339713D01*
X69524247Y-184339713D02*
X69381390Y-184339713D01*
X69381390Y-184339713D02*
X69190914Y-184292094D01*
X69190914Y-184292094D02*
X69095676Y-184244475D01*
X69095676Y-184244475D02*
X69000438Y-184149237D01*
X69000438Y-184149237D02*
X68952819Y-184006380D01*
X68952819Y-184006380D02*
X68952819Y-183911142D01*
X68952819Y-183911142D02*
X69000438Y-183768285D01*
X69000438Y-183768285D02*
X69048057Y-183720666D01*
X68952819Y-182863523D02*
X68952819Y-183053999D01*
X68952819Y-183053999D02*
X69000438Y-183149237D01*
X69000438Y-183149237D02*
X69048057Y-183196856D01*
X69048057Y-183196856D02*
X69190914Y-183292094D01*
X69190914Y-183292094D02*
X69381390Y-183339713D01*
X69381390Y-183339713D02*
X69762342Y-183339713D01*
X69762342Y-183339713D02*
X69857580Y-183292094D01*
X69857580Y-183292094D02*
X69905200Y-183244475D01*
X69905200Y-183244475D02*
X69952819Y-183149237D01*
X69952819Y-183149237D02*
X69952819Y-182958761D01*
X69952819Y-182958761D02*
X69905200Y-182863523D01*
X69905200Y-182863523D02*
X69857580Y-182815904D01*
X69857580Y-182815904D02*
X69762342Y-182768285D01*
X69762342Y-182768285D02*
X69524247Y-182768285D01*
X69524247Y-182768285D02*
X69429009Y-182815904D01*
X69429009Y-182815904D02*
X69381390Y-182863523D01*
X69381390Y-182863523D02*
X69333771Y-182958761D01*
X69333771Y-182958761D02*
X69333771Y-183149237D01*
X69333771Y-183149237D02*
X69381390Y-183244475D01*
X69381390Y-183244475D02*
X69429009Y-183292094D01*
X69429009Y-183292094D02*
X69524247Y-183339713D01*
D10*
X315776571Y-161331419D02*
X315443238Y-160855228D01*
X315205143Y-161331419D02*
X315205143Y-160331419D01*
X315205143Y-160331419D02*
X315586095Y-160331419D01*
X315586095Y-160331419D02*
X315681333Y-160379038D01*
X315681333Y-160379038D02*
X315728952Y-160426657D01*
X315728952Y-160426657D02*
X315776571Y-160521895D01*
X315776571Y-160521895D02*
X315776571Y-160664752D01*
X315776571Y-160664752D02*
X315728952Y-160759990D01*
X315728952Y-160759990D02*
X315681333Y-160807609D01*
X315681333Y-160807609D02*
X315586095Y-160855228D01*
X315586095Y-160855228D02*
X315205143Y-160855228D01*
X316062286Y-160331419D02*
X316395619Y-161331419D01*
X316395619Y-161331419D02*
X316728952Y-160331419D01*
X317586095Y-161331419D02*
X317014667Y-161331419D01*
X317300381Y-161331419D02*
X317300381Y-160331419D01*
X317300381Y-160331419D02*
X317205143Y-160474276D01*
X317205143Y-160474276D02*
X317109905Y-160569514D01*
X317109905Y-160569514D02*
X317014667Y-160617133D01*
X318490857Y-160331419D02*
X318014667Y-160331419D01*
X318014667Y-160331419D02*
X317967048Y-160807609D01*
X317967048Y-160807609D02*
X318014667Y-160759990D01*
X318014667Y-160759990D02*
X318109905Y-160712371D01*
X318109905Y-160712371D02*
X318348000Y-160712371D01*
X318348000Y-160712371D02*
X318443238Y-160759990D01*
X318443238Y-160759990D02*
X318490857Y-160807609D01*
X318490857Y-160807609D02*
X318538476Y-160902847D01*
X318538476Y-160902847D02*
X318538476Y-161140942D01*
X318538476Y-161140942D02*
X318490857Y-161236180D01*
X318490857Y-161236180D02*
X318443238Y-161283800D01*
X318443238Y-161283800D02*
X318348000Y-161331419D01*
X318348000Y-161331419D02*
X318109905Y-161331419D01*
X318109905Y-161331419D02*
X318014667Y-161283800D01*
X318014667Y-161283800D02*
X317967048Y-161236180D01*
X58732714Y-95055704D02*
X59208904Y-95055704D01*
X58637476Y-95341419D02*
X58970809Y-94341419D01*
X58970809Y-94341419D02*
X59304142Y-95341419D01*
X60161285Y-95341419D02*
X59589857Y-95341419D01*
X59875571Y-95341419D02*
X59875571Y-94341419D01*
X59875571Y-94341419D02*
X59780333Y-94484276D01*
X59780333Y-94484276D02*
X59685095Y-94579514D01*
X59685095Y-94579514D02*
X59589857Y-94627133D01*
X281252761Y-118331419D02*
X280919428Y-117855228D01*
X280681333Y-118331419D02*
X280681333Y-117331419D01*
X280681333Y-117331419D02*
X281062285Y-117331419D01*
X281062285Y-117331419D02*
X281157523Y-117379038D01*
X281157523Y-117379038D02*
X281205142Y-117426657D01*
X281205142Y-117426657D02*
X281252761Y-117521895D01*
X281252761Y-117521895D02*
X281252761Y-117664752D01*
X281252761Y-117664752D02*
X281205142Y-117759990D01*
X281205142Y-117759990D02*
X281157523Y-117807609D01*
X281157523Y-117807609D02*
X281062285Y-117855228D01*
X281062285Y-117855228D02*
X280681333Y-117855228D01*
X281538476Y-117331419D02*
X281871809Y-118331419D01*
X281871809Y-118331419D02*
X282205142Y-117331419D01*
X282967047Y-117331419D02*
X282776571Y-117331419D01*
X282776571Y-117331419D02*
X282681333Y-117379038D01*
X282681333Y-117379038D02*
X282633714Y-117426657D01*
X282633714Y-117426657D02*
X282538476Y-117569514D01*
X282538476Y-117569514D02*
X282490857Y-117759990D01*
X282490857Y-117759990D02*
X282490857Y-118140942D01*
X282490857Y-118140942D02*
X282538476Y-118236180D01*
X282538476Y-118236180D02*
X282586095Y-118283800D01*
X282586095Y-118283800D02*
X282681333Y-118331419D01*
X282681333Y-118331419D02*
X282871809Y-118331419D01*
X282871809Y-118331419D02*
X282967047Y-118283800D01*
X282967047Y-118283800D02*
X283014666Y-118236180D01*
X283014666Y-118236180D02*
X283062285Y-118140942D01*
X283062285Y-118140942D02*
X283062285Y-117902847D01*
X283062285Y-117902847D02*
X283014666Y-117807609D01*
X283014666Y-117807609D02*
X282967047Y-117759990D01*
X282967047Y-117759990D02*
X282871809Y-117712371D01*
X282871809Y-117712371D02*
X282681333Y-117712371D01*
X282681333Y-117712371D02*
X282586095Y-117759990D01*
X282586095Y-117759990D02*
X282538476Y-117807609D01*
X282538476Y-117807609D02*
X282490857Y-117902847D01*
D11*
X158632819Y-172768285D02*
X157632819Y-172768285D01*
X157632819Y-172768285D02*
X157632819Y-172530190D01*
X157632819Y-172530190D02*
X157680438Y-172387333D01*
X157680438Y-172387333D02*
X157775676Y-172292095D01*
X157775676Y-172292095D02*
X157870914Y-172244476D01*
X157870914Y-172244476D02*
X158061390Y-172196857D01*
X158061390Y-172196857D02*
X158204247Y-172196857D01*
X158204247Y-172196857D02*
X158394723Y-172244476D01*
X158394723Y-172244476D02*
X158489961Y-172292095D01*
X158489961Y-172292095D02*
X158585200Y-172387333D01*
X158585200Y-172387333D02*
X158632819Y-172530190D01*
X158632819Y-172530190D02*
X158632819Y-172768285D01*
X158632819Y-171244476D02*
X158632819Y-171815904D01*
X158632819Y-171530190D02*
X157632819Y-171530190D01*
X157632819Y-171530190D02*
X157775676Y-171625428D01*
X157775676Y-171625428D02*
X157870914Y-171720666D01*
X157870914Y-171720666D02*
X157918533Y-171815904D01*
X157632819Y-170625428D02*
X157632819Y-170530190D01*
X157632819Y-170530190D02*
X157680438Y-170434952D01*
X157680438Y-170434952D02*
X157728057Y-170387333D01*
X157728057Y-170387333D02*
X157823295Y-170339714D01*
X157823295Y-170339714D02*
X158013771Y-170292095D01*
X158013771Y-170292095D02*
X158251866Y-170292095D01*
X158251866Y-170292095D02*
X158442342Y-170339714D01*
X158442342Y-170339714D02*
X158537580Y-170387333D01*
X158537580Y-170387333D02*
X158585200Y-170434952D01*
X158585200Y-170434952D02*
X158632819Y-170530190D01*
X158632819Y-170530190D02*
X158632819Y-170625428D01*
X158632819Y-170625428D02*
X158585200Y-170720666D01*
X158585200Y-170720666D02*
X158537580Y-170768285D01*
X158537580Y-170768285D02*
X158442342Y-170815904D01*
X158442342Y-170815904D02*
X158251866Y-170863523D01*
X158251866Y-170863523D02*
X158013771Y-170863523D01*
X158013771Y-170863523D02*
X157823295Y-170815904D01*
X157823295Y-170815904D02*
X157728057Y-170768285D01*
X157728057Y-170768285D02*
X157680438Y-170720666D01*
X157680438Y-170720666D02*
X157632819Y-170625428D01*
X73282819Y-179720666D02*
X72806628Y-180053999D01*
X73282819Y-180292094D02*
X72282819Y-180292094D01*
X72282819Y-180292094D02*
X72282819Y-179911142D01*
X72282819Y-179911142D02*
X72330438Y-179815904D01*
X72330438Y-179815904D02*
X72378057Y-179768285D01*
X72378057Y-179768285D02*
X72473295Y-179720666D01*
X72473295Y-179720666D02*
X72616152Y-179720666D01*
X72616152Y-179720666D02*
X72711390Y-179768285D01*
X72711390Y-179768285D02*
X72759009Y-179815904D01*
X72759009Y-179815904D02*
X72806628Y-179911142D01*
X72806628Y-179911142D02*
X72806628Y-180292094D01*
X73282819Y-178768285D02*
X73282819Y-179339713D01*
X73282819Y-179053999D02*
X72282819Y-179053999D01*
X72282819Y-179053999D02*
X72425676Y-179149237D01*
X72425676Y-179149237D02*
X72520914Y-179244475D01*
X72520914Y-179244475D02*
X72568533Y-179339713D01*
X298632819Y-129292094D02*
X297632819Y-129292094D01*
X297632819Y-129292094D02*
X297632819Y-129053999D01*
X297632819Y-129053999D02*
X297680438Y-128911142D01*
X297680438Y-128911142D02*
X297775676Y-128815904D01*
X297775676Y-128815904D02*
X297870914Y-128768285D01*
X297870914Y-128768285D02*
X298061390Y-128720666D01*
X298061390Y-128720666D02*
X298204247Y-128720666D01*
X298204247Y-128720666D02*
X298394723Y-128768285D01*
X298394723Y-128768285D02*
X298489961Y-128815904D01*
X298489961Y-128815904D02*
X298585200Y-128911142D01*
X298585200Y-128911142D02*
X298632819Y-129053999D01*
X298632819Y-129053999D02*
X298632819Y-129292094D01*
X297632819Y-127863523D02*
X297632819Y-128053999D01*
X297632819Y-128053999D02*
X297680438Y-128149237D01*
X297680438Y-128149237D02*
X297728057Y-128196856D01*
X297728057Y-128196856D02*
X297870914Y-128292094D01*
X297870914Y-128292094D02*
X298061390Y-128339713D01*
X298061390Y-128339713D02*
X298442342Y-128339713D01*
X298442342Y-128339713D02*
X298537580Y-128292094D01*
X298537580Y-128292094D02*
X298585200Y-128244475D01*
X298585200Y-128244475D02*
X298632819Y-128149237D01*
X298632819Y-128149237D02*
X298632819Y-127958761D01*
X298632819Y-127958761D02*
X298585200Y-127863523D01*
X298585200Y-127863523D02*
X298537580Y-127815904D01*
X298537580Y-127815904D02*
X298442342Y-127768285D01*
X298442342Y-127768285D02*
X298204247Y-127768285D01*
X298204247Y-127768285D02*
X298109009Y-127815904D01*
X298109009Y-127815904D02*
X298061390Y-127863523D01*
X298061390Y-127863523D02*
X298013771Y-127958761D01*
X298013771Y-127958761D02*
X298013771Y-128149237D01*
X298013771Y-128149237D02*
X298061390Y-128244475D01*
X298061390Y-128244475D02*
X298109009Y-128292094D01*
X298109009Y-128292094D02*
X298204247Y-128339713D01*
X91416095Y-177908819D02*
X91416095Y-178718342D01*
X91416095Y-178718342D02*
X91463714Y-178813580D01*
X91463714Y-178813580D02*
X91511333Y-178861200D01*
X91511333Y-178861200D02*
X91606571Y-178908819D01*
X91606571Y-178908819D02*
X91797047Y-178908819D01*
X91797047Y-178908819D02*
X91892285Y-178861200D01*
X91892285Y-178861200D02*
X91939904Y-178813580D01*
X91939904Y-178813580D02*
X91987523Y-178718342D01*
X91987523Y-178718342D02*
X91987523Y-177908819D01*
X92368476Y-177908819D02*
X92987523Y-177908819D01*
X92987523Y-177908819D02*
X92654190Y-178289771D01*
X92654190Y-178289771D02*
X92797047Y-178289771D01*
X92797047Y-178289771D02*
X92892285Y-178337390D01*
X92892285Y-178337390D02*
X92939904Y-178385009D01*
X92939904Y-178385009D02*
X92987523Y-178480247D01*
X92987523Y-178480247D02*
X92987523Y-178718342D01*
X92987523Y-178718342D02*
X92939904Y-178813580D01*
X92939904Y-178813580D02*
X92892285Y-178861200D01*
X92892285Y-178861200D02*
X92797047Y-178908819D01*
X92797047Y-178908819D02*
X92511333Y-178908819D01*
X92511333Y-178908819D02*
X92416095Y-178861200D01*
X92416095Y-178861200D02*
X92368476Y-178813580D01*
D10*
X245776571Y-161331419D02*
X245443238Y-160855228D01*
X245205143Y-161331419D02*
X245205143Y-160331419D01*
X245205143Y-160331419D02*
X245586095Y-160331419D01*
X245586095Y-160331419D02*
X245681333Y-160379038D01*
X245681333Y-160379038D02*
X245728952Y-160426657D01*
X245728952Y-160426657D02*
X245776571Y-160521895D01*
X245776571Y-160521895D02*
X245776571Y-160664752D01*
X245776571Y-160664752D02*
X245728952Y-160759990D01*
X245728952Y-160759990D02*
X245681333Y-160807609D01*
X245681333Y-160807609D02*
X245586095Y-160855228D01*
X245586095Y-160855228D02*
X245205143Y-160855228D01*
X246062286Y-160331419D02*
X246395619Y-161331419D01*
X246395619Y-161331419D02*
X246728952Y-160331419D01*
X247586095Y-161331419D02*
X247014667Y-161331419D01*
X247300381Y-161331419D02*
X247300381Y-160331419D01*
X247300381Y-160331419D02*
X247205143Y-160474276D01*
X247205143Y-160474276D02*
X247109905Y-160569514D01*
X247109905Y-160569514D02*
X247014667Y-160617133D01*
X247919429Y-160331419D02*
X248538476Y-160331419D01*
X248538476Y-160331419D02*
X248205143Y-160712371D01*
X248205143Y-160712371D02*
X248348000Y-160712371D01*
X248348000Y-160712371D02*
X248443238Y-160759990D01*
X248443238Y-160759990D02*
X248490857Y-160807609D01*
X248490857Y-160807609D02*
X248538476Y-160902847D01*
X248538476Y-160902847D02*
X248538476Y-161140942D01*
X248538476Y-161140942D02*
X248490857Y-161236180D01*
X248490857Y-161236180D02*
X248443238Y-161283800D01*
X248443238Y-161283800D02*
X248348000Y-161331419D01*
X248348000Y-161331419D02*
X248062286Y-161331419D01*
X248062286Y-161331419D02*
X247967048Y-161283800D01*
X247967048Y-161283800D02*
X247919429Y-161236180D01*
D11*
X228632819Y-172768285D02*
X227632819Y-172768285D01*
X227632819Y-172768285D02*
X227632819Y-172530190D01*
X227632819Y-172530190D02*
X227680438Y-172387333D01*
X227680438Y-172387333D02*
X227775676Y-172292095D01*
X227775676Y-172292095D02*
X227870914Y-172244476D01*
X227870914Y-172244476D02*
X228061390Y-172196857D01*
X228061390Y-172196857D02*
X228204247Y-172196857D01*
X228204247Y-172196857D02*
X228394723Y-172244476D01*
X228394723Y-172244476D02*
X228489961Y-172292095D01*
X228489961Y-172292095D02*
X228585200Y-172387333D01*
X228585200Y-172387333D02*
X228632819Y-172530190D01*
X228632819Y-172530190D02*
X228632819Y-172768285D01*
X228632819Y-171244476D02*
X228632819Y-171815904D01*
X228632819Y-171530190D02*
X227632819Y-171530190D01*
X227632819Y-171530190D02*
X227775676Y-171625428D01*
X227775676Y-171625428D02*
X227870914Y-171720666D01*
X227870914Y-171720666D02*
X227918533Y-171815904D01*
X227728057Y-170863523D02*
X227680438Y-170815904D01*
X227680438Y-170815904D02*
X227632819Y-170720666D01*
X227632819Y-170720666D02*
X227632819Y-170482571D01*
X227632819Y-170482571D02*
X227680438Y-170387333D01*
X227680438Y-170387333D02*
X227728057Y-170339714D01*
X227728057Y-170339714D02*
X227823295Y-170292095D01*
X227823295Y-170292095D02*
X227918533Y-170292095D01*
X227918533Y-170292095D02*
X228061390Y-170339714D01*
X228061390Y-170339714D02*
X228632819Y-170911142D01*
X228632819Y-170911142D02*
X228632819Y-170292095D01*
X333632819Y-172768285D02*
X332632819Y-172768285D01*
X332632819Y-172768285D02*
X332632819Y-172530190D01*
X332632819Y-172530190D02*
X332680438Y-172387333D01*
X332680438Y-172387333D02*
X332775676Y-172292095D01*
X332775676Y-172292095D02*
X332870914Y-172244476D01*
X332870914Y-172244476D02*
X333061390Y-172196857D01*
X333061390Y-172196857D02*
X333204247Y-172196857D01*
X333204247Y-172196857D02*
X333394723Y-172244476D01*
X333394723Y-172244476D02*
X333489961Y-172292095D01*
X333489961Y-172292095D02*
X333585200Y-172387333D01*
X333585200Y-172387333D02*
X333632819Y-172530190D01*
X333632819Y-172530190D02*
X333632819Y-172768285D01*
X333632819Y-171244476D02*
X333632819Y-171815904D01*
X333632819Y-171530190D02*
X332632819Y-171530190D01*
X332632819Y-171530190D02*
X332775676Y-171625428D01*
X332775676Y-171625428D02*
X332870914Y-171720666D01*
X332870914Y-171720666D02*
X332918533Y-171815904D01*
X332632819Y-170339714D02*
X332632819Y-170815904D01*
X332632819Y-170815904D02*
X333109009Y-170863523D01*
X333109009Y-170863523D02*
X333061390Y-170815904D01*
X333061390Y-170815904D02*
X333013771Y-170720666D01*
X333013771Y-170720666D02*
X333013771Y-170482571D01*
X333013771Y-170482571D02*
X333061390Y-170387333D01*
X333061390Y-170387333D02*
X333109009Y-170339714D01*
X333109009Y-170339714D02*
X333204247Y-170292095D01*
X333204247Y-170292095D02*
X333442342Y-170292095D01*
X333442342Y-170292095D02*
X333537580Y-170339714D01*
X333537580Y-170339714D02*
X333585200Y-170387333D01*
X333585200Y-170387333D02*
X333632819Y-170482571D01*
X333632819Y-170482571D02*
X333632819Y-170720666D01*
X333632819Y-170720666D02*
X333585200Y-170815904D01*
X333585200Y-170815904D02*
X333537580Y-170863523D01*
D10*
X176252761Y-118331419D02*
X175919428Y-117855228D01*
X175681333Y-118331419D02*
X175681333Y-117331419D01*
X175681333Y-117331419D02*
X176062285Y-117331419D01*
X176062285Y-117331419D02*
X176157523Y-117379038D01*
X176157523Y-117379038D02*
X176205142Y-117426657D01*
X176205142Y-117426657D02*
X176252761Y-117521895D01*
X176252761Y-117521895D02*
X176252761Y-117664752D01*
X176252761Y-117664752D02*
X176205142Y-117759990D01*
X176205142Y-117759990D02*
X176157523Y-117807609D01*
X176157523Y-117807609D02*
X176062285Y-117855228D01*
X176062285Y-117855228D02*
X175681333Y-117855228D01*
X176538476Y-117331419D02*
X176871809Y-118331419D01*
X176871809Y-118331419D02*
X177205142Y-117331419D01*
X177443238Y-117331419D02*
X178062285Y-117331419D01*
X178062285Y-117331419D02*
X177728952Y-117712371D01*
X177728952Y-117712371D02*
X177871809Y-117712371D01*
X177871809Y-117712371D02*
X177967047Y-117759990D01*
X177967047Y-117759990D02*
X178014666Y-117807609D01*
X178014666Y-117807609D02*
X178062285Y-117902847D01*
X178062285Y-117902847D02*
X178062285Y-118140942D01*
X178062285Y-118140942D02*
X178014666Y-118236180D01*
X178014666Y-118236180D02*
X177967047Y-118283800D01*
X177967047Y-118283800D02*
X177871809Y-118331419D01*
X177871809Y-118331419D02*
X177586095Y-118331419D01*
X177586095Y-118331419D02*
X177490857Y-118283800D01*
X177490857Y-118283800D02*
X177443238Y-118236180D01*
X106252761Y-118331419D02*
X105919428Y-117855228D01*
X105681333Y-118331419D02*
X105681333Y-117331419D01*
X105681333Y-117331419D02*
X106062285Y-117331419D01*
X106062285Y-117331419D02*
X106157523Y-117379038D01*
X106157523Y-117379038D02*
X106205142Y-117426657D01*
X106205142Y-117426657D02*
X106252761Y-117521895D01*
X106252761Y-117521895D02*
X106252761Y-117664752D01*
X106252761Y-117664752D02*
X106205142Y-117759990D01*
X106205142Y-117759990D02*
X106157523Y-117807609D01*
X106157523Y-117807609D02*
X106062285Y-117855228D01*
X106062285Y-117855228D02*
X105681333Y-117855228D01*
X106538476Y-117331419D02*
X106871809Y-118331419D01*
X106871809Y-118331419D02*
X107205142Y-117331419D01*
X108062285Y-118331419D02*
X107490857Y-118331419D01*
X107776571Y-118331419D02*
X107776571Y-117331419D01*
X107776571Y-117331419D02*
X107681333Y-117474276D01*
X107681333Y-117474276D02*
X107586095Y-117569514D01*
X107586095Y-117569514D02*
X107490857Y-117617133D01*
D11*
X228632819Y-129292094D02*
X227632819Y-129292094D01*
X227632819Y-129292094D02*
X227632819Y-129053999D01*
X227632819Y-129053999D02*
X227680438Y-128911142D01*
X227680438Y-128911142D02*
X227775676Y-128815904D01*
X227775676Y-128815904D02*
X227870914Y-128768285D01*
X227870914Y-128768285D02*
X228061390Y-128720666D01*
X228061390Y-128720666D02*
X228204247Y-128720666D01*
X228204247Y-128720666D02*
X228394723Y-128768285D01*
X228394723Y-128768285D02*
X228489961Y-128815904D01*
X228489961Y-128815904D02*
X228585200Y-128911142D01*
X228585200Y-128911142D02*
X228632819Y-129053999D01*
X228632819Y-129053999D02*
X228632819Y-129292094D01*
X227966152Y-127863523D02*
X228632819Y-127863523D01*
X227585200Y-128101618D02*
X228299485Y-128339713D01*
X228299485Y-128339713D02*
X228299485Y-127720666D01*
X76217580Y-172218166D02*
X76265200Y-172265785D01*
X76265200Y-172265785D02*
X76312819Y-172408642D01*
X76312819Y-172408642D02*
X76312819Y-172503880D01*
X76312819Y-172503880D02*
X76265200Y-172646737D01*
X76265200Y-172646737D02*
X76169961Y-172741975D01*
X76169961Y-172741975D02*
X76074723Y-172789594D01*
X76074723Y-172789594D02*
X75884247Y-172837213D01*
X75884247Y-172837213D02*
X75741390Y-172837213D01*
X75741390Y-172837213D02*
X75550914Y-172789594D01*
X75550914Y-172789594D02*
X75455676Y-172741975D01*
X75455676Y-172741975D02*
X75360438Y-172646737D01*
X75360438Y-172646737D02*
X75312819Y-172503880D01*
X75312819Y-172503880D02*
X75312819Y-172408642D01*
X75312819Y-172408642D02*
X75360438Y-172265785D01*
X75360438Y-172265785D02*
X75408057Y-172218166D01*
X75312819Y-171884832D02*
X75312819Y-171265785D01*
X75312819Y-171265785D02*
X75693771Y-171599118D01*
X75693771Y-171599118D02*
X75693771Y-171456261D01*
X75693771Y-171456261D02*
X75741390Y-171361023D01*
X75741390Y-171361023D02*
X75789009Y-171313404D01*
X75789009Y-171313404D02*
X75884247Y-171265785D01*
X75884247Y-171265785D02*
X76122342Y-171265785D01*
X76122342Y-171265785D02*
X76217580Y-171313404D01*
X76217580Y-171313404D02*
X76265200Y-171361023D01*
X76265200Y-171361023D02*
X76312819Y-171456261D01*
X76312819Y-171456261D02*
X76312819Y-171741975D01*
X76312819Y-171741975D02*
X76265200Y-171837213D01*
X76265200Y-171837213D02*
X76217580Y-171884832D01*
X263632819Y-172768285D02*
X262632819Y-172768285D01*
X262632819Y-172768285D02*
X262632819Y-172530190D01*
X262632819Y-172530190D02*
X262680438Y-172387333D01*
X262680438Y-172387333D02*
X262775676Y-172292095D01*
X262775676Y-172292095D02*
X262870914Y-172244476D01*
X262870914Y-172244476D02*
X263061390Y-172196857D01*
X263061390Y-172196857D02*
X263204247Y-172196857D01*
X263204247Y-172196857D02*
X263394723Y-172244476D01*
X263394723Y-172244476D02*
X263489961Y-172292095D01*
X263489961Y-172292095D02*
X263585200Y-172387333D01*
X263585200Y-172387333D02*
X263632819Y-172530190D01*
X263632819Y-172530190D02*
X263632819Y-172768285D01*
X263632819Y-171244476D02*
X263632819Y-171815904D01*
X263632819Y-171530190D02*
X262632819Y-171530190D01*
X262632819Y-171530190D02*
X262775676Y-171625428D01*
X262775676Y-171625428D02*
X262870914Y-171720666D01*
X262870914Y-171720666D02*
X262918533Y-171815904D01*
X262632819Y-170911142D02*
X262632819Y-170292095D01*
X262632819Y-170292095D02*
X263013771Y-170625428D01*
X263013771Y-170625428D02*
X263013771Y-170482571D01*
X263013771Y-170482571D02*
X263061390Y-170387333D01*
X263061390Y-170387333D02*
X263109009Y-170339714D01*
X263109009Y-170339714D02*
X263204247Y-170292095D01*
X263204247Y-170292095D02*
X263442342Y-170292095D01*
X263442342Y-170292095D02*
X263537580Y-170339714D01*
X263537580Y-170339714D02*
X263585200Y-170387333D01*
X263585200Y-170387333D02*
X263632819Y-170482571D01*
X263632819Y-170482571D02*
X263632819Y-170768285D01*
X263632819Y-170768285D02*
X263585200Y-170863523D01*
X263585200Y-170863523D02*
X263537580Y-170911142D01*
D10*
X106252761Y-161331419D02*
X105919428Y-160855228D01*
X105681333Y-161331419D02*
X105681333Y-160331419D01*
X105681333Y-160331419D02*
X106062285Y-160331419D01*
X106062285Y-160331419D02*
X106157523Y-160379038D01*
X106157523Y-160379038D02*
X106205142Y-160426657D01*
X106205142Y-160426657D02*
X106252761Y-160521895D01*
X106252761Y-160521895D02*
X106252761Y-160664752D01*
X106252761Y-160664752D02*
X106205142Y-160759990D01*
X106205142Y-160759990D02*
X106157523Y-160807609D01*
X106157523Y-160807609D02*
X106062285Y-160855228D01*
X106062285Y-160855228D02*
X105681333Y-160855228D01*
X106538476Y-160331419D02*
X106871809Y-161331419D01*
X106871809Y-161331419D02*
X107205142Y-160331419D01*
X107586095Y-161331419D02*
X107776571Y-161331419D01*
X107776571Y-161331419D02*
X107871809Y-161283800D01*
X107871809Y-161283800D02*
X107919428Y-161236180D01*
X107919428Y-161236180D02*
X108014666Y-161093323D01*
X108014666Y-161093323D02*
X108062285Y-160902847D01*
X108062285Y-160902847D02*
X108062285Y-160521895D01*
X108062285Y-160521895D02*
X108014666Y-160426657D01*
X108014666Y-160426657D02*
X107967047Y-160379038D01*
X107967047Y-160379038D02*
X107871809Y-160331419D01*
X107871809Y-160331419D02*
X107681333Y-160331419D01*
X107681333Y-160331419D02*
X107586095Y-160379038D01*
X107586095Y-160379038D02*
X107538476Y-160426657D01*
X107538476Y-160426657D02*
X107490857Y-160521895D01*
X107490857Y-160521895D02*
X107490857Y-160759990D01*
X107490857Y-160759990D02*
X107538476Y-160855228D01*
X107538476Y-160855228D02*
X107586095Y-160902847D01*
X107586095Y-160902847D02*
X107681333Y-160950466D01*
X107681333Y-160950466D02*
X107871809Y-160950466D01*
X107871809Y-160950466D02*
X107967047Y-160902847D01*
X107967047Y-160902847D02*
X108014666Y-160855228D01*
X108014666Y-160855228D02*
X108062285Y-160759990D01*
X280776571Y-161331419D02*
X280443238Y-160855228D01*
X280205143Y-161331419D02*
X280205143Y-160331419D01*
X280205143Y-160331419D02*
X280586095Y-160331419D01*
X280586095Y-160331419D02*
X280681333Y-160379038D01*
X280681333Y-160379038D02*
X280728952Y-160426657D01*
X280728952Y-160426657D02*
X280776571Y-160521895D01*
X280776571Y-160521895D02*
X280776571Y-160664752D01*
X280776571Y-160664752D02*
X280728952Y-160759990D01*
X280728952Y-160759990D02*
X280681333Y-160807609D01*
X280681333Y-160807609D02*
X280586095Y-160855228D01*
X280586095Y-160855228D02*
X280205143Y-160855228D01*
X281062286Y-160331419D02*
X281395619Y-161331419D01*
X281395619Y-161331419D02*
X281728952Y-160331419D01*
X282586095Y-161331419D02*
X282014667Y-161331419D01*
X282300381Y-161331419D02*
X282300381Y-160331419D01*
X282300381Y-160331419D02*
X282205143Y-160474276D01*
X282205143Y-160474276D02*
X282109905Y-160569514D01*
X282109905Y-160569514D02*
X282014667Y-160617133D01*
X283443238Y-160664752D02*
X283443238Y-161331419D01*
X283205143Y-160283800D02*
X282967048Y-160998085D01*
X282967048Y-160998085D02*
X283586095Y-160998085D01*
D11*
X378416095Y-166108819D02*
X378416095Y-166918342D01*
X378416095Y-166918342D02*
X378463714Y-167013580D01*
X378463714Y-167013580D02*
X378511333Y-167061200D01*
X378511333Y-167061200D02*
X378606571Y-167108819D01*
X378606571Y-167108819D02*
X378797047Y-167108819D01*
X378797047Y-167108819D02*
X378892285Y-167061200D01*
X378892285Y-167061200D02*
X378939904Y-167013580D01*
X378939904Y-167013580D02*
X378987523Y-166918342D01*
X378987523Y-166918342D02*
X378987523Y-166108819D01*
X379892285Y-166442152D02*
X379892285Y-167108819D01*
X379654190Y-166061200D02*
X379416095Y-166775485D01*
X379416095Y-166775485D02*
X380035142Y-166775485D01*
X57982819Y-172720666D02*
X57506628Y-173053999D01*
X57982819Y-173292094D02*
X56982819Y-173292094D01*
X56982819Y-173292094D02*
X56982819Y-172911142D01*
X56982819Y-172911142D02*
X57030438Y-172815904D01*
X57030438Y-172815904D02*
X57078057Y-172768285D01*
X57078057Y-172768285D02*
X57173295Y-172720666D01*
X57173295Y-172720666D02*
X57316152Y-172720666D01*
X57316152Y-172720666D02*
X57411390Y-172768285D01*
X57411390Y-172768285D02*
X57459009Y-172815904D01*
X57459009Y-172815904D02*
X57506628Y-172911142D01*
X57506628Y-172911142D02*
X57506628Y-173292094D01*
X57316152Y-171863523D02*
X57982819Y-171863523D01*
X56935200Y-172101618D02*
X57649485Y-172339713D01*
X57649485Y-172339713D02*
X57649485Y-171720666D01*
D10*
X316252761Y-118331419D02*
X315919428Y-117855228D01*
X315681333Y-118331419D02*
X315681333Y-117331419D01*
X315681333Y-117331419D02*
X316062285Y-117331419D01*
X316062285Y-117331419D02*
X316157523Y-117379038D01*
X316157523Y-117379038D02*
X316205142Y-117426657D01*
X316205142Y-117426657D02*
X316252761Y-117521895D01*
X316252761Y-117521895D02*
X316252761Y-117664752D01*
X316252761Y-117664752D02*
X316205142Y-117759990D01*
X316205142Y-117759990D02*
X316157523Y-117807609D01*
X316157523Y-117807609D02*
X316062285Y-117855228D01*
X316062285Y-117855228D02*
X315681333Y-117855228D01*
X316538476Y-117331419D02*
X316871809Y-118331419D01*
X316871809Y-118331419D02*
X317205142Y-117331419D01*
X317443238Y-117331419D02*
X318109904Y-117331419D01*
X318109904Y-117331419D02*
X317681333Y-118331419D01*
D11*
X368632819Y-172768285D02*
X367632819Y-172768285D01*
X367632819Y-172768285D02*
X367632819Y-172530190D01*
X367632819Y-172530190D02*
X367680438Y-172387333D01*
X367680438Y-172387333D02*
X367775676Y-172292095D01*
X367775676Y-172292095D02*
X367870914Y-172244476D01*
X367870914Y-172244476D02*
X368061390Y-172196857D01*
X368061390Y-172196857D02*
X368204247Y-172196857D01*
X368204247Y-172196857D02*
X368394723Y-172244476D01*
X368394723Y-172244476D02*
X368489961Y-172292095D01*
X368489961Y-172292095D02*
X368585200Y-172387333D01*
X368585200Y-172387333D02*
X368632819Y-172530190D01*
X368632819Y-172530190D02*
X368632819Y-172768285D01*
X368632819Y-171244476D02*
X368632819Y-171815904D01*
X368632819Y-171530190D02*
X367632819Y-171530190D01*
X367632819Y-171530190D02*
X367775676Y-171625428D01*
X367775676Y-171625428D02*
X367870914Y-171720666D01*
X367870914Y-171720666D02*
X367918533Y-171815904D01*
X367632819Y-170387333D02*
X367632819Y-170577809D01*
X367632819Y-170577809D02*
X367680438Y-170673047D01*
X367680438Y-170673047D02*
X367728057Y-170720666D01*
X367728057Y-170720666D02*
X367870914Y-170815904D01*
X367870914Y-170815904D02*
X368061390Y-170863523D01*
X368061390Y-170863523D02*
X368442342Y-170863523D01*
X368442342Y-170863523D02*
X368537580Y-170815904D01*
X368537580Y-170815904D02*
X368585200Y-170768285D01*
X368585200Y-170768285D02*
X368632819Y-170673047D01*
X368632819Y-170673047D02*
X368632819Y-170482571D01*
X368632819Y-170482571D02*
X368585200Y-170387333D01*
X368585200Y-170387333D02*
X368537580Y-170339714D01*
X368537580Y-170339714D02*
X368442342Y-170292095D01*
X368442342Y-170292095D02*
X368204247Y-170292095D01*
X368204247Y-170292095D02*
X368109009Y-170339714D01*
X368109009Y-170339714D02*
X368061390Y-170387333D01*
X368061390Y-170387333D02*
X368013771Y-170482571D01*
X368013771Y-170482571D02*
X368013771Y-170673047D01*
X368013771Y-170673047D02*
X368061390Y-170768285D01*
X368061390Y-170768285D02*
X368109009Y-170815904D01*
X368109009Y-170815904D02*
X368204247Y-170863523D01*
X81857580Y-167180666D02*
X81905200Y-167228285D01*
X81905200Y-167228285D02*
X81952819Y-167371142D01*
X81952819Y-167371142D02*
X81952819Y-167466380D01*
X81952819Y-167466380D02*
X81905200Y-167609237D01*
X81905200Y-167609237D02*
X81809961Y-167704475D01*
X81809961Y-167704475D02*
X81714723Y-167752094D01*
X81714723Y-167752094D02*
X81524247Y-167799713D01*
X81524247Y-167799713D02*
X81381390Y-167799713D01*
X81381390Y-167799713D02*
X81190914Y-167752094D01*
X81190914Y-167752094D02*
X81095676Y-167704475D01*
X81095676Y-167704475D02*
X81000438Y-167609237D01*
X81000438Y-167609237D02*
X80952819Y-167466380D01*
X80952819Y-167466380D02*
X80952819Y-167371142D01*
X80952819Y-167371142D02*
X81000438Y-167228285D01*
X81000438Y-167228285D02*
X81048057Y-167180666D01*
X81381390Y-166609237D02*
X81333771Y-166704475D01*
X81333771Y-166704475D02*
X81286152Y-166752094D01*
X81286152Y-166752094D02*
X81190914Y-166799713D01*
X81190914Y-166799713D02*
X81143295Y-166799713D01*
X81143295Y-166799713D02*
X81048057Y-166752094D01*
X81048057Y-166752094D02*
X81000438Y-166704475D01*
X81000438Y-166704475D02*
X80952819Y-166609237D01*
X80952819Y-166609237D02*
X80952819Y-166418761D01*
X80952819Y-166418761D02*
X81000438Y-166323523D01*
X81000438Y-166323523D02*
X81048057Y-166275904D01*
X81048057Y-166275904D02*
X81143295Y-166228285D01*
X81143295Y-166228285D02*
X81190914Y-166228285D01*
X81190914Y-166228285D02*
X81286152Y-166275904D01*
X81286152Y-166275904D02*
X81333771Y-166323523D01*
X81333771Y-166323523D02*
X81381390Y-166418761D01*
X81381390Y-166418761D02*
X81381390Y-166609237D01*
X81381390Y-166609237D02*
X81429009Y-166704475D01*
X81429009Y-166704475D02*
X81476628Y-166752094D01*
X81476628Y-166752094D02*
X81571866Y-166799713D01*
X81571866Y-166799713D02*
X81762342Y-166799713D01*
X81762342Y-166799713D02*
X81857580Y-166752094D01*
X81857580Y-166752094D02*
X81905200Y-166704475D01*
X81905200Y-166704475D02*
X81952819Y-166609237D01*
X81952819Y-166609237D02*
X81952819Y-166418761D01*
X81952819Y-166418761D02*
X81905200Y-166323523D01*
X81905200Y-166323523D02*
X81857580Y-166275904D01*
X81857580Y-166275904D02*
X81762342Y-166228285D01*
X81762342Y-166228285D02*
X81571866Y-166228285D01*
X81571866Y-166228285D02*
X81476628Y-166275904D01*
X81476628Y-166275904D02*
X81429009Y-166323523D01*
X81429009Y-166323523D02*
X81381390Y-166418761D01*
D10*
X211252761Y-118331419D02*
X210919428Y-117855228D01*
X210681333Y-118331419D02*
X210681333Y-117331419D01*
X210681333Y-117331419D02*
X211062285Y-117331419D01*
X211062285Y-117331419D02*
X211157523Y-117379038D01*
X211157523Y-117379038D02*
X211205142Y-117426657D01*
X211205142Y-117426657D02*
X211252761Y-117521895D01*
X211252761Y-117521895D02*
X211252761Y-117664752D01*
X211252761Y-117664752D02*
X211205142Y-117759990D01*
X211205142Y-117759990D02*
X211157523Y-117807609D01*
X211157523Y-117807609D02*
X211062285Y-117855228D01*
X211062285Y-117855228D02*
X210681333Y-117855228D01*
X211538476Y-117331419D02*
X211871809Y-118331419D01*
X211871809Y-118331419D02*
X212205142Y-117331419D01*
X212967047Y-117664752D02*
X212967047Y-118331419D01*
X212728952Y-117283800D02*
X212490857Y-117998085D01*
X212490857Y-117998085D02*
X213109904Y-117998085D01*
D11*
X76416095Y-185008819D02*
X76416095Y-185818342D01*
X76416095Y-185818342D02*
X76463714Y-185913580D01*
X76463714Y-185913580D02*
X76511333Y-185961200D01*
X76511333Y-185961200D02*
X76606571Y-186008819D01*
X76606571Y-186008819D02*
X76797047Y-186008819D01*
X76797047Y-186008819D02*
X76892285Y-185961200D01*
X76892285Y-185961200D02*
X76939904Y-185913580D01*
X76939904Y-185913580D02*
X76987523Y-185818342D01*
X76987523Y-185818342D02*
X76987523Y-185008819D01*
X77892285Y-185008819D02*
X77701809Y-185008819D01*
X77701809Y-185008819D02*
X77606571Y-185056438D01*
X77606571Y-185056438D02*
X77558952Y-185104057D01*
X77558952Y-185104057D02*
X77463714Y-185246914D01*
X77463714Y-185246914D02*
X77416095Y-185437390D01*
X77416095Y-185437390D02*
X77416095Y-185818342D01*
X77416095Y-185818342D02*
X77463714Y-185913580D01*
X77463714Y-185913580D02*
X77511333Y-185961200D01*
X77511333Y-185961200D02*
X77606571Y-186008819D01*
X77606571Y-186008819D02*
X77797047Y-186008819D01*
X77797047Y-186008819D02*
X77892285Y-185961200D01*
X77892285Y-185961200D02*
X77939904Y-185913580D01*
X77939904Y-185913580D02*
X77987523Y-185818342D01*
X77987523Y-185818342D02*
X77987523Y-185580247D01*
X77987523Y-185580247D02*
X77939904Y-185485009D01*
X77939904Y-185485009D02*
X77892285Y-185437390D01*
X77892285Y-185437390D02*
X77797047Y-185389771D01*
X77797047Y-185389771D02*
X77606571Y-185389771D01*
X77606571Y-185389771D02*
X77511333Y-185437390D01*
X77511333Y-185437390D02*
X77463714Y-185485009D01*
X77463714Y-185485009D02*
X77416095Y-185580247D01*
X81982819Y-171720666D02*
X81506628Y-172053999D01*
X81982819Y-172292094D02*
X80982819Y-172292094D01*
X80982819Y-172292094D02*
X80982819Y-171911142D01*
X80982819Y-171911142D02*
X81030438Y-171815904D01*
X81030438Y-171815904D02*
X81078057Y-171768285D01*
X81078057Y-171768285D02*
X81173295Y-171720666D01*
X81173295Y-171720666D02*
X81316152Y-171720666D01*
X81316152Y-171720666D02*
X81411390Y-171768285D01*
X81411390Y-171768285D02*
X81459009Y-171815904D01*
X81459009Y-171815904D02*
X81506628Y-171911142D01*
X81506628Y-171911142D02*
X81506628Y-172292094D01*
X81078057Y-171339713D02*
X81030438Y-171292094D01*
X81030438Y-171292094D02*
X80982819Y-171196856D01*
X80982819Y-171196856D02*
X80982819Y-170958761D01*
X80982819Y-170958761D02*
X81030438Y-170863523D01*
X81030438Y-170863523D02*
X81078057Y-170815904D01*
X81078057Y-170815904D02*
X81173295Y-170768285D01*
X81173295Y-170768285D02*
X81268533Y-170768285D01*
X81268533Y-170768285D02*
X81411390Y-170815904D01*
X81411390Y-170815904D02*
X81982819Y-171387332D01*
X81982819Y-171387332D02*
X81982819Y-170768285D01*
X193632819Y-129292094D02*
X192632819Y-129292094D01*
X192632819Y-129292094D02*
X192632819Y-129053999D01*
X192632819Y-129053999D02*
X192680438Y-128911142D01*
X192680438Y-128911142D02*
X192775676Y-128815904D01*
X192775676Y-128815904D02*
X192870914Y-128768285D01*
X192870914Y-128768285D02*
X193061390Y-128720666D01*
X193061390Y-128720666D02*
X193204247Y-128720666D01*
X193204247Y-128720666D02*
X193394723Y-128768285D01*
X193394723Y-128768285D02*
X193489961Y-128815904D01*
X193489961Y-128815904D02*
X193585200Y-128911142D01*
X193585200Y-128911142D02*
X193632819Y-129053999D01*
X193632819Y-129053999D02*
X193632819Y-129292094D01*
X192632819Y-128387332D02*
X192632819Y-127768285D01*
X192632819Y-127768285D02*
X193013771Y-128101618D01*
X193013771Y-128101618D02*
X193013771Y-127958761D01*
X193013771Y-127958761D02*
X193061390Y-127863523D01*
X193061390Y-127863523D02*
X193109009Y-127815904D01*
X193109009Y-127815904D02*
X193204247Y-127768285D01*
X193204247Y-127768285D02*
X193442342Y-127768285D01*
X193442342Y-127768285D02*
X193537580Y-127815904D01*
X193537580Y-127815904D02*
X193585200Y-127863523D01*
X193585200Y-127863523D02*
X193632819Y-127958761D01*
X193632819Y-127958761D02*
X193632819Y-128244475D01*
X193632819Y-128244475D02*
X193585200Y-128339713D01*
X193585200Y-128339713D02*
X193537580Y-128387332D01*
X298632819Y-172768285D02*
X297632819Y-172768285D01*
X297632819Y-172768285D02*
X297632819Y-172530190D01*
X297632819Y-172530190D02*
X297680438Y-172387333D01*
X297680438Y-172387333D02*
X297775676Y-172292095D01*
X297775676Y-172292095D02*
X297870914Y-172244476D01*
X297870914Y-172244476D02*
X298061390Y-172196857D01*
X298061390Y-172196857D02*
X298204247Y-172196857D01*
X298204247Y-172196857D02*
X298394723Y-172244476D01*
X298394723Y-172244476D02*
X298489961Y-172292095D01*
X298489961Y-172292095D02*
X298585200Y-172387333D01*
X298585200Y-172387333D02*
X298632819Y-172530190D01*
X298632819Y-172530190D02*
X298632819Y-172768285D01*
X298632819Y-171244476D02*
X298632819Y-171815904D01*
X298632819Y-171530190D02*
X297632819Y-171530190D01*
X297632819Y-171530190D02*
X297775676Y-171625428D01*
X297775676Y-171625428D02*
X297870914Y-171720666D01*
X297870914Y-171720666D02*
X297918533Y-171815904D01*
X297966152Y-170387333D02*
X298632819Y-170387333D01*
X297585200Y-170625428D02*
X298299485Y-170863523D01*
X298299485Y-170863523D02*
X298299485Y-170244476D01*
X91416095Y-134908819D02*
X91416095Y-135718342D01*
X91416095Y-135718342D02*
X91463714Y-135813580D01*
X91463714Y-135813580D02*
X91511333Y-135861200D01*
X91511333Y-135861200D02*
X91606571Y-135908819D01*
X91606571Y-135908819D02*
X91797047Y-135908819D01*
X91797047Y-135908819D02*
X91892285Y-135861200D01*
X91892285Y-135861200D02*
X91939904Y-135813580D01*
X91939904Y-135813580D02*
X91987523Y-135718342D01*
X91987523Y-135718342D02*
X91987523Y-134908819D01*
X92987523Y-135908819D02*
X92416095Y-135908819D01*
X92701809Y-135908819D02*
X92701809Y-134908819D01*
X92701809Y-134908819D02*
X92606571Y-135051676D01*
X92606571Y-135051676D02*
X92511333Y-135146914D01*
X92511333Y-135146914D02*
X92416095Y-135194533D01*
X123632819Y-172292094D02*
X122632819Y-172292094D01*
X122632819Y-172292094D02*
X122632819Y-172053999D01*
X122632819Y-172053999D02*
X122680438Y-171911142D01*
X122680438Y-171911142D02*
X122775676Y-171815904D01*
X122775676Y-171815904D02*
X122870914Y-171768285D01*
X122870914Y-171768285D02*
X123061390Y-171720666D01*
X123061390Y-171720666D02*
X123204247Y-171720666D01*
X123204247Y-171720666D02*
X123394723Y-171768285D01*
X123394723Y-171768285D02*
X123489961Y-171815904D01*
X123489961Y-171815904D02*
X123585200Y-171911142D01*
X123585200Y-171911142D02*
X123632819Y-172053999D01*
X123632819Y-172053999D02*
X123632819Y-172292094D01*
X123632819Y-171244475D02*
X123632819Y-171053999D01*
X123632819Y-171053999D02*
X123585200Y-170958761D01*
X123585200Y-170958761D02*
X123537580Y-170911142D01*
X123537580Y-170911142D02*
X123394723Y-170815904D01*
X123394723Y-170815904D02*
X123204247Y-170768285D01*
X123204247Y-170768285D02*
X122823295Y-170768285D01*
X122823295Y-170768285D02*
X122728057Y-170815904D01*
X122728057Y-170815904D02*
X122680438Y-170863523D01*
X122680438Y-170863523D02*
X122632819Y-170958761D01*
X122632819Y-170958761D02*
X122632819Y-171149237D01*
X122632819Y-171149237D02*
X122680438Y-171244475D01*
X122680438Y-171244475D02*
X122728057Y-171292094D01*
X122728057Y-171292094D02*
X122823295Y-171339713D01*
X122823295Y-171339713D02*
X123061390Y-171339713D01*
X123061390Y-171339713D02*
X123156628Y-171292094D01*
X123156628Y-171292094D02*
X123204247Y-171244475D01*
X123204247Y-171244475D02*
X123251866Y-171149237D01*
X123251866Y-171149237D02*
X123251866Y-170958761D01*
X123251866Y-170958761D02*
X123204247Y-170863523D01*
X123204247Y-170863523D02*
X123156628Y-170815904D01*
X123156628Y-170815904D02*
X123061390Y-170768285D01*
D10*
X61587800Y-173446332D02*
X61635419Y-173303475D01*
X61635419Y-173303475D02*
X61635419Y-173065380D01*
X61635419Y-173065380D02*
X61587800Y-172970142D01*
X61587800Y-172970142D02*
X61540180Y-172922523D01*
X61540180Y-172922523D02*
X61444942Y-172874904D01*
X61444942Y-172874904D02*
X61349704Y-172874904D01*
X61349704Y-172874904D02*
X61254466Y-172922523D01*
X61254466Y-172922523D02*
X61206847Y-172970142D01*
X61206847Y-172970142D02*
X61159228Y-173065380D01*
X61159228Y-173065380D02*
X61111609Y-173255856D01*
X61111609Y-173255856D02*
X61063990Y-173351094D01*
X61063990Y-173351094D02*
X61016371Y-173398713D01*
X61016371Y-173398713D02*
X60921133Y-173446332D01*
X60921133Y-173446332D02*
X60825895Y-173446332D01*
X60825895Y-173446332D02*
X60730657Y-173398713D01*
X60730657Y-173398713D02*
X60683038Y-173351094D01*
X60683038Y-173351094D02*
X60635419Y-173255856D01*
X60635419Y-173255856D02*
X60635419Y-173017761D01*
X60635419Y-173017761D02*
X60683038Y-172874904D01*
X60635419Y-172541570D02*
X61635419Y-172303475D01*
X61635419Y-172303475D02*
X60921133Y-172112999D01*
X60921133Y-172112999D02*
X61635419Y-171922523D01*
X61635419Y-171922523D02*
X60635419Y-171684428D01*
X61635419Y-170779666D02*
X61635419Y-171351094D01*
X61635419Y-171065380D02*
X60635419Y-171065380D01*
X60635419Y-171065380D02*
X60778276Y-171160618D01*
X60778276Y-171160618D02*
X60873514Y-171255856D01*
X60873514Y-171255856D02*
X60921133Y-171351094D01*
D11*
X74939905Y-162563819D02*
X74939905Y-163373342D01*
X74939905Y-163373342D02*
X74987524Y-163468580D01*
X74987524Y-163468580D02*
X75035143Y-163516200D01*
X75035143Y-163516200D02*
X75130381Y-163563819D01*
X75130381Y-163563819D02*
X75320857Y-163563819D01*
X75320857Y-163563819D02*
X75416095Y-163516200D01*
X75416095Y-163516200D02*
X75463714Y-163468580D01*
X75463714Y-163468580D02*
X75511333Y-163373342D01*
X75511333Y-163373342D02*
X75511333Y-162563819D01*
X76511333Y-163563819D02*
X75939905Y-163563819D01*
X76225619Y-163563819D02*
X76225619Y-162563819D01*
X76225619Y-162563819D02*
X76130381Y-162706676D01*
X76130381Y-162706676D02*
X76035143Y-162801914D01*
X76035143Y-162801914D02*
X75939905Y-162849533D01*
X76892286Y-162659057D02*
X76939905Y-162611438D01*
X76939905Y-162611438D02*
X77035143Y-162563819D01*
X77035143Y-162563819D02*
X77273238Y-162563819D01*
X77273238Y-162563819D02*
X77368476Y-162611438D01*
X77368476Y-162611438D02*
X77416095Y-162659057D01*
X77416095Y-162659057D02*
X77463714Y-162754295D01*
X77463714Y-162754295D02*
X77463714Y-162849533D01*
X77463714Y-162849533D02*
X77416095Y-162992390D01*
X77416095Y-162992390D02*
X76844667Y-163563819D01*
X76844667Y-163563819D02*
X77463714Y-163563819D01*
X193632819Y-172768285D02*
X192632819Y-172768285D01*
X192632819Y-172768285D02*
X192632819Y-172530190D01*
X192632819Y-172530190D02*
X192680438Y-172387333D01*
X192680438Y-172387333D02*
X192775676Y-172292095D01*
X192775676Y-172292095D02*
X192870914Y-172244476D01*
X192870914Y-172244476D02*
X193061390Y-172196857D01*
X193061390Y-172196857D02*
X193204247Y-172196857D01*
X193204247Y-172196857D02*
X193394723Y-172244476D01*
X193394723Y-172244476D02*
X193489961Y-172292095D01*
X193489961Y-172292095D02*
X193585200Y-172387333D01*
X193585200Y-172387333D02*
X193632819Y-172530190D01*
X193632819Y-172530190D02*
X193632819Y-172768285D01*
X193632819Y-171244476D02*
X193632819Y-171815904D01*
X193632819Y-171530190D02*
X192632819Y-171530190D01*
X192632819Y-171530190D02*
X192775676Y-171625428D01*
X192775676Y-171625428D02*
X192870914Y-171720666D01*
X192870914Y-171720666D02*
X192918533Y-171815904D01*
X193632819Y-170292095D02*
X193632819Y-170863523D01*
X193632819Y-170577809D02*
X192632819Y-170577809D01*
X192632819Y-170577809D02*
X192775676Y-170673047D01*
X192775676Y-170673047D02*
X192870914Y-170768285D01*
X192870914Y-170768285D02*
X192918533Y-170863523D01*
X123632819Y-129292094D02*
X122632819Y-129292094D01*
X122632819Y-129292094D02*
X122632819Y-129053999D01*
X122632819Y-129053999D02*
X122680438Y-128911142D01*
X122680438Y-128911142D02*
X122775676Y-128815904D01*
X122775676Y-128815904D02*
X122870914Y-128768285D01*
X122870914Y-128768285D02*
X123061390Y-128720666D01*
X123061390Y-128720666D02*
X123204247Y-128720666D01*
X123204247Y-128720666D02*
X123394723Y-128768285D01*
X123394723Y-128768285D02*
X123489961Y-128815904D01*
X123489961Y-128815904D02*
X123585200Y-128911142D01*
X123585200Y-128911142D02*
X123632819Y-129053999D01*
X123632819Y-129053999D02*
X123632819Y-129292094D01*
X123632819Y-127768285D02*
X123632819Y-128339713D01*
X123632819Y-128053999D02*
X122632819Y-128053999D01*
X122632819Y-128053999D02*
X122775676Y-128149237D01*
X122775676Y-128149237D02*
X122870914Y-128244475D01*
X122870914Y-128244475D02*
X122918533Y-128339713D01*
D10*
X246252761Y-118331419D02*
X245919428Y-117855228D01*
X245681333Y-118331419D02*
X245681333Y-117331419D01*
X245681333Y-117331419D02*
X246062285Y-117331419D01*
X246062285Y-117331419D02*
X246157523Y-117379038D01*
X246157523Y-117379038D02*
X246205142Y-117426657D01*
X246205142Y-117426657D02*
X246252761Y-117521895D01*
X246252761Y-117521895D02*
X246252761Y-117664752D01*
X246252761Y-117664752D02*
X246205142Y-117759990D01*
X246205142Y-117759990D02*
X246157523Y-117807609D01*
X246157523Y-117807609D02*
X246062285Y-117855228D01*
X246062285Y-117855228D02*
X245681333Y-117855228D01*
X246538476Y-117331419D02*
X246871809Y-118331419D01*
X246871809Y-118331419D02*
X247205142Y-117331419D01*
X248014666Y-117331419D02*
X247538476Y-117331419D01*
X247538476Y-117331419D02*
X247490857Y-117807609D01*
X247490857Y-117807609D02*
X247538476Y-117759990D01*
X247538476Y-117759990D02*
X247633714Y-117712371D01*
X247633714Y-117712371D02*
X247871809Y-117712371D01*
X247871809Y-117712371D02*
X247967047Y-117759990D01*
X247967047Y-117759990D02*
X248014666Y-117807609D01*
X248014666Y-117807609D02*
X248062285Y-117902847D01*
X248062285Y-117902847D02*
X248062285Y-118140942D01*
X248062285Y-118140942D02*
X248014666Y-118236180D01*
X248014666Y-118236180D02*
X247967047Y-118283800D01*
X247967047Y-118283800D02*
X247871809Y-118331419D01*
X247871809Y-118331419D02*
X247633714Y-118331419D01*
X247633714Y-118331419D02*
X247538476Y-118283800D01*
X247538476Y-118283800D02*
X247490857Y-118236180D01*
X210776571Y-161331419D02*
X210443238Y-160855228D01*
X210205143Y-161331419D02*
X210205143Y-160331419D01*
X210205143Y-160331419D02*
X210586095Y-160331419D01*
X210586095Y-160331419D02*
X210681333Y-160379038D01*
X210681333Y-160379038D02*
X210728952Y-160426657D01*
X210728952Y-160426657D02*
X210776571Y-160521895D01*
X210776571Y-160521895D02*
X210776571Y-160664752D01*
X210776571Y-160664752D02*
X210728952Y-160759990D01*
X210728952Y-160759990D02*
X210681333Y-160807609D01*
X210681333Y-160807609D02*
X210586095Y-160855228D01*
X210586095Y-160855228D02*
X210205143Y-160855228D01*
X211062286Y-160331419D02*
X211395619Y-161331419D01*
X211395619Y-161331419D02*
X211728952Y-160331419D01*
X212586095Y-161331419D02*
X212014667Y-161331419D01*
X212300381Y-161331419D02*
X212300381Y-160331419D01*
X212300381Y-160331419D02*
X212205143Y-160474276D01*
X212205143Y-160474276D02*
X212109905Y-160569514D01*
X212109905Y-160569514D02*
X212014667Y-160617133D01*
X212967048Y-160426657D02*
X213014667Y-160379038D01*
X213014667Y-160379038D02*
X213109905Y-160331419D01*
X213109905Y-160331419D02*
X213348000Y-160331419D01*
X213348000Y-160331419D02*
X213443238Y-160379038D01*
X213443238Y-160379038D02*
X213490857Y-160426657D01*
X213490857Y-160426657D02*
X213538476Y-160521895D01*
X213538476Y-160521895D02*
X213538476Y-160617133D01*
X213538476Y-160617133D02*
X213490857Y-160759990D01*
X213490857Y-160759990D02*
X212919429Y-161331419D01*
X212919429Y-161331419D02*
X213538476Y-161331419D01*
D11*
X333632819Y-129292094D02*
X332632819Y-129292094D01*
X332632819Y-129292094D02*
X332632819Y-129053999D01*
X332632819Y-129053999D02*
X332680438Y-128911142D01*
X332680438Y-128911142D02*
X332775676Y-128815904D01*
X332775676Y-128815904D02*
X332870914Y-128768285D01*
X332870914Y-128768285D02*
X333061390Y-128720666D01*
X333061390Y-128720666D02*
X333204247Y-128720666D01*
X333204247Y-128720666D02*
X333394723Y-128768285D01*
X333394723Y-128768285D02*
X333489961Y-128815904D01*
X333489961Y-128815904D02*
X333585200Y-128911142D01*
X333585200Y-128911142D02*
X333632819Y-129053999D01*
X333632819Y-129053999D02*
X333632819Y-129292094D01*
X332632819Y-128387332D02*
X332632819Y-127720666D01*
X332632819Y-127720666D02*
X333632819Y-128149237D01*
X378416095Y-123108819D02*
X378416095Y-123918342D01*
X378416095Y-123918342D02*
X378463714Y-124013580D01*
X378463714Y-124013580D02*
X378511333Y-124061200D01*
X378511333Y-124061200D02*
X378606571Y-124108819D01*
X378606571Y-124108819D02*
X378797047Y-124108819D01*
X378797047Y-124108819D02*
X378892285Y-124061200D01*
X378892285Y-124061200D02*
X378939904Y-124013580D01*
X378939904Y-124013580D02*
X378987523Y-123918342D01*
X378987523Y-123918342D02*
X378987523Y-123108819D01*
X379416095Y-123204057D02*
X379463714Y-123156438D01*
X379463714Y-123156438D02*
X379558952Y-123108819D01*
X379558952Y-123108819D02*
X379797047Y-123108819D01*
X379797047Y-123108819D02*
X379892285Y-123156438D01*
X379892285Y-123156438D02*
X379939904Y-123204057D01*
X379939904Y-123204057D02*
X379987523Y-123299295D01*
X379987523Y-123299295D02*
X379987523Y-123394533D01*
X379987523Y-123394533D02*
X379939904Y-123537390D01*
X379939904Y-123537390D02*
X379368476Y-124108819D01*
X379368476Y-124108819D02*
X379987523Y-124108819D01*
D12*
%TO.C,RV8*%
X350978000Y-120064000D02*
X354378000Y-120064000D01*
X350978000Y-124264000D02*
X350978000Y-120064000D01*
X350978000Y-136464000D02*
X350978000Y-129264000D01*
X361978000Y-120064000D02*
X365378000Y-120064000D01*
X365378000Y-120064000D02*
X365378000Y-124264000D01*
X365378000Y-129264000D02*
X365378000Y-136464000D01*
X365378000Y-136464000D02*
X350978000Y-136464000D01*
D13*
%TO.C,H1*%
X54178000Y-98554000D02*
G75*
G03*
X54178000Y-98554000I-2000000J0D01*
G01*
D12*
%TO.C,R3*%
X59913000Y-165326936D02*
X59913000Y-165781064D01*
X58443000Y-165326936D02*
X58443000Y-165781064D01*
%TO.C,C2*%
X78913000Y-171752748D02*
X78913000Y-172275252D01*
X77443000Y-171752748D02*
X77443000Y-172275252D01*
%TO.C,RV16*%
X350978000Y-163064000D02*
X354378000Y-163064000D01*
X350978000Y-167264000D02*
X350978000Y-163064000D01*
X350978000Y-179464000D02*
X350978000Y-172264000D01*
X361978000Y-163064000D02*
X365378000Y-163064000D01*
X365378000Y-163064000D02*
X365378000Y-167264000D01*
X365378000Y-172264000D02*
X365378000Y-179464000D01*
X365378000Y-179464000D02*
X350978000Y-179464000D01*
%TO.C,D5*%
X264178000Y-130914000D02*
X266178000Y-130914000D01*
X264178000Y-130914000D02*
X264178000Y-126904000D01*
X266178000Y-130914000D02*
X266178000Y-126904000D01*
%TO.C,RV2*%
X140978000Y-120064000D02*
X144378000Y-120064000D01*
X140978000Y-124264000D02*
X140978000Y-120064000D01*
X140978000Y-136464000D02*
X140978000Y-129264000D01*
X151978000Y-120064000D02*
X155378000Y-120064000D01*
X155378000Y-120064000D02*
X155378000Y-124264000D01*
X155378000Y-129264000D02*
X155378000Y-136464000D01*
X155378000Y-136464000D02*
X140978000Y-136464000D01*
%TO.C,D8*%
X369178000Y-130914000D02*
X371178000Y-130914000D01*
X369178000Y-130914000D02*
X369178000Y-126904000D01*
X371178000Y-130914000D02*
X371178000Y-126904000D01*
%TO.C,RV10*%
X140978000Y-163064000D02*
X144378000Y-163064000D01*
X140978000Y-167264000D02*
X140978000Y-163064000D01*
X140978000Y-179464000D02*
X140978000Y-172264000D01*
X151978000Y-163064000D02*
X155378000Y-163064000D01*
X155378000Y-163064000D02*
X155378000Y-167264000D01*
X155378000Y-172264000D02*
X155378000Y-179464000D01*
X155378000Y-179464000D02*
X140978000Y-179464000D01*
%TO.C,C5*%
X82443000Y-181815252D02*
X82443000Y-181292748D01*
X83913000Y-181815252D02*
X83913000Y-181292748D01*
%TO.C,RV11*%
X175978000Y-163064000D02*
X179378000Y-163064000D01*
X175978000Y-167264000D02*
X175978000Y-163064000D01*
X175978000Y-179464000D02*
X175978000Y-172264000D01*
X186978000Y-163064000D02*
X190378000Y-163064000D01*
X190378000Y-163064000D02*
X190378000Y-167264000D01*
X190378000Y-172264000D02*
X190378000Y-179464000D01*
X190378000Y-179464000D02*
X175978000Y-179464000D01*
%TO.C,D2*%
X159178000Y-130914000D02*
X161178000Y-130914000D01*
X159178000Y-130914000D02*
X159178000Y-126904000D01*
X161178000Y-130914000D02*
X161178000Y-126904000D01*
%TO.C,C7*%
X77439252Y-177289000D02*
X76916748Y-177289000D01*
X77439252Y-175819000D02*
X76916748Y-175819000D01*
D13*
%TO.C,H4*%
X91178000Y-117554000D02*
G75*
G03*
X91178000Y-117554000I-2000000J0D01*
G01*
D12*
%TO.C,C6*%
X70443000Y-183815252D02*
X70443000Y-183292748D01*
X71913000Y-183815252D02*
X71913000Y-183292748D01*
D13*
%TO.C,H8*%
X91178000Y-160554000D02*
G75*
G03*
X91178000Y-160554000I-2000000J0D01*
G01*
%TO.C,H6*%
X91178000Y-141554000D02*
G75*
G03*
X91178000Y-141554000I-2000000J0D01*
G01*
D12*
%TO.C,RV15*%
X315978000Y-163064000D02*
X319378000Y-163064000D01*
X315978000Y-167264000D02*
X315978000Y-163064000D01*
X315978000Y-179464000D02*
X315978000Y-172264000D01*
X326978000Y-163064000D02*
X330378000Y-163064000D01*
X330378000Y-163064000D02*
X330378000Y-167264000D01*
X330378000Y-172264000D02*
X330378000Y-179464000D01*
X330378000Y-179464000D02*
X315978000Y-179464000D01*
D13*
%TO.C,A1*%
X50684000Y-101234000D02*
X54748000Y-101234000D01*
X50684000Y-103774000D02*
X50684000Y-101234000D01*
X50684000Y-141874000D02*
X50684000Y-103774000D01*
D12*
X54318000Y-103504000D02*
X54318000Y-101504000D01*
X54638000Y-98694000D02*
X54638000Y-144414000D01*
D13*
X54748000Y-101234000D02*
X54748000Y-103774000D01*
X54748000Y-101234000D02*
X58812000Y-101234000D01*
X54748000Y-103774000D02*
X50684000Y-103774000D01*
X58812000Y-101234000D02*
X58812000Y-141874000D01*
X58812000Y-141874000D02*
X50684000Y-141874000D01*
X73544000Y-111394000D02*
X77608000Y-111394000D01*
X73544000Y-113934000D02*
X73544000Y-111394000D01*
X73544000Y-141874000D02*
X73544000Y-113934000D01*
X73544000Y-141874000D02*
X77608000Y-141874000D01*
D12*
X75068000Y-96044000D02*
X57288000Y-96044000D01*
X75068000Y-147064000D02*
X57288000Y-147064000D01*
D13*
X77608000Y-111394000D02*
X77608000Y-113934000D01*
X77608000Y-111394000D02*
X81672000Y-111394000D01*
X77608000Y-113934000D02*
X73544000Y-113934000D01*
X77608000Y-141874000D02*
X81672000Y-141874000D01*
D12*
X77718000Y-98694000D02*
X77718000Y-144414000D01*
D13*
X81672000Y-111394000D02*
X81672000Y-141874000D01*
D12*
X57288000Y-96044000D02*
G75*
G03*
X54638000Y-98694000I0J-2650000D01*
G01*
X54638000Y-144414000D02*
G75*
G03*
X57288000Y-147064000I2650000J0D01*
G01*
X77718000Y-98694000D02*
G75*
G03*
X75068000Y-96044000I-2650000J0D01*
G01*
X75068000Y-147064000D02*
G75*
G03*
X77718000Y-144414000I0J2650000D01*
G01*
%TO.C,RV6*%
X280978000Y-120064000D02*
X284378000Y-120064000D01*
X280978000Y-124264000D02*
X280978000Y-120064000D01*
X280978000Y-136464000D02*
X280978000Y-129264000D01*
X291978000Y-120064000D02*
X295378000Y-120064000D01*
X295378000Y-120064000D02*
X295378000Y-124264000D01*
X295378000Y-129264000D02*
X295378000Y-136464000D01*
X295378000Y-136464000D02*
X280978000Y-136464000D01*
%TO.C,D10*%
X159178000Y-173914000D02*
X161178000Y-173914000D01*
X159178000Y-173914000D02*
X159178000Y-169904000D01*
X161178000Y-173914000D02*
X161178000Y-169904000D01*
D13*
%TO.C,H5*%
X384178000Y-117554000D02*
G75*
G03*
X384178000Y-117554000I-2000000J0D01*
G01*
D12*
%TO.C,R1*%
X71913000Y-179326936D02*
X71913000Y-179781064D01*
X70443000Y-179326936D02*
X70443000Y-179781064D01*
%TO.C,D6*%
X299178000Y-130914000D02*
X301178000Y-130914000D01*
X299178000Y-130914000D02*
X299178000Y-126904000D01*
X301178000Y-130914000D02*
X301178000Y-126904000D01*
%TO.C,U3*%
X92178000Y-177614000D02*
X95628000Y-177614000D01*
X92178000Y-177614000D02*
X90228000Y-177614000D01*
X92178000Y-167494000D02*
X94128000Y-167494000D01*
X92178000Y-167494000D02*
X90228000Y-167494000D01*
%TO.C,RV13*%
X245978000Y-163064000D02*
X249378000Y-163064000D01*
X245978000Y-167264000D02*
X245978000Y-163064000D01*
X245978000Y-179464000D02*
X245978000Y-172264000D01*
X256978000Y-163064000D02*
X260378000Y-163064000D01*
X260378000Y-163064000D02*
X260378000Y-167264000D01*
X260378000Y-172264000D02*
X260378000Y-179464000D01*
X260378000Y-179464000D02*
X245978000Y-179464000D01*
%TO.C,D12*%
X229178000Y-173914000D02*
X231178000Y-173914000D01*
X229178000Y-173914000D02*
X229178000Y-169904000D01*
X231178000Y-173914000D02*
X231178000Y-169904000D01*
%TO.C,D15*%
X334178000Y-173914000D02*
X336178000Y-173914000D01*
X334178000Y-173914000D02*
X334178000Y-169904000D01*
X336178000Y-173914000D02*
X336178000Y-169904000D01*
D13*
%TO.C,H11*%
X384178000Y-188554000D02*
G75*
G03*
X384178000Y-188554000I-2000000J0D01*
G01*
D12*
%TO.C,RV3*%
X175978000Y-120064000D02*
X179378000Y-120064000D01*
X175978000Y-124264000D02*
X175978000Y-120064000D01*
X175978000Y-136464000D02*
X175978000Y-129264000D01*
X186978000Y-120064000D02*
X190378000Y-120064000D01*
X190378000Y-120064000D02*
X190378000Y-124264000D01*
X190378000Y-129264000D02*
X190378000Y-136464000D01*
X190378000Y-136464000D02*
X175978000Y-136464000D01*
%TO.C,RV1*%
X105978000Y-120064000D02*
X109378000Y-120064000D01*
X105978000Y-124264000D02*
X105978000Y-120064000D01*
X105978000Y-136464000D02*
X105978000Y-129264000D01*
X116978000Y-120064000D02*
X120378000Y-120064000D01*
X120378000Y-120064000D02*
X120378000Y-124264000D01*
X120378000Y-129264000D02*
X120378000Y-136464000D01*
X120378000Y-136464000D02*
X105978000Y-136464000D01*
%TO.C,D4*%
X229178000Y-130914000D02*
X231178000Y-130914000D01*
X229178000Y-130914000D02*
X229178000Y-126904000D01*
X231178000Y-130914000D02*
X231178000Y-126904000D01*
%TO.C,C3*%
X74913000Y-171790248D02*
X74913000Y-172312752D01*
X73443000Y-171790248D02*
X73443000Y-172312752D01*
%TO.C,D13*%
X264178000Y-173914000D02*
X266178000Y-173914000D01*
X264178000Y-173914000D02*
X264178000Y-169904000D01*
X266178000Y-173914000D02*
X266178000Y-169904000D01*
D13*
%TO.C,H10*%
X54178000Y-188554000D02*
G75*
G03*
X54178000Y-188554000I-2000000J0D01*
G01*
D12*
%TO.C,RV9*%
X105978000Y-163064000D02*
X109378000Y-163064000D01*
X105978000Y-167264000D02*
X105978000Y-163064000D01*
X105978000Y-179464000D02*
X105978000Y-172264000D01*
X116978000Y-163064000D02*
X120378000Y-163064000D01*
X120378000Y-163064000D02*
X120378000Y-167264000D01*
X120378000Y-172264000D02*
X120378000Y-179464000D01*
X120378000Y-179464000D02*
X105978000Y-179464000D01*
%TO.C,RV14*%
X280978000Y-163064000D02*
X284378000Y-163064000D01*
X280978000Y-167264000D02*
X280978000Y-163064000D01*
X280978000Y-179464000D02*
X280978000Y-172264000D01*
X291978000Y-163064000D02*
X295378000Y-163064000D01*
X295378000Y-163064000D02*
X295378000Y-167264000D01*
X295378000Y-172264000D02*
X295378000Y-179464000D01*
X295378000Y-179464000D02*
X280978000Y-179464000D01*
%TO.C,U4*%
X379178000Y-167494000D02*
X375728000Y-167494000D01*
X379178000Y-167494000D02*
X381128000Y-167494000D01*
X379178000Y-177614000D02*
X377228000Y-177614000D01*
X379178000Y-177614000D02*
X381128000Y-177614000D01*
%TO.C,R4*%
X58443000Y-172781064D02*
X58443000Y-172326936D01*
X59913000Y-172781064D02*
X59913000Y-172326936D01*
%TO.C,RV7*%
X315978000Y-120064000D02*
X319378000Y-120064000D01*
X315978000Y-124264000D02*
X315978000Y-120064000D01*
X315978000Y-136464000D02*
X315978000Y-129264000D01*
X326978000Y-120064000D02*
X330378000Y-120064000D01*
X330378000Y-120064000D02*
X330378000Y-124264000D01*
X330378000Y-129264000D02*
X330378000Y-136464000D01*
X330378000Y-136464000D02*
X315978000Y-136464000D01*
D13*
%TO.C,H2*%
X91178000Y-98554000D02*
G75*
G03*
X91178000Y-98554000I-2000000J0D01*
G01*
D12*
%TO.C,D16*%
X369178000Y-173914000D02*
X371178000Y-173914000D01*
X369178000Y-173914000D02*
X369178000Y-169904000D01*
X371178000Y-173914000D02*
X371178000Y-169904000D01*
%TO.C,C8*%
X82443000Y-167275252D02*
X82443000Y-166752748D01*
X83913000Y-167275252D02*
X83913000Y-166752748D01*
D13*
%TO.C,H9*%
X384178000Y-160554000D02*
G75*
G03*
X384178000Y-160554000I-2000000J0D01*
G01*
%TO.C,H3*%
X384178000Y-98554000D02*
G75*
G03*
X384178000Y-98554000I-2000000J0D01*
G01*
D12*
%TO.C,RV4*%
X210978000Y-120064000D02*
X214378000Y-120064000D01*
X210978000Y-124264000D02*
X210978000Y-120064000D01*
X210978000Y-136464000D02*
X210978000Y-129264000D01*
X221978000Y-120064000D02*
X225378000Y-120064000D01*
X225378000Y-120064000D02*
X225378000Y-124264000D01*
X225378000Y-129264000D02*
X225378000Y-136464000D01*
X225378000Y-136464000D02*
X210978000Y-136464000D01*
%TO.C,U6*%
X77178000Y-178994000D02*
X73728000Y-178994000D01*
X77178000Y-178994000D02*
X79128000Y-178994000D01*
X77178000Y-184114000D02*
X75228000Y-184114000D01*
X77178000Y-184114000D02*
X79128000Y-184114000D01*
%TO.C,R2*%
X82443000Y-171781064D02*
X82443000Y-171326936D01*
X83913000Y-171781064D02*
X83913000Y-171326936D01*
%TO.C,D3*%
X194178000Y-130914000D02*
X196178000Y-130914000D01*
X194178000Y-130914000D02*
X194178000Y-126904000D01*
X196178000Y-130914000D02*
X196178000Y-126904000D01*
%TO.C,D14*%
X299178000Y-173914000D02*
X301178000Y-173914000D01*
X299178000Y-173914000D02*
X299178000Y-169904000D01*
X301178000Y-173914000D02*
X301178000Y-169904000D01*
%TO.C,U1*%
X92178000Y-134614000D02*
X95628000Y-134614000D01*
X92178000Y-134614000D02*
X90228000Y-134614000D01*
X92178000Y-124494000D02*
X94128000Y-124494000D01*
X92178000Y-124494000D02*
X90228000Y-124494000D01*
%TO.C,D9*%
X124178000Y-173914000D02*
X126178000Y-173914000D01*
X124178000Y-173914000D02*
X124178000Y-169904000D01*
X126178000Y-173914000D02*
X126178000Y-169904000D01*
D10*
%TO.C,SW1*%
X62078000Y-163913000D02*
X64178000Y-163913000D01*
X62078000Y-174313000D02*
X62078000Y-163913000D01*
X64178000Y-174313000D02*
X62078000Y-174313000D01*
X68678000Y-163913000D02*
X70278000Y-163913000D01*
X70278000Y-163913000D02*
X70278000Y-174313000D01*
X70278000Y-174313000D02*
X68678000Y-174313000D01*
D12*
%TO.C,U12*%
X76178000Y-169574000D02*
X79628000Y-169574000D01*
X76178000Y-169574000D02*
X74228000Y-169574000D01*
X76178000Y-164454000D02*
X78128000Y-164454000D01*
X76178000Y-164454000D02*
X74228000Y-164454000D01*
%TO.C,D11*%
X194178000Y-173914000D02*
X196178000Y-173914000D01*
X194178000Y-173914000D02*
X194178000Y-169904000D01*
X196178000Y-173914000D02*
X196178000Y-169904000D01*
%TO.C,D1*%
X124178000Y-130914000D02*
X126178000Y-130914000D01*
X124178000Y-130914000D02*
X124178000Y-126904000D01*
X126178000Y-130914000D02*
X126178000Y-126904000D01*
%TO.C,RV5*%
X245978000Y-120064000D02*
X249378000Y-120064000D01*
X245978000Y-124264000D02*
X245978000Y-120064000D01*
X245978000Y-136464000D02*
X245978000Y-129264000D01*
X256978000Y-120064000D02*
X260378000Y-120064000D01*
X260378000Y-120064000D02*
X260378000Y-124264000D01*
X260378000Y-129264000D02*
X260378000Y-136464000D01*
X260378000Y-136464000D02*
X245978000Y-136464000D01*
%TO.C,RV12*%
X210978000Y-163064000D02*
X214378000Y-163064000D01*
X210978000Y-167264000D02*
X210978000Y-163064000D01*
X210978000Y-179464000D02*
X210978000Y-172264000D01*
X221978000Y-163064000D02*
X225378000Y-163064000D01*
X225378000Y-163064000D02*
X225378000Y-167264000D01*
X225378000Y-172264000D02*
X225378000Y-179464000D01*
X225378000Y-179464000D02*
X210978000Y-179464000D01*
%TO.C,D7*%
X334178000Y-130914000D02*
X336178000Y-130914000D01*
X334178000Y-130914000D02*
X334178000Y-126904000D01*
X336178000Y-130914000D02*
X336178000Y-126904000D01*
%TO.C,U2*%
X379178000Y-124494000D02*
X375728000Y-124494000D01*
X379178000Y-124494000D02*
X381128000Y-124494000D01*
X379178000Y-134614000D02*
X377228000Y-134614000D01*
X379178000Y-134614000D02*
X381128000Y-134614000D01*
D13*
%TO.C,H7*%
X384178000Y-141554000D02*
G75*
G03*
X384178000Y-141554000I-2000000J0D01*
G01*
%TD*%
M02*
