%TF.GenerationSoftware,KiCad,Pcbnew,7.0.7*%
%TF.CreationDate,2024-03-28T21:44:10-04:00*%
%TF.ProjectId,midi-controller_control-board_teensy,6d696469-2d63-46f6-9e74-726f6c6c6572,rev?*%
%TF.SameCoordinates,Original*%
%TF.FileFunction,Soldermask,Bot*%
%TF.FilePolarity,Negative*%
%FSLAX46Y46*%
G04 Gerber Fmt 4.6, Leading zero omitted, Abs format (unit mm)*
G04 Created by KiCad (PCBNEW 7.0.7) date 2024-03-28 21:44:10*
%MOMM*%
%LPD*%
G01*
G04 APERTURE LIST*
G04 Aperture macros list*
%AMRoundRect*
0 Rectangle with rounded corners*
0 $1 Rounding radius*
0 $2 $3 $4 $5 $6 $7 $8 $9 X,Y pos of 4 corners*
0 Add a 4 corners polygon primitive as box body*
4,1,4,$2,$3,$4,$5,$6,$7,$8,$9,$2,$3,0*
0 Add four circle primitives for the rounded corners*
1,1,$1+$1,$2,$3*
1,1,$1+$1,$4,$5*
1,1,$1+$1,$6,$7*
1,1,$1+$1,$8,$9*
0 Add four rect primitives between the rounded corners*
20,1,$1+$1,$2,$3,$4,$5,0*
20,1,$1+$1,$4,$5,$6,$7,0*
20,1,$1+$1,$6,$7,$8,$9,0*
20,1,$1+$1,$8,$9,$2,$3,0*%
G04 Aperture macros list end*
%ADD10C,1.700000*%
%ADD11C,3.200000*%
%ADD12R,3.500000X3.500000*%
%ADD13RoundRect,0.750000X0.750000X1.000000X-0.750000X1.000000X-0.750000X-1.000000X0.750000X-1.000000X0*%
%ADD14RoundRect,0.875000X0.875000X0.875000X-0.875000X0.875000X-0.875000X-0.875000X0.875000X-0.875000X0*%
%ADD15R,1.800000X1.800000*%
%ADD16C,1.800000*%
%ADD17C,4.500000*%
%ADD18R,1.300000X0.300000*%
%ADD19R,2.200000X1.800000*%
G04 APERTURE END LIST*
D10*
%TO.C,A1*%
X110500000Y-63000000D03*
X107960000Y-63000000D03*
X105420000Y-63000000D03*
X102880000Y-63000000D03*
X100340000Y-63000000D03*
X97800000Y-63000000D03*
X95260000Y-63000000D03*
X92720000Y-63000000D03*
X90180000Y-63000000D03*
X87640000Y-63000000D03*
X85100000Y-63000000D03*
X82560000Y-63000000D03*
X80020000Y-63000000D03*
X77480000Y-63000000D03*
X74940000Y-63000000D03*
X72400000Y-63000000D03*
X69860000Y-63000000D03*
X67320000Y-63000000D03*
X64780000Y-63000000D03*
X62240000Y-63000000D03*
X59700000Y-63000000D03*
X57160000Y-63000000D03*
X54620000Y-63000000D03*
X52080000Y-63000000D03*
X52080000Y-78240000D03*
X54620000Y-78240000D03*
X57160000Y-78240000D03*
X59700000Y-78240000D03*
X62240000Y-78240000D03*
X64780000Y-78240000D03*
X67320000Y-78240000D03*
X69860000Y-78240000D03*
X72400000Y-78240000D03*
X74940000Y-78240000D03*
X77480000Y-78240000D03*
X80020000Y-78240000D03*
X82560000Y-78240000D03*
X85100000Y-78240000D03*
X87640000Y-78240000D03*
X90180000Y-78240000D03*
X92720000Y-78240000D03*
X95260000Y-78240000D03*
X97800000Y-78240000D03*
X100340000Y-78240000D03*
X102880000Y-78240000D03*
X105420000Y-78240000D03*
X107960000Y-78240000D03*
X110500000Y-78240000D03*
%TD*%
D11*
%TO.C,H1*%
X50000000Y-43000000D03*
%TD*%
%TO.C,H6*%
X110000000Y-172000001D03*
%TD*%
D10*
%TO.C,DS1*%
X50846400Y-135288600D03*
X50846400Y-137828600D03*
X50846400Y-140368600D03*
X50846400Y-142908600D03*
X50846400Y-145448600D03*
X50846400Y-147988600D03*
X50846400Y-150528600D03*
X50846400Y-153068600D03*
X50846400Y-155608600D03*
X50846400Y-158148600D03*
X50846400Y-160688600D03*
D11*
X104821400Y-132748601D03*
X104821400Y-163228600D03*
%TD*%
%TO.C,H3*%
X50000000Y-86000000D03*
%TD*%
D12*
%TO.C,J2*%
X99000000Y-53000000D03*
D13*
X105000000Y-53000000D03*
D14*
X102000000Y-48300000D03*
%TD*%
D11*
%TO.C,H4*%
X110000000Y-86000000D03*
%TD*%
D15*
%TO.C,SW1*%
X75000000Y-119500000D03*
D16*
X77500000Y-119500000D03*
X80000000Y-119500000D03*
X82500000Y-119500000D03*
X85000000Y-119500000D03*
D17*
X72700000Y-108000000D03*
X87300000Y-108000000D03*
%TD*%
D11*
%TO.C,H5*%
X50000000Y-172000001D03*
%TD*%
%TO.C,H2*%
X110000000Y-43000000D03*
%TD*%
D18*
%TO.C,J1*%
X56850000Y-117250000D03*
X56850000Y-116750000D03*
X56850000Y-116250000D03*
X56850000Y-115750000D03*
X56850000Y-115250000D03*
X56850000Y-114750000D03*
X56850000Y-114250000D03*
X56850000Y-113750000D03*
X56850000Y-113250000D03*
X56850000Y-112750000D03*
X56850000Y-112250000D03*
X56850000Y-111750000D03*
X56850000Y-111250000D03*
X56850000Y-110750000D03*
X56850000Y-110250000D03*
X56850000Y-109750000D03*
X56850000Y-109250000D03*
X56850000Y-108750000D03*
X56850000Y-108250000D03*
X56850000Y-107750000D03*
X56850000Y-107250000D03*
X56850000Y-106750000D03*
X56850000Y-106250000D03*
X56850000Y-105750000D03*
X56850000Y-105250000D03*
X56850000Y-104750000D03*
X56850000Y-104250000D03*
X56850000Y-103750000D03*
X56850000Y-103250000D03*
X56850000Y-102750000D03*
X56850000Y-102250000D03*
X56850000Y-101750000D03*
X56850000Y-101250000D03*
X56850000Y-100750000D03*
X56850000Y-100250000D03*
X56850000Y-99750000D03*
X56850000Y-99250000D03*
X56850000Y-98750000D03*
X56850000Y-98250000D03*
X56850000Y-97750000D03*
D19*
X53600000Y-119150000D03*
X53600000Y-95850000D03*
%TD*%
M02*
