M48
; DRILL file {KiCad 7.0.7} date Thu Mar 28 21:44:14 2024
; FORMAT={-:-/ absolute / inch / decimal}
; #@! TF.CreationDate,2024-03-28T21:44:14-04:00
; #@! TF.GenerationSoftware,Kicad,Pcbnew,7.0.7
; #@! TF.FileFunction,Plated,1,2,PTH
FMAT,2
INCH
; #@! TA.AperFunction,Plated,PTH,ViaDrill
T1C0.0100
; #@! TA.AperFunction,Plated,PTH,ComponentDrill
T2C0.0394
; #@! TA.AperFunction,Plated,PTH,ComponentDrill
T3C0.1000
; #@! TA.AperFunction,Plated,PTH,ComponentDrill
T4C0.1181
%
G90
G05
T1
X1.9265Y-2.3269
X1.9265Y-2.3529
X1.9265Y-2.3789
X2.0745Y-4.7789
X2.0935Y-4.3989
X2.1125Y-4.7569
X2.1315Y-4.3806
X2.1505Y-4.6349
X2.1695Y-4.3589
X2.1925Y-3.9669
X2.2625Y-4.7029
X2.2825Y-4.4789
X2.2827Y-6.126
X2.3017Y-4.0449
X2.3207Y-5.926
X2.3405Y-4.0249
X2.3587Y-6.03
X2.3785Y-4.0069
X2.3965Y-4.4989
X2.4167Y-4.2809
X2.4365Y-4.2629
X2.4645Y-3.9669
X2.4967Y-4.4589
X2.4967Y-5.724
X2.5157Y-4.4209
X2.5157Y-5.626
X2.5367Y-4.4389
X2.5367Y-5.828
X2.5557Y-4.0649
X2.5785Y-4.6149
X2.5967Y-4.0829
X2.6145Y-4.5969
X2.6347Y-4.1049
X2.6545Y-4.5769
X2.6727Y-4.1229
X2.6925Y-4.5569
X2.7107Y-4.1409
X2.9647Y-4.5389
X2.9837Y-4.1229
X3.0037Y-4.5169
X3.0227Y-4.1469
X3.1007Y-6.224
X3.1227Y-4.3624
X3.1987Y-6.326
X3.2094Y-1.8085
X3.2114Y-1.9205
X3.2177Y-4.3804
X3.2427Y-4.4634
X3.2554Y-1.8625
X3.2627Y-4.4044
X3.2827Y-4.4444
X3.4145Y-2.0089
X3.4165Y-1.8509
X3.4605Y-1.9749
X3.4625Y-1.7989
X3.4625Y-1.8989
X3.5025Y-2.0089
X3.5507Y-4.4244
X3.5669Y-2.2992
X3.6206Y-2.2495
X3.6999Y-2.1949
X3.7019Y-2.1049
X3.7719Y-2.1489
T2
X2.0018Y-5.3263
X2.0018Y-5.4263
X2.0018Y-5.5263
X2.0018Y-5.6263
X2.0018Y-5.7263
X2.0018Y-5.8263
X2.0018Y-5.9263
X2.0018Y-6.0263
X2.0018Y-6.1263
X2.0018Y-6.2263
X2.0018Y-6.3263
X2.0504Y-2.4803
X2.0504Y-3.0803
X2.1504Y-2.4803
X2.1504Y-3.0803
X2.2504Y-2.4803
X2.2504Y-3.0803
X2.3504Y-2.4803
X2.3504Y-3.0803
X2.4504Y-2.4803
X2.4504Y-3.0803
X2.5504Y-2.4803
X2.5504Y-3.0803
X2.6504Y-2.4803
X2.6504Y-3.0803
X2.7504Y-2.4803
X2.7504Y-3.0803
X2.8504Y-2.4803
X2.8504Y-3.0803
X2.9504Y-2.4803
X2.9504Y-3.0803
X2.9528Y-4.7047
X3.0504Y-2.4803
X3.0504Y-3.0803
X3.0512Y-4.7047
X3.1496Y-4.7047
X3.1504Y-2.4803
X3.1504Y-3.0803
X3.248Y-4.7047
X3.2504Y-2.4803
X3.2504Y-3.0803
X3.3465Y-4.7047
X3.3504Y-2.4803
X3.3504Y-3.0803
X3.4504Y-2.4803
X3.4504Y-3.0803
X3.5504Y-2.4803
X3.5504Y-3.0803
X3.6504Y-2.4803
X3.6504Y-3.0803
X3.7504Y-2.4803
X3.7504Y-3.0803
X3.8504Y-2.4803
X3.8504Y-3.0803
X3.9504Y-2.4803
X3.9504Y-3.0803
X4.0504Y-2.4803
X4.0504Y-3.0803
X4.1504Y-2.4803
X4.1504Y-3.0803
X4.2504Y-2.4803
X4.2504Y-3.0803
X4.3504Y-2.4803
X4.3504Y-3.0803
T3
X1.9685Y-1.6929
X1.9685Y-3.3858
X1.9685Y-6.7717
X4.1268Y-5.2263
X4.1268Y-6.4263
X4.3307Y-1.6929
X4.3307Y-3.3858
X4.3307Y-6.7717
T4
X2.8622Y-4.252
X3.437Y-4.252
T2
G00X3.8976Y-2.126
M15
G01X3.8976Y-2.0472
M16
G05
G00X4.0551Y-1.9016
M15
G01X3.9764Y-1.9016
M16
G05
G00X4.1339Y-2.126
M15
G01X4.1339Y-2.0472
M16
G05
T0
M30
