%TF.GenerationSoftware,KiCad,Pcbnew,7.0.7*%
%TF.CreationDate,2024-03-28T21:44:09-04:00*%
%TF.ProjectId,midi-controller_control-board_teensy,6d696469-2d63-46f6-9e74-726f6c6c6572,rev?*%
%TF.SameCoordinates,Original*%
%TF.FileFunction,Copper,L2,Bot*%
%TF.FilePolarity,Positive*%
%FSLAX46Y46*%
G04 Gerber Fmt 4.6, Leading zero omitted, Abs format (unit mm)*
G04 Created by KiCad (PCBNEW 7.0.7) date 2024-03-28 21:44:09*
%MOMM*%
%LPD*%
G01*
G04 APERTURE LIST*
G04 Aperture macros list*
%AMRoundRect*
0 Rectangle with rounded corners*
0 $1 Rounding radius*
0 $2 $3 $4 $5 $6 $7 $8 $9 X,Y pos of 4 corners*
0 Add a 4 corners polygon primitive as box body*
4,1,4,$2,$3,$4,$5,$6,$7,$8,$9,$2,$3,0*
0 Add four circle primitives for the rounded corners*
1,1,$1+$1,$2,$3*
1,1,$1+$1,$4,$5*
1,1,$1+$1,$6,$7*
1,1,$1+$1,$8,$9*
0 Add four rect primitives between the rounded corners*
20,1,$1+$1,$2,$3,$4,$5,0*
20,1,$1+$1,$4,$5,$6,$7,0*
20,1,$1+$1,$6,$7,$8,$9,0*
20,1,$1+$1,$8,$9,$2,$3,0*%
G04 Aperture macros list end*
%TA.AperFunction,ComponentPad*%
%ADD10C,1.700000*%
%TD*%
%TA.AperFunction,ComponentPad*%
%ADD11C,3.200000*%
%TD*%
%TA.AperFunction,ComponentPad*%
%ADD12R,3.500000X3.500000*%
%TD*%
%TA.AperFunction,ComponentPad*%
%ADD13RoundRect,0.750000X0.750000X1.000000X-0.750000X1.000000X-0.750000X-1.000000X0.750000X-1.000000X0*%
%TD*%
%TA.AperFunction,ComponentPad*%
%ADD14RoundRect,0.875000X0.875000X0.875000X-0.875000X0.875000X-0.875000X-0.875000X0.875000X-0.875000X0*%
%TD*%
%TA.AperFunction,ComponentPad*%
%ADD15R,1.800000X1.800000*%
%TD*%
%TA.AperFunction,ComponentPad*%
%ADD16C,1.800000*%
%TD*%
%TA.AperFunction,ComponentPad*%
%ADD17C,4.500000*%
%TD*%
%TA.AperFunction,SMDPad,CuDef*%
%ADD18R,1.300000X0.300000*%
%TD*%
%TA.AperFunction,SMDPad,CuDef*%
%ADD19R,2.200000X1.800000*%
%TD*%
%TA.AperFunction,ViaPad*%
%ADD20C,0.508000*%
%TD*%
%TA.AperFunction,Conductor*%
%ADD21C,0.152400*%
%TD*%
%TA.AperFunction,Conductor*%
%ADD22C,0.254000*%
%TD*%
%TA.AperFunction,Conductor*%
%ADD23C,1.016000*%
%TD*%
G04 APERTURE END LIST*
D10*
%TO.P,A1,1,GND*%
%TO.N,GND*%
X110500000Y-63000000D03*
%TO.P,A1,2,0*%
%TO.N,/~{KEY_CLEAR}*%
X107960000Y-63000000D03*
%TO.P,A1,3,1*%
%TO.N,/KEY_SER*%
X105420000Y-63000000D03*
%TO.P,A1,4,2*%
%TO.N,/KEY_CLK*%
X102880000Y-63000000D03*
%TO.P,A1,5,3*%
%TO.N,/LITE*%
X100340000Y-63000000D03*
%TO.P,A1,6,4*%
%TO.N,/SD_CS*%
X97800000Y-63000000D03*
%TO.P,A1,7,5*%
%TO.N,/CS_0*%
X95260000Y-63000000D03*
%TO.P,A1,8,6*%
%TO.N,/CS_1*%
X92720000Y-63000000D03*
%TO.P,A1,9,7*%
%TO.N,/CS_2*%
X90180000Y-63000000D03*
%TO.P,A1,10,8*%
%TO.N,/CS_3*%
X87640000Y-63000000D03*
%TO.P,A1,11,9*%
%TO.N,/CS_4*%
X85100000Y-63000000D03*
%TO.P,A1,12,10*%
%TO.N,/CS_EN*%
X82560000Y-63000000D03*
%TO.P,A1,13,11*%
%TO.N,/MOSI*%
X80020000Y-63000000D03*
%TO.P,A1,14,12*%
%TO.N,/MISO*%
X77480000Y-63000000D03*
%TO.P,A1,15,3.3V*%
%TO.N,+3.3V*%
X74940000Y-63000000D03*
%TO.P,A1,16,24*%
%TO.N,/POT_{5_1}*%
X72400000Y-63000000D03*
%TO.P,A1,17,25*%
%TO.N,/POT_{5_2}*%
X69860000Y-63000000D03*
%TO.P,A1,18,26*%
%TO.N,/POT_SEL_0*%
X67320000Y-63000000D03*
%TO.P,A1,19,27*%
%TO.N,/POT_SEL_1*%
X64780000Y-63000000D03*
%TO.P,A1,20,28*%
%TO.N,/POT_SEL_EN*%
X62240000Y-63000000D03*
%TO.P,A1,21,29*%
%TO.N,/ENC_0*%
X59700000Y-63000000D03*
%TO.P,A1,22,30*%
%TO.N,/ENC_1*%
X57160000Y-63000000D03*
%TO.P,A1,23,31*%
%TO.N,/ENC_2*%
X54620000Y-63000000D03*
%TO.P,A1,24,32*%
%TO.N,/ENC_3*%
X52080000Y-63000000D03*
%TO.P,A1,25,33*%
%TO.N,/ROW_3*%
X52080000Y-78240000D03*
%TO.P,A1,26,34*%
%TO.N,/ROW_2*%
X54620000Y-78240000D03*
%TO.P,A1,27,35*%
%TO.N,/ROW_1*%
X57160000Y-78240000D03*
%TO.P,A1,28,36*%
%TO.N,/DC*%
X59700000Y-78240000D03*
%TO.P,A1,29,37*%
%TO.N,/IPS_CS*%
X62240000Y-78240000D03*
%TO.P,A1,30,38*%
%TO.N,/~{IPS_RST}*%
X64780000Y-78240000D03*
%TO.P,A1,31,39*%
%TO.N,/~{OLED_RST}*%
X67320000Y-78240000D03*
%TO.P,A1,32,40*%
%TO.N,unconnected-(A1-40-Pad32)*%
X69860000Y-78240000D03*
%TO.P,A1,33,41*%
%TO.N,unconnected-(A1-41-Pad33)*%
X72400000Y-78240000D03*
%TO.P,A1,34,GND*%
%TO.N,GND*%
X74940000Y-78240000D03*
%TO.P,A1,35,13*%
%TO.N,/SCLK*%
X77480000Y-78240000D03*
%TO.P,A1,36,14*%
%TO.N,/POT_{0_1}*%
X80020000Y-78240000D03*
%TO.P,A1,37,15*%
%TO.N,/POT_{0_2}*%
X82560000Y-78240000D03*
%TO.P,A1,38,16*%
%TO.N,/POT_{1_1}*%
X85100000Y-78240000D03*
%TO.P,A1,39,17*%
%TO.N,/POT_{1_2}*%
X87640000Y-78240000D03*
%TO.P,A1,40,18*%
%TO.N,/POT_{2_1}*%
X90180000Y-78240000D03*
%TO.P,A1,41,19*%
%TO.N,/POT_{2_2}*%
X92720000Y-78240000D03*
%TO.P,A1,42,20*%
%TO.N,/POT_{3_1}*%
X95260000Y-78240000D03*
%TO.P,A1,43,21*%
%TO.N,/POT_{3_2}*%
X97800000Y-78240000D03*
%TO.P,A1,44,22*%
%TO.N,/POT_{4_1}*%
X100340000Y-78240000D03*
%TO.P,A1,45,23*%
%TO.N,/POT_{4_2}*%
X102880000Y-78240000D03*
%TO.P,A1,46,3.3V*%
%TO.N,+3.3V*%
X105420000Y-78240000D03*
%TO.P,A1,47,GND*%
%TO.N,GND*%
X107960000Y-78240000D03*
%TO.P,A1,48,Vin*%
%TO.N,unconnected-(A1-Vin-Pad48)*%
X110500000Y-78240000D03*
%TD*%
D11*
%TO.P,H1,MP,MP*%
%TO.N,unconnected-(H1-PadMP)*%
X50000000Y-43000000D03*
%TD*%
%TO.P,H6,MP,MP*%
%TO.N,unconnected-(H6-PadMP)*%
X110000000Y-172000001D03*
%TD*%
D10*
%TO.P,DS1,1,VIN*%
%TO.N,+3.3VP*%
X50846400Y-135288600D03*
%TO.P,DS1,2,3V*%
%TO.N,unconnected-(DS1-3V-Pad2)*%
X50846400Y-137828600D03*
%TO.P,DS1,3,GND*%
%TO.N,GND*%
X50846400Y-140368600D03*
%TO.P,DS1,4,SCK*%
%TO.N,/SCLK*%
X50846400Y-142908600D03*
%TO.P,DS1,5,MISO*%
%TO.N,/MISO*%
X50846400Y-145448600D03*
%TO.P,DS1,6,MOSI*%
%TO.N,/MOSI*%
X50846400Y-147988600D03*
%TO.P,DS1,7,CS*%
%TO.N,/IPS_CS*%
X50846400Y-150528600D03*
%TO.P,DS1,8,RST*%
%TO.N,/~{IPS_RST}*%
X50846400Y-153068600D03*
%TO.P,DS1,9,DC*%
%TO.N,/DC*%
X50846400Y-155608600D03*
%TO.P,DS1,10,SDCS*%
%TO.N,/SD_CS*%
X50846400Y-158148600D03*
%TO.P,DS1,11,BL*%
%TO.N,/LITE*%
X50846400Y-160688600D03*
D11*
%TO.P,DS1,12*%
%TO.N,N/C*%
X104821400Y-132748601D03*
%TO.P,DS1,13*%
X104821400Y-163228600D03*
%TD*%
%TO.P,H3,MP,MP*%
%TO.N,unconnected-(H3-PadMP)*%
X50000000Y-86000000D03*
%TD*%
D12*
%TO.P,J2,1*%
%TO.N,Net-(U1-EN)*%
X99000000Y-53000000D03*
D13*
%TO.P,J2,2*%
%TO.N,GND*%
X105000000Y-53000000D03*
D14*
%TO.P,J2,3*%
%TO.N,unconnected-(J2-Pad3)*%
X102000000Y-48300000D03*
%TD*%
D11*
%TO.P,H4,MP,MP*%
%TO.N,unconnected-(H4-PadMP)*%
X110000000Y-86000000D03*
%TD*%
D15*
%TO.P,SW1,1,P1*%
%TO.N,/ENC_0*%
X75000000Y-119500000D03*
D16*
%TO.P,SW1,2,P2*%
%TO.N,/ENC_1*%
X77500000Y-119500000D03*
%TO.P,SW1,3,GND*%
%TO.N,GND*%
X80000000Y-119500000D03*
%TO.P,SW1,4,P3*%
%TO.N,/ENC_2*%
X82500000Y-119500000D03*
%TO.P,SW1,5,P4*%
%TO.N,/ENC_3*%
X85000000Y-119500000D03*
D17*
%TO.P,SW1,MP,MP*%
%TO.N,GND*%
X72700000Y-108000000D03*
X87300000Y-108000000D03*
%TD*%
D11*
%TO.P,H5,MP,MP*%
%TO.N,unconnected-(H5-PadMP)*%
X50000000Y-172000001D03*
%TD*%
%TO.P,H2,MP,MP*%
%TO.N,unconnected-(H2-PadMP)*%
X110000000Y-43000000D03*
%TD*%
D18*
%TO.P,J1,1,Pin_1*%
%TO.N,/CS_EN*%
X56850000Y-117250000D03*
%TO.P,J1,2,Pin_2*%
%TO.N,/CS_4*%
X56850000Y-116750000D03*
%TO.P,J1,3,Pin_3*%
%TO.N,/CS_3*%
X56850000Y-116250000D03*
%TO.P,J1,4,Pin_4*%
%TO.N,/CS_2*%
X56850000Y-115750000D03*
%TO.P,J1,5,Pin_5*%
%TO.N,/CS_1*%
X56850000Y-115250000D03*
%TO.P,J1,6,Pin_6*%
%TO.N,/CS_0*%
X56850000Y-114750000D03*
%TO.P,J1,7,Pin_7*%
%TO.N,/~{OLED_RST}*%
X56850000Y-114250000D03*
%TO.P,J1,8,Pin_8*%
%TO.N,/DC*%
X56850000Y-113750000D03*
%TO.P,J1,9,Pin_9*%
%TO.N,/MISO*%
X56850000Y-113250000D03*
%TO.P,J1,10,Pin_10*%
%TO.N,/MOSI*%
X56850000Y-112750000D03*
%TO.P,J1,11,Pin_11*%
%TO.N,/SCLK*%
X56850000Y-112250000D03*
%TO.P,J1,12,Pin_12*%
%TO.N,/ROW_3*%
X56850000Y-111750000D03*
%TO.P,J1,13,Pin_13*%
%TO.N,/ROW_2*%
X56850000Y-111250000D03*
%TO.P,J1,14,Pin_14*%
%TO.N,/ROW_1*%
X56850000Y-110750000D03*
%TO.P,J1,15,Pin_15*%
%TO.N,/KEY_CLK*%
X56850000Y-110250000D03*
%TO.P,J1,16,Pin_16*%
%TO.N,/KEY_SER*%
X56850000Y-109750000D03*
%TO.P,J1,17,Pin_17*%
%TO.N,/~{KEY_CLEAR}*%
X56850000Y-109250000D03*
%TO.P,J1,18,Pin_18*%
%TO.N,/POT_{5_2}*%
X56850000Y-108750000D03*
%TO.P,J1,19,Pin_19*%
%TO.N,/POT_{5_1}*%
X56850000Y-108250000D03*
%TO.P,J1,20,Pin_20*%
%TO.N,/POT_{4_2}*%
X56850000Y-107750000D03*
%TO.P,J1,21,Pin_21*%
%TO.N,/POT_{4_1}*%
X56850000Y-107250000D03*
%TO.P,J1,22,Pin_22*%
%TO.N,/POT_{3_2}*%
X56850000Y-106750000D03*
%TO.P,J1,23,Pin_23*%
%TO.N,/POT_{3_1}*%
X56850000Y-106250000D03*
%TO.P,J1,24,Pin_24*%
%TO.N,/POT_{2_2}*%
X56850000Y-105750000D03*
%TO.P,J1,25,Pin_25*%
%TO.N,/POT_{2_1}*%
X56850000Y-105250000D03*
%TO.P,J1,26,Pin_26*%
%TO.N,/POT_{1_2}*%
X56850000Y-104750000D03*
%TO.P,J1,27,Pin_27*%
%TO.N,/POT_{1_1}*%
X56850000Y-104250000D03*
%TO.P,J1,28,Pin_28*%
%TO.N,/POT_{0_2}*%
X56850000Y-103750000D03*
%TO.P,J1,29,Pin_29*%
%TO.N,/POT_{0_1}*%
X56850000Y-103250000D03*
%TO.P,J1,30,Pin_30*%
%TO.N,/POT_SEL_EN*%
X56850000Y-102750000D03*
%TO.P,J1,31,Pin_31*%
%TO.N,/POT_SEL_1*%
X56850000Y-102250000D03*
%TO.P,J1,32,Pin_32*%
%TO.N,/POT_SEL_0*%
X56850000Y-101750000D03*
%TO.P,J1,33,Pin_33*%
%TO.N,GND*%
X56850000Y-101250000D03*
%TO.P,J1,34,Pin_34*%
%TO.N,+3.3V*%
X56850000Y-100750000D03*
%TO.P,J1,35,Pin_35*%
%TO.N,GND*%
X56850000Y-100250000D03*
%TO.P,J1,36,Pin_36*%
X56850000Y-99750000D03*
%TO.P,J1,37,Pin_37*%
X56850000Y-99250000D03*
%TO.P,J1,38,Pin_38*%
%TO.N,+3.3VP*%
X56850000Y-98750000D03*
%TO.P,J1,39,Pin_39*%
X56850000Y-98250000D03*
%TO.P,J1,40,Pin_40*%
X56850000Y-97750000D03*
D19*
%TO.P,J1,MP*%
%TO.N,N/C*%
X53600000Y-119150000D03*
X53600000Y-95850000D03*
%TD*%
D20*
%TO.N,GND*%
X82687200Y-47306800D03*
X94027600Y-53464800D03*
X91962500Y-57137500D03*
X86779200Y-47013200D03*
X87947600Y-45692400D03*
X90600000Y-58400000D03*
X87896800Y-50162800D03*
X87947600Y-48232400D03*
X93976800Y-55750800D03*
X81518800Y-45935200D03*
X81569600Y-48780000D03*
X86728400Y-51026400D03*
X88963600Y-51026400D03*
X95805600Y-54582400D03*
%TO.N,/~{KEY_CLEAR}*%
X90188000Y-112379599D03*
%TO.N,/KEY_SER*%
X83380800Y-112887599D03*
%TO.N,/KEY_CLK*%
X82364800Y-113369699D03*
%TO.N,/LITE*%
X81247200Y-160679600D03*
%TO.N,/SD_CS*%
X78758000Y-158088800D03*
%TO.N,/CS_0*%
X76294200Y-114729600D03*
%TO.N,/CS_1*%
X75303600Y-115288400D03*
%TO.N,/CS_2*%
X68389600Y-115745600D03*
%TO.N,/CS_3*%
X67424400Y-116253600D03*
%TO.N,/CS_4*%
X66408400Y-116761600D03*
%TO.N,/CS_EN*%
X65494000Y-117218800D03*
%TO.N,/MOSI*%
X64432400Y-112748400D03*
X64432400Y-148030400D03*
%TO.N,/MISO*%
X63416400Y-113256400D03*
X63416400Y-145388800D03*
%TO.N,+3.3V*%
X62598400Y-100759600D03*
X55689600Y-100759600D03*
%TO.N,/POT_{5_1}*%
X61887200Y-108278000D03*
%TO.N,/POT_{5_2}*%
X61383900Y-108735200D03*
%TO.N,/POT_SEL_0*%
X60414000Y-101775600D03*
%TO.N,/POT_SEL_1*%
X59448800Y-102232800D03*
%TO.N,/POT_SEL_EN*%
X58462900Y-102740800D03*
%TO.N,/ENC_0*%
X57467600Y-119454000D03*
%TO.N,/ENC_1*%
X54622800Y-117726800D03*
%TO.N,/ENC_2*%
X53657600Y-120825600D03*
%TO.N,/ENC_3*%
X52692400Y-121384400D03*
%TO.N,/ROW_3*%
X53174500Y-111732400D03*
%TO.N,/ROW_2*%
X54139700Y-111267900D03*
%TO.N,/ROW_1*%
X55104900Y-110716400D03*
%TO.N,/DC*%
X57980800Y-155599600D03*
X57975600Y-113764400D03*
%TO.N,/IPS_CS*%
X58945500Y-150519600D03*
%TO.N,/~{IPS_RST}*%
X59910200Y-153161200D03*
%TO.N,/~{OLED_RST}*%
X60871200Y-114272400D03*
%TO.N,/SCLK*%
X63898500Y-142899600D03*
X63898500Y-112291200D03*
%TO.N,/POT_{0_1}*%
X64914500Y-103248800D03*
%TO.N,/POT_{0_2}*%
X65955900Y-103706000D03*
%TO.N,/POT_{1_1}*%
X66921100Y-104264800D03*
%TO.N,/POT_{1_2}*%
X67886300Y-104722000D03*
%TO.N,/POT_{2_1}*%
X68851500Y-105179200D03*
%TO.N,/POT_{2_2}*%
X75785700Y-104722000D03*
%TO.N,/POT_{3_1}*%
X76776800Y-105331600D03*
%TO.N,/POT_{3_2}*%
X79316800Y-110804799D03*
%TO.N,/POT_{4_1}*%
X81729300Y-111261999D03*
%TO.N,/POT_{4_2}*%
X82872800Y-111871599D03*
%TO.N,+3.3VP*%
X48933200Y-59764000D03*
X48933200Y-60424400D03*
X48933200Y-59103600D03*
%TD*%
D21*
%TO.N,/~{KEY_CLEAR}*%
X56850000Y-109250000D02*
X66821600Y-109250000D01*
X66821600Y-109250000D02*
X69951199Y-112379599D01*
X69951199Y-112379599D02*
X90188000Y-112379599D01*
%TO.N,/KEY_SER*%
X66458000Y-109750000D02*
X69595599Y-112887599D01*
X69595599Y-112887599D02*
X83380800Y-112887599D01*
X56850000Y-109750000D02*
X66458000Y-109750000D01*
%TO.N,/KEY_CLK*%
X69112499Y-113369699D02*
X82364800Y-113369699D01*
X65992800Y-110250000D02*
X69112499Y-113369699D01*
X56850000Y-110250000D02*
X65992800Y-110250000D01*
%TO.N,/LITE*%
X81247200Y-160679600D02*
X51205400Y-160679600D01*
X51205400Y-160679600D02*
X50925000Y-160960000D01*
%TO.N,/SD_CS*%
X51205400Y-158139600D02*
X50925000Y-158420000D01*
X78707200Y-158139600D02*
X51205400Y-158139600D01*
X78758000Y-158088800D02*
X78707200Y-158139600D01*
%TO.N,/CS_0*%
X56850000Y-114750000D02*
X56855000Y-114755000D01*
X56855000Y-114755000D02*
X76268800Y-114755000D01*
X76268800Y-114755000D02*
X76294200Y-114729600D01*
%TO.N,/CS_1*%
X56850000Y-115250000D02*
X75265200Y-115250000D01*
X75265200Y-115250000D02*
X75303600Y-115288400D01*
%TO.N,/CS_2*%
X68385200Y-115750000D02*
X56850000Y-115750000D01*
X68389600Y-115745600D02*
X68385200Y-115750000D01*
%TO.N,/CS_3*%
X67420800Y-116250000D02*
X56850000Y-116250000D01*
X67424400Y-116253600D02*
X67420800Y-116250000D01*
%TO.N,/CS_4*%
X66408400Y-116761600D02*
X66383000Y-116736200D01*
X56863800Y-116736200D02*
X56850000Y-116750000D01*
X66383000Y-116736200D02*
X56863800Y-116736200D01*
%TO.N,/CS_EN*%
X65462800Y-117250000D02*
X56850000Y-117250000D01*
X65494000Y-117218800D02*
X65462800Y-117250000D01*
%TO.N,/MOSI*%
X64407000Y-112773800D02*
X64432400Y-112748400D01*
X56850000Y-112750000D02*
X56873800Y-112773800D01*
X51154600Y-148030400D02*
X50925000Y-148260000D01*
X56873800Y-112773800D02*
X64407000Y-112773800D01*
X64432400Y-148030400D02*
X51154600Y-148030400D01*
%TO.N,/MISO*%
X63365600Y-145439600D02*
X51205400Y-145439600D01*
X63410000Y-113250000D02*
X63416400Y-113256400D01*
X63416400Y-145388800D02*
X63365600Y-145439600D01*
X56850000Y-113250000D02*
X63410000Y-113250000D01*
X51205400Y-145439600D02*
X50925000Y-145720000D01*
D22*
%TO.N,+3.3V*%
X56850000Y-100750000D02*
X55699200Y-100750000D01*
X56850000Y-100750000D02*
X62588800Y-100750000D01*
D21*
X62588800Y-100750000D02*
X62598400Y-100759600D01*
D22*
X55699200Y-100750000D02*
X55689600Y-100759600D01*
D21*
%TO.N,/POT_{5_1}*%
X61859200Y-108250000D02*
X56850000Y-108250000D01*
X61887200Y-108278000D02*
X61859200Y-108250000D01*
%TO.N,/POT_{5_2}*%
X61383900Y-108735200D02*
X61369100Y-108750000D01*
X61369100Y-108750000D02*
X56850000Y-108750000D01*
%TO.N,/POT_SEL_0*%
X60388400Y-101750000D02*
X56850000Y-101750000D01*
X60414000Y-101775600D02*
X60388400Y-101750000D01*
%TO.N,/POT_SEL_1*%
X59448800Y-102232800D02*
X59431600Y-102250000D01*
X59431600Y-102250000D02*
X56850000Y-102250000D01*
%TO.N,/POT_SEL_EN*%
X58453700Y-102750000D02*
X56850000Y-102750000D01*
X58462900Y-102740800D02*
X58453700Y-102750000D01*
%TO.N,/ENC_0*%
X57467600Y-119454000D02*
X57513600Y-119500000D01*
X57513600Y-119500000D02*
X75000000Y-119500000D01*
%TO.N,/ENC_1*%
X54673600Y-117777600D02*
X75777600Y-117777600D01*
X54622800Y-117726800D02*
X54673600Y-117777600D01*
X75777600Y-117777600D02*
X77500000Y-119500000D01*
%TO.N,/ENC_2*%
X81174400Y-120825600D02*
X82500000Y-119500000D01*
X53657600Y-120825600D02*
X81174400Y-120825600D01*
%TO.N,/ENC_3*%
X52692400Y-121384400D02*
X52743200Y-121333600D01*
X83166400Y-121333600D02*
X85000000Y-119500000D01*
X52743200Y-121333600D02*
X83166400Y-121333600D01*
%TO.N,/ROW_3*%
X53192100Y-111750000D02*
X56850000Y-111750000D01*
X53174500Y-111732400D02*
X53192100Y-111750000D01*
%TO.N,/ROW_2*%
X54139700Y-111267900D02*
X54157600Y-111250000D01*
X54157600Y-111250000D02*
X56850000Y-111250000D01*
%TO.N,/ROW_1*%
X55138500Y-110750000D02*
X56850000Y-110750000D01*
X55104900Y-110716400D02*
X55138500Y-110750000D01*
%TO.N,/DC*%
X57980800Y-155599600D02*
X51205400Y-155599600D01*
X51205400Y-155599600D02*
X50925000Y-155880000D01*
X57975600Y-113764400D02*
X56864400Y-113764400D01*
X56864400Y-113764400D02*
X56850000Y-113750000D01*
%TO.N,/IPS_CS*%
X51205400Y-150519600D02*
X50925000Y-150800000D01*
X58945500Y-150519600D02*
X51205400Y-150519600D01*
%TO.N,/~{IPS_RST}*%
X59859400Y-153110400D02*
X51154600Y-153110400D01*
X59910200Y-153161200D02*
X59859400Y-153110400D01*
X51154600Y-153110400D02*
X50925000Y-153340000D01*
%TO.N,/~{OLED_RST}*%
X60848800Y-114250000D02*
X56850000Y-114250000D01*
X60871200Y-114272400D02*
X60848800Y-114250000D01*
%TO.N,/SCLK*%
X56850000Y-112250000D02*
X63857300Y-112250000D01*
X51205400Y-142899600D02*
X50925000Y-143180000D01*
X63898500Y-142899600D02*
X51205400Y-142899600D01*
X63857300Y-112250000D02*
X63898500Y-112291200D01*
%TO.N,/POT_{0_1}*%
X64914500Y-103248800D02*
X64913300Y-103250000D01*
X64913300Y-103250000D02*
X56850000Y-103250000D01*
%TO.N,/POT_{0_2}*%
X65911900Y-103750000D02*
X56850000Y-103750000D01*
X65955900Y-103706000D02*
X65911900Y-103750000D01*
%TO.N,/POT_{1_1}*%
X66906300Y-104250000D02*
X56850000Y-104250000D01*
X66921100Y-104264800D02*
X66906300Y-104250000D01*
%TO.N,/POT_{1_2}*%
X67858300Y-104750000D02*
X56850000Y-104750000D01*
X67886300Y-104722000D02*
X67858300Y-104750000D01*
%TO.N,/POT_{2_1}*%
X68851500Y-105179200D02*
X68780700Y-105250000D01*
X68780700Y-105250000D02*
X56850000Y-105250000D01*
%TO.N,/POT_{2_2}*%
X70015200Y-104722000D02*
X75785700Y-104722000D01*
X56850000Y-105750000D02*
X68987200Y-105750000D01*
X68987200Y-105750000D02*
X70015200Y-104722000D01*
%TO.N,/POT_{3_1}*%
X56850000Y-106250000D02*
X69401600Y-106250000D01*
X69401600Y-106250000D02*
X70320000Y-105331600D01*
X70320000Y-105331600D02*
X76776800Y-105331600D01*
%TO.N,/POT_{3_2}*%
X56850000Y-106750000D02*
X67115600Y-106750000D01*
X67115600Y-106750000D02*
X71170399Y-110804799D01*
X71170399Y-110804799D02*
X79316800Y-110804799D01*
%TO.N,/POT_{4_1}*%
X66701200Y-107250000D02*
X70738599Y-111287399D01*
X56850000Y-107250000D02*
X66701200Y-107250000D01*
X70738599Y-111287399D02*
X81703900Y-111287399D01*
X81703900Y-111287399D02*
X81729300Y-111261999D01*
%TO.N,/POT_{4_2}*%
X66286800Y-107750000D02*
X70408399Y-111871599D01*
X70408399Y-111871599D02*
X82872800Y-111871599D01*
X56850000Y-107750000D02*
X66286800Y-107750000D01*
D23*
%TO.N,+3.3VP*%
X48933200Y-60424400D02*
X48933200Y-59764000D01*
X48933200Y-80084000D02*
X48933200Y-60424400D01*
X50846400Y-101996000D02*
X54592400Y-98250000D01*
X56850000Y-88000800D02*
X48933200Y-80084000D01*
X48933200Y-59103600D02*
X48933200Y-59560800D01*
X50846400Y-135288600D02*
X50846400Y-101996000D01*
X56850000Y-97750000D02*
X56850000Y-88000800D01*
X48933200Y-59764000D02*
X48933200Y-59103600D01*
X54592400Y-98250000D02*
X56850000Y-98250000D01*
%TD*%
%TA.AperFunction,Conductor*%
%TO.N,+3.3VP*%
G36*
X57563039Y-97477285D02*
G01*
X57608794Y-97530089D01*
X57620000Y-97581600D01*
X57620000Y-98823100D01*
X57600315Y-98890139D01*
X57547511Y-98935894D01*
X57496000Y-98947100D01*
X56184942Y-98947100D01*
X56181345Y-98947455D01*
X56179479Y-98947100D01*
X56178853Y-98947101D01*
X56178853Y-98946982D01*
X56112700Y-98934431D01*
X56061993Y-98886362D01*
X56045200Y-98824051D01*
X56045200Y-97581600D01*
X56064885Y-97514561D01*
X56117689Y-97468806D01*
X56169200Y-97457600D01*
X57496000Y-97457600D01*
X57563039Y-97477285D01*
G37*
%TD.AperFunction*%
%TD*%
%TA.AperFunction,Conductor*%
%TO.N,GND*%
G36*
X71920045Y-105578293D02*
G01*
X71945765Y-105622842D01*
X71936832Y-105673500D01*
X71899390Y-105705819D01*
X71664253Y-105798916D01*
X71664237Y-105798923D01*
X71396552Y-105946084D01*
X71396551Y-105946085D01*
X71149407Y-106125644D01*
X71075062Y-106195458D01*
X71676530Y-106796925D01*
X71698270Y-106843545D01*
X71684956Y-106893232D01*
X71674288Y-106905425D01*
X71598001Y-106975652D01*
X71550522Y-106995447D01*
X71501427Y-106980091D01*
X71493895Y-106973500D01*
X70894319Y-106373923D01*
X70731983Y-106570155D01*
X70731977Y-106570164D01*
X70568301Y-106828075D01*
X70568292Y-106828092D01*
X70438229Y-107104492D01*
X70438220Y-107104514D01*
X70343826Y-107395030D01*
X70343825Y-107395034D01*
X70286583Y-107695107D01*
X70267400Y-107999999D01*
X70286583Y-108304892D01*
X70343825Y-108604965D01*
X70343826Y-108604969D01*
X70438220Y-108895485D01*
X70438229Y-108895507D01*
X70568292Y-109171907D01*
X70568301Y-109171924D01*
X70731977Y-109429835D01*
X70731983Y-109429844D01*
X70894319Y-109626074D01*
X71493894Y-109026498D01*
X71540515Y-109004758D01*
X71590202Y-109018072D01*
X71597996Y-109024342D01*
X71605596Y-109031338D01*
X71674287Y-109094574D01*
X71697934Y-109140257D01*
X71686685Y-109190451D01*
X71676529Y-109203074D01*
X71075062Y-109804540D01*
X71075063Y-109804541D01*
X71149399Y-109874348D01*
X71149406Y-109874354D01*
X71396551Y-110053914D01*
X71396552Y-110053915D01*
X71664237Y-110201076D01*
X71664253Y-110201083D01*
X71948288Y-110313541D01*
X71948293Y-110313543D01*
X72244163Y-110389509D01*
X72244187Y-110389513D01*
X72532154Y-110425892D01*
X72577905Y-110449405D01*
X72597839Y-110496825D01*
X72582628Y-110545965D01*
X72539390Y-110573830D01*
X72522729Y-110575699D01*
X71296443Y-110575699D01*
X71248105Y-110558106D01*
X71243269Y-110553673D01*
X67297071Y-106607474D01*
X67275331Y-106560854D01*
X67288645Y-106511167D01*
X67330782Y-106481662D01*
X67350245Y-106479100D01*
X69394625Y-106479100D01*
X69396593Y-106479152D01*
X69438239Y-106481334D01*
X69461338Y-106472466D01*
X69472657Y-106469114D01*
X69496865Y-106463969D01*
X69503850Y-106458893D01*
X69521099Y-106449527D01*
X69529164Y-106446432D01*
X69546670Y-106428925D01*
X69555629Y-106421272D01*
X69575658Y-106406722D01*
X69579976Y-106399240D01*
X69591920Y-106383674D01*
X70392872Y-105582724D01*
X70439491Y-105560986D01*
X70446045Y-105560700D01*
X71871707Y-105560700D01*
X71920045Y-105578293D01*
G37*
%TD.AperFunction*%
%TA.AperFunction,Conductor*%
G36*
X110001047Y-40300559D02*
G01*
X110300137Y-40317356D01*
X110304330Y-40317828D01*
X110598615Y-40367829D01*
X110602729Y-40368768D01*
X110889554Y-40451401D01*
X110893537Y-40452795D01*
X111169316Y-40567026D01*
X111173118Y-40568857D01*
X111434375Y-40713248D01*
X111437943Y-40715490D01*
X111681389Y-40888224D01*
X111684684Y-40890852D01*
X111907264Y-41089761D01*
X111910243Y-41092740D01*
X112109144Y-41315311D01*
X112111775Y-41318610D01*
X112284506Y-41562051D01*
X112286751Y-41565624D01*
X112431142Y-41826881D01*
X112432973Y-41830683D01*
X112547204Y-42106462D01*
X112548598Y-42110445D01*
X112631231Y-42397270D01*
X112632170Y-42401384D01*
X112682171Y-42695669D01*
X112682643Y-42699862D01*
X112699441Y-42998950D01*
X112699500Y-43001059D01*
X112699500Y-171998939D01*
X112699441Y-172001048D01*
X112682643Y-172300137D01*
X112682171Y-172304330D01*
X112632170Y-172598615D01*
X112631231Y-172602729D01*
X112548598Y-172889554D01*
X112547204Y-172893537D01*
X112432973Y-173169316D01*
X112431142Y-173173118D01*
X112286751Y-173434375D01*
X112284506Y-173437948D01*
X112111775Y-173681389D01*
X112109144Y-173684688D01*
X111910243Y-173907259D01*
X111907259Y-173910243D01*
X111684688Y-174109144D01*
X111681389Y-174111775D01*
X111437948Y-174284506D01*
X111434375Y-174286751D01*
X111173118Y-174431142D01*
X111169316Y-174432973D01*
X110893537Y-174547204D01*
X110889554Y-174548598D01*
X110602729Y-174631231D01*
X110598615Y-174632170D01*
X110304330Y-174682171D01*
X110300137Y-174682643D01*
X110001048Y-174699441D01*
X109998939Y-174699500D01*
X50001061Y-174699500D01*
X49998952Y-174699441D01*
X49699862Y-174682643D01*
X49695669Y-174682171D01*
X49401384Y-174632170D01*
X49397270Y-174631231D01*
X49110445Y-174548598D01*
X49106462Y-174547204D01*
X48830683Y-174432973D01*
X48826881Y-174431142D01*
X48565624Y-174286751D01*
X48562051Y-174284506D01*
X48318610Y-174111775D01*
X48315311Y-174109144D01*
X48092735Y-173910238D01*
X48089761Y-173907264D01*
X47890852Y-173684684D01*
X47888224Y-173681389D01*
X47856235Y-173636305D01*
X47715490Y-173437943D01*
X47713248Y-173434375D01*
X47568857Y-173173118D01*
X47567026Y-173169316D01*
X47452795Y-172893537D01*
X47451401Y-172889554D01*
X47368768Y-172602729D01*
X47367829Y-172598615D01*
X47317828Y-172304330D01*
X47317356Y-172300137D01*
X47300559Y-172001047D01*
X47300530Y-172000001D01*
X48242185Y-172000001D01*
X48261818Y-172261992D01*
X48271482Y-172304330D01*
X48320280Y-172518126D01*
X48320281Y-172518129D01*
X48320282Y-172518132D01*
X48416259Y-172762680D01*
X48416265Y-172762692D01*
X48547622Y-172990209D01*
X48547623Y-172990210D01*
X48547625Y-172990213D01*
X48711430Y-173195619D01*
X48904020Y-173374316D01*
X49121093Y-173522313D01*
X49357798Y-173636305D01*
X49608849Y-173713744D01*
X49868638Y-173752901D01*
X49868640Y-173752901D01*
X50131360Y-173752901D01*
X50131362Y-173752901D01*
X50391151Y-173713744D01*
X50642202Y-173636305D01*
X50878908Y-173522313D01*
X51095980Y-173374316D01*
X51288570Y-173195619D01*
X51452375Y-172990213D01*
X51583737Y-172762688D01*
X51679720Y-172518126D01*
X51738182Y-172261990D01*
X51757815Y-172000001D01*
X108242185Y-172000001D01*
X108261818Y-172261992D01*
X108271482Y-172304330D01*
X108320280Y-172518126D01*
X108320281Y-172518129D01*
X108320282Y-172518132D01*
X108416259Y-172762680D01*
X108416265Y-172762692D01*
X108547622Y-172990209D01*
X108547623Y-172990210D01*
X108547625Y-172990213D01*
X108711430Y-173195619D01*
X108904020Y-173374316D01*
X109121093Y-173522313D01*
X109357798Y-173636305D01*
X109608849Y-173713744D01*
X109868638Y-173752901D01*
X109868640Y-173752901D01*
X110131360Y-173752901D01*
X110131362Y-173752901D01*
X110391151Y-173713744D01*
X110642202Y-173636305D01*
X110878908Y-173522313D01*
X111095980Y-173374316D01*
X111288570Y-173195619D01*
X111452375Y-172990213D01*
X111583737Y-172762688D01*
X111679720Y-172518126D01*
X111738182Y-172261990D01*
X111757815Y-172000001D01*
X111738182Y-171738012D01*
X111679720Y-171481876D01*
X111583737Y-171237314D01*
X111452375Y-171009789D01*
X111288570Y-170804383D01*
X111095980Y-170625686D01*
X110878908Y-170477689D01*
X110642202Y-170363697D01*
X110642200Y-170363696D01*
X110391154Y-170286259D01*
X110391151Y-170286258D01*
X110391147Y-170286257D01*
X110391141Y-170286256D01*
X110229965Y-170261963D01*
X110131362Y-170247101D01*
X109868638Y-170247101D01*
X109785762Y-170259592D01*
X109608858Y-170286256D01*
X109608845Y-170286259D01*
X109357799Y-170363696D01*
X109121092Y-170477689D01*
X108904022Y-170625684D01*
X108711432Y-170804380D01*
X108547625Y-171009789D01*
X108547622Y-171009792D01*
X108416265Y-171237309D01*
X108416259Y-171237321D01*
X108320282Y-171481869D01*
X108261818Y-171738009D01*
X108242185Y-172000001D01*
X51757815Y-172000001D01*
X51738182Y-171738012D01*
X51679720Y-171481876D01*
X51583737Y-171237314D01*
X51452375Y-171009789D01*
X51288570Y-170804383D01*
X51095980Y-170625686D01*
X50878908Y-170477689D01*
X50642202Y-170363697D01*
X50642200Y-170363696D01*
X50391154Y-170286259D01*
X50391151Y-170286258D01*
X50391147Y-170286257D01*
X50391141Y-170286256D01*
X50229965Y-170261963D01*
X50131362Y-170247101D01*
X49868638Y-170247101D01*
X49785762Y-170259592D01*
X49608858Y-170286256D01*
X49608845Y-170286259D01*
X49357799Y-170363696D01*
X49121092Y-170477689D01*
X48904022Y-170625684D01*
X48711432Y-170804380D01*
X48547625Y-171009789D01*
X48547622Y-171009792D01*
X48416265Y-171237309D01*
X48416259Y-171237321D01*
X48320282Y-171481869D01*
X48261818Y-171738009D01*
X48242185Y-172000001D01*
X47300530Y-172000001D01*
X47300500Y-171998939D01*
X47300500Y-163228600D01*
X103063585Y-163228600D01*
X103083218Y-163490589D01*
X103141680Y-163746725D01*
X103141681Y-163746728D01*
X103141682Y-163746731D01*
X103237659Y-163991279D01*
X103237665Y-163991291D01*
X103369022Y-164218808D01*
X103369023Y-164218809D01*
X103369025Y-164218812D01*
X103532830Y-164424218D01*
X103725420Y-164602915D01*
X103942493Y-164750912D01*
X104179198Y-164864904D01*
X104430249Y-164942343D01*
X104690038Y-164981500D01*
X104690040Y-164981500D01*
X104952760Y-164981500D01*
X104952762Y-164981500D01*
X105212551Y-164942343D01*
X105463602Y-164864904D01*
X105700308Y-164750912D01*
X105917380Y-164602915D01*
X106109970Y-164424218D01*
X106273775Y-164218812D01*
X106405137Y-163991287D01*
X106501120Y-163746725D01*
X106559582Y-163490589D01*
X106579215Y-163228600D01*
X106559582Y-162966611D01*
X106501120Y-162710475D01*
X106405137Y-162465913D01*
X106273775Y-162238388D01*
X106109970Y-162032982D01*
X105917380Y-161854285D01*
X105700308Y-161706288D01*
X105463602Y-161592296D01*
X105463600Y-161592295D01*
X105212554Y-161514858D01*
X105212551Y-161514857D01*
X105212547Y-161514856D01*
X105212541Y-161514855D01*
X105051365Y-161490562D01*
X104952762Y-161475700D01*
X104690038Y-161475700D01*
X104607162Y-161488191D01*
X104430258Y-161514855D01*
X104430245Y-161514858D01*
X104179199Y-161592295D01*
X103942492Y-161706288D01*
X103725422Y-161854283D01*
X103532832Y-162032979D01*
X103369025Y-162238388D01*
X103369022Y-162238391D01*
X103237665Y-162465908D01*
X103237659Y-162465920D01*
X103141682Y-162710468D01*
X103083218Y-162966608D01*
X103083218Y-162966611D01*
X103063585Y-163228600D01*
X47300500Y-163228600D01*
X47300500Y-160688600D01*
X49838647Y-160688600D01*
X49858010Y-160885199D01*
X49858010Y-160885201D01*
X49915355Y-161074243D01*
X49915356Y-161074247D01*
X50008486Y-161248481D01*
X50008489Y-161248485D01*
X50133810Y-161401189D01*
X50286514Y-161526510D01*
X50286518Y-161526513D01*
X50286522Y-161526516D01*
X50409587Y-161592295D01*
X50460752Y-161619643D01*
X50460756Y-161619644D01*
X50503993Y-161632759D01*
X50649797Y-161676989D01*
X50846400Y-161696353D01*
X51043003Y-161676989D01*
X51232050Y-161619642D01*
X51406278Y-161526516D01*
X51558989Y-161401189D01*
X51684316Y-161248478D01*
X51777442Y-161074250D01*
X51811471Y-160962070D01*
X51842338Y-160920922D01*
X51883433Y-160908700D01*
X80869708Y-160908700D01*
X80918046Y-160926293D01*
X80922882Y-160930726D01*
X81005047Y-161012891D01*
X81005049Y-161012892D01*
X81119892Y-161071408D01*
X81119894Y-161071409D01*
X81217687Y-161086897D01*
X81247199Y-161091572D01*
X81247200Y-161091572D01*
X81247201Y-161091572D01*
X81267363Y-161088378D01*
X81374506Y-161071409D01*
X81489351Y-161012892D01*
X81580492Y-160921751D01*
X81639009Y-160806906D01*
X81659172Y-160679600D01*
X81639009Y-160552294D01*
X81580492Y-160437449D01*
X81580491Y-160437447D01*
X81489352Y-160346308D01*
X81374506Y-160287791D01*
X81374508Y-160287791D01*
X81247201Y-160267628D01*
X81247199Y-160267628D01*
X81119892Y-160287791D01*
X81005047Y-160346308D01*
X80922882Y-160428474D01*
X80876262Y-160450214D01*
X80869708Y-160450500D01*
X51877973Y-160450500D01*
X51829635Y-160432907D01*
X51806011Y-160397130D01*
X51777442Y-160302950D01*
X51684316Y-160128722D01*
X51684313Y-160128718D01*
X51684310Y-160128714D01*
X51558989Y-159976010D01*
X51406285Y-159850689D01*
X51406281Y-159850686D01*
X51406279Y-159850685D01*
X51406278Y-159850684D01*
X51319164Y-159804120D01*
X51232047Y-159757556D01*
X51232043Y-159757555D01*
X51043000Y-159700210D01*
X50846400Y-159680847D01*
X50649800Y-159700210D01*
X50649798Y-159700210D01*
X50460756Y-159757555D01*
X50460752Y-159757556D01*
X50286518Y-159850686D01*
X50286514Y-159850689D01*
X50133810Y-159976010D01*
X50008489Y-160128714D01*
X50008486Y-160128718D01*
X49915356Y-160302952D01*
X49915355Y-160302956D01*
X49858010Y-160491998D01*
X49858010Y-160492000D01*
X49838647Y-160688600D01*
X47300500Y-160688600D01*
X47300500Y-158148599D01*
X49838647Y-158148599D01*
X49858010Y-158345199D01*
X49858010Y-158345201D01*
X49915355Y-158534243D01*
X49915356Y-158534247D01*
X50008486Y-158708481D01*
X50008489Y-158708485D01*
X50133810Y-158861189D01*
X50286514Y-158986510D01*
X50286518Y-158986513D01*
X50286522Y-158986516D01*
X50460750Y-159079642D01*
X50460752Y-159079643D01*
X50460756Y-159079644D01*
X50503993Y-159092759D01*
X50649797Y-159136989D01*
X50846400Y-159156353D01*
X51043003Y-159136989D01*
X51232050Y-159079642D01*
X51406278Y-158986516D01*
X51558989Y-158861189D01*
X51684316Y-158708478D01*
X51777442Y-158534250D01*
X51811471Y-158422070D01*
X51842338Y-158380922D01*
X51883433Y-158368700D01*
X78431309Y-158368700D01*
X78479647Y-158386293D01*
X78484472Y-158390715D01*
X78515849Y-158422092D01*
X78630692Y-158480608D01*
X78630694Y-158480609D01*
X78728487Y-158496097D01*
X78757999Y-158500772D01*
X78758000Y-158500772D01*
X78758001Y-158500772D01*
X78778163Y-158497578D01*
X78885306Y-158480609D01*
X79000151Y-158422092D01*
X79091292Y-158330951D01*
X79149809Y-158216106D01*
X79169972Y-158088800D01*
X79149809Y-157961494D01*
X79091292Y-157846649D01*
X79091291Y-157846647D01*
X79000152Y-157755508D01*
X78885306Y-157696991D01*
X78885308Y-157696991D01*
X78758001Y-157676828D01*
X78757999Y-157676828D01*
X78630692Y-157696991D01*
X78515847Y-157755508D01*
X78424708Y-157846647D01*
X78413095Y-157869440D01*
X78375474Y-157904522D01*
X78346091Y-157910500D01*
X51877973Y-157910500D01*
X51829635Y-157892907D01*
X51806011Y-157857130D01*
X51802831Y-157846647D01*
X51777442Y-157762950D01*
X51684316Y-157588722D01*
X51684313Y-157588718D01*
X51684310Y-157588714D01*
X51558989Y-157436010D01*
X51406285Y-157310689D01*
X51406281Y-157310686D01*
X51406279Y-157310685D01*
X51406278Y-157310684D01*
X51319164Y-157264120D01*
X51232047Y-157217556D01*
X51232043Y-157217555D01*
X51043000Y-157160210D01*
X50846400Y-157140847D01*
X50649800Y-157160210D01*
X50649798Y-157160210D01*
X50460756Y-157217555D01*
X50460752Y-157217556D01*
X50286518Y-157310686D01*
X50286514Y-157310689D01*
X50133810Y-157436010D01*
X50008489Y-157588714D01*
X50008486Y-157588718D01*
X49915356Y-157762952D01*
X49915355Y-157762956D01*
X49858010Y-157951998D01*
X49858010Y-157952000D01*
X49838647Y-158148599D01*
X47300500Y-158148599D01*
X47300500Y-155608600D01*
X49838647Y-155608600D01*
X49858010Y-155805199D01*
X49858010Y-155805201D01*
X49915355Y-155994243D01*
X49915356Y-155994247D01*
X50008486Y-156168481D01*
X50008489Y-156168485D01*
X50133810Y-156321189D01*
X50286514Y-156446510D01*
X50286518Y-156446513D01*
X50286522Y-156446516D01*
X50460750Y-156539642D01*
X50460752Y-156539643D01*
X50460756Y-156539644D01*
X50503993Y-156552759D01*
X50649797Y-156596989D01*
X50846400Y-156616353D01*
X51043003Y-156596989D01*
X51232050Y-156539642D01*
X51406278Y-156446516D01*
X51558989Y-156321189D01*
X51684316Y-156168478D01*
X51777442Y-155994250D01*
X51811471Y-155882070D01*
X51842338Y-155840922D01*
X51883433Y-155828700D01*
X57603308Y-155828700D01*
X57651646Y-155846293D01*
X57656482Y-155850726D01*
X57738647Y-155932891D01*
X57738649Y-155932892D01*
X57853492Y-155991408D01*
X57853494Y-155991409D01*
X57951287Y-156006897D01*
X57980799Y-156011572D01*
X57980800Y-156011572D01*
X57980801Y-156011572D01*
X58000963Y-156008378D01*
X58108106Y-155991409D01*
X58222951Y-155932892D01*
X58314092Y-155841751D01*
X58372609Y-155726906D01*
X58392772Y-155599600D01*
X58372609Y-155472294D01*
X58314092Y-155357449D01*
X58314091Y-155357447D01*
X58222952Y-155266308D01*
X58108106Y-155207791D01*
X58108108Y-155207791D01*
X57980801Y-155187628D01*
X57980799Y-155187628D01*
X57853492Y-155207791D01*
X57738647Y-155266308D01*
X57656482Y-155348474D01*
X57609862Y-155370214D01*
X57603308Y-155370500D01*
X51877973Y-155370500D01*
X51829635Y-155352907D01*
X51806011Y-155317130D01*
X51777442Y-155222950D01*
X51684316Y-155048722D01*
X51684313Y-155048718D01*
X51684310Y-155048714D01*
X51558989Y-154896010D01*
X51406285Y-154770689D01*
X51406281Y-154770686D01*
X51406279Y-154770685D01*
X51406278Y-154770684D01*
X51319164Y-154724120D01*
X51232047Y-154677556D01*
X51232043Y-154677555D01*
X51043000Y-154620210D01*
X50846400Y-154600847D01*
X50649800Y-154620210D01*
X50649798Y-154620210D01*
X50460756Y-154677555D01*
X50460752Y-154677556D01*
X50286518Y-154770686D01*
X50286514Y-154770689D01*
X50133810Y-154896010D01*
X50008489Y-155048714D01*
X50008486Y-155048718D01*
X49915356Y-155222952D01*
X49915355Y-155222956D01*
X49858010Y-155411998D01*
X49858010Y-155412000D01*
X49838647Y-155608600D01*
X47300500Y-155608600D01*
X47300500Y-153068599D01*
X49838647Y-153068599D01*
X49858010Y-153265199D01*
X49858010Y-153265201D01*
X49915355Y-153454243D01*
X49915356Y-153454247D01*
X50008486Y-153628481D01*
X50008489Y-153628485D01*
X50133810Y-153781189D01*
X50286514Y-153906510D01*
X50286518Y-153906513D01*
X50286522Y-153906516D01*
X50460750Y-153999642D01*
X50460752Y-153999643D01*
X50460756Y-153999644D01*
X50503993Y-154012759D01*
X50649797Y-154056989D01*
X50846400Y-154076353D01*
X51043003Y-154056989D01*
X51232050Y-153999642D01*
X51406278Y-153906516D01*
X51558989Y-153781189D01*
X51684316Y-153628478D01*
X51777442Y-153454250D01*
X51796061Y-153392870D01*
X51826928Y-153351722D01*
X51868023Y-153339500D01*
X59498291Y-153339500D01*
X59546629Y-153357093D01*
X59565295Y-153380560D01*
X59576908Y-153403352D01*
X59668047Y-153494491D01*
X59668049Y-153494492D01*
X59782892Y-153553008D01*
X59782894Y-153553009D01*
X59880687Y-153568497D01*
X59910199Y-153573172D01*
X59910200Y-153573172D01*
X59910201Y-153573172D01*
X59930364Y-153569978D01*
X60037506Y-153553009D01*
X60152351Y-153494492D01*
X60243492Y-153403351D01*
X60302009Y-153288506D01*
X60322172Y-153161200D01*
X60302009Y-153033894D01*
X60243492Y-152919049D01*
X60243491Y-152919047D01*
X60152352Y-152827908D01*
X60037506Y-152769391D01*
X60037508Y-152769391D01*
X59910201Y-152749228D01*
X59910199Y-152749228D01*
X59782892Y-152769391D01*
X59668049Y-152827907D01*
X59652366Y-152843590D01*
X59636682Y-152859274D01*
X59590064Y-152881014D01*
X59583509Y-152881300D01*
X51893383Y-152881300D01*
X51845045Y-152863707D01*
X51821421Y-152827929D01*
X51777444Y-152682956D01*
X51777443Y-152682952D01*
X51777442Y-152682950D01*
X51684316Y-152508722D01*
X51684313Y-152508718D01*
X51684310Y-152508714D01*
X51558989Y-152356010D01*
X51406285Y-152230689D01*
X51406281Y-152230686D01*
X51406279Y-152230685D01*
X51406278Y-152230684D01*
X51319164Y-152184120D01*
X51232047Y-152137556D01*
X51232043Y-152137555D01*
X51043000Y-152080210D01*
X50846400Y-152060847D01*
X50649800Y-152080210D01*
X50649798Y-152080210D01*
X50460756Y-152137555D01*
X50460752Y-152137556D01*
X50286518Y-152230686D01*
X50286514Y-152230689D01*
X50133810Y-152356010D01*
X50008489Y-152508714D01*
X50008486Y-152508718D01*
X49915356Y-152682952D01*
X49915355Y-152682956D01*
X49858010Y-152871998D01*
X49858010Y-152872000D01*
X49838647Y-153068599D01*
X47300500Y-153068599D01*
X47300500Y-150528600D01*
X49838647Y-150528600D01*
X49858010Y-150725199D01*
X49858010Y-150725201D01*
X49915355Y-150914243D01*
X49915356Y-150914247D01*
X50008486Y-151088481D01*
X50008489Y-151088485D01*
X50133810Y-151241189D01*
X50286514Y-151366510D01*
X50286518Y-151366513D01*
X50286522Y-151366516D01*
X50460750Y-151459642D01*
X50460752Y-151459643D01*
X50460756Y-151459644D01*
X50503993Y-151472759D01*
X50649797Y-151516989D01*
X50846400Y-151536353D01*
X51043003Y-151516989D01*
X51232050Y-151459642D01*
X51406278Y-151366516D01*
X51558989Y-151241189D01*
X51684316Y-151088478D01*
X51777442Y-150914250D01*
X51811471Y-150802070D01*
X51842338Y-150760922D01*
X51883433Y-150748700D01*
X58568008Y-150748700D01*
X58616346Y-150766293D01*
X58621182Y-150770726D01*
X58703347Y-150852891D01*
X58703349Y-150852892D01*
X58818192Y-150911408D01*
X58818194Y-150911409D01*
X58915987Y-150926897D01*
X58945499Y-150931572D01*
X58945500Y-150931572D01*
X58945501Y-150931572D01*
X58965663Y-150928378D01*
X59072806Y-150911409D01*
X59187651Y-150852892D01*
X59278792Y-150761751D01*
X59337309Y-150646906D01*
X59357472Y-150519600D01*
X59337309Y-150392294D01*
X59278792Y-150277449D01*
X59278791Y-150277447D01*
X59187652Y-150186308D01*
X59072806Y-150127791D01*
X59072808Y-150127791D01*
X58945501Y-150107628D01*
X58945499Y-150107628D01*
X58818192Y-150127791D01*
X58703347Y-150186308D01*
X58621182Y-150268474D01*
X58574562Y-150290214D01*
X58568008Y-150290500D01*
X51877973Y-150290500D01*
X51829635Y-150272907D01*
X51806011Y-150237130D01*
X51777442Y-150142950D01*
X51684316Y-149968722D01*
X51684313Y-149968718D01*
X51684310Y-149968714D01*
X51558989Y-149816010D01*
X51406285Y-149690689D01*
X51406281Y-149690686D01*
X51406279Y-149690685D01*
X51406278Y-149690684D01*
X51319164Y-149644120D01*
X51232047Y-149597556D01*
X51232043Y-149597555D01*
X51043000Y-149540210D01*
X50846400Y-149520847D01*
X50649800Y-149540210D01*
X50649798Y-149540210D01*
X50460756Y-149597555D01*
X50460752Y-149597556D01*
X50286518Y-149690686D01*
X50286514Y-149690689D01*
X50133810Y-149816010D01*
X50008489Y-149968714D01*
X50008486Y-149968718D01*
X49915356Y-150142952D01*
X49915355Y-150142956D01*
X49858010Y-150331998D01*
X49858010Y-150332000D01*
X49838647Y-150528600D01*
X47300500Y-150528600D01*
X47300500Y-147988599D01*
X49838647Y-147988599D01*
X49858010Y-148185199D01*
X49858010Y-148185201D01*
X49915355Y-148374243D01*
X49915356Y-148374247D01*
X50008486Y-148548481D01*
X50008489Y-148548485D01*
X50133810Y-148701189D01*
X50286514Y-148826510D01*
X50286518Y-148826513D01*
X50286522Y-148826516D01*
X50460750Y-148919642D01*
X50460752Y-148919643D01*
X50460756Y-148919644D01*
X50503993Y-148932759D01*
X50649797Y-148976989D01*
X50846400Y-148996353D01*
X51043003Y-148976989D01*
X51232050Y-148919642D01*
X51406278Y-148826516D01*
X51558989Y-148701189D01*
X51684316Y-148548478D01*
X51777442Y-148374250D01*
X51796061Y-148312870D01*
X51826928Y-148271722D01*
X51868023Y-148259500D01*
X64054908Y-148259500D01*
X64103246Y-148277093D01*
X64108082Y-148281526D01*
X64190247Y-148363691D01*
X64190249Y-148363692D01*
X64305092Y-148422208D01*
X64305094Y-148422209D01*
X64402887Y-148437697D01*
X64432399Y-148442372D01*
X64432400Y-148442372D01*
X64432401Y-148442372D01*
X64452563Y-148439178D01*
X64559706Y-148422209D01*
X64674551Y-148363692D01*
X64765692Y-148272551D01*
X64824209Y-148157706D01*
X64844372Y-148030400D01*
X64824209Y-147903094D01*
X64765692Y-147788249D01*
X64765691Y-147788247D01*
X64674552Y-147697108D01*
X64559706Y-147638591D01*
X64559708Y-147638591D01*
X64432401Y-147618428D01*
X64432399Y-147618428D01*
X64305092Y-147638591D01*
X64190247Y-147697108D01*
X64108082Y-147779274D01*
X64061462Y-147801014D01*
X64054908Y-147801300D01*
X51893383Y-147801300D01*
X51845045Y-147783707D01*
X51821421Y-147747929D01*
X51777444Y-147602956D01*
X51777443Y-147602952D01*
X51777442Y-147602950D01*
X51684316Y-147428722D01*
X51684313Y-147428718D01*
X51684310Y-147428714D01*
X51558989Y-147276010D01*
X51406285Y-147150689D01*
X51406281Y-147150686D01*
X51406279Y-147150685D01*
X51406278Y-147150684D01*
X51319164Y-147104120D01*
X51232047Y-147057556D01*
X51232043Y-147057555D01*
X51043000Y-147000210D01*
X50846400Y-146980847D01*
X50649800Y-147000210D01*
X50649798Y-147000210D01*
X50460756Y-147057555D01*
X50460752Y-147057556D01*
X50286518Y-147150686D01*
X50286514Y-147150689D01*
X50133810Y-147276010D01*
X50008489Y-147428714D01*
X50008486Y-147428718D01*
X49915356Y-147602952D01*
X49915355Y-147602956D01*
X49858010Y-147791998D01*
X49858010Y-147792000D01*
X49838647Y-147988599D01*
X47300500Y-147988599D01*
X47300500Y-145448600D01*
X49838647Y-145448600D01*
X49858010Y-145645199D01*
X49858010Y-145645201D01*
X49915355Y-145834243D01*
X49915356Y-145834247D01*
X50008486Y-146008481D01*
X50008489Y-146008485D01*
X50133810Y-146161189D01*
X50286514Y-146286510D01*
X50286518Y-146286513D01*
X50286522Y-146286516D01*
X50460750Y-146379642D01*
X50460752Y-146379643D01*
X50460756Y-146379644D01*
X50503993Y-146392759D01*
X50649797Y-146436989D01*
X50846400Y-146456353D01*
X51043003Y-146436989D01*
X51232050Y-146379642D01*
X51406278Y-146286516D01*
X51558989Y-146161189D01*
X51684316Y-146008478D01*
X51777442Y-145834250D01*
X51811471Y-145722070D01*
X51842338Y-145680922D01*
X51883433Y-145668700D01*
X63089709Y-145668700D01*
X63138047Y-145686293D01*
X63142872Y-145690715D01*
X63174249Y-145722092D01*
X63289092Y-145780608D01*
X63289094Y-145780609D01*
X63386887Y-145796097D01*
X63416399Y-145800772D01*
X63416400Y-145800772D01*
X63416401Y-145800772D01*
X63436564Y-145797578D01*
X63543706Y-145780609D01*
X63658551Y-145722092D01*
X63749692Y-145630951D01*
X63808209Y-145516106D01*
X63828372Y-145388800D01*
X63808209Y-145261494D01*
X63749692Y-145146649D01*
X63749691Y-145146647D01*
X63658552Y-145055508D01*
X63543706Y-144996991D01*
X63543708Y-144996991D01*
X63416401Y-144976828D01*
X63416399Y-144976828D01*
X63289092Y-144996991D01*
X63174247Y-145055508D01*
X63083108Y-145146647D01*
X63071495Y-145169440D01*
X63033874Y-145204522D01*
X63004491Y-145210500D01*
X51877973Y-145210500D01*
X51829635Y-145192907D01*
X51806011Y-145157130D01*
X51802831Y-145146647D01*
X51777442Y-145062950D01*
X51684316Y-144888722D01*
X51684313Y-144888718D01*
X51684310Y-144888714D01*
X51558989Y-144736010D01*
X51406285Y-144610689D01*
X51406281Y-144610686D01*
X51406279Y-144610685D01*
X51406278Y-144610684D01*
X51319164Y-144564120D01*
X51232047Y-144517556D01*
X51232043Y-144517555D01*
X51043000Y-144460210D01*
X50846400Y-144440847D01*
X50649800Y-144460210D01*
X50649798Y-144460210D01*
X50460756Y-144517555D01*
X50460752Y-144517556D01*
X50286518Y-144610686D01*
X50286514Y-144610689D01*
X50133810Y-144736010D01*
X50008489Y-144888714D01*
X50008486Y-144888718D01*
X49915356Y-145062952D01*
X49915355Y-145062956D01*
X49858010Y-145251998D01*
X49858010Y-145252000D01*
X49838647Y-145448600D01*
X47300500Y-145448600D01*
X47300500Y-142908599D01*
X49838647Y-142908599D01*
X49858010Y-143105199D01*
X49858010Y-143105201D01*
X49915355Y-143294243D01*
X49915356Y-143294247D01*
X50008486Y-143468481D01*
X50008489Y-143468485D01*
X50133810Y-143621189D01*
X50286514Y-143746510D01*
X50286518Y-143746513D01*
X50286522Y-143746516D01*
X50460750Y-143839642D01*
X50460752Y-143839643D01*
X50460756Y-143839644D01*
X50503993Y-143852759D01*
X50649797Y-143896989D01*
X50846400Y-143916353D01*
X51043003Y-143896989D01*
X51232050Y-143839642D01*
X51406278Y-143746516D01*
X51558989Y-143621189D01*
X51684316Y-143468478D01*
X51777442Y-143294250D01*
X51811471Y-143182070D01*
X51842338Y-143140922D01*
X51883433Y-143128700D01*
X63521008Y-143128700D01*
X63569346Y-143146293D01*
X63574182Y-143150726D01*
X63656347Y-143232891D01*
X63656349Y-143232892D01*
X63771192Y-143291408D01*
X63771194Y-143291409D01*
X63868987Y-143306897D01*
X63898499Y-143311572D01*
X63898500Y-143311572D01*
X63898501Y-143311572D01*
X63918663Y-143308378D01*
X64025806Y-143291409D01*
X64140651Y-143232892D01*
X64231792Y-143141751D01*
X64290309Y-143026906D01*
X64310472Y-142899600D01*
X64290309Y-142772294D01*
X64231792Y-142657449D01*
X64231791Y-142657447D01*
X64140652Y-142566308D01*
X64025806Y-142507791D01*
X64025808Y-142507791D01*
X63898501Y-142487628D01*
X63898499Y-142487628D01*
X63771192Y-142507791D01*
X63656347Y-142566308D01*
X63574182Y-142648474D01*
X63527562Y-142670214D01*
X63521008Y-142670500D01*
X51877973Y-142670500D01*
X51829635Y-142652907D01*
X51806011Y-142617130D01*
X51777442Y-142522950D01*
X51684316Y-142348722D01*
X51684313Y-142348718D01*
X51684310Y-142348714D01*
X51558989Y-142196010D01*
X51406285Y-142070689D01*
X51406281Y-142070686D01*
X51406279Y-142070685D01*
X51406278Y-142070684D01*
X51319164Y-142024120D01*
X51232047Y-141977556D01*
X51232043Y-141977555D01*
X51043000Y-141920210D01*
X50846400Y-141900847D01*
X50649800Y-141920210D01*
X50649798Y-141920210D01*
X50460756Y-141977555D01*
X50460752Y-141977556D01*
X50286518Y-142070686D01*
X50286514Y-142070689D01*
X50133810Y-142196010D01*
X50008489Y-142348714D01*
X50008486Y-142348718D01*
X49915356Y-142522952D01*
X49915355Y-142522956D01*
X49858010Y-142711998D01*
X49858010Y-142712000D01*
X49838647Y-142908599D01*
X47300500Y-142908599D01*
X47300500Y-140368600D01*
X49813627Y-140368600D01*
X49833470Y-140570080D01*
X49892244Y-140763830D01*
X49987675Y-140942368D01*
X49987681Y-140942378D01*
X50035161Y-141000232D01*
X50348323Y-140687070D01*
X50394944Y-140665330D01*
X50444631Y-140678644D01*
X50460869Y-140695539D01*
X50461112Y-140695329D01*
X50464634Y-140699393D01*
X50464638Y-140699396D01*
X50464639Y-140699398D01*
X50527125Y-140753542D01*
X50552135Y-140798492D01*
X50542401Y-140849002D01*
X50531055Y-140863548D01*
X50214765Y-141179838D01*
X50272621Y-141227318D01*
X50272626Y-141227321D01*
X50451169Y-141322755D01*
X50644921Y-141381529D01*
X50644917Y-141381529D01*
X50846400Y-141401372D01*
X51047880Y-141381529D01*
X51241630Y-141322755D01*
X51420173Y-141227321D01*
X51420179Y-141227317D01*
X51478032Y-141179837D01*
X51161744Y-140863550D01*
X51140004Y-140816929D01*
X51153318Y-140767242D01*
X51165667Y-140753548D01*
X51228161Y-140699398D01*
X51228165Y-140699390D01*
X51231685Y-140695331D01*
X51232596Y-140696120D01*
X51268969Y-140668436D01*
X51320351Y-140670882D01*
X51344476Y-140687070D01*
X51657637Y-141000232D01*
X51705117Y-140942379D01*
X51705121Y-140942373D01*
X51800555Y-140763830D01*
X51859329Y-140570080D01*
X51879172Y-140368600D01*
X51859329Y-140167119D01*
X51800555Y-139973369D01*
X51705121Y-139794826D01*
X51705118Y-139794821D01*
X51657637Y-139736965D01*
X51344475Y-140050128D01*
X51297855Y-140071868D01*
X51248168Y-140058554D01*
X51231930Y-140041660D01*
X51231688Y-140041871D01*
X51228165Y-140037806D01*
X51228161Y-140037803D01*
X51228161Y-140037802D01*
X51165672Y-139983656D01*
X51140663Y-139938706D01*
X51150397Y-139888196D01*
X51161744Y-139873649D01*
X51478032Y-139557361D01*
X51420178Y-139509881D01*
X51420168Y-139509875D01*
X51241630Y-139414444D01*
X51047878Y-139355670D01*
X51047882Y-139355670D01*
X50846400Y-139335827D01*
X50644919Y-139355670D01*
X50451169Y-139414444D01*
X50272631Y-139509875D01*
X50272616Y-139509885D01*
X50214765Y-139557361D01*
X50531054Y-139873650D01*
X50552794Y-139920270D01*
X50539480Y-139969957D01*
X50527126Y-139983656D01*
X50464642Y-140037798D01*
X50461120Y-140041864D01*
X50460211Y-140041076D01*
X50423819Y-140068766D01*
X50372438Y-140066313D01*
X50348325Y-140050129D01*
X50035161Y-139736965D01*
X49987685Y-139794816D01*
X49987675Y-139794831D01*
X49892244Y-139973369D01*
X49833470Y-140167119D01*
X49813627Y-140368600D01*
X47300500Y-140368600D01*
X47300500Y-137828599D01*
X49838647Y-137828599D01*
X49858010Y-138025199D01*
X49858010Y-138025201D01*
X49915355Y-138214243D01*
X49915356Y-138214247D01*
X50008486Y-138388481D01*
X50008489Y-138388485D01*
X50133810Y-138541189D01*
X50286514Y-138666510D01*
X50286518Y-138666513D01*
X50286522Y-138666516D01*
X50460750Y-138759642D01*
X50460752Y-138759643D01*
X50460756Y-138759644D01*
X50503993Y-138772759D01*
X50649797Y-138816989D01*
X50846400Y-138836353D01*
X51043003Y-138816989D01*
X51232050Y-138759642D01*
X51406278Y-138666516D01*
X51558989Y-138541189D01*
X51684316Y-138388478D01*
X51777442Y-138214250D01*
X51834789Y-138025203D01*
X51854153Y-137828600D01*
X51834789Y-137631997D01*
X51777442Y-137442950D01*
X51684316Y-137268722D01*
X51684313Y-137268718D01*
X51684310Y-137268714D01*
X51558989Y-137116010D01*
X51406285Y-136990689D01*
X51406281Y-136990686D01*
X51406279Y-136990685D01*
X51406278Y-136990684D01*
X51319164Y-136944120D01*
X51232047Y-136897556D01*
X51232043Y-136897555D01*
X51043000Y-136840210D01*
X50846400Y-136820847D01*
X50649800Y-136840210D01*
X50649798Y-136840210D01*
X50460756Y-136897555D01*
X50460752Y-136897556D01*
X50286518Y-136990686D01*
X50286514Y-136990689D01*
X50133810Y-137116010D01*
X50008489Y-137268714D01*
X50008486Y-137268718D01*
X49915356Y-137442952D01*
X49915355Y-137442956D01*
X49858010Y-137631998D01*
X49858010Y-137632000D01*
X49838647Y-137828599D01*
X47300500Y-137828599D01*
X47300500Y-96765055D01*
X52347100Y-96765055D01*
X52347101Y-96765057D01*
X52355972Y-96809659D01*
X52389764Y-96860232D01*
X52389765Y-96860232D01*
X52389766Y-96860234D01*
X52440342Y-96894028D01*
X52484943Y-96902900D01*
X54715056Y-96902899D01*
X54759658Y-96894028D01*
X54810234Y-96860234D01*
X54844028Y-96809658D01*
X54852900Y-96765057D01*
X54852899Y-94934944D01*
X54844028Y-94890342D01*
X54810234Y-94839766D01*
X54759658Y-94805972D01*
X54759656Y-94805971D01*
X54715057Y-94797100D01*
X52484944Y-94797100D01*
X52484942Y-94797101D01*
X52440340Y-94805972D01*
X52389767Y-94839764D01*
X52355972Y-94890342D01*
X52355971Y-94890343D01*
X52347100Y-94934942D01*
X52347100Y-96765055D01*
X47300500Y-96765055D01*
X47300500Y-86000000D01*
X48242185Y-86000000D01*
X48261818Y-86261989D01*
X48320280Y-86518125D01*
X48320281Y-86518128D01*
X48320282Y-86518131D01*
X48416259Y-86762679D01*
X48416265Y-86762691D01*
X48547622Y-86990208D01*
X48547623Y-86990209D01*
X48547625Y-86990212D01*
X48711430Y-87195618D01*
X48904020Y-87374315D01*
X49121093Y-87522312D01*
X49357798Y-87636304D01*
X49608849Y-87713743D01*
X49868638Y-87752900D01*
X49868640Y-87752900D01*
X50131360Y-87752900D01*
X50131362Y-87752900D01*
X50391151Y-87713743D01*
X50642202Y-87636304D01*
X50878908Y-87522312D01*
X51095980Y-87374315D01*
X51288570Y-87195618D01*
X51452375Y-86990212D01*
X51583737Y-86762687D01*
X51679720Y-86518125D01*
X51738182Y-86261989D01*
X51757815Y-86000000D01*
X51738182Y-85738011D01*
X51679720Y-85481875D01*
X51583737Y-85237313D01*
X51452375Y-85009788D01*
X51288570Y-84804382D01*
X51095980Y-84625685D01*
X50878908Y-84477688D01*
X50642202Y-84363696D01*
X50642200Y-84363695D01*
X50391154Y-84286258D01*
X50391151Y-84286257D01*
X50391147Y-84286256D01*
X50391141Y-84286255D01*
X50229965Y-84261962D01*
X50131362Y-84247100D01*
X49868638Y-84247100D01*
X49785762Y-84259591D01*
X49608858Y-84286255D01*
X49608845Y-84286258D01*
X49357799Y-84363695D01*
X49121092Y-84477688D01*
X48904022Y-84625683D01*
X48711432Y-84804379D01*
X48547625Y-85009788D01*
X48547622Y-85009791D01*
X48416265Y-85237308D01*
X48416259Y-85237320D01*
X48320282Y-85481868D01*
X48261818Y-85738008D01*
X48261818Y-85738011D01*
X48242185Y-86000000D01*
X47300500Y-86000000D01*
X47300500Y-80124199D01*
X48268660Y-80124199D01*
X48279320Y-80182368D01*
X48279662Y-80184613D01*
X48286791Y-80243322D01*
X48291528Y-80255812D01*
X48295182Y-80268920D01*
X48297591Y-80282063D01*
X48297593Y-80282070D01*
X48321861Y-80335992D01*
X48322730Y-80338090D01*
X48343702Y-80393387D01*
X48343707Y-80393396D01*
X48351295Y-80404390D01*
X48357979Y-80416242D01*
X48363456Y-80428412D01*
X48363462Y-80428422D01*
X48399923Y-80474960D01*
X48401269Y-80476789D01*
X48434875Y-80525475D01*
X48434877Y-80525478D01*
X48479159Y-80564708D01*
X48480795Y-80566248D01*
X52392235Y-84477688D01*
X56167074Y-88252527D01*
X56188814Y-88299147D01*
X56189100Y-88305701D01*
X56189100Y-97231078D01*
X56171507Y-97279416D01*
X56129887Y-97304559D01*
X56084124Y-97314515D01*
X56084123Y-97314515D01*
X56014286Y-97349472D01*
X55961482Y-97395227D01*
X55955922Y-97400282D01*
X55955920Y-97400284D01*
X55913381Y-97470072D01*
X55905615Y-97496523D01*
X55894290Y-97535087D01*
X55863793Y-97576509D01*
X55822138Y-97589100D01*
X54613516Y-97589100D01*
X54611246Y-97589031D01*
X54561542Y-97586024D01*
X54552203Y-97585460D01*
X54552202Y-97585460D01*
X54552201Y-97585460D01*
X54552197Y-97585460D01*
X54494030Y-97596120D01*
X54491786Y-97596462D01*
X54433079Y-97603591D01*
X54433066Y-97603594D01*
X54420582Y-97608329D01*
X54407475Y-97611983D01*
X54394336Y-97614391D01*
X54394329Y-97614393D01*
X54340412Y-97638659D01*
X54338315Y-97639528D01*
X54283011Y-97660503D01*
X54283003Y-97660508D01*
X54272008Y-97668096D01*
X54260163Y-97674777D01*
X54247979Y-97680261D01*
X54201426Y-97716731D01*
X54199598Y-97718075D01*
X54150923Y-97751676D01*
X54150921Y-97751677D01*
X54111690Y-97795959D01*
X54110133Y-97797613D01*
X50394013Y-101513733D01*
X50392359Y-101515290D01*
X50348077Y-101554521D01*
X50348076Y-101554523D01*
X50314475Y-101603198D01*
X50313131Y-101605026D01*
X50276661Y-101651579D01*
X50271177Y-101663763D01*
X50264496Y-101675608D01*
X50256908Y-101686603D01*
X50256903Y-101686611D01*
X50235928Y-101741915D01*
X50235059Y-101744012D01*
X50210793Y-101797929D01*
X50210791Y-101797936D01*
X50208383Y-101811075D01*
X50204729Y-101824182D01*
X50199994Y-101836666D01*
X50199991Y-101836679D01*
X50192862Y-101895386D01*
X50192520Y-101897630D01*
X50181860Y-101955797D01*
X50181860Y-101955801D01*
X50185431Y-102014845D01*
X50185500Y-102017115D01*
X50185500Y-134498023D01*
X50167907Y-134546361D01*
X50158008Y-134556152D01*
X50133808Y-134576012D01*
X50008489Y-134728714D01*
X50008486Y-134728718D01*
X49915356Y-134902952D01*
X49915355Y-134902956D01*
X49858010Y-135091998D01*
X49858010Y-135092000D01*
X49838647Y-135288600D01*
X49858010Y-135485199D01*
X49858010Y-135485201D01*
X49915355Y-135674243D01*
X49915356Y-135674247D01*
X50008486Y-135848481D01*
X50008489Y-135848485D01*
X50133810Y-136001189D01*
X50286514Y-136126510D01*
X50286518Y-136126513D01*
X50286522Y-136126516D01*
X50460750Y-136219642D01*
X50460752Y-136219643D01*
X50460756Y-136219644D01*
X50503993Y-136232759D01*
X50649797Y-136276989D01*
X50846400Y-136296353D01*
X51043003Y-136276989D01*
X51232050Y-136219642D01*
X51406278Y-136126516D01*
X51558989Y-136001189D01*
X51684316Y-135848478D01*
X51777442Y-135674250D01*
X51834789Y-135485203D01*
X51854153Y-135288600D01*
X51834789Y-135091997D01*
X51777442Y-134902950D01*
X51684316Y-134728722D01*
X51684313Y-134728718D01*
X51684310Y-134728714D01*
X51558991Y-134576013D01*
X51534792Y-134556153D01*
X51508588Y-134511888D01*
X51507300Y-134498033D01*
X51507300Y-132748601D01*
X103063585Y-132748601D01*
X103083218Y-133010590D01*
X103141680Y-133266726D01*
X103141681Y-133266729D01*
X103141682Y-133266732D01*
X103237659Y-133511280D01*
X103237665Y-133511292D01*
X103369022Y-133738809D01*
X103369023Y-133738810D01*
X103369025Y-133738813D01*
X103532830Y-133944219D01*
X103725420Y-134122916D01*
X103942493Y-134270913D01*
X104179198Y-134384905D01*
X104430249Y-134462344D01*
X104690038Y-134501501D01*
X104690040Y-134501501D01*
X104952760Y-134501501D01*
X104952762Y-134501501D01*
X105212551Y-134462344D01*
X105463602Y-134384905D01*
X105700308Y-134270913D01*
X105917380Y-134122916D01*
X106109970Y-133944219D01*
X106273775Y-133738813D01*
X106405137Y-133511288D01*
X106501120Y-133266726D01*
X106559582Y-133010590D01*
X106579215Y-132748601D01*
X106559582Y-132486612D01*
X106501120Y-132230476D01*
X106405137Y-131985914D01*
X106273775Y-131758389D01*
X106109970Y-131552983D01*
X105917380Y-131374286D01*
X105700308Y-131226289D01*
X105463602Y-131112297D01*
X105463600Y-131112296D01*
X105212554Y-131034859D01*
X105212551Y-131034858D01*
X105212547Y-131034857D01*
X105212541Y-131034856D01*
X105051365Y-131010563D01*
X104952762Y-130995701D01*
X104690038Y-130995701D01*
X104607162Y-131008192D01*
X104430258Y-131034856D01*
X104430245Y-131034859D01*
X104179199Y-131112296D01*
X103942492Y-131226289D01*
X103725422Y-131374284D01*
X103532832Y-131552980D01*
X103369025Y-131758389D01*
X103369022Y-131758392D01*
X103237665Y-131985909D01*
X103237659Y-131985921D01*
X103141682Y-132230469D01*
X103083218Y-132486609D01*
X103083218Y-132486612D01*
X103063585Y-132748601D01*
X51507300Y-132748601D01*
X51507300Y-121384400D01*
X52280428Y-121384400D01*
X52300591Y-121511707D01*
X52359108Y-121626552D01*
X52450247Y-121717691D01*
X52450249Y-121717692D01*
X52565092Y-121776208D01*
X52565094Y-121776209D01*
X52662887Y-121791697D01*
X52692399Y-121796372D01*
X52692400Y-121796372D01*
X52692401Y-121796372D01*
X52712564Y-121793178D01*
X52819706Y-121776209D01*
X52934551Y-121717692D01*
X53025692Y-121626551D01*
X53037304Y-121603760D01*
X53074926Y-121568678D01*
X53104309Y-121562700D01*
X83159425Y-121562700D01*
X83161393Y-121562752D01*
X83203039Y-121564934D01*
X83226138Y-121556066D01*
X83237457Y-121552714D01*
X83261665Y-121547569D01*
X83268650Y-121542493D01*
X83285899Y-121533127D01*
X83293964Y-121530032D01*
X83311470Y-121512525D01*
X83320429Y-121504872D01*
X83340458Y-121490322D01*
X83344776Y-121482840D01*
X83356723Y-121467271D01*
X84393688Y-120430307D01*
X84440307Y-120408568D01*
X84482309Y-120417161D01*
X84561819Y-120459659D01*
X84595123Y-120477460D01*
X84595126Y-120477461D01*
X84595129Y-120477462D01*
X84601917Y-120479521D01*
X84793595Y-120537666D01*
X85000000Y-120557995D01*
X85206405Y-120537666D01*
X85404877Y-120477460D01*
X85587791Y-120379691D01*
X85748115Y-120248115D01*
X85879691Y-120087791D01*
X85977460Y-119904877D01*
X86037666Y-119706405D01*
X86057995Y-119500000D01*
X86037666Y-119293595D01*
X85977460Y-119095123D01*
X85879691Y-118912209D01*
X85879689Y-118912206D01*
X85748115Y-118751884D01*
X85587793Y-118620310D01*
X85404874Y-118522538D01*
X85404870Y-118522537D01*
X85206402Y-118462333D01*
X85206403Y-118462333D01*
X85000000Y-118442005D01*
X84793596Y-118462333D01*
X84595129Y-118522537D01*
X84595125Y-118522538D01*
X84412206Y-118620310D01*
X84251884Y-118751884D01*
X84120310Y-118912206D01*
X84022538Y-119095125D01*
X84022537Y-119095129D01*
X83962333Y-119293596D01*
X83942005Y-119499999D01*
X83962333Y-119706403D01*
X83990676Y-119799836D01*
X84022540Y-119904877D01*
X84045766Y-119948329D01*
X84082838Y-120017688D01*
X84090108Y-120068612D01*
X84069691Y-120106311D01*
X83093529Y-121082474D01*
X83046909Y-121104214D01*
X83040355Y-121104500D01*
X81407350Y-121104500D01*
X81359012Y-121086907D01*
X81333292Y-121042358D01*
X81342225Y-120991700D01*
X81346209Y-120986216D01*
X81348456Y-120982323D01*
X81348458Y-120982322D01*
X81352776Y-120974840D01*
X81364723Y-120959271D01*
X81893689Y-120430305D01*
X81940308Y-120408566D01*
X81982308Y-120417159D01*
X82095123Y-120477460D01*
X82293595Y-120537666D01*
X82500000Y-120557995D01*
X82706405Y-120537666D01*
X82904877Y-120477460D01*
X83087791Y-120379691D01*
X83248115Y-120248115D01*
X83379691Y-120087791D01*
X83477460Y-119904877D01*
X83537666Y-119706405D01*
X83557995Y-119500000D01*
X83537666Y-119293595D01*
X83477460Y-119095123D01*
X83379691Y-118912209D01*
X83379689Y-118912206D01*
X83248115Y-118751884D01*
X83087793Y-118620310D01*
X82904874Y-118522538D01*
X82904870Y-118522537D01*
X82706402Y-118462333D01*
X82706403Y-118462333D01*
X82500000Y-118442005D01*
X82293596Y-118462333D01*
X82095129Y-118522537D01*
X82095125Y-118522538D01*
X81912206Y-118620310D01*
X81751884Y-118751884D01*
X81620310Y-118912206D01*
X81522538Y-119095125D01*
X81522537Y-119095129D01*
X81462333Y-119293596D01*
X81442005Y-119499999D01*
X81462333Y-119706403D01*
X81522537Y-119904870D01*
X81522538Y-119904874D01*
X81582838Y-120017688D01*
X81590108Y-120068612D01*
X81569691Y-120106311D01*
X81101529Y-120574474D01*
X81054909Y-120596214D01*
X81048355Y-120596500D01*
X80540760Y-120596500D01*
X80492422Y-120578907D01*
X80466702Y-120534358D01*
X80475635Y-120483700D01*
X80501172Y-120457364D01*
X80652299Y-120363788D01*
X80652301Y-120363787D01*
X80668977Y-120348583D01*
X80668978Y-120348583D01*
X80315344Y-119994949D01*
X80293604Y-119948329D01*
X80306918Y-119898642D01*
X80319267Y-119884948D01*
X80381761Y-119830798D01*
X80381765Y-119830790D01*
X80385285Y-119826731D01*
X80386196Y-119827520D01*
X80422569Y-119799836D01*
X80473951Y-119802282D01*
X80498075Y-119818470D01*
X80846773Y-120167168D01*
X80920287Y-120069821D01*
X81009325Y-119891010D01*
X81009326Y-119891009D01*
X81063985Y-119698902D01*
X81063986Y-119698894D01*
X81082417Y-119500002D01*
X81082417Y-119499997D01*
X81063986Y-119301105D01*
X81063985Y-119301097D01*
X81009326Y-119108990D01*
X81009325Y-119108989D01*
X80920290Y-118930182D01*
X80846773Y-118832831D01*
X80498075Y-119181529D01*
X80451455Y-119203268D01*
X80401768Y-119189954D01*
X80385530Y-119173060D01*
X80385288Y-119173271D01*
X80381765Y-119169206D01*
X80381761Y-119169203D01*
X80381761Y-119169202D01*
X80319271Y-119115055D01*
X80294262Y-119070105D01*
X80303997Y-119019595D01*
X80315343Y-119005048D01*
X80668977Y-118651414D01*
X80652304Y-118636215D01*
X80652297Y-118636210D01*
X80482478Y-118531061D01*
X80296217Y-118458904D01*
X80099869Y-118422200D01*
X79900131Y-118422200D01*
X79703782Y-118458904D01*
X79517522Y-118531061D01*
X79517521Y-118531061D01*
X79347697Y-118636213D01*
X79347695Y-118636215D01*
X79331021Y-118651414D01*
X79684655Y-119005048D01*
X79706395Y-119051669D01*
X79693081Y-119101356D01*
X79680727Y-119115055D01*
X79618242Y-119169198D01*
X79614720Y-119173264D01*
X79613810Y-119172476D01*
X79577427Y-119200165D01*
X79526045Y-119197717D01*
X79501925Y-119181530D01*
X79153225Y-118832830D01*
X79153224Y-118832830D01*
X79079710Y-118930181D01*
X79079708Y-118930183D01*
X78990674Y-119108989D01*
X78990673Y-119108990D01*
X78936014Y-119301097D01*
X78936013Y-119301105D01*
X78917583Y-119499997D01*
X78917583Y-119500002D01*
X78936013Y-119698894D01*
X78936014Y-119698902D01*
X78990673Y-119891009D01*
X78990674Y-119891010D01*
X79079709Y-120069817D01*
X79153224Y-120167168D01*
X79501923Y-119818469D01*
X79548544Y-119796729D01*
X79598231Y-119810043D01*
X79614468Y-119826939D01*
X79614712Y-119826729D01*
X79618234Y-119830793D01*
X79618238Y-119830796D01*
X79618239Y-119830798D01*
X79680726Y-119884943D01*
X79705736Y-119929893D01*
X79696002Y-119980403D01*
X79684655Y-119994949D01*
X79331020Y-120348583D01*
X79331021Y-120348584D01*
X79347695Y-120363785D01*
X79347702Y-120363789D01*
X79498828Y-120457364D01*
X79530664Y-120497769D01*
X79529079Y-120549184D01*
X79494816Y-120587552D01*
X79459240Y-120596500D01*
X77982384Y-120596500D01*
X77934046Y-120578907D01*
X77908326Y-120534358D01*
X77917259Y-120483700D01*
X77946933Y-120454980D01*
X78087791Y-120379691D01*
X78248115Y-120248115D01*
X78379691Y-120087791D01*
X78477460Y-119904877D01*
X78537666Y-119706405D01*
X78557995Y-119500000D01*
X78537666Y-119293595D01*
X78477460Y-119095123D01*
X78379691Y-118912209D01*
X78379689Y-118912206D01*
X78248115Y-118751884D01*
X78087793Y-118620310D01*
X77904874Y-118522538D01*
X77904870Y-118522537D01*
X77706402Y-118462333D01*
X77706403Y-118462333D01*
X77522548Y-118444225D01*
X77500000Y-118442005D01*
X77499999Y-118442005D01*
X77293596Y-118462333D01*
X77095129Y-118522537D01*
X77095121Y-118522540D01*
X76982309Y-118582838D01*
X76931385Y-118590107D01*
X76893687Y-118569691D01*
X76445521Y-118121525D01*
X75944514Y-117620517D01*
X75943178Y-117619109D01*
X75915269Y-117588113D01*
X75892658Y-117578045D01*
X75882292Y-117572417D01*
X75861536Y-117558939D01*
X75861533Y-117558938D01*
X75853001Y-117557586D01*
X75834187Y-117552012D01*
X75826298Y-117548500D01*
X75826297Y-117548500D01*
X75801546Y-117548500D01*
X75789783Y-117547574D01*
X75774489Y-117545151D01*
X75765343Y-117543703D01*
X75765341Y-117543703D01*
X75757000Y-117545938D01*
X75737539Y-117548500D01*
X65905399Y-117548500D01*
X65857061Y-117530907D01*
X65831341Y-117486358D01*
X65838396Y-117439159D01*
X65885808Y-117346109D01*
X65885808Y-117346108D01*
X65885808Y-117346107D01*
X65885809Y-117346106D01*
X65905972Y-117218800D01*
X65885809Y-117091494D01*
X65885808Y-117091492D01*
X65885808Y-117091491D01*
X65885807Y-117091490D01*
X65877222Y-117074639D01*
X65870954Y-117023583D01*
X65898970Y-116980442D01*
X65944226Y-116965300D01*
X66009433Y-116965300D01*
X66057771Y-116982893D01*
X66070945Y-116999455D01*
X66071627Y-116998961D01*
X66075108Y-117003752D01*
X66166247Y-117094891D01*
X66166249Y-117094892D01*
X66281092Y-117153408D01*
X66281094Y-117153409D01*
X66378887Y-117168897D01*
X66408399Y-117173572D01*
X66408400Y-117173572D01*
X66408401Y-117173572D01*
X66428564Y-117170378D01*
X66535706Y-117153409D01*
X66650551Y-117094892D01*
X66741692Y-117003751D01*
X66800209Y-116888906D01*
X66820372Y-116761600D01*
X66800209Y-116634294D01*
X66800208Y-116634292D01*
X66800208Y-116634291D01*
X66800208Y-116634290D01*
X66776846Y-116588441D01*
X66770576Y-116537384D01*
X66798592Y-116494243D01*
X66843849Y-116479100D01*
X67043309Y-116479100D01*
X67091647Y-116496693D01*
X67096472Y-116501115D01*
X67182249Y-116586892D01*
X67297092Y-116645408D01*
X67297094Y-116645409D01*
X67394887Y-116660897D01*
X67424399Y-116665572D01*
X67424400Y-116665572D01*
X67424401Y-116665572D01*
X67444563Y-116662378D01*
X67551706Y-116645409D01*
X67666551Y-116586892D01*
X67757692Y-116495751D01*
X67816209Y-116380906D01*
X67836372Y-116253600D01*
X67816209Y-116126294D01*
X67816208Y-116126292D01*
X67816208Y-116126291D01*
X67796922Y-116088441D01*
X67790652Y-116037385D01*
X67818668Y-115994243D01*
X67863925Y-115979100D01*
X68016508Y-115979100D01*
X68064846Y-115996693D01*
X68069682Y-116001126D01*
X68147447Y-116078891D01*
X68147449Y-116078892D01*
X68262292Y-116137408D01*
X68262294Y-116137409D01*
X68360087Y-116152897D01*
X68389599Y-116157572D01*
X68389600Y-116157572D01*
X68389601Y-116157572D01*
X68409763Y-116154378D01*
X68516906Y-116137409D01*
X68631751Y-116078892D01*
X68722892Y-115987751D01*
X68781409Y-115872906D01*
X68801572Y-115745600D01*
X68781409Y-115618294D01*
X68781408Y-115618292D01*
X68766198Y-115588440D01*
X68759929Y-115537384D01*
X68787946Y-115494243D01*
X68833202Y-115479100D01*
X74898009Y-115479100D01*
X74946347Y-115496693D01*
X74965012Y-115520159D01*
X74970306Y-115530549D01*
X74970308Y-115530552D01*
X75061447Y-115621691D01*
X75061449Y-115621692D01*
X75176292Y-115680208D01*
X75176294Y-115680209D01*
X75274087Y-115695697D01*
X75303599Y-115700372D01*
X75303600Y-115700372D01*
X75303601Y-115700372D01*
X75323764Y-115697178D01*
X75430906Y-115680209D01*
X75545751Y-115621692D01*
X75636892Y-115530551D01*
X75695409Y-115415706D01*
X75715572Y-115288400D01*
X75695409Y-115161094D01*
X75695408Y-115161092D01*
X75695408Y-115161091D01*
X75695408Y-115161090D01*
X75660938Y-115093441D01*
X75654668Y-115042384D01*
X75682684Y-114999243D01*
X75727941Y-114984100D01*
X75942109Y-114984100D01*
X75990447Y-115001693D01*
X75995272Y-115006115D01*
X76052049Y-115062892D01*
X76166892Y-115121408D01*
X76166894Y-115121409D01*
X76264687Y-115136897D01*
X76294199Y-115141572D01*
X76294200Y-115141572D01*
X76294201Y-115141572D01*
X76314364Y-115138378D01*
X76421506Y-115121409D01*
X76536351Y-115062892D01*
X76627492Y-114971751D01*
X76686009Y-114856906D01*
X76706172Y-114729600D01*
X76686009Y-114602294D01*
X76644039Y-114519923D01*
X76627491Y-114487447D01*
X76536352Y-114396308D01*
X76421506Y-114337791D01*
X76421508Y-114337791D01*
X76294201Y-114317628D01*
X76294199Y-114317628D01*
X76166892Y-114337791D01*
X76052047Y-114396308D01*
X75960908Y-114487447D01*
X75957427Y-114492239D01*
X75955671Y-114490963D01*
X75924614Y-114519923D01*
X75895233Y-114525900D01*
X61321426Y-114525900D01*
X61273088Y-114508307D01*
X61247368Y-114463758D01*
X61254422Y-114416561D01*
X61263007Y-114399709D01*
X61263008Y-114399708D01*
X61263008Y-114399707D01*
X61263009Y-114399706D01*
X61283172Y-114272400D01*
X61263009Y-114145094D01*
X61204492Y-114030249D01*
X61204491Y-114030247D01*
X61113352Y-113939108D01*
X60998506Y-113880591D01*
X60998508Y-113880591D01*
X60871201Y-113860428D01*
X60871199Y-113860428D01*
X60743892Y-113880591D01*
X60629049Y-113939107D01*
X60609399Y-113958758D01*
X60569282Y-113998874D01*
X60522664Y-114020614D01*
X60516109Y-114020900D01*
X58424297Y-114020900D01*
X58375959Y-114003307D01*
X58350239Y-113958758D01*
X58357293Y-113911560D01*
X58367408Y-113891707D01*
X58367409Y-113891706D01*
X58387572Y-113764400D01*
X58367409Y-113637094D01*
X58367408Y-113637092D01*
X58342619Y-113588440D01*
X58336350Y-113537383D01*
X58364367Y-113494242D01*
X58409623Y-113479100D01*
X63032508Y-113479100D01*
X63080846Y-113496693D01*
X63085682Y-113501126D01*
X63174247Y-113589691D01*
X63174249Y-113589692D01*
X63289092Y-113648208D01*
X63289094Y-113648209D01*
X63386887Y-113663697D01*
X63416399Y-113668372D01*
X63416400Y-113668372D01*
X63416401Y-113668372D01*
X63436564Y-113665178D01*
X63543706Y-113648209D01*
X63658551Y-113589692D01*
X63749692Y-113498551D01*
X63808209Y-113383706D01*
X63828372Y-113256400D01*
X63808209Y-113129094D01*
X63808208Y-113129092D01*
X63808208Y-113129091D01*
X63808207Y-113129090D01*
X63799622Y-113112239D01*
X63793354Y-113061183D01*
X63821370Y-113018042D01*
X63866626Y-113002900D01*
X64080309Y-113002900D01*
X64128647Y-113020493D01*
X64133472Y-113024915D01*
X64190249Y-113081692D01*
X64305092Y-113140208D01*
X64305094Y-113140209D01*
X64402887Y-113155697D01*
X64432399Y-113160372D01*
X64432400Y-113160372D01*
X64432401Y-113160372D01*
X64452563Y-113157178D01*
X64559706Y-113140209D01*
X64674551Y-113081692D01*
X64765692Y-112990551D01*
X64824209Y-112875706D01*
X64844372Y-112748400D01*
X64824209Y-112621094D01*
X64765692Y-112506249D01*
X64765691Y-112506247D01*
X64674552Y-112415108D01*
X64559706Y-112356591D01*
X64559708Y-112356591D01*
X64432401Y-112336428D01*
X64432396Y-112336428D01*
X64394716Y-112342395D01*
X64344221Y-112332579D01*
X64311850Y-112292602D01*
X64308680Y-112279885D01*
X64304310Y-112252293D01*
X64290309Y-112163894D01*
X64231792Y-112049049D01*
X64231791Y-112049047D01*
X64140652Y-111957908D01*
X64025806Y-111899391D01*
X64025808Y-111899391D01*
X63898501Y-111879228D01*
X63898499Y-111879228D01*
X63771192Y-111899391D01*
X63656349Y-111957907D01*
X63639706Y-111974551D01*
X63615382Y-111998874D01*
X63568764Y-112020614D01*
X63562209Y-112020900D01*
X57723478Y-112020900D01*
X57675140Y-112003307D01*
X57649420Y-111958758D01*
X57649723Y-111931028D01*
X57652900Y-111915057D01*
X57652899Y-111584944D01*
X57644028Y-111540342D01*
X57644027Y-111540340D01*
X57641193Y-111533497D01*
X57642799Y-111532831D01*
X57632760Y-111491819D01*
X57641872Y-111466782D01*
X57641193Y-111466501D01*
X57644025Y-111459661D01*
X57644028Y-111459658D01*
X57652900Y-111415057D01*
X57652899Y-111084944D01*
X57644028Y-111040342D01*
X57644027Y-111040340D01*
X57641193Y-111033497D01*
X57642799Y-111032831D01*
X57632760Y-110991819D01*
X57641872Y-110966782D01*
X57641193Y-110966501D01*
X57644025Y-110959661D01*
X57644028Y-110959658D01*
X57652900Y-110915057D01*
X57652899Y-110584944D01*
X57649721Y-110568970D01*
X57657548Y-110518129D01*
X57696223Y-110484213D01*
X57723477Y-110479100D01*
X65866756Y-110479100D01*
X65915094Y-110496693D01*
X65919930Y-110501126D01*
X68945554Y-113526750D01*
X68946908Y-113528175D01*
X68974829Y-113559185D01*
X68997433Y-113569249D01*
X69007801Y-113574879D01*
X69028560Y-113588360D01*
X69028563Y-113588361D01*
X69037092Y-113589712D01*
X69055915Y-113595287D01*
X69063802Y-113598799D01*
X69088552Y-113598799D01*
X69100315Y-113599724D01*
X69124758Y-113603596D01*
X69129898Y-113602218D01*
X69133101Y-113601361D01*
X69152562Y-113598799D01*
X81987308Y-113598799D01*
X82035646Y-113616392D01*
X82040482Y-113620825D01*
X82122647Y-113702990D01*
X82122649Y-113702991D01*
X82237492Y-113761507D01*
X82237494Y-113761508D01*
X82335287Y-113776996D01*
X82364799Y-113781671D01*
X82364800Y-113781671D01*
X82364801Y-113781671D01*
X82384964Y-113778477D01*
X82492106Y-113761508D01*
X82606951Y-113702991D01*
X82698092Y-113611850D01*
X82756609Y-113497005D01*
X82776772Y-113369699D01*
X82756609Y-113242393D01*
X82756608Y-113242391D01*
X82756608Y-113242390D01*
X82748277Y-113226040D01*
X82742007Y-113174984D01*
X82770022Y-113131842D01*
X82815280Y-113116699D01*
X83003308Y-113116699D01*
X83051646Y-113134292D01*
X83056482Y-113138725D01*
X83138647Y-113220890D01*
X83138649Y-113220891D01*
X83253492Y-113279407D01*
X83253494Y-113279408D01*
X83351287Y-113294896D01*
X83380799Y-113299571D01*
X83380800Y-113299571D01*
X83380801Y-113299571D01*
X83400964Y-113296377D01*
X83508106Y-113279408D01*
X83622951Y-113220891D01*
X83714092Y-113129750D01*
X83772609Y-113014905D01*
X83792772Y-112887599D01*
X83772609Y-112760293D01*
X83766549Y-112748399D01*
X83751080Y-112718039D01*
X83744811Y-112666982D01*
X83772828Y-112623841D01*
X83818084Y-112608699D01*
X89810508Y-112608699D01*
X89858846Y-112626292D01*
X89863682Y-112630725D01*
X89945847Y-112712890D01*
X89945849Y-112712891D01*
X90060692Y-112771407D01*
X90060694Y-112771408D01*
X90158487Y-112786896D01*
X90187999Y-112791571D01*
X90188000Y-112791571D01*
X90188001Y-112791571D01*
X90208163Y-112788377D01*
X90315306Y-112771408D01*
X90430151Y-112712891D01*
X90521292Y-112621750D01*
X90579809Y-112506905D01*
X90599972Y-112379599D01*
X90579809Y-112252293D01*
X90521292Y-112137448D01*
X90521291Y-112137446D01*
X90430152Y-112046307D01*
X90315306Y-111987790D01*
X90315308Y-111987790D01*
X90188001Y-111967627D01*
X90187999Y-111967627D01*
X90060692Y-111987790D01*
X89945847Y-112046307D01*
X89863682Y-112128473D01*
X89817062Y-112150213D01*
X89810508Y-112150499D01*
X83310084Y-112150499D01*
X83261746Y-112132906D01*
X83236026Y-112088357D01*
X83243080Y-112041159D01*
X83264608Y-111998906D01*
X83264609Y-111998905D01*
X83284772Y-111871599D01*
X83264609Y-111744293D01*
X83206092Y-111629448D01*
X83206091Y-111629446D01*
X83114952Y-111538307D01*
X83000106Y-111479790D01*
X83000108Y-111479790D01*
X82872801Y-111459627D01*
X82872799Y-111459627D01*
X82745492Y-111479790D01*
X82630647Y-111538307D01*
X82548482Y-111620473D01*
X82501862Y-111642213D01*
X82495308Y-111642499D01*
X82105792Y-111642499D01*
X82057454Y-111624906D01*
X82031734Y-111580357D01*
X82040667Y-111529699D01*
X82052618Y-111514125D01*
X82062591Y-111504151D01*
X82063022Y-111503307D01*
X82121109Y-111389305D01*
X82141272Y-111261999D01*
X82121109Y-111134693D01*
X82079139Y-111052322D01*
X82062591Y-111019846D01*
X81971452Y-110928707D01*
X81856606Y-110870190D01*
X81856608Y-110870190D01*
X81729301Y-110850027D01*
X81729299Y-110850027D01*
X81601992Y-110870190D01*
X81487147Y-110928707D01*
X81396008Y-111019846D01*
X81392527Y-111024638D01*
X81390771Y-111023362D01*
X81359714Y-111052322D01*
X81330333Y-111058299D01*
X79767026Y-111058299D01*
X79718688Y-111040706D01*
X79692968Y-110996157D01*
X79700022Y-110948960D01*
X79706083Y-110937062D01*
X79708609Y-110932105D01*
X79728772Y-110804799D01*
X79708609Y-110677493D01*
X79661453Y-110584944D01*
X79650091Y-110562646D01*
X79558952Y-110471507D01*
X79444106Y-110412990D01*
X79444108Y-110412990D01*
X79316801Y-110392827D01*
X79316799Y-110392827D01*
X79189492Y-110412990D01*
X79074647Y-110471507D01*
X78992482Y-110553673D01*
X78945862Y-110575413D01*
X78939308Y-110575699D01*
X72877271Y-110575699D01*
X72828933Y-110558106D01*
X72803213Y-110513557D01*
X72812146Y-110462899D01*
X72851551Y-110429834D01*
X72867846Y-110425892D01*
X73155812Y-110389513D01*
X73155836Y-110389509D01*
X73451706Y-110313543D01*
X73451711Y-110313541D01*
X73735746Y-110201083D01*
X73735762Y-110201076D01*
X74003447Y-110053915D01*
X74003448Y-110053914D01*
X74250597Y-109874351D01*
X74324935Y-109804541D01*
X74324936Y-109804540D01*
X73723469Y-109203074D01*
X73701729Y-109156454D01*
X73715043Y-109106767D01*
X73725706Y-109094579D01*
X73801998Y-109024346D01*
X73849477Y-109004552D01*
X73898572Y-109019908D01*
X73906104Y-109026499D01*
X74505679Y-109626075D01*
X74668016Y-109429844D01*
X74668022Y-109429835D01*
X74831698Y-109171924D01*
X74831707Y-109171907D01*
X74961770Y-108895507D01*
X74961779Y-108895485D01*
X75056173Y-108604969D01*
X75056174Y-108604965D01*
X75113416Y-108304892D01*
X75132599Y-107999999D01*
X84867400Y-107999999D01*
X84886583Y-108304892D01*
X84943825Y-108604965D01*
X84943826Y-108604969D01*
X85038220Y-108895485D01*
X85038229Y-108895507D01*
X85168292Y-109171907D01*
X85168301Y-109171924D01*
X85331977Y-109429835D01*
X85331983Y-109429844D01*
X85494319Y-109626074D01*
X86093894Y-109026498D01*
X86140515Y-109004758D01*
X86190202Y-109018072D01*
X86197996Y-109024342D01*
X86205596Y-109031338D01*
X86274287Y-109094574D01*
X86297934Y-109140257D01*
X86286685Y-109190451D01*
X86276529Y-109203074D01*
X85675062Y-109804540D01*
X85675063Y-109804541D01*
X85749399Y-109874348D01*
X85749406Y-109874354D01*
X85996551Y-110053914D01*
X85996552Y-110053915D01*
X86264237Y-110201076D01*
X86264253Y-110201083D01*
X86548288Y-110313541D01*
X86548293Y-110313543D01*
X86844163Y-110389509D01*
X86844187Y-110389513D01*
X87147258Y-110427800D01*
X87452742Y-110427800D01*
X87755812Y-110389513D01*
X87755836Y-110389509D01*
X88051706Y-110313543D01*
X88051711Y-110313541D01*
X88335746Y-110201083D01*
X88335762Y-110201076D01*
X88603447Y-110053915D01*
X88603448Y-110053914D01*
X88850597Y-109874351D01*
X88924935Y-109804541D01*
X88924936Y-109804540D01*
X88323469Y-109203074D01*
X88301729Y-109156454D01*
X88315043Y-109106767D01*
X88325706Y-109094579D01*
X88401998Y-109024346D01*
X88449477Y-109004552D01*
X88498572Y-109019908D01*
X88506104Y-109026499D01*
X89105679Y-109626075D01*
X89268016Y-109429844D01*
X89268022Y-109429835D01*
X89431698Y-109171924D01*
X89431707Y-109171907D01*
X89561770Y-108895507D01*
X89561779Y-108895485D01*
X89656173Y-108604969D01*
X89656174Y-108604965D01*
X89713416Y-108304892D01*
X89732599Y-107999999D01*
X89713416Y-107695107D01*
X89656174Y-107395034D01*
X89656173Y-107395030D01*
X89561779Y-107104514D01*
X89561770Y-107104492D01*
X89431707Y-106828092D01*
X89431698Y-106828075D01*
X89268022Y-106570164D01*
X89268016Y-106570155D01*
X89105678Y-106373923D01*
X88506103Y-106973500D01*
X88459483Y-106995240D01*
X88409796Y-106981926D01*
X88401997Y-106975652D01*
X88399659Y-106973500D01*
X88380911Y-106956241D01*
X88325711Y-106905424D01*
X88302064Y-106859741D01*
X88313313Y-106809547D01*
X88323469Y-106796923D01*
X88924935Y-106195457D01*
X88850600Y-106125651D01*
X88850593Y-106125645D01*
X88603448Y-105946085D01*
X88603447Y-105946084D01*
X88335762Y-105798923D01*
X88335746Y-105798916D01*
X88051711Y-105686458D01*
X88051706Y-105686456D01*
X87755836Y-105610490D01*
X87755812Y-105610486D01*
X87452742Y-105572200D01*
X87147258Y-105572200D01*
X86844187Y-105610486D01*
X86844163Y-105610490D01*
X86548293Y-105686456D01*
X86548288Y-105686458D01*
X86264253Y-105798916D01*
X86264237Y-105798923D01*
X85996552Y-105946084D01*
X85996551Y-105946085D01*
X85749407Y-106125644D01*
X85675062Y-106195458D01*
X86276530Y-106796925D01*
X86298270Y-106843545D01*
X86284956Y-106893232D01*
X86274288Y-106905425D01*
X86198001Y-106975652D01*
X86150522Y-106995447D01*
X86101427Y-106980091D01*
X86093895Y-106973500D01*
X85494319Y-106373923D01*
X85331983Y-106570155D01*
X85331977Y-106570164D01*
X85168301Y-106828075D01*
X85168292Y-106828092D01*
X85038229Y-107104492D01*
X85038220Y-107104514D01*
X84943826Y-107395030D01*
X84943825Y-107395034D01*
X84886583Y-107695107D01*
X84867400Y-107999999D01*
X75132599Y-107999999D01*
X75113416Y-107695107D01*
X75056174Y-107395034D01*
X75056173Y-107395030D01*
X74961779Y-107104514D01*
X74961770Y-107104492D01*
X74831707Y-106828092D01*
X74831698Y-106828075D01*
X74668022Y-106570164D01*
X74668016Y-106570155D01*
X74505678Y-106373923D01*
X73906103Y-106973500D01*
X73859483Y-106995240D01*
X73809796Y-106981926D01*
X73801997Y-106975652D01*
X73799659Y-106973500D01*
X73780911Y-106956241D01*
X73725711Y-106905424D01*
X73702064Y-106859741D01*
X73713313Y-106809547D01*
X73723469Y-106796923D01*
X74324935Y-106195457D01*
X74250600Y-106125651D01*
X74250593Y-106125645D01*
X74003448Y-105946085D01*
X74003447Y-105946084D01*
X73735762Y-105798923D01*
X73735746Y-105798916D01*
X73500610Y-105705819D01*
X73462143Y-105671667D01*
X73454629Y-105620779D01*
X73481583Y-105576966D01*
X73528293Y-105560700D01*
X76399308Y-105560700D01*
X76447646Y-105578293D01*
X76452482Y-105582726D01*
X76534647Y-105664891D01*
X76534649Y-105664892D01*
X76649492Y-105723408D01*
X76649494Y-105723409D01*
X76747287Y-105738897D01*
X76776799Y-105743572D01*
X76776800Y-105743572D01*
X76776801Y-105743572D01*
X76796963Y-105740378D01*
X76904106Y-105723409D01*
X77018951Y-105664892D01*
X77110092Y-105573751D01*
X77168609Y-105458906D01*
X77188772Y-105331600D01*
X77168609Y-105204294D01*
X77110092Y-105089449D01*
X77110091Y-105089447D01*
X77018952Y-104998308D01*
X76904106Y-104939791D01*
X76904108Y-104939791D01*
X76776801Y-104919628D01*
X76776799Y-104919628D01*
X76649492Y-104939791D01*
X76534647Y-104998308D01*
X76452482Y-105080474D01*
X76405862Y-105102214D01*
X76399308Y-105102500D01*
X76162192Y-105102500D01*
X76113854Y-105084907D01*
X76088134Y-105040358D01*
X76097067Y-104989700D01*
X76109018Y-104974126D01*
X76118991Y-104964152D01*
X76121281Y-104959659D01*
X76177509Y-104849306D01*
X76197672Y-104722000D01*
X76177509Y-104594694D01*
X76135940Y-104513110D01*
X76118991Y-104479847D01*
X76027852Y-104388708D01*
X75913006Y-104330191D01*
X75913008Y-104330191D01*
X75785701Y-104310028D01*
X75785699Y-104310028D01*
X75658392Y-104330191D01*
X75543547Y-104388708D01*
X75461382Y-104470874D01*
X75414762Y-104492614D01*
X75408208Y-104492900D01*
X70022195Y-104492900D01*
X70020227Y-104492848D01*
X69978561Y-104490664D01*
X69978559Y-104490664D01*
X69955453Y-104499534D01*
X69944144Y-104502884D01*
X69919937Y-104508030D01*
X69919935Y-104508031D01*
X69912944Y-104513110D01*
X69895701Y-104522472D01*
X69887634Y-104525568D01*
X69870133Y-104543070D01*
X69861163Y-104550731D01*
X69841143Y-104565277D01*
X69841140Y-104565280D01*
X69836822Y-104572759D01*
X69824873Y-104588329D01*
X69356326Y-105056875D01*
X69309706Y-105078615D01*
X69260019Y-105065301D01*
X69236149Y-105037842D01*
X69184792Y-104937049D01*
X69184791Y-104937047D01*
X69093652Y-104845908D01*
X68978806Y-104787391D01*
X68978808Y-104787391D01*
X68851501Y-104767228D01*
X68851499Y-104767228D01*
X68724192Y-104787391D01*
X68609347Y-104845908D01*
X68518208Y-104937047D01*
X68506688Y-104959658D01*
X68496404Y-104979840D01*
X68458784Y-105014922D01*
X68429401Y-105020900D01*
X68313393Y-105020900D01*
X68265055Y-105003307D01*
X68239335Y-104958758D01*
X68246389Y-104911560D01*
X68278108Y-104849307D01*
X68278109Y-104849306D01*
X68298272Y-104722000D01*
X68278109Y-104594694D01*
X68236540Y-104513110D01*
X68219591Y-104479847D01*
X68128452Y-104388708D01*
X68013606Y-104330191D01*
X68013608Y-104330191D01*
X67886301Y-104310028D01*
X67886299Y-104310028D01*
X67758992Y-104330191D01*
X67644147Y-104388708D01*
X67553008Y-104479847D01*
X67549527Y-104484639D01*
X67548594Y-104483961D01*
X67515387Y-104514924D01*
X67486008Y-104520900D01*
X67370001Y-104520900D01*
X67321663Y-104503307D01*
X67295943Y-104458758D01*
X67302997Y-104411560D01*
X67312908Y-104392107D01*
X67312909Y-104392106D01*
X67333072Y-104264800D01*
X67312909Y-104137494D01*
X67254392Y-104022649D01*
X67254391Y-104022647D01*
X67163252Y-103931508D01*
X67048406Y-103872991D01*
X67048408Y-103872991D01*
X66921101Y-103852828D01*
X66921099Y-103852828D01*
X66793792Y-103872991D01*
X66678949Y-103931507D01*
X66651699Y-103958758D01*
X66611582Y-103998874D01*
X66564964Y-104020614D01*
X66558409Y-104020900D01*
X66374840Y-104020900D01*
X66326502Y-104003307D01*
X66300782Y-103958758D01*
X66307837Y-103911559D01*
X66347708Y-103833309D01*
X66347708Y-103833308D01*
X66347708Y-103833307D01*
X66347709Y-103833306D01*
X66367872Y-103706000D01*
X66347709Y-103578694D01*
X66328168Y-103540342D01*
X66289191Y-103463847D01*
X66198052Y-103372708D01*
X66083206Y-103314191D01*
X66083208Y-103314191D01*
X65955901Y-103294028D01*
X65955899Y-103294028D01*
X65828592Y-103314191D01*
X65713747Y-103372708D01*
X65622607Y-103463848D01*
X65614459Y-103479841D01*
X65576838Y-103514922D01*
X65547456Y-103520900D01*
X65355248Y-103520900D01*
X65306910Y-103503307D01*
X65281190Y-103458758D01*
X65288245Y-103411559D01*
X65306308Y-103376109D01*
X65306308Y-103376108D01*
X65306308Y-103376107D01*
X65306309Y-103376106D01*
X65326472Y-103248800D01*
X65306309Y-103121494D01*
X65247792Y-103006649D01*
X65247791Y-103006647D01*
X65156652Y-102915508D01*
X65041806Y-102856991D01*
X65041808Y-102856991D01*
X64914501Y-102836828D01*
X64914499Y-102836828D01*
X64787192Y-102856991D01*
X64672347Y-102915508D01*
X64588982Y-102998874D01*
X64542362Y-103020614D01*
X64535808Y-103020900D01*
X58899572Y-103020900D01*
X58851234Y-103003307D01*
X58825514Y-102958758D01*
X58832569Y-102911560D01*
X58854707Y-102868112D01*
X58854708Y-102868108D01*
X58854708Y-102868107D01*
X58854709Y-102868106D01*
X58874872Y-102740800D01*
X58854709Y-102613494D01*
X58854708Y-102613492D01*
X58854708Y-102613491D01*
X58841944Y-102588441D01*
X58835674Y-102537385D01*
X58863690Y-102494243D01*
X58908947Y-102479100D01*
X59088509Y-102479100D01*
X59136847Y-102496693D01*
X59141672Y-102501115D01*
X59206649Y-102566092D01*
X59321492Y-102624608D01*
X59321494Y-102624609D01*
X59419287Y-102640097D01*
X59448799Y-102644772D01*
X59448800Y-102644772D01*
X59448801Y-102644772D01*
X59468964Y-102641578D01*
X59576106Y-102624609D01*
X59690951Y-102566092D01*
X59782092Y-102474951D01*
X59840609Y-102360106D01*
X59860772Y-102232800D01*
X59840609Y-102105494D01*
X59840608Y-102105492D01*
X59831920Y-102088440D01*
X59825651Y-102037383D01*
X59853668Y-101994242D01*
X59898924Y-101979100D01*
X60014931Y-101979100D01*
X60063269Y-101996693D01*
X60076582Y-102013429D01*
X60077227Y-102012961D01*
X60080708Y-102017752D01*
X60171847Y-102108891D01*
X60171849Y-102108892D01*
X60286692Y-102167408D01*
X60286694Y-102167409D01*
X60384487Y-102182897D01*
X60413999Y-102187572D01*
X60414000Y-102187572D01*
X60414001Y-102187572D01*
X60434163Y-102184378D01*
X60541306Y-102167409D01*
X60656151Y-102108892D01*
X60747292Y-102017751D01*
X60805809Y-101902906D01*
X60825972Y-101775600D01*
X60805809Y-101648294D01*
X60747292Y-101533449D01*
X60747291Y-101533447D01*
X60656152Y-101442308D01*
X60541306Y-101383791D01*
X60541308Y-101383791D01*
X60414001Y-101363628D01*
X60413999Y-101363628D01*
X60286692Y-101383791D01*
X60171849Y-101442307D01*
X60155399Y-101458758D01*
X60115282Y-101498874D01*
X60068664Y-101520614D01*
X60062109Y-101520900D01*
X57748866Y-101520900D01*
X57700528Y-101503307D01*
X57674808Y-101458758D01*
X57675111Y-101431028D01*
X57677800Y-101417510D01*
X57677800Y-101377000D01*
X56022201Y-101377000D01*
X56022201Y-101417508D01*
X56032515Y-101469371D01*
X56032517Y-101469376D01*
X56044163Y-101486805D01*
X56056390Y-101536770D01*
X56055392Y-101543255D01*
X56047100Y-101584941D01*
X56047100Y-101915055D01*
X56047101Y-101915057D01*
X56055972Y-101959659D01*
X56058807Y-101966504D01*
X56057201Y-101967169D01*
X56067238Y-102008188D01*
X56058128Y-102033216D01*
X56058807Y-102033498D01*
X56055972Y-102040342D01*
X56047100Y-102084942D01*
X56047100Y-102415055D01*
X56047101Y-102415057D01*
X56055972Y-102459659D01*
X56058807Y-102466504D01*
X56057201Y-102467169D01*
X56067238Y-102508188D01*
X56058128Y-102533216D01*
X56058807Y-102533498D01*
X56055972Y-102540342D01*
X56047100Y-102584942D01*
X56047100Y-102915055D01*
X56047101Y-102915057D01*
X56055972Y-102959659D01*
X56058807Y-102966504D01*
X56057201Y-102967169D01*
X56067238Y-103008188D01*
X56058128Y-103033216D01*
X56058807Y-103033498D01*
X56055972Y-103040342D01*
X56047100Y-103084942D01*
X56047100Y-103415055D01*
X56047101Y-103415057D01*
X56055972Y-103459659D01*
X56058807Y-103466504D01*
X56057201Y-103467169D01*
X56067238Y-103508188D01*
X56058128Y-103533216D01*
X56058807Y-103533498D01*
X56055972Y-103540342D01*
X56047100Y-103584942D01*
X56047100Y-103915055D01*
X56047101Y-103915057D01*
X56055972Y-103959659D01*
X56058807Y-103966504D01*
X56057201Y-103967169D01*
X56067238Y-104008188D01*
X56058128Y-104033216D01*
X56058807Y-104033498D01*
X56055972Y-104040342D01*
X56047100Y-104084942D01*
X56047100Y-104415055D01*
X56047101Y-104415057D01*
X56055972Y-104459659D01*
X56058807Y-104466504D01*
X56057201Y-104467169D01*
X56067238Y-104508188D01*
X56058128Y-104533216D01*
X56058807Y-104533498D01*
X56055972Y-104540342D01*
X56047100Y-104584942D01*
X56047100Y-104915055D01*
X56047101Y-104915057D01*
X56055972Y-104959659D01*
X56058807Y-104966504D01*
X56057201Y-104967169D01*
X56067238Y-105008188D01*
X56058128Y-105033216D01*
X56058807Y-105033498D01*
X56055972Y-105040342D01*
X56047100Y-105084942D01*
X56047100Y-105415055D01*
X56047101Y-105415057D01*
X56055972Y-105459659D01*
X56058807Y-105466504D01*
X56057201Y-105467169D01*
X56067238Y-105508188D01*
X56058128Y-105533216D01*
X56058807Y-105533498D01*
X56055972Y-105540342D01*
X56047100Y-105584942D01*
X56047100Y-105915055D01*
X56047101Y-105915057D01*
X56055972Y-105959659D01*
X56058807Y-105966504D01*
X56057201Y-105967169D01*
X56067238Y-106008188D01*
X56058128Y-106033216D01*
X56058807Y-106033498D01*
X56055972Y-106040342D01*
X56047100Y-106084942D01*
X56047100Y-106415055D01*
X56047101Y-106415057D01*
X56055972Y-106459659D01*
X56058807Y-106466504D01*
X56057201Y-106467169D01*
X56067238Y-106508188D01*
X56058128Y-106533216D01*
X56058807Y-106533498D01*
X56055972Y-106540342D01*
X56047100Y-106584942D01*
X56047100Y-106915055D01*
X56047101Y-106915057D01*
X56055972Y-106959659D01*
X56058807Y-106966504D01*
X56057201Y-106967169D01*
X56067238Y-107008188D01*
X56058128Y-107033216D01*
X56058807Y-107033498D01*
X56055972Y-107040342D01*
X56047100Y-107084942D01*
X56047100Y-107415055D01*
X56047101Y-107415057D01*
X56055972Y-107459659D01*
X56058807Y-107466504D01*
X56057201Y-107467169D01*
X56067238Y-107508188D01*
X56058128Y-107533216D01*
X56058807Y-107533498D01*
X56055972Y-107540342D01*
X56047100Y-107584942D01*
X56047100Y-107915055D01*
X56047101Y-107915057D01*
X56055972Y-107959659D01*
X56058807Y-107966504D01*
X56057201Y-107967169D01*
X56067238Y-108008188D01*
X56058128Y-108033216D01*
X56058807Y-108033498D01*
X56055972Y-108040342D01*
X56047100Y-108084942D01*
X56047100Y-108415055D01*
X56047101Y-108415057D01*
X56055972Y-108459659D01*
X56058807Y-108466504D01*
X56057201Y-108467169D01*
X56067238Y-108508188D01*
X56058128Y-108533216D01*
X56058807Y-108533498D01*
X56055972Y-108540342D01*
X56047100Y-108584942D01*
X56047100Y-108915055D01*
X56047101Y-108915057D01*
X56055972Y-108959659D01*
X56058807Y-108966504D01*
X56057201Y-108967169D01*
X56067238Y-109008188D01*
X56058128Y-109033216D01*
X56058807Y-109033498D01*
X56055972Y-109040342D01*
X56047100Y-109084942D01*
X56047100Y-109415055D01*
X56047101Y-109415057D01*
X56055972Y-109459659D01*
X56058807Y-109466504D01*
X56057201Y-109467169D01*
X56067238Y-109508188D01*
X56058128Y-109533216D01*
X56058807Y-109533498D01*
X56055972Y-109540342D01*
X56047100Y-109584942D01*
X56047100Y-109915055D01*
X56047101Y-109915057D01*
X56055972Y-109959659D01*
X56058807Y-109966504D01*
X56057201Y-109967169D01*
X56067238Y-110008188D01*
X56058128Y-110033216D01*
X56058807Y-110033498D01*
X56055972Y-110040342D01*
X56047100Y-110084942D01*
X56047100Y-110415055D01*
X56047101Y-110415057D01*
X56050278Y-110431030D01*
X56042452Y-110481871D01*
X56003777Y-110515787D01*
X55976523Y-110520900D01*
X55508045Y-110520900D01*
X55459707Y-110503307D01*
X55441043Y-110479843D01*
X55438192Y-110474249D01*
X55438190Y-110474246D01*
X55347052Y-110383108D01*
X55232206Y-110324591D01*
X55232208Y-110324591D01*
X55104901Y-110304428D01*
X55104899Y-110304428D01*
X54977592Y-110324591D01*
X54862747Y-110383108D01*
X54771608Y-110474247D01*
X54713091Y-110589092D01*
X54692928Y-110716399D01*
X54692928Y-110716400D01*
X54713091Y-110843707D01*
X54747664Y-110911560D01*
X54753933Y-110962616D01*
X54725916Y-111005757D01*
X54680660Y-111020900D01*
X54499291Y-111020900D01*
X54450953Y-111003307D01*
X54446127Y-110998884D01*
X54381851Y-110934608D01*
X54381850Y-110934607D01*
X54267006Y-110876091D01*
X54267008Y-110876091D01*
X54139701Y-110855928D01*
X54139699Y-110855928D01*
X54012392Y-110876091D01*
X53897547Y-110934608D01*
X53806408Y-111025747D01*
X53747891Y-111140592D01*
X53727728Y-111267899D01*
X53727728Y-111267900D01*
X53747891Y-111395208D01*
X53756223Y-111411559D01*
X53762493Y-111462615D01*
X53734478Y-111505757D01*
X53689220Y-111520900D01*
X53568377Y-111520900D01*
X53520039Y-111503307D01*
X53508844Y-111491300D01*
X53416652Y-111399108D01*
X53301806Y-111340591D01*
X53301808Y-111340591D01*
X53174501Y-111320428D01*
X53174499Y-111320428D01*
X53047192Y-111340591D01*
X52932347Y-111399108D01*
X52841208Y-111490247D01*
X52782691Y-111605092D01*
X52762528Y-111732399D01*
X52762528Y-111732400D01*
X52782691Y-111859707D01*
X52841208Y-111974552D01*
X52932347Y-112065691D01*
X52932349Y-112065692D01*
X53047192Y-112124208D01*
X53047194Y-112124209D01*
X53130783Y-112137448D01*
X53174499Y-112144372D01*
X53174500Y-112144372D01*
X53174501Y-112144372D01*
X53194664Y-112141178D01*
X53301806Y-112124209D01*
X53416651Y-112065692D01*
X53481217Y-112001125D01*
X53527836Y-111979386D01*
X53534391Y-111979100D01*
X55976522Y-111979100D01*
X56024860Y-111996693D01*
X56050580Y-112041242D01*
X56050277Y-112068972D01*
X56047100Y-112084942D01*
X56047100Y-112415055D01*
X56047101Y-112415057D01*
X56055972Y-112459659D01*
X56058807Y-112466504D01*
X56057201Y-112467169D01*
X56067238Y-112508188D01*
X56058128Y-112533216D01*
X56058807Y-112533498D01*
X56055972Y-112540342D01*
X56047100Y-112584942D01*
X56047100Y-112915055D01*
X56047101Y-112915057D01*
X56055972Y-112959659D01*
X56058807Y-112966504D01*
X56057201Y-112967169D01*
X56067238Y-113008188D01*
X56058128Y-113033216D01*
X56058807Y-113033498D01*
X56055972Y-113040342D01*
X56047100Y-113084942D01*
X56047100Y-113415055D01*
X56047101Y-113415057D01*
X56055972Y-113459659D01*
X56058807Y-113466504D01*
X56057201Y-113467169D01*
X56067238Y-113508188D01*
X56058128Y-113533216D01*
X56058807Y-113533498D01*
X56055972Y-113540342D01*
X56047100Y-113584942D01*
X56047100Y-113915055D01*
X56047101Y-113915057D01*
X56055972Y-113959659D01*
X56058807Y-113966504D01*
X56057201Y-113967169D01*
X56067238Y-114008188D01*
X56058128Y-114033216D01*
X56058807Y-114033498D01*
X56055972Y-114040342D01*
X56047100Y-114084942D01*
X56047100Y-114415055D01*
X56047101Y-114415057D01*
X56055972Y-114459659D01*
X56058807Y-114466504D01*
X56057201Y-114467169D01*
X56067238Y-114508188D01*
X56058128Y-114533216D01*
X56058807Y-114533498D01*
X56055972Y-114540342D01*
X56047100Y-114584942D01*
X56047100Y-114915055D01*
X56047101Y-114915057D01*
X56055972Y-114959659D01*
X56058807Y-114966504D01*
X56057201Y-114967169D01*
X56067238Y-115008188D01*
X56058128Y-115033216D01*
X56058807Y-115033498D01*
X56055972Y-115040342D01*
X56047100Y-115084942D01*
X56047100Y-115415055D01*
X56047101Y-115415057D01*
X56055972Y-115459659D01*
X56058807Y-115466504D01*
X56057201Y-115467169D01*
X56067238Y-115508188D01*
X56058128Y-115533216D01*
X56058807Y-115533498D01*
X56055972Y-115540342D01*
X56047100Y-115584942D01*
X56047100Y-115915055D01*
X56047101Y-115915057D01*
X56055972Y-115959659D01*
X56058807Y-115966504D01*
X56057201Y-115967169D01*
X56067238Y-116008188D01*
X56058128Y-116033216D01*
X56058807Y-116033498D01*
X56055972Y-116040342D01*
X56047100Y-116084942D01*
X56047100Y-116415055D01*
X56047101Y-116415057D01*
X56055972Y-116459659D01*
X56058807Y-116466504D01*
X56057201Y-116467169D01*
X56067238Y-116508188D01*
X56058128Y-116533216D01*
X56058807Y-116533498D01*
X56055972Y-116540342D01*
X56047100Y-116584942D01*
X56047100Y-116915055D01*
X56047101Y-116915057D01*
X56055972Y-116959659D01*
X56058807Y-116966504D01*
X56057201Y-116967169D01*
X56067238Y-117008188D01*
X56058128Y-117033216D01*
X56058807Y-117033498D01*
X56055972Y-117040342D01*
X56047100Y-117084942D01*
X56047100Y-117415055D01*
X56047101Y-117415057D01*
X56055768Y-117458630D01*
X56047943Y-117509471D01*
X56009268Y-117543387D01*
X55982013Y-117548500D01*
X55034709Y-117548500D01*
X54986371Y-117530907D01*
X54967705Y-117507440D01*
X54956091Y-117484647D01*
X54864952Y-117393508D01*
X54750106Y-117334991D01*
X54750108Y-117334991D01*
X54622801Y-117314828D01*
X54622799Y-117314828D01*
X54495492Y-117334991D01*
X54380647Y-117393508D01*
X54289508Y-117484647D01*
X54230991Y-117599492D01*
X54210828Y-117726799D01*
X54210828Y-117726800D01*
X54230991Y-117854107D01*
X54289508Y-117968952D01*
X54292985Y-117973737D01*
X54291964Y-117974478D01*
X54311022Y-118015346D01*
X54297708Y-118065033D01*
X54255571Y-118094538D01*
X54236108Y-118097100D01*
X52484944Y-118097100D01*
X52484942Y-118097101D01*
X52440340Y-118105972D01*
X52389767Y-118139764D01*
X52355972Y-118190342D01*
X52355971Y-118190343D01*
X52347100Y-118234942D01*
X52347100Y-120065055D01*
X52347101Y-120065057D01*
X52355972Y-120109659D01*
X52389764Y-120160232D01*
X52389765Y-120160232D01*
X52389766Y-120160234D01*
X52440342Y-120194028D01*
X52484943Y-120202900D01*
X54715056Y-120202899D01*
X54759658Y-120194028D01*
X54810234Y-120160234D01*
X54844028Y-120109658D01*
X54852900Y-120065057D01*
X54852899Y-118234944D01*
X54844028Y-118190342D01*
X54844027Y-118190340D01*
X54831432Y-118171490D01*
X54819205Y-118121525D01*
X54841956Y-118075389D01*
X54859819Y-118062707D01*
X54864949Y-118060093D01*
X54864948Y-118060093D01*
X54864951Y-118060092D01*
X54896317Y-118028726D01*
X54942937Y-118006986D01*
X54949491Y-118006700D01*
X75651556Y-118006700D01*
X75699894Y-118024293D01*
X75704730Y-118028726D01*
X75999470Y-118323466D01*
X76021210Y-118370086D01*
X76007896Y-118419773D01*
X75965759Y-118449278D01*
X75931626Y-118450395D01*
X75915059Y-118447100D01*
X74084944Y-118447100D01*
X74084942Y-118447101D01*
X74040340Y-118455972D01*
X73989767Y-118489764D01*
X73955972Y-118540342D01*
X73955971Y-118540343D01*
X73947100Y-118584942D01*
X73947100Y-119195700D01*
X73929507Y-119244038D01*
X73884958Y-119269758D01*
X73871900Y-119270900D01*
X57877063Y-119270900D01*
X57828725Y-119253307D01*
X57810060Y-119229841D01*
X57800892Y-119211848D01*
X57709752Y-119120708D01*
X57594906Y-119062191D01*
X57594908Y-119062191D01*
X57467601Y-119042028D01*
X57467599Y-119042028D01*
X57340292Y-119062191D01*
X57225447Y-119120708D01*
X57134308Y-119211847D01*
X57075791Y-119326692D01*
X57055628Y-119453999D01*
X57055628Y-119454000D01*
X57075791Y-119581307D01*
X57134308Y-119696152D01*
X57225447Y-119787291D01*
X57225449Y-119787292D01*
X57340292Y-119845808D01*
X57340294Y-119845809D01*
X57438087Y-119861297D01*
X57467599Y-119865972D01*
X57467600Y-119865972D01*
X57467601Y-119865972D01*
X57487763Y-119862778D01*
X57594906Y-119845809D01*
X57709751Y-119787292D01*
X57745917Y-119751125D01*
X57792536Y-119729386D01*
X57799091Y-119729100D01*
X73871901Y-119729100D01*
X73920239Y-119746693D01*
X73945959Y-119791242D01*
X73947101Y-119804300D01*
X73947101Y-120415057D01*
X73955972Y-120459659D01*
X73969244Y-120479522D01*
X73981470Y-120529487D01*
X73958718Y-120575622D01*
X73911635Y-120596339D01*
X73906717Y-120596500D01*
X54035092Y-120596500D01*
X53986754Y-120578907D01*
X53981918Y-120574474D01*
X53899752Y-120492308D01*
X53784906Y-120433791D01*
X53784908Y-120433791D01*
X53657601Y-120413628D01*
X53657599Y-120413628D01*
X53530292Y-120433791D01*
X53415447Y-120492308D01*
X53324308Y-120583447D01*
X53265791Y-120698292D01*
X53245628Y-120825599D01*
X53245628Y-120825600D01*
X53265791Y-120952907D01*
X53287320Y-120995160D01*
X53293589Y-121046217D01*
X53265572Y-121089358D01*
X53220316Y-121104500D01*
X53019091Y-121104500D01*
X52970753Y-121086907D01*
X52965927Y-121082484D01*
X52934551Y-121051108D01*
X52934550Y-121051107D01*
X52819706Y-120992591D01*
X52819708Y-120992591D01*
X52692401Y-120972428D01*
X52692399Y-120972428D01*
X52565092Y-120992591D01*
X52450247Y-121051108D01*
X52359108Y-121142247D01*
X52300591Y-121257092D01*
X52280428Y-121384399D01*
X52280428Y-121384400D01*
X51507300Y-121384400D01*
X51507300Y-102300899D01*
X51524893Y-102252562D01*
X51529326Y-102247726D01*
X53017452Y-100759600D01*
X55277628Y-100759600D01*
X55297791Y-100886907D01*
X55356308Y-101001752D01*
X55447447Y-101092891D01*
X55447449Y-101092892D01*
X55562292Y-101151408D01*
X55562294Y-101151409D01*
X55660087Y-101166897D01*
X55689599Y-101171572D01*
X55689600Y-101171572D01*
X55689601Y-101171572D01*
X55713558Y-101167777D01*
X55816906Y-101151409D01*
X55816908Y-101151408D01*
X55816909Y-101151408D01*
X55895902Y-101111158D01*
X55923043Y-101097328D01*
X55974098Y-101091059D01*
X56010357Y-101111158D01*
X56022199Y-101123000D01*
X57677799Y-101123000D01*
X57677799Y-101105100D01*
X57695392Y-101056762D01*
X57739941Y-101031042D01*
X57752999Y-101029900D01*
X62262109Y-101029900D01*
X62310447Y-101047493D01*
X62315272Y-101051915D01*
X62356249Y-101092892D01*
X62471092Y-101151408D01*
X62471094Y-101151409D01*
X62568887Y-101166897D01*
X62598399Y-101171572D01*
X62598400Y-101171572D01*
X62598401Y-101171572D01*
X62618564Y-101168378D01*
X62725706Y-101151409D01*
X62840551Y-101092892D01*
X62931692Y-101001751D01*
X62990209Y-100886906D01*
X63010372Y-100759600D01*
X62990209Y-100632294D01*
X62931692Y-100517449D01*
X62931691Y-100517447D01*
X62840552Y-100426308D01*
X62725706Y-100367791D01*
X62725708Y-100367791D01*
X62598401Y-100347628D01*
X62598399Y-100347628D01*
X62471092Y-100367791D01*
X62356247Y-100426308D01*
X62334484Y-100448073D01*
X62287865Y-100469814D01*
X62281309Y-100470100D01*
X57753000Y-100470100D01*
X57704662Y-100452507D01*
X57678942Y-100407958D01*
X57677800Y-100394900D01*
X57677800Y-100377000D01*
X56022200Y-100377000D01*
X56006567Y-100392632D01*
X56004608Y-100398016D01*
X55960059Y-100423736D01*
X55912861Y-100416682D01*
X55816906Y-100367791D01*
X55816908Y-100367791D01*
X55689601Y-100347628D01*
X55689599Y-100347628D01*
X55562292Y-100367791D01*
X55447447Y-100426308D01*
X55356308Y-100517447D01*
X55297791Y-100632292D01*
X55277628Y-100759599D01*
X55277628Y-100759600D01*
X53017452Y-100759600D01*
X53654053Y-100123000D01*
X56022200Y-100123000D01*
X56723000Y-100123000D01*
X56723000Y-99877000D01*
X56977000Y-99877000D01*
X56977000Y-100123000D01*
X57677799Y-100123000D01*
X57677799Y-100082490D01*
X57677798Y-100082485D01*
X57667484Y-100030627D01*
X57666717Y-100028775D01*
X57666604Y-100026206D01*
X57666039Y-100023361D01*
X57666477Y-100023273D01*
X57664475Y-99977384D01*
X57666718Y-99971222D01*
X57667484Y-99969372D01*
X57677800Y-99917511D01*
X57677800Y-99877000D01*
X56977000Y-99877000D01*
X56723000Y-99877000D01*
X56022201Y-99877000D01*
X56022201Y-99917508D01*
X56032516Y-99969376D01*
X56033282Y-99971225D01*
X56033393Y-99973788D01*
X56033961Y-99976640D01*
X56033522Y-99976727D01*
X56035524Y-100022616D01*
X56033283Y-100028771D01*
X56032517Y-100030620D01*
X56022200Y-100082488D01*
X56022200Y-100123000D01*
X53654053Y-100123000D01*
X54154053Y-99623000D01*
X56022200Y-99623000D01*
X56723000Y-99623000D01*
X56723000Y-99377000D01*
X56977000Y-99377000D01*
X56977000Y-99623000D01*
X57677799Y-99623000D01*
X57677799Y-99582490D01*
X57677798Y-99582485D01*
X57667484Y-99530627D01*
X57666717Y-99528775D01*
X57666604Y-99526206D01*
X57666039Y-99523361D01*
X57666477Y-99523273D01*
X57664475Y-99477384D01*
X57666718Y-99471222D01*
X57667484Y-99469372D01*
X57677800Y-99417511D01*
X57677800Y-99377000D01*
X56977000Y-99377000D01*
X56723000Y-99377000D01*
X56022201Y-99377000D01*
X56022201Y-99417508D01*
X56032516Y-99469376D01*
X56033282Y-99471225D01*
X56033393Y-99473788D01*
X56033961Y-99476640D01*
X56033522Y-99476727D01*
X56035524Y-99522616D01*
X56033283Y-99528771D01*
X56032517Y-99530620D01*
X56022200Y-99582488D01*
X56022200Y-99623000D01*
X54154053Y-99623000D01*
X54844127Y-98932926D01*
X54890747Y-98911186D01*
X54897301Y-98910900D01*
X55856023Y-98910900D01*
X55904361Y-98928493D01*
X55920121Y-98946775D01*
X55953360Y-99000954D01*
X55998735Y-99043969D01*
X56021711Y-99089993D01*
X56022199Y-99098543D01*
X56022199Y-99123000D01*
X57677799Y-99123000D01*
X57677799Y-99082489D01*
X57677750Y-99082243D01*
X57677765Y-99082144D01*
X57677437Y-99078812D01*
X57678290Y-99078727D01*
X57685572Y-99031401D01*
X57702264Y-99010731D01*
X57703718Y-99009472D01*
X57709278Y-99004417D01*
X57751819Y-98934626D01*
X57771504Y-98867587D01*
X57777900Y-98823100D01*
X57777900Y-97581600D01*
X57774291Y-97548035D01*
X57763085Y-97496524D01*
X57728127Y-97426686D01*
X57682373Y-97373882D01*
X57677317Y-97368322D01*
X57677315Y-97368320D01*
X57607527Y-97325781D01*
X57607524Y-97325780D01*
X57564912Y-97313267D01*
X57523490Y-97282767D01*
X57510900Y-97241114D01*
X57510900Y-88021915D01*
X57510969Y-88019645D01*
X57512190Y-87999437D01*
X57514540Y-87960603D01*
X57503873Y-87902399D01*
X57503537Y-87900196D01*
X57496408Y-87841475D01*
X57496405Y-87841469D01*
X57496405Y-87841465D01*
X57491672Y-87828986D01*
X57488016Y-87815873D01*
X57485609Y-87802737D01*
X57463179Y-87752900D01*
X57461327Y-87748785D01*
X57460478Y-87746735D01*
X57439496Y-87691409D01*
X57431903Y-87680409D01*
X57425218Y-87668555D01*
X57419739Y-87656380D01*
X57419736Y-87656376D01*
X57419735Y-87656374D01*
X57383258Y-87609813D01*
X57381912Y-87607984D01*
X57348327Y-87559327D01*
X57348326Y-87559325D01*
X57348324Y-87559323D01*
X57348320Y-87559319D01*
X57348315Y-87559314D01*
X57304048Y-87520098D01*
X57302411Y-87518557D01*
X55783854Y-86000000D01*
X108242185Y-86000000D01*
X108261818Y-86261989D01*
X108320280Y-86518125D01*
X108320281Y-86518128D01*
X108320282Y-86518131D01*
X108416259Y-86762679D01*
X108416265Y-86762691D01*
X108547622Y-86990208D01*
X108547623Y-86990209D01*
X108547625Y-86990212D01*
X108711430Y-87195618D01*
X108904020Y-87374315D01*
X109121093Y-87522312D01*
X109357798Y-87636304D01*
X109608849Y-87713743D01*
X109868638Y-87752900D01*
X109868640Y-87752900D01*
X110131360Y-87752900D01*
X110131362Y-87752900D01*
X110391151Y-87713743D01*
X110642202Y-87636304D01*
X110878908Y-87522312D01*
X111095980Y-87374315D01*
X111288570Y-87195618D01*
X111452375Y-86990212D01*
X111583737Y-86762687D01*
X111679720Y-86518125D01*
X111738182Y-86261989D01*
X111757815Y-86000000D01*
X111738182Y-85738011D01*
X111679720Y-85481875D01*
X111583737Y-85237313D01*
X111452375Y-85009788D01*
X111288570Y-84804382D01*
X111095980Y-84625685D01*
X110878908Y-84477688D01*
X110642202Y-84363696D01*
X110642200Y-84363695D01*
X110391154Y-84286258D01*
X110391151Y-84286257D01*
X110391147Y-84286256D01*
X110391141Y-84286255D01*
X110229965Y-84261962D01*
X110131362Y-84247100D01*
X109868638Y-84247100D01*
X109785762Y-84259591D01*
X109608858Y-84286255D01*
X109608845Y-84286258D01*
X109357799Y-84363695D01*
X109121092Y-84477688D01*
X108904022Y-84625683D01*
X108711432Y-84804379D01*
X108547625Y-85009788D01*
X108547622Y-85009791D01*
X108416265Y-85237308D01*
X108416259Y-85237320D01*
X108320282Y-85481868D01*
X108261818Y-85738008D01*
X108261818Y-85738011D01*
X108242185Y-86000000D01*
X55783854Y-86000000D01*
X49616126Y-79832272D01*
X49594386Y-79785652D01*
X49594100Y-79779098D01*
X49594100Y-78240000D01*
X51072247Y-78240000D01*
X51091610Y-78436599D01*
X51091610Y-78436601D01*
X51148955Y-78625643D01*
X51148956Y-78625647D01*
X51182460Y-78688329D01*
X51207378Y-78734948D01*
X51242086Y-78799881D01*
X51242089Y-78799885D01*
X51367410Y-78952589D01*
X51520114Y-79077910D01*
X51520118Y-79077913D01*
X51520122Y-79077916D01*
X51694350Y-79171042D01*
X51694352Y-79171043D01*
X51694356Y-79171044D01*
X51737593Y-79184159D01*
X51883397Y-79228389D01*
X52080000Y-79247753D01*
X52276603Y-79228389D01*
X52465650Y-79171042D01*
X52639878Y-79077916D01*
X52792589Y-78952589D01*
X52917916Y-78799878D01*
X53011042Y-78625650D01*
X53068389Y-78436603D01*
X53087753Y-78240000D01*
X53612247Y-78240000D01*
X53631610Y-78436599D01*
X53631610Y-78436601D01*
X53688955Y-78625643D01*
X53688956Y-78625647D01*
X53722460Y-78688329D01*
X53747378Y-78734948D01*
X53782086Y-78799881D01*
X53782089Y-78799885D01*
X53907410Y-78952589D01*
X54060114Y-79077910D01*
X54060118Y-79077913D01*
X54060122Y-79077916D01*
X54234350Y-79171042D01*
X54234352Y-79171043D01*
X54234356Y-79171044D01*
X54277593Y-79184159D01*
X54423397Y-79228389D01*
X54620000Y-79247753D01*
X54816603Y-79228389D01*
X55005650Y-79171042D01*
X55179878Y-79077916D01*
X55332589Y-78952589D01*
X55457916Y-78799878D01*
X55551042Y-78625650D01*
X55608389Y-78436603D01*
X55627753Y-78240000D01*
X56152247Y-78240000D01*
X56171610Y-78436599D01*
X56171610Y-78436601D01*
X56228955Y-78625643D01*
X56228956Y-78625647D01*
X56262460Y-78688329D01*
X56287378Y-78734948D01*
X56322086Y-78799881D01*
X56322089Y-78799885D01*
X56447410Y-78952589D01*
X56600114Y-79077910D01*
X56600118Y-79077913D01*
X56600122Y-79077916D01*
X56774350Y-79171042D01*
X56774352Y-79171043D01*
X56774356Y-79171044D01*
X56817593Y-79184159D01*
X56963397Y-79228389D01*
X57160000Y-79247753D01*
X57356603Y-79228389D01*
X57545650Y-79171042D01*
X57719878Y-79077916D01*
X57872589Y-78952589D01*
X57997916Y-78799878D01*
X58091042Y-78625650D01*
X58148389Y-78436603D01*
X58167753Y-78240000D01*
X58692247Y-78240000D01*
X58711610Y-78436599D01*
X58711610Y-78436601D01*
X58768955Y-78625643D01*
X58768956Y-78625647D01*
X58802460Y-78688329D01*
X58827378Y-78734948D01*
X58862086Y-78799881D01*
X58862089Y-78799885D01*
X58987410Y-78952589D01*
X59140114Y-79077910D01*
X59140118Y-79077913D01*
X59140122Y-79077916D01*
X59314350Y-79171042D01*
X59314352Y-79171043D01*
X59314356Y-79171044D01*
X59357593Y-79184159D01*
X59503397Y-79228389D01*
X59700000Y-79247753D01*
X59896603Y-79228389D01*
X60085650Y-79171042D01*
X60259878Y-79077916D01*
X60412589Y-78952589D01*
X60537916Y-78799878D01*
X60631042Y-78625650D01*
X60688389Y-78436603D01*
X60707753Y-78240000D01*
X61232247Y-78240000D01*
X61251610Y-78436599D01*
X61251610Y-78436601D01*
X61308955Y-78625643D01*
X61308956Y-78625647D01*
X61342460Y-78688329D01*
X61367378Y-78734948D01*
X61402086Y-78799881D01*
X61402089Y-78799885D01*
X61527410Y-78952589D01*
X61680114Y-79077910D01*
X61680118Y-79077913D01*
X61680122Y-79077916D01*
X61854350Y-79171042D01*
X61854352Y-79171043D01*
X61854356Y-79171044D01*
X61897593Y-79184159D01*
X62043397Y-79228389D01*
X62240000Y-79247753D01*
X62436603Y-79228389D01*
X62625650Y-79171042D01*
X62799878Y-79077916D01*
X62952589Y-78952589D01*
X63077916Y-78799878D01*
X63171042Y-78625650D01*
X63228389Y-78436603D01*
X63247753Y-78240000D01*
X63772247Y-78240000D01*
X63791610Y-78436599D01*
X63791610Y-78436601D01*
X63848955Y-78625643D01*
X63848956Y-78625647D01*
X63882460Y-78688329D01*
X63907378Y-78734948D01*
X63942086Y-78799881D01*
X63942089Y-78799885D01*
X64067410Y-78952589D01*
X64220114Y-79077910D01*
X64220118Y-79077913D01*
X64220122Y-79077916D01*
X64394350Y-79171042D01*
X64394352Y-79171043D01*
X64394356Y-79171044D01*
X64437593Y-79184159D01*
X64583397Y-79228389D01*
X64780000Y-79247753D01*
X64976603Y-79228389D01*
X65165650Y-79171042D01*
X65339878Y-79077916D01*
X65492589Y-78952589D01*
X65617916Y-78799878D01*
X65711042Y-78625650D01*
X65768389Y-78436603D01*
X65787753Y-78240000D01*
X66312247Y-78240000D01*
X66331610Y-78436599D01*
X66331610Y-78436601D01*
X66388955Y-78625643D01*
X66388956Y-78625647D01*
X66422460Y-78688329D01*
X66447378Y-78734948D01*
X66482086Y-78799881D01*
X66482089Y-78799885D01*
X66607410Y-78952589D01*
X66760114Y-79077910D01*
X66760118Y-79077913D01*
X66760122Y-79077916D01*
X66934350Y-79171042D01*
X66934352Y-79171043D01*
X66934356Y-79171044D01*
X66977593Y-79184159D01*
X67123397Y-79228389D01*
X67320000Y-79247753D01*
X67516603Y-79228389D01*
X67705650Y-79171042D01*
X67879878Y-79077916D01*
X68032589Y-78952589D01*
X68157916Y-78799878D01*
X68251042Y-78625650D01*
X68308389Y-78436603D01*
X68327753Y-78240000D01*
X68852247Y-78240000D01*
X68871610Y-78436599D01*
X68871610Y-78436601D01*
X68928955Y-78625643D01*
X68928956Y-78625647D01*
X68962460Y-78688329D01*
X68987378Y-78734948D01*
X69022086Y-78799881D01*
X69022089Y-78799885D01*
X69147410Y-78952589D01*
X69300114Y-79077910D01*
X69300118Y-79077913D01*
X69300122Y-79077916D01*
X69474350Y-79171042D01*
X69474352Y-79171043D01*
X69474356Y-79171044D01*
X69517593Y-79184159D01*
X69663397Y-79228389D01*
X69860000Y-79247753D01*
X70056603Y-79228389D01*
X70245650Y-79171042D01*
X70419878Y-79077916D01*
X70572589Y-78952589D01*
X70697916Y-78799878D01*
X70791042Y-78625650D01*
X70848389Y-78436603D01*
X70867753Y-78240000D01*
X71392247Y-78240000D01*
X71411610Y-78436599D01*
X71411610Y-78436601D01*
X71468955Y-78625643D01*
X71468956Y-78625647D01*
X71502460Y-78688329D01*
X71527378Y-78734948D01*
X71562086Y-78799881D01*
X71562089Y-78799885D01*
X71687410Y-78952589D01*
X71840114Y-79077910D01*
X71840118Y-79077913D01*
X71840122Y-79077916D01*
X72014350Y-79171042D01*
X72014352Y-79171043D01*
X72014356Y-79171044D01*
X72057593Y-79184159D01*
X72203397Y-79228389D01*
X72400000Y-79247753D01*
X72596603Y-79228389D01*
X72785650Y-79171042D01*
X72959878Y-79077916D01*
X73112589Y-78952589D01*
X73237916Y-78799878D01*
X73331042Y-78625650D01*
X73388389Y-78436603D01*
X73407753Y-78240000D01*
X73907227Y-78240000D01*
X73927070Y-78441480D01*
X73985844Y-78635230D01*
X74081275Y-78813768D01*
X74081281Y-78813778D01*
X74128761Y-78871632D01*
X74441923Y-78558470D01*
X74488544Y-78536730D01*
X74538231Y-78550044D01*
X74554469Y-78566939D01*
X74554712Y-78566729D01*
X74558234Y-78570793D01*
X74558238Y-78570796D01*
X74558239Y-78570798D01*
X74620725Y-78624942D01*
X74645735Y-78669892D01*
X74636001Y-78720402D01*
X74624655Y-78734948D01*
X74308365Y-79051238D01*
X74366221Y-79098718D01*
X74366226Y-79098721D01*
X74544769Y-79194155D01*
X74738521Y-79252929D01*
X74738517Y-79252929D01*
X74940000Y-79272772D01*
X75141480Y-79252929D01*
X75335230Y-79194155D01*
X75513773Y-79098721D01*
X75513779Y-79098717D01*
X75571632Y-79051237D01*
X75255344Y-78734950D01*
X75233604Y-78688329D01*
X75246918Y-78638642D01*
X75259267Y-78624948D01*
X75321761Y-78570798D01*
X75321765Y-78570790D01*
X75325285Y-78566731D01*
X75326196Y-78567520D01*
X75362569Y-78539836D01*
X75413951Y-78542282D01*
X75438076Y-78558470D01*
X75751237Y-78871632D01*
X75798717Y-78813779D01*
X75798721Y-78813773D01*
X75894155Y-78635230D01*
X75952929Y-78441480D01*
X75972772Y-78240000D01*
X76472247Y-78240000D01*
X76491610Y-78436599D01*
X76491610Y-78436601D01*
X76548955Y-78625643D01*
X76548956Y-78625647D01*
X76582460Y-78688329D01*
X76607378Y-78734948D01*
X76642086Y-78799881D01*
X76642089Y-78799885D01*
X76767410Y-78952589D01*
X76920114Y-79077910D01*
X76920118Y-79077913D01*
X76920122Y-79077916D01*
X77094350Y-79171042D01*
X77094352Y-79171043D01*
X77094356Y-79171044D01*
X77137593Y-79184159D01*
X77283397Y-79228389D01*
X77480000Y-79247753D01*
X77676603Y-79228389D01*
X77865650Y-79171042D01*
X78039878Y-79077916D01*
X78192589Y-78952589D01*
X78317916Y-78799878D01*
X78411042Y-78625650D01*
X78468389Y-78436603D01*
X78487753Y-78240000D01*
X79012247Y-78240000D01*
X79031610Y-78436599D01*
X79031610Y-78436601D01*
X79088955Y-78625643D01*
X79088956Y-78625647D01*
X79122460Y-78688329D01*
X79147378Y-78734948D01*
X79182086Y-78799881D01*
X79182089Y-78799885D01*
X79307410Y-78952589D01*
X79460114Y-79077910D01*
X79460118Y-79077913D01*
X79460122Y-79077916D01*
X79634350Y-79171042D01*
X79634352Y-79171043D01*
X79634356Y-79171044D01*
X79677593Y-79184159D01*
X79823397Y-79228389D01*
X80020000Y-79247753D01*
X80216603Y-79228389D01*
X80405650Y-79171042D01*
X80579878Y-79077916D01*
X80732589Y-78952589D01*
X80857916Y-78799878D01*
X80951042Y-78625650D01*
X81008389Y-78436603D01*
X81027753Y-78240000D01*
X81552247Y-78240000D01*
X81571610Y-78436599D01*
X81571610Y-78436601D01*
X81628955Y-78625643D01*
X81628956Y-78625647D01*
X81662460Y-78688329D01*
X81687378Y-78734948D01*
X81722086Y-78799881D01*
X81722089Y-78799885D01*
X81847410Y-78952589D01*
X82000114Y-79077910D01*
X82000118Y-79077913D01*
X82000122Y-79077916D01*
X82174350Y-79171042D01*
X82174352Y-79171043D01*
X82174356Y-79171044D01*
X82217593Y-79184159D01*
X82363397Y-79228389D01*
X82560000Y-79247753D01*
X82756603Y-79228389D01*
X82945650Y-79171042D01*
X83119878Y-79077916D01*
X83272589Y-78952589D01*
X83397916Y-78799878D01*
X83491042Y-78625650D01*
X83548389Y-78436603D01*
X83567753Y-78240000D01*
X84092247Y-78240000D01*
X84111610Y-78436599D01*
X84111610Y-78436601D01*
X84168955Y-78625643D01*
X84168956Y-78625647D01*
X84202460Y-78688329D01*
X84227378Y-78734948D01*
X84262086Y-78799881D01*
X84262089Y-78799885D01*
X84387410Y-78952589D01*
X84540114Y-79077910D01*
X84540118Y-79077913D01*
X84540122Y-79077916D01*
X84714350Y-79171042D01*
X84714352Y-79171043D01*
X84714356Y-79171044D01*
X84757593Y-79184159D01*
X84903397Y-79228389D01*
X85100000Y-79247753D01*
X85296603Y-79228389D01*
X85485650Y-79171042D01*
X85659878Y-79077916D01*
X85812589Y-78952589D01*
X85937916Y-78799878D01*
X86031042Y-78625650D01*
X86088389Y-78436603D01*
X86107753Y-78240000D01*
X86632247Y-78240000D01*
X86651610Y-78436599D01*
X86651610Y-78436601D01*
X86708955Y-78625643D01*
X86708956Y-78625647D01*
X86742460Y-78688329D01*
X86767378Y-78734948D01*
X86802086Y-78799881D01*
X86802089Y-78799885D01*
X86927410Y-78952589D01*
X87080114Y-79077910D01*
X87080118Y-79077913D01*
X87080122Y-79077916D01*
X87254350Y-79171042D01*
X87254352Y-79171043D01*
X87254356Y-79171044D01*
X87297593Y-79184159D01*
X87443397Y-79228389D01*
X87640000Y-79247753D01*
X87836603Y-79228389D01*
X88025650Y-79171042D01*
X88199878Y-79077916D01*
X88352589Y-78952589D01*
X88477916Y-78799878D01*
X88571042Y-78625650D01*
X88628389Y-78436603D01*
X88647753Y-78240000D01*
X89172247Y-78240000D01*
X89191610Y-78436599D01*
X89191610Y-78436601D01*
X89248955Y-78625643D01*
X89248956Y-78625647D01*
X89282460Y-78688329D01*
X89307378Y-78734948D01*
X89342086Y-78799881D01*
X89342089Y-78799885D01*
X89467410Y-78952589D01*
X89620114Y-79077910D01*
X89620118Y-79077913D01*
X89620122Y-79077916D01*
X89794350Y-79171042D01*
X89794352Y-79171043D01*
X89794356Y-79171044D01*
X89837593Y-79184159D01*
X89983397Y-79228389D01*
X90180000Y-79247753D01*
X90376603Y-79228389D01*
X90565650Y-79171042D01*
X90739878Y-79077916D01*
X90892589Y-78952589D01*
X91017916Y-78799878D01*
X91111042Y-78625650D01*
X91168389Y-78436603D01*
X91187753Y-78240000D01*
X91712247Y-78240000D01*
X91731610Y-78436599D01*
X91731610Y-78436601D01*
X91788955Y-78625643D01*
X91788956Y-78625647D01*
X91822460Y-78688329D01*
X91847378Y-78734948D01*
X91882086Y-78799881D01*
X91882089Y-78799885D01*
X92007410Y-78952589D01*
X92160114Y-79077910D01*
X92160118Y-79077913D01*
X92160122Y-79077916D01*
X92334350Y-79171042D01*
X92334352Y-79171043D01*
X92334356Y-79171044D01*
X92377593Y-79184159D01*
X92523397Y-79228389D01*
X92720000Y-79247753D01*
X92916603Y-79228389D01*
X93105650Y-79171042D01*
X93279878Y-79077916D01*
X93432589Y-78952589D01*
X93557916Y-78799878D01*
X93651042Y-78625650D01*
X93708389Y-78436603D01*
X93727753Y-78240000D01*
X94252247Y-78240000D01*
X94271610Y-78436599D01*
X94271610Y-78436601D01*
X94328955Y-78625643D01*
X94328956Y-78625647D01*
X94362460Y-78688329D01*
X94387378Y-78734948D01*
X94422086Y-78799881D01*
X94422089Y-78799885D01*
X94547410Y-78952589D01*
X94700114Y-79077910D01*
X94700118Y-79077913D01*
X94700122Y-79077916D01*
X94874350Y-79171042D01*
X94874352Y-79171043D01*
X94874356Y-79171044D01*
X94917593Y-79184159D01*
X95063397Y-79228389D01*
X95260000Y-79247753D01*
X95456603Y-79228389D01*
X95645650Y-79171042D01*
X95819878Y-79077916D01*
X95972589Y-78952589D01*
X96097916Y-78799878D01*
X96191042Y-78625650D01*
X96248389Y-78436603D01*
X96267753Y-78240000D01*
X96792247Y-78240000D01*
X96811610Y-78436599D01*
X96811610Y-78436601D01*
X96868955Y-78625643D01*
X96868956Y-78625647D01*
X96902460Y-78688329D01*
X96927378Y-78734948D01*
X96962086Y-78799881D01*
X96962089Y-78799885D01*
X97087410Y-78952589D01*
X97240114Y-79077910D01*
X97240118Y-79077913D01*
X97240122Y-79077916D01*
X97414350Y-79171042D01*
X97414352Y-79171043D01*
X97414356Y-79171044D01*
X97457593Y-79184159D01*
X97603397Y-79228389D01*
X97800000Y-79247753D01*
X97996603Y-79228389D01*
X98185650Y-79171042D01*
X98359878Y-79077916D01*
X98512589Y-78952589D01*
X98637916Y-78799878D01*
X98731042Y-78625650D01*
X98788389Y-78436603D01*
X98807753Y-78240000D01*
X99332247Y-78240000D01*
X99351610Y-78436599D01*
X99351610Y-78436601D01*
X99408955Y-78625643D01*
X99408956Y-78625647D01*
X99442460Y-78688329D01*
X99467378Y-78734948D01*
X99502086Y-78799881D01*
X99502089Y-78799885D01*
X99627410Y-78952589D01*
X99780114Y-79077910D01*
X99780118Y-79077913D01*
X99780122Y-79077916D01*
X99954350Y-79171042D01*
X99954352Y-79171043D01*
X99954356Y-79171044D01*
X99997593Y-79184159D01*
X100143397Y-79228389D01*
X100340000Y-79247753D01*
X100536603Y-79228389D01*
X100725650Y-79171042D01*
X100899878Y-79077916D01*
X101052589Y-78952589D01*
X101177916Y-78799878D01*
X101271042Y-78625650D01*
X101328389Y-78436603D01*
X101347753Y-78240000D01*
X101872247Y-78240000D01*
X101891610Y-78436599D01*
X101891610Y-78436601D01*
X101948955Y-78625643D01*
X101948956Y-78625647D01*
X101982460Y-78688329D01*
X102007378Y-78734948D01*
X102042086Y-78799881D01*
X102042089Y-78799885D01*
X102167410Y-78952589D01*
X102320114Y-79077910D01*
X102320118Y-79077913D01*
X102320122Y-79077916D01*
X102494350Y-79171042D01*
X102494352Y-79171043D01*
X102494356Y-79171044D01*
X102537593Y-79184159D01*
X102683397Y-79228389D01*
X102880000Y-79247753D01*
X103076603Y-79228389D01*
X103265650Y-79171042D01*
X103439878Y-79077916D01*
X103592589Y-78952589D01*
X103717916Y-78799878D01*
X103811042Y-78625650D01*
X103868389Y-78436603D01*
X103887753Y-78240000D01*
X104412247Y-78240000D01*
X104431610Y-78436599D01*
X104431610Y-78436601D01*
X104488955Y-78625643D01*
X104488956Y-78625647D01*
X104522460Y-78688329D01*
X104547378Y-78734948D01*
X104582086Y-78799881D01*
X104582089Y-78799885D01*
X104707410Y-78952589D01*
X104860114Y-79077910D01*
X104860118Y-79077913D01*
X104860122Y-79077916D01*
X105034350Y-79171042D01*
X105034352Y-79171043D01*
X105034356Y-79171044D01*
X105077593Y-79184159D01*
X105223397Y-79228389D01*
X105420000Y-79247753D01*
X105616603Y-79228389D01*
X105805650Y-79171042D01*
X105979878Y-79077916D01*
X106132589Y-78952589D01*
X106257916Y-78799878D01*
X106351042Y-78625650D01*
X106408389Y-78436603D01*
X106427753Y-78240000D01*
X106927227Y-78240000D01*
X106947070Y-78441480D01*
X107005844Y-78635230D01*
X107101275Y-78813768D01*
X107101281Y-78813778D01*
X107148761Y-78871632D01*
X107461923Y-78558470D01*
X107508544Y-78536730D01*
X107558231Y-78550044D01*
X107574469Y-78566939D01*
X107574712Y-78566729D01*
X107578234Y-78570793D01*
X107578238Y-78570796D01*
X107578239Y-78570798D01*
X107640725Y-78624942D01*
X107665735Y-78669892D01*
X107656001Y-78720402D01*
X107644655Y-78734948D01*
X107328365Y-79051238D01*
X107386221Y-79098718D01*
X107386226Y-79098721D01*
X107564769Y-79194155D01*
X107758521Y-79252929D01*
X107758517Y-79252929D01*
X107960000Y-79272772D01*
X108161480Y-79252929D01*
X108355230Y-79194155D01*
X108533773Y-79098721D01*
X108533779Y-79098717D01*
X108591632Y-79051237D01*
X108275344Y-78734950D01*
X108253604Y-78688329D01*
X108266918Y-78638642D01*
X108279267Y-78624948D01*
X108341761Y-78570798D01*
X108341765Y-78570790D01*
X108345285Y-78566731D01*
X108346196Y-78567520D01*
X108382569Y-78539836D01*
X108433951Y-78542282D01*
X108458076Y-78558470D01*
X108771237Y-78871632D01*
X108818717Y-78813779D01*
X108818721Y-78813773D01*
X108914155Y-78635230D01*
X108972929Y-78441480D01*
X108992772Y-78239999D01*
X109492247Y-78239999D01*
X109511610Y-78436599D01*
X109511610Y-78436601D01*
X109568955Y-78625643D01*
X109568956Y-78625647D01*
X109602460Y-78688329D01*
X109627378Y-78734948D01*
X109662086Y-78799881D01*
X109662089Y-78799885D01*
X109787410Y-78952589D01*
X109940114Y-79077910D01*
X109940118Y-79077913D01*
X109940122Y-79077916D01*
X110114350Y-79171042D01*
X110114352Y-79171043D01*
X110114356Y-79171044D01*
X110157593Y-79184159D01*
X110303397Y-79228389D01*
X110500000Y-79247753D01*
X110696603Y-79228389D01*
X110885650Y-79171042D01*
X111059878Y-79077916D01*
X111212589Y-78952589D01*
X111337916Y-78799878D01*
X111431042Y-78625650D01*
X111488389Y-78436603D01*
X111507753Y-78240000D01*
X111488389Y-78043397D01*
X111447680Y-77909198D01*
X111431044Y-77854356D01*
X111431043Y-77854352D01*
X111380395Y-77759596D01*
X111337916Y-77680122D01*
X111337913Y-77680118D01*
X111337910Y-77680114D01*
X111212589Y-77527410D01*
X111059885Y-77402089D01*
X111059881Y-77402086D01*
X111059879Y-77402085D01*
X111059878Y-77402084D01*
X110972763Y-77355521D01*
X110885647Y-77308956D01*
X110885643Y-77308955D01*
X110696600Y-77251610D01*
X110500000Y-77232247D01*
X110303400Y-77251610D01*
X110303398Y-77251610D01*
X110114356Y-77308955D01*
X110114352Y-77308956D01*
X109940118Y-77402086D01*
X109940114Y-77402089D01*
X109787410Y-77527410D01*
X109662089Y-77680114D01*
X109662086Y-77680118D01*
X109568956Y-77854352D01*
X109568955Y-77854356D01*
X109511610Y-78043398D01*
X109511610Y-78043400D01*
X109492247Y-78239999D01*
X108992772Y-78239999D01*
X108972929Y-78038519D01*
X108914155Y-77844769D01*
X108818721Y-77666226D01*
X108818718Y-77666221D01*
X108771237Y-77608365D01*
X108458075Y-77921528D01*
X108411455Y-77943268D01*
X108361768Y-77929954D01*
X108345530Y-77913060D01*
X108345288Y-77913271D01*
X108341765Y-77909206D01*
X108341761Y-77909203D01*
X108341761Y-77909202D01*
X108279272Y-77855056D01*
X108254263Y-77810106D01*
X108263997Y-77759596D01*
X108275344Y-77745049D01*
X108591632Y-77428761D01*
X108533778Y-77381281D01*
X108533768Y-77381275D01*
X108355230Y-77285844D01*
X108161478Y-77227070D01*
X108161482Y-77227070D01*
X107960000Y-77207227D01*
X107758519Y-77227070D01*
X107564769Y-77285844D01*
X107386231Y-77381275D01*
X107386216Y-77381285D01*
X107328365Y-77428761D01*
X107644654Y-77745050D01*
X107666394Y-77791670D01*
X107653080Y-77841357D01*
X107640726Y-77855056D01*
X107578242Y-77909198D01*
X107574720Y-77913264D01*
X107573811Y-77912476D01*
X107537419Y-77940166D01*
X107486038Y-77937713D01*
X107461925Y-77921529D01*
X107148761Y-77608365D01*
X107101285Y-77666216D01*
X107101275Y-77666231D01*
X107005844Y-77844769D01*
X106947070Y-78038519D01*
X106927227Y-78240000D01*
X106427753Y-78240000D01*
X106408389Y-78043397D01*
X106367680Y-77909198D01*
X106351044Y-77854356D01*
X106351043Y-77854352D01*
X106300395Y-77759596D01*
X106257916Y-77680122D01*
X106257913Y-77680118D01*
X106257910Y-77680114D01*
X106132589Y-77527410D01*
X105979885Y-77402089D01*
X105979881Y-77402086D01*
X105979879Y-77402085D01*
X105979878Y-77402084D01*
X105892764Y-77355521D01*
X105805647Y-77308956D01*
X105805643Y-77308955D01*
X105616600Y-77251610D01*
X105420000Y-77232247D01*
X105223400Y-77251610D01*
X105223398Y-77251610D01*
X105034356Y-77308955D01*
X105034352Y-77308956D01*
X104860118Y-77402086D01*
X104860114Y-77402089D01*
X104707410Y-77527410D01*
X104582089Y-77680114D01*
X104582086Y-77680118D01*
X104488956Y-77854352D01*
X104488955Y-77854356D01*
X104431610Y-78043398D01*
X104431610Y-78043400D01*
X104412247Y-78240000D01*
X103887753Y-78240000D01*
X103868389Y-78043397D01*
X103827680Y-77909198D01*
X103811044Y-77854356D01*
X103811043Y-77854352D01*
X103760395Y-77759596D01*
X103717916Y-77680122D01*
X103717913Y-77680118D01*
X103717910Y-77680114D01*
X103592589Y-77527410D01*
X103439885Y-77402089D01*
X103439881Y-77402086D01*
X103439879Y-77402085D01*
X103439878Y-77402084D01*
X103352764Y-77355521D01*
X103265647Y-77308956D01*
X103265643Y-77308955D01*
X103076600Y-77251610D01*
X102880000Y-77232247D01*
X102683400Y-77251610D01*
X102683398Y-77251610D01*
X102494356Y-77308955D01*
X102494352Y-77308956D01*
X102320118Y-77402086D01*
X102320114Y-77402089D01*
X102167410Y-77527410D01*
X102042089Y-77680114D01*
X102042086Y-77680118D01*
X101948956Y-77854352D01*
X101948955Y-77854356D01*
X101891610Y-78043398D01*
X101891610Y-78043400D01*
X101872247Y-78240000D01*
X101347753Y-78240000D01*
X101328389Y-78043397D01*
X101287680Y-77909198D01*
X101271044Y-77854356D01*
X101271043Y-77854352D01*
X101220395Y-77759596D01*
X101177916Y-77680122D01*
X101177913Y-77680118D01*
X101177910Y-77680114D01*
X101052589Y-77527410D01*
X100899885Y-77402089D01*
X100899881Y-77402086D01*
X100899879Y-77402085D01*
X100899878Y-77402084D01*
X100812764Y-77355521D01*
X100725647Y-77308956D01*
X100725643Y-77308955D01*
X100536600Y-77251610D01*
X100340000Y-77232247D01*
X100143400Y-77251610D01*
X100143398Y-77251610D01*
X99954356Y-77308955D01*
X99954352Y-77308956D01*
X99780118Y-77402086D01*
X99780114Y-77402089D01*
X99627410Y-77527410D01*
X99502089Y-77680114D01*
X99502086Y-77680118D01*
X99408956Y-77854352D01*
X99408955Y-77854356D01*
X99351610Y-78043398D01*
X99351610Y-78043400D01*
X99332247Y-78240000D01*
X98807753Y-78240000D01*
X98788389Y-78043397D01*
X98747680Y-77909198D01*
X98731044Y-77854356D01*
X98731043Y-77854352D01*
X98680395Y-77759596D01*
X98637916Y-77680122D01*
X98637913Y-77680118D01*
X98637910Y-77680114D01*
X98512589Y-77527410D01*
X98359885Y-77402089D01*
X98359881Y-77402086D01*
X98359879Y-77402085D01*
X98359878Y-77402084D01*
X98272764Y-77355521D01*
X98185647Y-77308956D01*
X98185643Y-77308955D01*
X97996600Y-77251610D01*
X97800000Y-77232247D01*
X97603400Y-77251610D01*
X97603398Y-77251610D01*
X97414356Y-77308955D01*
X97414352Y-77308956D01*
X97240118Y-77402086D01*
X97240114Y-77402089D01*
X97087410Y-77527410D01*
X96962089Y-77680114D01*
X96962086Y-77680118D01*
X96868956Y-77854352D01*
X96868955Y-77854356D01*
X96811610Y-78043398D01*
X96811610Y-78043400D01*
X96792247Y-78240000D01*
X96267753Y-78240000D01*
X96248389Y-78043397D01*
X96207680Y-77909198D01*
X96191044Y-77854356D01*
X96191043Y-77854352D01*
X96140395Y-77759596D01*
X96097916Y-77680122D01*
X96097913Y-77680118D01*
X96097910Y-77680114D01*
X95972589Y-77527410D01*
X95819885Y-77402089D01*
X95819881Y-77402086D01*
X95819879Y-77402085D01*
X95819878Y-77402084D01*
X95732764Y-77355521D01*
X95645647Y-77308956D01*
X95645643Y-77308955D01*
X95456600Y-77251610D01*
X95260000Y-77232247D01*
X95063400Y-77251610D01*
X95063398Y-77251610D01*
X94874356Y-77308955D01*
X94874352Y-77308956D01*
X94700118Y-77402086D01*
X94700114Y-77402089D01*
X94547410Y-77527410D01*
X94422089Y-77680114D01*
X94422086Y-77680118D01*
X94328956Y-77854352D01*
X94328955Y-77854356D01*
X94271610Y-78043398D01*
X94271610Y-78043400D01*
X94252247Y-78240000D01*
X93727753Y-78240000D01*
X93708389Y-78043397D01*
X93667680Y-77909198D01*
X93651044Y-77854356D01*
X93651043Y-77854352D01*
X93600395Y-77759596D01*
X93557916Y-77680122D01*
X93557913Y-77680118D01*
X93557910Y-77680114D01*
X93432589Y-77527410D01*
X93279885Y-77402089D01*
X93279881Y-77402086D01*
X93279879Y-77402085D01*
X93279878Y-77402084D01*
X93192764Y-77355521D01*
X93105647Y-77308956D01*
X93105643Y-77308955D01*
X92916600Y-77251610D01*
X92720000Y-77232247D01*
X92523400Y-77251610D01*
X92523398Y-77251610D01*
X92334356Y-77308955D01*
X92334352Y-77308956D01*
X92160118Y-77402086D01*
X92160114Y-77402089D01*
X92007410Y-77527410D01*
X91882089Y-77680114D01*
X91882086Y-77680118D01*
X91788956Y-77854352D01*
X91788955Y-77854356D01*
X91731610Y-78043398D01*
X91731610Y-78043400D01*
X91712247Y-78240000D01*
X91187753Y-78240000D01*
X91168389Y-78043397D01*
X91127680Y-77909198D01*
X91111044Y-77854356D01*
X91111043Y-77854352D01*
X91060395Y-77759596D01*
X91017916Y-77680122D01*
X91017913Y-77680118D01*
X91017910Y-77680114D01*
X90892589Y-77527410D01*
X90739885Y-77402089D01*
X90739881Y-77402086D01*
X90739879Y-77402085D01*
X90739878Y-77402084D01*
X90652764Y-77355521D01*
X90565647Y-77308956D01*
X90565643Y-77308955D01*
X90376600Y-77251610D01*
X90180000Y-77232247D01*
X89983400Y-77251610D01*
X89983398Y-77251610D01*
X89794356Y-77308955D01*
X89794352Y-77308956D01*
X89620118Y-77402086D01*
X89620114Y-77402089D01*
X89467410Y-77527410D01*
X89342089Y-77680114D01*
X89342086Y-77680118D01*
X89248956Y-77854352D01*
X89248955Y-77854356D01*
X89191610Y-78043398D01*
X89191610Y-78043400D01*
X89172247Y-78240000D01*
X88647753Y-78240000D01*
X88628389Y-78043397D01*
X88587680Y-77909198D01*
X88571044Y-77854356D01*
X88571043Y-77854352D01*
X88520395Y-77759596D01*
X88477916Y-77680122D01*
X88477913Y-77680118D01*
X88477910Y-77680114D01*
X88352589Y-77527410D01*
X88199885Y-77402089D01*
X88199881Y-77402086D01*
X88199879Y-77402085D01*
X88199878Y-77402084D01*
X88112764Y-77355521D01*
X88025647Y-77308956D01*
X88025643Y-77308955D01*
X87836600Y-77251610D01*
X87640000Y-77232247D01*
X87443400Y-77251610D01*
X87443398Y-77251610D01*
X87254356Y-77308955D01*
X87254352Y-77308956D01*
X87080118Y-77402086D01*
X87080114Y-77402089D01*
X86927410Y-77527410D01*
X86802089Y-77680114D01*
X86802086Y-77680118D01*
X86708956Y-77854352D01*
X86708955Y-77854356D01*
X86651610Y-78043398D01*
X86651610Y-78043400D01*
X86632247Y-78240000D01*
X86107753Y-78240000D01*
X86088389Y-78043397D01*
X86047680Y-77909198D01*
X86031044Y-77854356D01*
X86031043Y-77854352D01*
X85980395Y-77759596D01*
X85937916Y-77680122D01*
X85937913Y-77680118D01*
X85937910Y-77680114D01*
X85812589Y-77527410D01*
X85659885Y-77402089D01*
X85659881Y-77402086D01*
X85659879Y-77402085D01*
X85659878Y-77402084D01*
X85572764Y-77355521D01*
X85485647Y-77308956D01*
X85485643Y-77308955D01*
X85296600Y-77251610D01*
X85100000Y-77232247D01*
X84903400Y-77251610D01*
X84903398Y-77251610D01*
X84714356Y-77308955D01*
X84714352Y-77308956D01*
X84540118Y-77402086D01*
X84540114Y-77402089D01*
X84387410Y-77527410D01*
X84262089Y-77680114D01*
X84262086Y-77680118D01*
X84168956Y-77854352D01*
X84168955Y-77854356D01*
X84111610Y-78043398D01*
X84111610Y-78043400D01*
X84092247Y-78240000D01*
X83567753Y-78240000D01*
X83548389Y-78043397D01*
X83507680Y-77909198D01*
X83491044Y-77854356D01*
X83491043Y-77854352D01*
X83440395Y-77759596D01*
X83397916Y-77680122D01*
X83397913Y-77680118D01*
X83397910Y-77680114D01*
X83272589Y-77527410D01*
X83119885Y-77402089D01*
X83119881Y-77402086D01*
X83119879Y-77402085D01*
X83119878Y-77402084D01*
X83032764Y-77355521D01*
X82945647Y-77308956D01*
X82945643Y-77308955D01*
X82756600Y-77251610D01*
X82560000Y-77232247D01*
X82363400Y-77251610D01*
X82363398Y-77251610D01*
X82174356Y-77308955D01*
X82174352Y-77308956D01*
X82000118Y-77402086D01*
X82000114Y-77402089D01*
X81847410Y-77527410D01*
X81722089Y-77680114D01*
X81722086Y-77680118D01*
X81628956Y-77854352D01*
X81628955Y-77854356D01*
X81571610Y-78043398D01*
X81571610Y-78043400D01*
X81552247Y-78240000D01*
X81027753Y-78240000D01*
X81008389Y-78043397D01*
X80967680Y-77909198D01*
X80951044Y-77854356D01*
X80951043Y-77854352D01*
X80900395Y-77759596D01*
X80857916Y-77680122D01*
X80857913Y-77680118D01*
X80857910Y-77680114D01*
X80732589Y-77527410D01*
X80579885Y-77402089D01*
X80579881Y-77402086D01*
X80579879Y-77402085D01*
X80579878Y-77402084D01*
X80492764Y-77355521D01*
X80405647Y-77308956D01*
X80405643Y-77308955D01*
X80216600Y-77251610D01*
X80020000Y-77232247D01*
X79823400Y-77251610D01*
X79823398Y-77251610D01*
X79634356Y-77308955D01*
X79634352Y-77308956D01*
X79460118Y-77402086D01*
X79460114Y-77402089D01*
X79307410Y-77527410D01*
X79182089Y-77680114D01*
X79182086Y-77680118D01*
X79088956Y-77854352D01*
X79088955Y-77854356D01*
X79031610Y-78043398D01*
X79031610Y-78043400D01*
X79012247Y-78240000D01*
X78487753Y-78240000D01*
X78468389Y-78043397D01*
X78427680Y-77909198D01*
X78411044Y-77854356D01*
X78411043Y-77854352D01*
X78360395Y-77759596D01*
X78317916Y-77680122D01*
X78317913Y-77680118D01*
X78317910Y-77680114D01*
X78192589Y-77527410D01*
X78039885Y-77402089D01*
X78039881Y-77402086D01*
X78039879Y-77402085D01*
X78039878Y-77402084D01*
X77952764Y-77355520D01*
X77865647Y-77308956D01*
X77865643Y-77308955D01*
X77676600Y-77251610D01*
X77480000Y-77232247D01*
X77283400Y-77251610D01*
X77283398Y-77251610D01*
X77094356Y-77308955D01*
X77094352Y-77308956D01*
X76920118Y-77402086D01*
X76920114Y-77402089D01*
X76767410Y-77527410D01*
X76642089Y-77680114D01*
X76642086Y-77680118D01*
X76548956Y-77854352D01*
X76548955Y-77854356D01*
X76491610Y-78043398D01*
X76491610Y-78043400D01*
X76472247Y-78240000D01*
X75972772Y-78240000D01*
X75952929Y-78038519D01*
X75894155Y-77844769D01*
X75798721Y-77666226D01*
X75798718Y-77666221D01*
X75751237Y-77608365D01*
X75438075Y-77921528D01*
X75391455Y-77943268D01*
X75341768Y-77929954D01*
X75325530Y-77913060D01*
X75325288Y-77913271D01*
X75321765Y-77909206D01*
X75321761Y-77909203D01*
X75321761Y-77909202D01*
X75259272Y-77855056D01*
X75234263Y-77810106D01*
X75243997Y-77759596D01*
X75255344Y-77745049D01*
X75571632Y-77428761D01*
X75513778Y-77381281D01*
X75513768Y-77381275D01*
X75335230Y-77285844D01*
X75141478Y-77227070D01*
X75141482Y-77227070D01*
X74940000Y-77207227D01*
X74738519Y-77227070D01*
X74544769Y-77285844D01*
X74366231Y-77381275D01*
X74366216Y-77381285D01*
X74308365Y-77428761D01*
X74624654Y-77745050D01*
X74646394Y-77791670D01*
X74633080Y-77841357D01*
X74620726Y-77855056D01*
X74558242Y-77909198D01*
X74554720Y-77913264D01*
X74553811Y-77912476D01*
X74517419Y-77940166D01*
X74466038Y-77937713D01*
X74441925Y-77921529D01*
X74128761Y-77608365D01*
X74081285Y-77666216D01*
X74081275Y-77666231D01*
X73985844Y-77844769D01*
X73927070Y-78038519D01*
X73907227Y-78240000D01*
X73407753Y-78240000D01*
X73388389Y-78043397D01*
X73347680Y-77909198D01*
X73331044Y-77854356D01*
X73331043Y-77854352D01*
X73280395Y-77759596D01*
X73237916Y-77680122D01*
X73237913Y-77680118D01*
X73237910Y-77680114D01*
X73112589Y-77527410D01*
X72959885Y-77402089D01*
X72959881Y-77402086D01*
X72959879Y-77402085D01*
X72959878Y-77402084D01*
X72872763Y-77355520D01*
X72785647Y-77308956D01*
X72785643Y-77308955D01*
X72596600Y-77251610D01*
X72400000Y-77232247D01*
X72203400Y-77251610D01*
X72203398Y-77251610D01*
X72014356Y-77308955D01*
X72014352Y-77308956D01*
X71840118Y-77402086D01*
X71840114Y-77402089D01*
X71687410Y-77527410D01*
X71562089Y-77680114D01*
X71562086Y-77680118D01*
X71468956Y-77854352D01*
X71468955Y-77854356D01*
X71411610Y-78043398D01*
X71411610Y-78043400D01*
X71392247Y-78240000D01*
X70867753Y-78240000D01*
X70848389Y-78043397D01*
X70807680Y-77909198D01*
X70791044Y-77854356D01*
X70791043Y-77854352D01*
X70740395Y-77759596D01*
X70697916Y-77680122D01*
X70697913Y-77680118D01*
X70697910Y-77680114D01*
X70572589Y-77527410D01*
X70419885Y-77402089D01*
X70419881Y-77402086D01*
X70419879Y-77402085D01*
X70419878Y-77402084D01*
X70332764Y-77355520D01*
X70245647Y-77308956D01*
X70245643Y-77308955D01*
X70056600Y-77251610D01*
X69860000Y-77232247D01*
X69663400Y-77251610D01*
X69663398Y-77251610D01*
X69474356Y-77308955D01*
X69474352Y-77308956D01*
X69300118Y-77402086D01*
X69300114Y-77402089D01*
X69147410Y-77527410D01*
X69022089Y-77680114D01*
X69022086Y-77680118D01*
X68928956Y-77854352D01*
X68928955Y-77854356D01*
X68871610Y-78043398D01*
X68871610Y-78043400D01*
X68852247Y-78240000D01*
X68327753Y-78240000D01*
X68308389Y-78043397D01*
X68267680Y-77909198D01*
X68251044Y-77854356D01*
X68251043Y-77854352D01*
X68200395Y-77759596D01*
X68157916Y-77680122D01*
X68157913Y-77680118D01*
X68157910Y-77680114D01*
X68032589Y-77527410D01*
X67879885Y-77402089D01*
X67879881Y-77402086D01*
X67879879Y-77402085D01*
X67879878Y-77402084D01*
X67792763Y-77355520D01*
X67705647Y-77308956D01*
X67705643Y-77308955D01*
X67516600Y-77251610D01*
X67320000Y-77232247D01*
X67123400Y-77251610D01*
X67123398Y-77251610D01*
X66934356Y-77308955D01*
X66934352Y-77308956D01*
X66760118Y-77402086D01*
X66760114Y-77402089D01*
X66607410Y-77527410D01*
X66482089Y-77680114D01*
X66482086Y-77680118D01*
X66388956Y-77854352D01*
X66388955Y-77854356D01*
X66331610Y-78043398D01*
X66331610Y-78043400D01*
X66312247Y-78240000D01*
X65787753Y-78240000D01*
X65768389Y-78043397D01*
X65727680Y-77909198D01*
X65711044Y-77854356D01*
X65711043Y-77854352D01*
X65660395Y-77759596D01*
X65617916Y-77680122D01*
X65617913Y-77680118D01*
X65617910Y-77680114D01*
X65492589Y-77527410D01*
X65339885Y-77402089D01*
X65339881Y-77402086D01*
X65339879Y-77402085D01*
X65339878Y-77402084D01*
X65252764Y-77355520D01*
X65165647Y-77308956D01*
X65165643Y-77308955D01*
X64976600Y-77251610D01*
X64780000Y-77232247D01*
X64583400Y-77251610D01*
X64583398Y-77251610D01*
X64394356Y-77308955D01*
X64394352Y-77308956D01*
X64220118Y-77402086D01*
X64220114Y-77402089D01*
X64067410Y-77527410D01*
X63942089Y-77680114D01*
X63942086Y-77680118D01*
X63848956Y-77854352D01*
X63848955Y-77854356D01*
X63791610Y-78043398D01*
X63791610Y-78043400D01*
X63772247Y-78240000D01*
X63247753Y-78240000D01*
X63228389Y-78043397D01*
X63187680Y-77909198D01*
X63171044Y-77854356D01*
X63171043Y-77854352D01*
X63120395Y-77759596D01*
X63077916Y-77680122D01*
X63077913Y-77680118D01*
X63077910Y-77680114D01*
X62952589Y-77527410D01*
X62799885Y-77402089D01*
X62799881Y-77402086D01*
X62799879Y-77402085D01*
X62799878Y-77402084D01*
X62712763Y-77355520D01*
X62625647Y-77308956D01*
X62625643Y-77308955D01*
X62436600Y-77251610D01*
X62240000Y-77232247D01*
X62043400Y-77251610D01*
X62043398Y-77251610D01*
X61854356Y-77308955D01*
X61854352Y-77308956D01*
X61680118Y-77402086D01*
X61680114Y-77402089D01*
X61527410Y-77527410D01*
X61402089Y-77680114D01*
X61402086Y-77680118D01*
X61308956Y-77854352D01*
X61308955Y-77854356D01*
X61251610Y-78043398D01*
X61251610Y-78043400D01*
X61232247Y-78240000D01*
X60707753Y-78240000D01*
X60688389Y-78043397D01*
X60647680Y-77909198D01*
X60631044Y-77854356D01*
X60631043Y-77854352D01*
X60580395Y-77759596D01*
X60537916Y-77680122D01*
X60537913Y-77680118D01*
X60537910Y-77680114D01*
X60412589Y-77527410D01*
X60259885Y-77402089D01*
X60259881Y-77402086D01*
X60259879Y-77402085D01*
X60259878Y-77402084D01*
X60172764Y-77355520D01*
X60085647Y-77308956D01*
X60085643Y-77308955D01*
X59896600Y-77251610D01*
X59700000Y-77232247D01*
X59503400Y-77251610D01*
X59503398Y-77251610D01*
X59314356Y-77308955D01*
X59314352Y-77308956D01*
X59140118Y-77402086D01*
X59140114Y-77402089D01*
X58987410Y-77527410D01*
X58862089Y-77680114D01*
X58862086Y-77680118D01*
X58768956Y-77854352D01*
X58768955Y-77854356D01*
X58711610Y-78043398D01*
X58711610Y-78043400D01*
X58692247Y-78240000D01*
X58167753Y-78240000D01*
X58148389Y-78043397D01*
X58107680Y-77909198D01*
X58091044Y-77854356D01*
X58091043Y-77854352D01*
X58040395Y-77759596D01*
X57997916Y-77680122D01*
X57997913Y-77680118D01*
X57997910Y-77680114D01*
X57872589Y-77527410D01*
X57719885Y-77402089D01*
X57719881Y-77402086D01*
X57719879Y-77402085D01*
X57719878Y-77402084D01*
X57632763Y-77355520D01*
X57545647Y-77308956D01*
X57545643Y-77308955D01*
X57356600Y-77251610D01*
X57160000Y-77232247D01*
X56963400Y-77251610D01*
X56963398Y-77251610D01*
X56774356Y-77308955D01*
X56774352Y-77308956D01*
X56600118Y-77402086D01*
X56600114Y-77402089D01*
X56447410Y-77527410D01*
X56322089Y-77680114D01*
X56322086Y-77680118D01*
X56228956Y-77854352D01*
X56228955Y-77854356D01*
X56171610Y-78043398D01*
X56171610Y-78043400D01*
X56152247Y-78240000D01*
X55627753Y-78240000D01*
X55608389Y-78043397D01*
X55567680Y-77909198D01*
X55551044Y-77854356D01*
X55551043Y-77854352D01*
X55500395Y-77759596D01*
X55457916Y-77680122D01*
X55457913Y-77680118D01*
X55457910Y-77680114D01*
X55332589Y-77527410D01*
X55179885Y-77402089D01*
X55179881Y-77402086D01*
X55179879Y-77402085D01*
X55179878Y-77402084D01*
X55092764Y-77355520D01*
X55005647Y-77308956D01*
X55005643Y-77308955D01*
X54816600Y-77251610D01*
X54620000Y-77232247D01*
X54423400Y-77251610D01*
X54423398Y-77251610D01*
X54234356Y-77308955D01*
X54234352Y-77308956D01*
X54060118Y-77402086D01*
X54060114Y-77402089D01*
X53907410Y-77527410D01*
X53782089Y-77680114D01*
X53782086Y-77680118D01*
X53688956Y-77854352D01*
X53688955Y-77854356D01*
X53631610Y-78043398D01*
X53631610Y-78043400D01*
X53612247Y-78240000D01*
X53087753Y-78240000D01*
X53068389Y-78043397D01*
X53027680Y-77909198D01*
X53011044Y-77854356D01*
X53011043Y-77854352D01*
X52960395Y-77759596D01*
X52917916Y-77680122D01*
X52917913Y-77680118D01*
X52917910Y-77680114D01*
X52792589Y-77527410D01*
X52639885Y-77402089D01*
X52639881Y-77402086D01*
X52639879Y-77402085D01*
X52639878Y-77402084D01*
X52552763Y-77355520D01*
X52465647Y-77308956D01*
X52465643Y-77308955D01*
X52276600Y-77251610D01*
X52080000Y-77232247D01*
X51883400Y-77251610D01*
X51883398Y-77251610D01*
X51694356Y-77308955D01*
X51694352Y-77308956D01*
X51520118Y-77402086D01*
X51520114Y-77402089D01*
X51367410Y-77527410D01*
X51242089Y-77680114D01*
X51242086Y-77680118D01*
X51148956Y-77854352D01*
X51148955Y-77854356D01*
X51091610Y-78043398D01*
X51091610Y-78043400D01*
X51072247Y-78240000D01*
X49594100Y-78240000D01*
X49594100Y-63000000D01*
X51072247Y-63000000D01*
X51091610Y-63196599D01*
X51091610Y-63196601D01*
X51148955Y-63385643D01*
X51148956Y-63385647D01*
X51182460Y-63448329D01*
X51207378Y-63494948D01*
X51242086Y-63559881D01*
X51242089Y-63559885D01*
X51367410Y-63712589D01*
X51520114Y-63837910D01*
X51520118Y-63837913D01*
X51520122Y-63837916D01*
X51694350Y-63931042D01*
X51694352Y-63931043D01*
X51694356Y-63931044D01*
X51737593Y-63944159D01*
X51883397Y-63988389D01*
X52080000Y-64007753D01*
X52276603Y-63988389D01*
X52465650Y-63931042D01*
X52639878Y-63837916D01*
X52792589Y-63712589D01*
X52917916Y-63559878D01*
X53011042Y-63385650D01*
X53068389Y-63196603D01*
X53087753Y-63000000D01*
X53612247Y-63000000D01*
X53631610Y-63196599D01*
X53631610Y-63196601D01*
X53688955Y-63385643D01*
X53688956Y-63385647D01*
X53722460Y-63448329D01*
X53747378Y-63494948D01*
X53782086Y-63559881D01*
X53782089Y-63559885D01*
X53907410Y-63712589D01*
X54060114Y-63837910D01*
X54060118Y-63837913D01*
X54060122Y-63837916D01*
X54234350Y-63931042D01*
X54234352Y-63931043D01*
X54234356Y-63931044D01*
X54277593Y-63944159D01*
X54423397Y-63988389D01*
X54620000Y-64007753D01*
X54816603Y-63988389D01*
X55005650Y-63931042D01*
X55179878Y-63837916D01*
X55332589Y-63712589D01*
X55457916Y-63559878D01*
X55551042Y-63385650D01*
X55608389Y-63196603D01*
X55627753Y-63000000D01*
X56152247Y-63000000D01*
X56171610Y-63196599D01*
X56171610Y-63196601D01*
X56228955Y-63385643D01*
X56228956Y-63385647D01*
X56262460Y-63448329D01*
X56287378Y-63494948D01*
X56322086Y-63559881D01*
X56322089Y-63559885D01*
X56447410Y-63712589D01*
X56600114Y-63837910D01*
X56600118Y-63837913D01*
X56600122Y-63837916D01*
X56774350Y-63931042D01*
X56774352Y-63931043D01*
X56774356Y-63931044D01*
X56817593Y-63944159D01*
X56963397Y-63988389D01*
X57160000Y-64007753D01*
X57356603Y-63988389D01*
X57545650Y-63931042D01*
X57719878Y-63837916D01*
X57872589Y-63712589D01*
X57997916Y-63559878D01*
X58091042Y-63385650D01*
X58148389Y-63196603D01*
X58167753Y-63000000D01*
X58692247Y-63000000D01*
X58711610Y-63196599D01*
X58711610Y-63196601D01*
X58768955Y-63385643D01*
X58768956Y-63385647D01*
X58802460Y-63448329D01*
X58827378Y-63494948D01*
X58862086Y-63559881D01*
X58862089Y-63559885D01*
X58987410Y-63712589D01*
X59140114Y-63837910D01*
X59140118Y-63837913D01*
X59140122Y-63837916D01*
X59314350Y-63931042D01*
X59314352Y-63931043D01*
X59314356Y-63931044D01*
X59357593Y-63944159D01*
X59503397Y-63988389D01*
X59700000Y-64007753D01*
X59896603Y-63988389D01*
X60085650Y-63931042D01*
X60259878Y-63837916D01*
X60412589Y-63712589D01*
X60537916Y-63559878D01*
X60631042Y-63385650D01*
X60688389Y-63196603D01*
X60707753Y-63000000D01*
X61232247Y-63000000D01*
X61251610Y-63196599D01*
X61251610Y-63196601D01*
X61308955Y-63385643D01*
X61308956Y-63385647D01*
X61342460Y-63448329D01*
X61367378Y-63494948D01*
X61402086Y-63559881D01*
X61402089Y-63559885D01*
X61527410Y-63712589D01*
X61680114Y-63837910D01*
X61680118Y-63837913D01*
X61680122Y-63837916D01*
X61854350Y-63931042D01*
X61854352Y-63931043D01*
X61854356Y-63931044D01*
X61897593Y-63944159D01*
X62043397Y-63988389D01*
X62240000Y-64007753D01*
X62436603Y-63988389D01*
X62625650Y-63931042D01*
X62799878Y-63837916D01*
X62952589Y-63712589D01*
X63077916Y-63559878D01*
X63171042Y-63385650D01*
X63228389Y-63196603D01*
X63247753Y-63000000D01*
X63772247Y-63000000D01*
X63791610Y-63196599D01*
X63791610Y-63196601D01*
X63848955Y-63385643D01*
X63848956Y-63385647D01*
X63882460Y-63448329D01*
X63907378Y-63494948D01*
X63942086Y-63559881D01*
X63942089Y-63559885D01*
X64067410Y-63712589D01*
X64220114Y-63837910D01*
X64220118Y-63837913D01*
X64220122Y-63837916D01*
X64394350Y-63931042D01*
X64394352Y-63931043D01*
X64394356Y-63931044D01*
X64437593Y-63944159D01*
X64583397Y-63988389D01*
X64780000Y-64007753D01*
X64976603Y-63988389D01*
X65165650Y-63931042D01*
X65339878Y-63837916D01*
X65492589Y-63712589D01*
X65617916Y-63559878D01*
X65711042Y-63385650D01*
X65768389Y-63196603D01*
X65787753Y-63000000D01*
X66312247Y-63000000D01*
X66331610Y-63196599D01*
X66331610Y-63196601D01*
X66388955Y-63385643D01*
X66388956Y-63385647D01*
X66422460Y-63448329D01*
X66447378Y-63494948D01*
X66482086Y-63559881D01*
X66482089Y-63559885D01*
X66607410Y-63712589D01*
X66760114Y-63837910D01*
X66760118Y-63837913D01*
X66760122Y-63837916D01*
X66934350Y-63931042D01*
X66934352Y-63931043D01*
X66934356Y-63931044D01*
X66977593Y-63944159D01*
X67123397Y-63988389D01*
X67320000Y-64007753D01*
X67516603Y-63988389D01*
X67705650Y-63931042D01*
X67879878Y-63837916D01*
X68032589Y-63712589D01*
X68157916Y-63559878D01*
X68251042Y-63385650D01*
X68308389Y-63196603D01*
X68327753Y-63000000D01*
X68852247Y-63000000D01*
X68871610Y-63196599D01*
X68871610Y-63196601D01*
X68928955Y-63385643D01*
X68928956Y-63385647D01*
X68962460Y-63448329D01*
X68987378Y-63494948D01*
X69022086Y-63559881D01*
X69022089Y-63559885D01*
X69147410Y-63712589D01*
X69300114Y-63837910D01*
X69300118Y-63837913D01*
X69300122Y-63837916D01*
X69474350Y-63931042D01*
X69474352Y-63931043D01*
X69474356Y-63931044D01*
X69517593Y-63944159D01*
X69663397Y-63988389D01*
X69860000Y-64007753D01*
X70056603Y-63988389D01*
X70245650Y-63931042D01*
X70419878Y-63837916D01*
X70572589Y-63712589D01*
X70697916Y-63559878D01*
X70791042Y-63385650D01*
X70848389Y-63196603D01*
X70867753Y-63000000D01*
X71392247Y-63000000D01*
X71411610Y-63196599D01*
X71411610Y-63196601D01*
X71468955Y-63385643D01*
X71468956Y-63385647D01*
X71502460Y-63448329D01*
X71527378Y-63494948D01*
X71562086Y-63559881D01*
X71562089Y-63559885D01*
X71687410Y-63712589D01*
X71840114Y-63837910D01*
X71840118Y-63837913D01*
X71840122Y-63837916D01*
X72014350Y-63931042D01*
X72014352Y-63931043D01*
X72014356Y-63931044D01*
X72057593Y-63944159D01*
X72203397Y-63988389D01*
X72400000Y-64007753D01*
X72596603Y-63988389D01*
X72785650Y-63931042D01*
X72959878Y-63837916D01*
X73112589Y-63712589D01*
X73237916Y-63559878D01*
X73331042Y-63385650D01*
X73388389Y-63196603D01*
X73407753Y-63000000D01*
X73932247Y-63000000D01*
X73951610Y-63196599D01*
X73951610Y-63196601D01*
X74008955Y-63385643D01*
X74008956Y-63385647D01*
X74042460Y-63448329D01*
X74067378Y-63494948D01*
X74102086Y-63559881D01*
X74102089Y-63559885D01*
X74227410Y-63712589D01*
X74380114Y-63837910D01*
X74380118Y-63837913D01*
X74380122Y-63837916D01*
X74554350Y-63931042D01*
X74554352Y-63931043D01*
X74554356Y-63931044D01*
X74597593Y-63944159D01*
X74743397Y-63988389D01*
X74940000Y-64007753D01*
X75136603Y-63988389D01*
X75325650Y-63931042D01*
X75499878Y-63837916D01*
X75652589Y-63712589D01*
X75777916Y-63559878D01*
X75871042Y-63385650D01*
X75928389Y-63196603D01*
X75947753Y-63000000D01*
X76472247Y-63000000D01*
X76491610Y-63196599D01*
X76491610Y-63196601D01*
X76548955Y-63385643D01*
X76548956Y-63385647D01*
X76582460Y-63448329D01*
X76607378Y-63494948D01*
X76642086Y-63559881D01*
X76642089Y-63559885D01*
X76767410Y-63712589D01*
X76920114Y-63837910D01*
X76920118Y-63837913D01*
X76920122Y-63837916D01*
X77094350Y-63931042D01*
X77094352Y-63931043D01*
X77094356Y-63931044D01*
X77137593Y-63944159D01*
X77283397Y-63988389D01*
X77480000Y-64007753D01*
X77676603Y-63988389D01*
X77865650Y-63931042D01*
X78039878Y-63837916D01*
X78192589Y-63712589D01*
X78317916Y-63559878D01*
X78411042Y-63385650D01*
X78468389Y-63196603D01*
X78487753Y-63000000D01*
X79012247Y-63000000D01*
X79031610Y-63196599D01*
X79031610Y-63196601D01*
X79088955Y-63385643D01*
X79088956Y-63385647D01*
X79122460Y-63448329D01*
X79147378Y-63494948D01*
X79182086Y-63559881D01*
X79182089Y-63559885D01*
X79307410Y-63712589D01*
X79460114Y-63837910D01*
X79460118Y-63837913D01*
X79460122Y-63837916D01*
X79634350Y-63931042D01*
X79634352Y-63931043D01*
X79634356Y-63931044D01*
X79677593Y-63944159D01*
X79823397Y-63988389D01*
X80020000Y-64007753D01*
X80216603Y-63988389D01*
X80405650Y-63931042D01*
X80579878Y-63837916D01*
X80732589Y-63712589D01*
X80857916Y-63559878D01*
X80951042Y-63385650D01*
X81008389Y-63196603D01*
X81027753Y-63000000D01*
X81552247Y-63000000D01*
X81571610Y-63196599D01*
X81571610Y-63196601D01*
X81628955Y-63385643D01*
X81628956Y-63385647D01*
X81662460Y-63448329D01*
X81687378Y-63494948D01*
X81722086Y-63559881D01*
X81722089Y-63559885D01*
X81847410Y-63712589D01*
X82000114Y-63837910D01*
X82000118Y-63837913D01*
X82000122Y-63837916D01*
X82174350Y-63931042D01*
X82174352Y-63931043D01*
X82174356Y-63931044D01*
X82217593Y-63944159D01*
X82363397Y-63988389D01*
X82560000Y-64007753D01*
X82756603Y-63988389D01*
X82945650Y-63931042D01*
X83119878Y-63837916D01*
X83272589Y-63712589D01*
X83397916Y-63559878D01*
X83491042Y-63385650D01*
X83548389Y-63196603D01*
X83567753Y-63000000D01*
X84092247Y-63000000D01*
X84111610Y-63196599D01*
X84111610Y-63196601D01*
X84168955Y-63385643D01*
X84168956Y-63385647D01*
X84202460Y-63448329D01*
X84227378Y-63494948D01*
X84262086Y-63559881D01*
X84262089Y-63559885D01*
X84387410Y-63712589D01*
X84540114Y-63837910D01*
X84540118Y-63837913D01*
X84540122Y-63837916D01*
X84714350Y-63931042D01*
X84714352Y-63931043D01*
X84714356Y-63931044D01*
X84757593Y-63944159D01*
X84903397Y-63988389D01*
X85100000Y-64007753D01*
X85296603Y-63988389D01*
X85485650Y-63931042D01*
X85659878Y-63837916D01*
X85812589Y-63712589D01*
X85937916Y-63559878D01*
X86031042Y-63385650D01*
X86088389Y-63196603D01*
X86107753Y-63000000D01*
X86632247Y-63000000D01*
X86651610Y-63196599D01*
X86651610Y-63196601D01*
X86708955Y-63385643D01*
X86708956Y-63385647D01*
X86742460Y-63448329D01*
X86767378Y-63494948D01*
X86802086Y-63559881D01*
X86802089Y-63559885D01*
X86927410Y-63712589D01*
X87080114Y-63837910D01*
X87080118Y-63837913D01*
X87080122Y-63837916D01*
X87254350Y-63931042D01*
X87254352Y-63931043D01*
X87254356Y-63931044D01*
X87297593Y-63944159D01*
X87443397Y-63988389D01*
X87640000Y-64007753D01*
X87836603Y-63988389D01*
X88025650Y-63931042D01*
X88199878Y-63837916D01*
X88352589Y-63712589D01*
X88477916Y-63559878D01*
X88571042Y-63385650D01*
X88628389Y-63196603D01*
X88647753Y-63000000D01*
X89172247Y-63000000D01*
X89191610Y-63196599D01*
X89191610Y-63196601D01*
X89248955Y-63385643D01*
X89248956Y-63385647D01*
X89282460Y-63448329D01*
X89307378Y-63494948D01*
X89342086Y-63559881D01*
X89342089Y-63559885D01*
X89467410Y-63712589D01*
X89620114Y-63837910D01*
X89620118Y-63837913D01*
X89620122Y-63837916D01*
X89794350Y-63931042D01*
X89794352Y-63931043D01*
X89794356Y-63931044D01*
X89837593Y-63944159D01*
X89983397Y-63988389D01*
X90180000Y-64007753D01*
X90376603Y-63988389D01*
X90565650Y-63931042D01*
X90739878Y-63837916D01*
X90892589Y-63712589D01*
X91017916Y-63559878D01*
X91111042Y-63385650D01*
X91168389Y-63196603D01*
X91187753Y-63000000D01*
X91712247Y-63000000D01*
X91731610Y-63196599D01*
X91731610Y-63196601D01*
X91788955Y-63385643D01*
X91788956Y-63385647D01*
X91822460Y-63448329D01*
X91847378Y-63494948D01*
X91882086Y-63559881D01*
X91882089Y-63559885D01*
X92007410Y-63712589D01*
X92160114Y-63837910D01*
X92160118Y-63837913D01*
X92160122Y-63837916D01*
X92334350Y-63931042D01*
X92334352Y-63931043D01*
X92334356Y-63931044D01*
X92377593Y-63944159D01*
X92523397Y-63988389D01*
X92720000Y-64007753D01*
X92916603Y-63988389D01*
X93105650Y-63931042D01*
X93279878Y-63837916D01*
X93432589Y-63712589D01*
X93557916Y-63559878D01*
X93651042Y-63385650D01*
X93708389Y-63196603D01*
X93727753Y-63000000D01*
X94252247Y-63000000D01*
X94271610Y-63196599D01*
X94271610Y-63196601D01*
X94328955Y-63385643D01*
X94328956Y-63385647D01*
X94362460Y-63448329D01*
X94387378Y-63494948D01*
X94422086Y-63559881D01*
X94422089Y-63559885D01*
X94547410Y-63712589D01*
X94700114Y-63837910D01*
X94700118Y-63837913D01*
X94700122Y-63837916D01*
X94874350Y-63931042D01*
X94874352Y-63931043D01*
X94874356Y-63931044D01*
X94917593Y-63944159D01*
X95063397Y-63988389D01*
X95260000Y-64007753D01*
X95456603Y-63988389D01*
X95645650Y-63931042D01*
X95819878Y-63837916D01*
X95972589Y-63712589D01*
X96097916Y-63559878D01*
X96191042Y-63385650D01*
X96248389Y-63196603D01*
X96267753Y-63000000D01*
X96792247Y-63000000D01*
X96811610Y-63196599D01*
X96811610Y-63196601D01*
X96868955Y-63385643D01*
X96868956Y-63385647D01*
X96902460Y-63448329D01*
X96927378Y-63494948D01*
X96962086Y-63559881D01*
X96962089Y-63559885D01*
X97087410Y-63712589D01*
X97240114Y-63837910D01*
X97240118Y-63837913D01*
X97240122Y-63837916D01*
X97414350Y-63931042D01*
X97414352Y-63931043D01*
X97414356Y-63931044D01*
X97457593Y-63944159D01*
X97603397Y-63988389D01*
X97800000Y-64007753D01*
X97996603Y-63988389D01*
X98185650Y-63931042D01*
X98359878Y-63837916D01*
X98512589Y-63712589D01*
X98637916Y-63559878D01*
X98731042Y-63385650D01*
X98788389Y-63196603D01*
X98807753Y-63000000D01*
X99332247Y-63000000D01*
X99351610Y-63196599D01*
X99351610Y-63196601D01*
X99408955Y-63385643D01*
X99408956Y-63385647D01*
X99442460Y-63448329D01*
X99467378Y-63494948D01*
X99502086Y-63559881D01*
X99502089Y-63559885D01*
X99627410Y-63712589D01*
X99780114Y-63837910D01*
X99780118Y-63837913D01*
X99780122Y-63837916D01*
X99954350Y-63931042D01*
X99954352Y-63931043D01*
X99954356Y-63931044D01*
X99997593Y-63944159D01*
X100143397Y-63988389D01*
X100340000Y-64007753D01*
X100536603Y-63988389D01*
X100725650Y-63931042D01*
X100899878Y-63837916D01*
X101052589Y-63712589D01*
X101177916Y-63559878D01*
X101271042Y-63385650D01*
X101328389Y-63196603D01*
X101347753Y-63000000D01*
X101872247Y-63000000D01*
X101891610Y-63196599D01*
X101891610Y-63196601D01*
X101948955Y-63385643D01*
X101948956Y-63385647D01*
X101982460Y-63448329D01*
X102007378Y-63494948D01*
X102042086Y-63559881D01*
X102042089Y-63559885D01*
X102167410Y-63712589D01*
X102320114Y-63837910D01*
X102320118Y-63837913D01*
X102320122Y-63837916D01*
X102494350Y-63931042D01*
X102494352Y-63931043D01*
X102494356Y-63931044D01*
X102537593Y-63944159D01*
X102683397Y-63988389D01*
X102880000Y-64007753D01*
X103076603Y-63988389D01*
X103265650Y-63931042D01*
X103439878Y-63837916D01*
X103592589Y-63712589D01*
X103717916Y-63559878D01*
X103811042Y-63385650D01*
X103868389Y-63196603D01*
X103887753Y-63000000D01*
X104412247Y-63000000D01*
X104431610Y-63196599D01*
X104431610Y-63196601D01*
X104488955Y-63385643D01*
X104488956Y-63385647D01*
X104522460Y-63448329D01*
X104547378Y-63494948D01*
X104582086Y-63559881D01*
X104582089Y-63559885D01*
X104707410Y-63712589D01*
X104860114Y-63837910D01*
X104860118Y-63837913D01*
X104860122Y-63837916D01*
X105034350Y-63931042D01*
X105034352Y-63931043D01*
X105034356Y-63931044D01*
X105077593Y-63944159D01*
X105223397Y-63988389D01*
X105420000Y-64007753D01*
X105616603Y-63988389D01*
X105805650Y-63931042D01*
X105979878Y-63837916D01*
X106132589Y-63712589D01*
X106257916Y-63559878D01*
X106351042Y-63385650D01*
X106408389Y-63196603D01*
X106427753Y-63000000D01*
X106952247Y-63000000D01*
X106971610Y-63196599D01*
X106971610Y-63196601D01*
X107028955Y-63385643D01*
X107028956Y-63385647D01*
X107062460Y-63448329D01*
X107087378Y-63494948D01*
X107122086Y-63559881D01*
X107122089Y-63559885D01*
X107247410Y-63712589D01*
X107400114Y-63837910D01*
X107400118Y-63837913D01*
X107400122Y-63837916D01*
X107574350Y-63931042D01*
X107574352Y-63931043D01*
X107574356Y-63931044D01*
X107617593Y-63944159D01*
X107763397Y-63988389D01*
X107960000Y-64007753D01*
X108156603Y-63988389D01*
X108345650Y-63931042D01*
X108519878Y-63837916D01*
X108672589Y-63712589D01*
X108797916Y-63559878D01*
X108891042Y-63385650D01*
X108948389Y-63196603D01*
X108967753Y-63000000D01*
X109467227Y-63000000D01*
X109487070Y-63201480D01*
X109545844Y-63395230D01*
X109641275Y-63573768D01*
X109641281Y-63573778D01*
X109688761Y-63631632D01*
X110001923Y-63318470D01*
X110048544Y-63296730D01*
X110098231Y-63310044D01*
X110114469Y-63326939D01*
X110114712Y-63326729D01*
X110118234Y-63330793D01*
X110118238Y-63330796D01*
X110118239Y-63330798D01*
X110180725Y-63384942D01*
X110205735Y-63429892D01*
X110196001Y-63480402D01*
X110184655Y-63494948D01*
X109868365Y-63811238D01*
X109926221Y-63858718D01*
X109926226Y-63858721D01*
X110104769Y-63954155D01*
X110298521Y-64012929D01*
X110298517Y-64012929D01*
X110500000Y-64032772D01*
X110701480Y-64012929D01*
X110895230Y-63954155D01*
X111073773Y-63858721D01*
X111073779Y-63858717D01*
X111131632Y-63811237D01*
X110815344Y-63494950D01*
X110793604Y-63448329D01*
X110806918Y-63398642D01*
X110819267Y-63384948D01*
X110881761Y-63330798D01*
X110881765Y-63330790D01*
X110885285Y-63326731D01*
X110886196Y-63327520D01*
X110922569Y-63299836D01*
X110973951Y-63302282D01*
X110998076Y-63318470D01*
X111311237Y-63631632D01*
X111358717Y-63573779D01*
X111358721Y-63573773D01*
X111454155Y-63395230D01*
X111512929Y-63201480D01*
X111532772Y-63000000D01*
X111512929Y-62798519D01*
X111454155Y-62604769D01*
X111358721Y-62426226D01*
X111358718Y-62426221D01*
X111311237Y-62368365D01*
X110998075Y-62681528D01*
X110951455Y-62703268D01*
X110901768Y-62689954D01*
X110885530Y-62673060D01*
X110885288Y-62673271D01*
X110881765Y-62669206D01*
X110881761Y-62669203D01*
X110881761Y-62669202D01*
X110819272Y-62615056D01*
X110794263Y-62570106D01*
X110803997Y-62519596D01*
X110815344Y-62505049D01*
X111131632Y-62188761D01*
X111073778Y-62141281D01*
X111073768Y-62141275D01*
X110895230Y-62045844D01*
X110701478Y-61987070D01*
X110701482Y-61987070D01*
X110500000Y-61967227D01*
X110298519Y-61987070D01*
X110104769Y-62045844D01*
X109926231Y-62141275D01*
X109926216Y-62141285D01*
X109868365Y-62188761D01*
X110184654Y-62505050D01*
X110206394Y-62551670D01*
X110193080Y-62601357D01*
X110180726Y-62615056D01*
X110118242Y-62669198D01*
X110114720Y-62673264D01*
X110113811Y-62672476D01*
X110077419Y-62700166D01*
X110026038Y-62697713D01*
X110001925Y-62681529D01*
X109688761Y-62368365D01*
X109641285Y-62426216D01*
X109641275Y-62426231D01*
X109545844Y-62604769D01*
X109487070Y-62798519D01*
X109467227Y-63000000D01*
X108967753Y-63000000D01*
X108948389Y-62803397D01*
X108907680Y-62669198D01*
X108891044Y-62614356D01*
X108891043Y-62614352D01*
X108840395Y-62519596D01*
X108797916Y-62440122D01*
X108797913Y-62440118D01*
X108797910Y-62440114D01*
X108672589Y-62287410D01*
X108519885Y-62162089D01*
X108519881Y-62162086D01*
X108519879Y-62162085D01*
X108519878Y-62162084D01*
X108432764Y-62115520D01*
X108345647Y-62068956D01*
X108345643Y-62068955D01*
X108156600Y-62011610D01*
X107960000Y-61992247D01*
X107763400Y-62011610D01*
X107763398Y-62011610D01*
X107574356Y-62068955D01*
X107574352Y-62068956D01*
X107400118Y-62162086D01*
X107400114Y-62162089D01*
X107247410Y-62287410D01*
X107122089Y-62440114D01*
X107122086Y-62440118D01*
X107028956Y-62614352D01*
X107028955Y-62614356D01*
X106971610Y-62803398D01*
X106971610Y-62803400D01*
X106952247Y-63000000D01*
X106427753Y-63000000D01*
X106408389Y-62803397D01*
X106367680Y-62669198D01*
X106351044Y-62614356D01*
X106351043Y-62614352D01*
X106300395Y-62519596D01*
X106257916Y-62440122D01*
X106257913Y-62440118D01*
X106257910Y-62440114D01*
X106132589Y-62287410D01*
X105979885Y-62162089D01*
X105979881Y-62162086D01*
X105979879Y-62162085D01*
X105979878Y-62162084D01*
X105892764Y-62115521D01*
X105805647Y-62068956D01*
X105805643Y-62068955D01*
X105616600Y-62011610D01*
X105444112Y-61994621D01*
X105420000Y-61992247D01*
X105419999Y-61992247D01*
X105223400Y-62011610D01*
X105223398Y-62011610D01*
X105034356Y-62068955D01*
X105034352Y-62068956D01*
X104860118Y-62162086D01*
X104860114Y-62162089D01*
X104707410Y-62287410D01*
X104582089Y-62440114D01*
X104582086Y-62440118D01*
X104488956Y-62614352D01*
X104488955Y-62614356D01*
X104431610Y-62803398D01*
X104431610Y-62803400D01*
X104412247Y-63000000D01*
X103887753Y-63000000D01*
X103868389Y-62803397D01*
X103827680Y-62669198D01*
X103811044Y-62614356D01*
X103811043Y-62614352D01*
X103760395Y-62519596D01*
X103717916Y-62440122D01*
X103717913Y-62440118D01*
X103717910Y-62440114D01*
X103592589Y-62287410D01*
X103439885Y-62162089D01*
X103439881Y-62162086D01*
X103439879Y-62162085D01*
X103439878Y-62162084D01*
X103352764Y-62115521D01*
X103265647Y-62068956D01*
X103265643Y-62068955D01*
X103076600Y-62011610D01*
X102880000Y-61992247D01*
X102683400Y-62011610D01*
X102683398Y-62011610D01*
X102494356Y-62068955D01*
X102494352Y-62068956D01*
X102320118Y-62162086D01*
X102320114Y-62162089D01*
X102167410Y-62287410D01*
X102042089Y-62440114D01*
X102042086Y-62440118D01*
X101948956Y-62614352D01*
X101948955Y-62614356D01*
X101891610Y-62803398D01*
X101891610Y-62803400D01*
X101872247Y-63000000D01*
X101347753Y-63000000D01*
X101328389Y-62803397D01*
X101287680Y-62669198D01*
X101271044Y-62614356D01*
X101271043Y-62614352D01*
X101220395Y-62519596D01*
X101177916Y-62440122D01*
X101177913Y-62440118D01*
X101177910Y-62440114D01*
X101052589Y-62287410D01*
X100899885Y-62162089D01*
X100899881Y-62162086D01*
X100899879Y-62162085D01*
X100899878Y-62162084D01*
X100812764Y-62115521D01*
X100725647Y-62068956D01*
X100725643Y-62068955D01*
X100536600Y-62011610D01*
X100364112Y-61994621D01*
X100340000Y-61992247D01*
X100339999Y-61992247D01*
X100143400Y-62011610D01*
X100143398Y-62011610D01*
X99954356Y-62068955D01*
X99954352Y-62068956D01*
X99780118Y-62162086D01*
X99780114Y-62162089D01*
X99627410Y-62287410D01*
X99502089Y-62440114D01*
X99502086Y-62440118D01*
X99408956Y-62614352D01*
X99408955Y-62614356D01*
X99351610Y-62803398D01*
X99351610Y-62803400D01*
X99332247Y-63000000D01*
X98807753Y-63000000D01*
X98788389Y-62803397D01*
X98747680Y-62669198D01*
X98731044Y-62614356D01*
X98731043Y-62614352D01*
X98680395Y-62519596D01*
X98637916Y-62440122D01*
X98637913Y-62440118D01*
X98637910Y-62440114D01*
X98512589Y-62287410D01*
X98359885Y-62162089D01*
X98359881Y-62162086D01*
X98359879Y-62162085D01*
X98359878Y-62162084D01*
X98272763Y-62115521D01*
X98185647Y-62068956D01*
X98185643Y-62068955D01*
X97996600Y-62011610D01*
X97800000Y-61992247D01*
X97603400Y-62011610D01*
X97603398Y-62011610D01*
X97414356Y-62068955D01*
X97414352Y-62068956D01*
X97240118Y-62162086D01*
X97240114Y-62162089D01*
X97087410Y-62287410D01*
X96962089Y-62440114D01*
X96962086Y-62440118D01*
X96868956Y-62614352D01*
X96868955Y-62614356D01*
X96811610Y-62803398D01*
X96811610Y-62803400D01*
X96792247Y-63000000D01*
X96267753Y-63000000D01*
X96248389Y-62803397D01*
X96207680Y-62669198D01*
X96191044Y-62614356D01*
X96191043Y-62614352D01*
X96140395Y-62519596D01*
X96097916Y-62440122D01*
X96097913Y-62440118D01*
X96097910Y-62440114D01*
X95972589Y-62287410D01*
X95819885Y-62162089D01*
X95819881Y-62162086D01*
X95819879Y-62162085D01*
X95819878Y-62162084D01*
X95732763Y-62115521D01*
X95645647Y-62068956D01*
X95645643Y-62068955D01*
X95456600Y-62011610D01*
X95284112Y-61994621D01*
X95260000Y-61992247D01*
X95259999Y-61992247D01*
X95063400Y-62011610D01*
X95063398Y-62011610D01*
X94874356Y-62068955D01*
X94874352Y-62068956D01*
X94700118Y-62162086D01*
X94700114Y-62162089D01*
X94547410Y-62287410D01*
X94422089Y-62440114D01*
X94422086Y-62440118D01*
X94328956Y-62614352D01*
X94328955Y-62614356D01*
X94271610Y-62803398D01*
X94271610Y-62803400D01*
X94252247Y-63000000D01*
X93727753Y-63000000D01*
X93708389Y-62803397D01*
X93667680Y-62669198D01*
X93651044Y-62614356D01*
X93651043Y-62614352D01*
X93600395Y-62519596D01*
X93557916Y-62440122D01*
X93557913Y-62440118D01*
X93557910Y-62440114D01*
X93432589Y-62287410D01*
X93279885Y-62162089D01*
X93279881Y-62162086D01*
X93279879Y-62162085D01*
X93279878Y-62162084D01*
X93192763Y-62115521D01*
X93105647Y-62068956D01*
X93105643Y-62068955D01*
X92916600Y-62011610D01*
X92720000Y-61992247D01*
X92523400Y-62011610D01*
X92523398Y-62011610D01*
X92334356Y-62068955D01*
X92334352Y-62068956D01*
X92160118Y-62162086D01*
X92160114Y-62162089D01*
X92007410Y-62287410D01*
X91882089Y-62440114D01*
X91882086Y-62440118D01*
X91788956Y-62614352D01*
X91788955Y-62614356D01*
X91731610Y-62803398D01*
X91731610Y-62803400D01*
X91712247Y-63000000D01*
X91187753Y-63000000D01*
X91168389Y-62803397D01*
X91127680Y-62669198D01*
X91111044Y-62614356D01*
X91111043Y-62614352D01*
X91060395Y-62519596D01*
X91017916Y-62440122D01*
X91017913Y-62440118D01*
X91017910Y-62440114D01*
X90892589Y-62287410D01*
X90739885Y-62162089D01*
X90739881Y-62162086D01*
X90739879Y-62162085D01*
X90739878Y-62162084D01*
X90652763Y-62115521D01*
X90565647Y-62068956D01*
X90565643Y-62068955D01*
X90376600Y-62011610D01*
X90204112Y-61994621D01*
X90180000Y-61992247D01*
X90179999Y-61992247D01*
X89983400Y-62011610D01*
X89983398Y-62011610D01*
X89794356Y-62068955D01*
X89794352Y-62068956D01*
X89620118Y-62162086D01*
X89620114Y-62162089D01*
X89467410Y-62287410D01*
X89342089Y-62440114D01*
X89342086Y-62440118D01*
X89248956Y-62614352D01*
X89248955Y-62614356D01*
X89191610Y-62803398D01*
X89191610Y-62803400D01*
X89172247Y-63000000D01*
X88647753Y-63000000D01*
X88628389Y-62803397D01*
X88587680Y-62669198D01*
X88571044Y-62614356D01*
X88571043Y-62614352D01*
X88520395Y-62519596D01*
X88477916Y-62440122D01*
X88477913Y-62440118D01*
X88477910Y-62440114D01*
X88352589Y-62287410D01*
X88199885Y-62162089D01*
X88199881Y-62162086D01*
X88199879Y-62162085D01*
X88199878Y-62162084D01*
X88112763Y-62115521D01*
X88025647Y-62068956D01*
X88025643Y-62068955D01*
X87836600Y-62011610D01*
X87640000Y-61992247D01*
X87443400Y-62011610D01*
X87443398Y-62011610D01*
X87254356Y-62068955D01*
X87254352Y-62068956D01*
X87080118Y-62162086D01*
X87080114Y-62162089D01*
X86927410Y-62287410D01*
X86802089Y-62440114D01*
X86802086Y-62440118D01*
X86708956Y-62614352D01*
X86708955Y-62614356D01*
X86651610Y-62803398D01*
X86651610Y-62803400D01*
X86632247Y-63000000D01*
X86107753Y-63000000D01*
X86088389Y-62803397D01*
X86047680Y-62669198D01*
X86031044Y-62614356D01*
X86031043Y-62614352D01*
X85980395Y-62519596D01*
X85937916Y-62440122D01*
X85937913Y-62440118D01*
X85937910Y-62440114D01*
X85812589Y-62287410D01*
X85659885Y-62162089D01*
X85659881Y-62162086D01*
X85659879Y-62162085D01*
X85659878Y-62162084D01*
X85572763Y-62115521D01*
X85485647Y-62068956D01*
X85485643Y-62068955D01*
X85296600Y-62011610D01*
X85124112Y-61994621D01*
X85100000Y-61992247D01*
X85099999Y-61992247D01*
X84903400Y-62011610D01*
X84903398Y-62011610D01*
X84714356Y-62068955D01*
X84714352Y-62068956D01*
X84540118Y-62162086D01*
X84540114Y-62162089D01*
X84387410Y-62287410D01*
X84262089Y-62440114D01*
X84262086Y-62440118D01*
X84168956Y-62614352D01*
X84168955Y-62614356D01*
X84111610Y-62803398D01*
X84111610Y-62803400D01*
X84092247Y-63000000D01*
X83567753Y-63000000D01*
X83548389Y-62803397D01*
X83507680Y-62669198D01*
X83491044Y-62614356D01*
X83491043Y-62614352D01*
X83440395Y-62519596D01*
X83397916Y-62440122D01*
X83397913Y-62440118D01*
X83397910Y-62440114D01*
X83272589Y-62287410D01*
X83119885Y-62162089D01*
X83119881Y-62162086D01*
X83119879Y-62162085D01*
X83119878Y-62162084D01*
X83032763Y-62115521D01*
X82945647Y-62068956D01*
X82945643Y-62068955D01*
X82756600Y-62011610D01*
X82560000Y-61992247D01*
X82363400Y-62011610D01*
X82363398Y-62011610D01*
X82174356Y-62068955D01*
X82174352Y-62068956D01*
X82000118Y-62162086D01*
X82000114Y-62162089D01*
X81847410Y-62287410D01*
X81722089Y-62440114D01*
X81722086Y-62440118D01*
X81628956Y-62614352D01*
X81628955Y-62614356D01*
X81571610Y-62803398D01*
X81571610Y-62803400D01*
X81552247Y-63000000D01*
X81027753Y-63000000D01*
X81008389Y-62803397D01*
X80967680Y-62669198D01*
X80951044Y-62614356D01*
X80951043Y-62614352D01*
X80900395Y-62519596D01*
X80857916Y-62440122D01*
X80857913Y-62440118D01*
X80857910Y-62440114D01*
X80732589Y-62287410D01*
X80579885Y-62162089D01*
X80579881Y-62162086D01*
X80579879Y-62162085D01*
X80579878Y-62162084D01*
X80492764Y-62115521D01*
X80405647Y-62068956D01*
X80405643Y-62068955D01*
X80216600Y-62011610D01*
X80044112Y-61994621D01*
X80020000Y-61992247D01*
X80019999Y-61992247D01*
X79823400Y-62011610D01*
X79823398Y-62011610D01*
X79634356Y-62068955D01*
X79634352Y-62068956D01*
X79460118Y-62162086D01*
X79460114Y-62162089D01*
X79307410Y-62287410D01*
X79182089Y-62440114D01*
X79182086Y-62440118D01*
X79088956Y-62614352D01*
X79088955Y-62614356D01*
X79031610Y-62803398D01*
X79031610Y-62803400D01*
X79012247Y-63000000D01*
X78487753Y-63000000D01*
X78468389Y-62803397D01*
X78427680Y-62669198D01*
X78411044Y-62614356D01*
X78411043Y-62614352D01*
X78360395Y-62519596D01*
X78317916Y-62440122D01*
X78317913Y-62440118D01*
X78317910Y-62440114D01*
X78192589Y-62287410D01*
X78039885Y-62162089D01*
X78039881Y-62162086D01*
X78039879Y-62162085D01*
X78039878Y-62162084D01*
X77952764Y-62115521D01*
X77865647Y-62068956D01*
X77865643Y-62068955D01*
X77676600Y-62011610D01*
X77480000Y-61992247D01*
X77283400Y-62011610D01*
X77283398Y-62011610D01*
X77094356Y-62068955D01*
X77094352Y-62068956D01*
X76920118Y-62162086D01*
X76920114Y-62162089D01*
X76767410Y-62287410D01*
X76642089Y-62440114D01*
X76642086Y-62440118D01*
X76548956Y-62614352D01*
X76548955Y-62614356D01*
X76491610Y-62803398D01*
X76491610Y-62803400D01*
X76472247Y-63000000D01*
X75947753Y-63000000D01*
X75928389Y-62803397D01*
X75887680Y-62669198D01*
X75871044Y-62614356D01*
X75871043Y-62614352D01*
X75820395Y-62519596D01*
X75777916Y-62440122D01*
X75777913Y-62440118D01*
X75777910Y-62440114D01*
X75652589Y-62287410D01*
X75499885Y-62162089D01*
X75499881Y-62162086D01*
X75499879Y-62162085D01*
X75499878Y-62162084D01*
X75412764Y-62115521D01*
X75325647Y-62068956D01*
X75325643Y-62068955D01*
X75136600Y-62011610D01*
X74964112Y-61994621D01*
X74940000Y-61992247D01*
X74939999Y-61992247D01*
X74743400Y-62011610D01*
X74743398Y-62011610D01*
X74554356Y-62068955D01*
X74554352Y-62068956D01*
X74380118Y-62162086D01*
X74380114Y-62162089D01*
X74227410Y-62287410D01*
X74102089Y-62440114D01*
X74102086Y-62440118D01*
X74008956Y-62614352D01*
X74008955Y-62614356D01*
X73951610Y-62803398D01*
X73951610Y-62803400D01*
X73932247Y-63000000D01*
X73407753Y-63000000D01*
X73388389Y-62803397D01*
X73347680Y-62669198D01*
X73331044Y-62614356D01*
X73331043Y-62614352D01*
X73280395Y-62519596D01*
X73237916Y-62440122D01*
X73237913Y-62440118D01*
X73237910Y-62440114D01*
X73112589Y-62287410D01*
X72959885Y-62162089D01*
X72959881Y-62162086D01*
X72959879Y-62162085D01*
X72959878Y-62162084D01*
X72872764Y-62115521D01*
X72785647Y-62068956D01*
X72785643Y-62068955D01*
X72596600Y-62011610D01*
X72400000Y-61992247D01*
X72203400Y-62011610D01*
X72203398Y-62011610D01*
X72014356Y-62068955D01*
X72014352Y-62068956D01*
X71840118Y-62162086D01*
X71840114Y-62162089D01*
X71687410Y-62287410D01*
X71562089Y-62440114D01*
X71562086Y-62440118D01*
X71468956Y-62614352D01*
X71468955Y-62614356D01*
X71411610Y-62803398D01*
X71411610Y-62803400D01*
X71392247Y-63000000D01*
X70867753Y-63000000D01*
X70848389Y-62803397D01*
X70807680Y-62669198D01*
X70791044Y-62614356D01*
X70791043Y-62614352D01*
X70740395Y-62519596D01*
X70697916Y-62440122D01*
X70697913Y-62440118D01*
X70697910Y-62440114D01*
X70572589Y-62287410D01*
X70419885Y-62162089D01*
X70419881Y-62162086D01*
X70419879Y-62162085D01*
X70419878Y-62162084D01*
X70332764Y-62115521D01*
X70245647Y-62068956D01*
X70245643Y-62068955D01*
X70056600Y-62011610D01*
X69884112Y-61994621D01*
X69860000Y-61992247D01*
X69859999Y-61992247D01*
X69663400Y-62011610D01*
X69663398Y-62011610D01*
X69474356Y-62068955D01*
X69474352Y-62068956D01*
X69300118Y-62162086D01*
X69300114Y-62162089D01*
X69147410Y-62287410D01*
X69022089Y-62440114D01*
X69022086Y-62440118D01*
X68928956Y-62614352D01*
X68928955Y-62614356D01*
X68871610Y-62803398D01*
X68871610Y-62803400D01*
X68852247Y-63000000D01*
X68327753Y-63000000D01*
X68308389Y-62803397D01*
X68267680Y-62669198D01*
X68251044Y-62614356D01*
X68251043Y-62614352D01*
X68200395Y-62519596D01*
X68157916Y-62440122D01*
X68157913Y-62440118D01*
X68157910Y-62440114D01*
X68032589Y-62287410D01*
X67879885Y-62162089D01*
X67879881Y-62162086D01*
X67879879Y-62162085D01*
X67879878Y-62162084D01*
X67792764Y-62115521D01*
X67705647Y-62068956D01*
X67705643Y-62068955D01*
X67516600Y-62011610D01*
X67320000Y-61992247D01*
X67123400Y-62011610D01*
X67123398Y-62011610D01*
X66934356Y-62068955D01*
X66934352Y-62068956D01*
X66760118Y-62162086D01*
X66760114Y-62162089D01*
X66607410Y-62287410D01*
X66482089Y-62440114D01*
X66482086Y-62440118D01*
X66388956Y-62614352D01*
X66388955Y-62614356D01*
X66331610Y-62803398D01*
X66331610Y-62803400D01*
X66312247Y-63000000D01*
X65787753Y-63000000D01*
X65768389Y-62803397D01*
X65727680Y-62669198D01*
X65711044Y-62614356D01*
X65711043Y-62614352D01*
X65660395Y-62519596D01*
X65617916Y-62440122D01*
X65617913Y-62440118D01*
X65617910Y-62440114D01*
X65492589Y-62287410D01*
X65339885Y-62162089D01*
X65339881Y-62162086D01*
X65339879Y-62162085D01*
X65339878Y-62162084D01*
X65252764Y-62115521D01*
X65165647Y-62068956D01*
X65165643Y-62068955D01*
X64976600Y-62011610D01*
X64780000Y-61992247D01*
X64583400Y-62011610D01*
X64583398Y-62011610D01*
X64394356Y-62068955D01*
X64394352Y-62068956D01*
X64220118Y-62162086D01*
X64220114Y-62162089D01*
X64067410Y-62287410D01*
X63942089Y-62440114D01*
X63942086Y-62440118D01*
X63848956Y-62614352D01*
X63848955Y-62614356D01*
X63791610Y-62803398D01*
X63791610Y-62803400D01*
X63772247Y-63000000D01*
X63247753Y-63000000D01*
X63228389Y-62803397D01*
X63187680Y-62669198D01*
X63171044Y-62614356D01*
X63171043Y-62614352D01*
X63120395Y-62519596D01*
X63077916Y-62440122D01*
X63077913Y-62440118D01*
X63077910Y-62440114D01*
X62952589Y-62287410D01*
X62799885Y-62162089D01*
X62799881Y-62162086D01*
X62799879Y-62162085D01*
X62799878Y-62162084D01*
X62712764Y-62115521D01*
X62625647Y-62068956D01*
X62625643Y-62068955D01*
X62436600Y-62011610D01*
X62240000Y-61992247D01*
X62043400Y-62011610D01*
X62043398Y-62011610D01*
X61854356Y-62068955D01*
X61854352Y-62068956D01*
X61680118Y-62162086D01*
X61680114Y-62162089D01*
X61527410Y-62287410D01*
X61402089Y-62440114D01*
X61402086Y-62440118D01*
X61308956Y-62614352D01*
X61308955Y-62614356D01*
X61251610Y-62803398D01*
X61251610Y-62803400D01*
X61232247Y-63000000D01*
X60707753Y-63000000D01*
X60688389Y-62803397D01*
X60647680Y-62669198D01*
X60631044Y-62614356D01*
X60631043Y-62614352D01*
X60580395Y-62519596D01*
X60537916Y-62440122D01*
X60537913Y-62440118D01*
X60537910Y-62440114D01*
X60412589Y-62287410D01*
X60259885Y-62162089D01*
X60259881Y-62162086D01*
X60259879Y-62162085D01*
X60259878Y-62162084D01*
X60172764Y-62115521D01*
X60085647Y-62068956D01*
X60085643Y-62068955D01*
X59896600Y-62011610D01*
X59700000Y-61992247D01*
X59503400Y-62011610D01*
X59503398Y-62011610D01*
X59314356Y-62068955D01*
X59314352Y-62068956D01*
X59140118Y-62162086D01*
X59140114Y-62162089D01*
X58987410Y-62287410D01*
X58862089Y-62440114D01*
X58862086Y-62440118D01*
X58768956Y-62614352D01*
X58768955Y-62614356D01*
X58711610Y-62803398D01*
X58711610Y-62803400D01*
X58692247Y-63000000D01*
X58167753Y-63000000D01*
X58148389Y-62803397D01*
X58107680Y-62669198D01*
X58091044Y-62614356D01*
X58091043Y-62614352D01*
X58040395Y-62519596D01*
X57997916Y-62440122D01*
X57997913Y-62440118D01*
X57997910Y-62440114D01*
X57872589Y-62287410D01*
X57719885Y-62162089D01*
X57719881Y-62162086D01*
X57719879Y-62162085D01*
X57719878Y-62162084D01*
X57632764Y-62115521D01*
X57545647Y-62068956D01*
X57545643Y-62068955D01*
X57356600Y-62011610D01*
X57160000Y-61992247D01*
X56963400Y-62011610D01*
X56963398Y-62011610D01*
X56774356Y-62068955D01*
X56774352Y-62068956D01*
X56600118Y-62162086D01*
X56600114Y-62162089D01*
X56447410Y-62287410D01*
X56322089Y-62440114D01*
X56322086Y-62440118D01*
X56228956Y-62614352D01*
X56228955Y-62614356D01*
X56171610Y-62803398D01*
X56171610Y-62803400D01*
X56152247Y-63000000D01*
X55627753Y-63000000D01*
X55608389Y-62803397D01*
X55567680Y-62669198D01*
X55551044Y-62614356D01*
X55551043Y-62614352D01*
X55500395Y-62519596D01*
X55457916Y-62440122D01*
X55457913Y-62440118D01*
X55457910Y-62440114D01*
X55332589Y-62287410D01*
X55179885Y-62162089D01*
X55179881Y-62162086D01*
X55179879Y-62162085D01*
X55179878Y-62162084D01*
X55092764Y-62115521D01*
X55005647Y-62068956D01*
X55005643Y-62068955D01*
X54816600Y-62011610D01*
X54620000Y-61992247D01*
X54423400Y-62011610D01*
X54423398Y-62011610D01*
X54234356Y-62068955D01*
X54234352Y-62068956D01*
X54060118Y-62162086D01*
X54060114Y-62162089D01*
X53907410Y-62287410D01*
X53782089Y-62440114D01*
X53782086Y-62440118D01*
X53688956Y-62614352D01*
X53688955Y-62614356D01*
X53631610Y-62803398D01*
X53631610Y-62803400D01*
X53612247Y-63000000D01*
X53087753Y-63000000D01*
X53068389Y-62803397D01*
X53027680Y-62669198D01*
X53011044Y-62614356D01*
X53011043Y-62614352D01*
X52960395Y-62519596D01*
X52917916Y-62440122D01*
X52917913Y-62440118D01*
X52917910Y-62440114D01*
X52792589Y-62287410D01*
X52639885Y-62162089D01*
X52639881Y-62162086D01*
X52639879Y-62162085D01*
X52639878Y-62162084D01*
X52552764Y-62115521D01*
X52465647Y-62068956D01*
X52465643Y-62068955D01*
X52276600Y-62011610D01*
X52080000Y-61992247D01*
X51883400Y-62011610D01*
X51883398Y-62011610D01*
X51694356Y-62068955D01*
X51694352Y-62068956D01*
X51520118Y-62162086D01*
X51520114Y-62162089D01*
X51367410Y-62287410D01*
X51242089Y-62440114D01*
X51242086Y-62440118D01*
X51148956Y-62614352D01*
X51148955Y-62614356D01*
X51091610Y-62803398D01*
X51091610Y-62803400D01*
X51072247Y-63000000D01*
X49594100Y-63000000D01*
X49594100Y-59063624D01*
X49593024Y-59054764D01*
X49579608Y-58944275D01*
X49522696Y-58794209D01*
X49431524Y-58662123D01*
X49431520Y-58662119D01*
X49431515Y-58662114D01*
X49311394Y-58555697D01*
X49311388Y-58555693D01*
X49169283Y-58481110D01*
X49169281Y-58481109D01*
X49117335Y-58468305D01*
X49013448Y-58442700D01*
X48852952Y-58442700D01*
X48775035Y-58461904D01*
X48697118Y-58481109D01*
X48697116Y-58481110D01*
X48555011Y-58555693D01*
X48555005Y-58555697D01*
X48434884Y-58662114D01*
X48434872Y-58662127D01*
X48343707Y-58794203D01*
X48343702Y-58794211D01*
X48286793Y-58944271D01*
X48286792Y-58944273D01*
X48286792Y-58944275D01*
X48275068Y-59040827D01*
X48272300Y-59063624D01*
X48272300Y-80062883D01*
X48272231Y-80065153D01*
X48268660Y-80124199D01*
X47300500Y-80124199D01*
X47300500Y-54765055D01*
X97097100Y-54765055D01*
X97097101Y-54765057D01*
X97105972Y-54809659D01*
X97139764Y-54860232D01*
X97139765Y-54860232D01*
X97139766Y-54860234D01*
X97190342Y-54894028D01*
X97234943Y-54902900D01*
X100765056Y-54902899D01*
X100809658Y-54894028D01*
X100860234Y-54860234D01*
X100894028Y-54809658D01*
X100902900Y-54765057D01*
X100902899Y-51234944D01*
X100894028Y-51190342D01*
X100860234Y-51139766D01*
X100809658Y-51105972D01*
X100809656Y-51105971D01*
X100765057Y-51097100D01*
X97234944Y-51097100D01*
X97234942Y-51097101D01*
X97190340Y-51105972D01*
X97139767Y-51139764D01*
X97105972Y-51190342D01*
X97105971Y-51190343D01*
X97097100Y-51234942D01*
X97097100Y-54765055D01*
X47300500Y-54765055D01*
X47300500Y-50975600D01*
X103187600Y-50975600D01*
X103187600Y-55039600D01*
X106743600Y-55039600D01*
X106743600Y-50975600D01*
X103187600Y-50975600D01*
X47300500Y-50975600D01*
X47300500Y-49225494D01*
X100097100Y-49225494D01*
X100097101Y-49225511D01*
X100111971Y-49376500D01*
X100170751Y-49570269D01*
X100266194Y-49748829D01*
X100266202Y-49748841D01*
X100394647Y-49905352D01*
X100551158Y-50033797D01*
X100551161Y-50033799D01*
X100551166Y-50033803D01*
X100729736Y-50129251D01*
X100923496Y-50188028D01*
X101074497Y-50202900D01*
X102925502Y-50202899D01*
X103076504Y-50188028D01*
X103270264Y-50129251D01*
X103448834Y-50033803D01*
X103605352Y-49905352D01*
X103733803Y-49748834D01*
X103829251Y-49570264D01*
X103888028Y-49376504D01*
X103902900Y-49225503D01*
X103902899Y-47374498D01*
X103888028Y-47223496D01*
X103829251Y-47029736D01*
X103733803Y-46851166D01*
X103733799Y-46851161D01*
X103733797Y-46851158D01*
X103605352Y-46694647D01*
X103448841Y-46566202D01*
X103448836Y-46566198D01*
X103448834Y-46566197D01*
X103448831Y-46566195D01*
X103448829Y-46566194D01*
X103270269Y-46470751D01*
X103270266Y-46470750D01*
X103270264Y-46470749D01*
X103076504Y-46411972D01*
X103076499Y-46411971D01*
X103076502Y-46411971D01*
X102925503Y-46397100D01*
X101074505Y-46397100D01*
X101074488Y-46397101D01*
X100923499Y-46411971D01*
X100923495Y-46411972D01*
X100923496Y-46411972D01*
X100729736Y-46470749D01*
X100729735Y-46470749D01*
X100729730Y-46470751D01*
X100551170Y-46566194D01*
X100551158Y-46566202D01*
X100394647Y-46694647D01*
X100266202Y-46851158D01*
X100266194Y-46851170D01*
X100170751Y-47029730D01*
X100111971Y-47223499D01*
X100097100Y-47374489D01*
X100097100Y-49225494D01*
X47300500Y-49225494D01*
X47300500Y-43001060D01*
X47300530Y-43000000D01*
X48242185Y-43000000D01*
X48261818Y-43261989D01*
X48320280Y-43518125D01*
X48320281Y-43518128D01*
X48320282Y-43518131D01*
X48416259Y-43762679D01*
X48416265Y-43762691D01*
X48547622Y-43990208D01*
X48547623Y-43990209D01*
X48547625Y-43990212D01*
X48711430Y-44195618D01*
X48904020Y-44374315D01*
X49121093Y-44522312D01*
X49357798Y-44636304D01*
X49608849Y-44713743D01*
X49868638Y-44752900D01*
X49868640Y-44752900D01*
X50131360Y-44752900D01*
X50131362Y-44752900D01*
X50391151Y-44713743D01*
X50642202Y-44636304D01*
X50878908Y-44522312D01*
X51095980Y-44374315D01*
X51288570Y-44195618D01*
X51452375Y-43990212D01*
X51583737Y-43762687D01*
X51679720Y-43518125D01*
X51738182Y-43261989D01*
X51757815Y-43000000D01*
X108242185Y-43000000D01*
X108261818Y-43261989D01*
X108320280Y-43518125D01*
X108320281Y-43518128D01*
X108320282Y-43518131D01*
X108416259Y-43762679D01*
X108416265Y-43762691D01*
X108547622Y-43990208D01*
X108547623Y-43990209D01*
X108547625Y-43990212D01*
X108711430Y-44195618D01*
X108904020Y-44374315D01*
X109121093Y-44522312D01*
X109357798Y-44636304D01*
X109608849Y-44713743D01*
X109868638Y-44752900D01*
X109868640Y-44752900D01*
X110131360Y-44752900D01*
X110131362Y-44752900D01*
X110391151Y-44713743D01*
X110642202Y-44636304D01*
X110878908Y-44522312D01*
X111095980Y-44374315D01*
X111288570Y-44195618D01*
X111452375Y-43990212D01*
X111583737Y-43762687D01*
X111679720Y-43518125D01*
X111738182Y-43261989D01*
X111757815Y-43000000D01*
X111738182Y-42738011D01*
X111679720Y-42481875D01*
X111583737Y-42237313D01*
X111452375Y-42009788D01*
X111288570Y-41804382D01*
X111095980Y-41625685D01*
X110878908Y-41477688D01*
X110642202Y-41363696D01*
X110642200Y-41363695D01*
X110391154Y-41286258D01*
X110391151Y-41286257D01*
X110391147Y-41286256D01*
X110391141Y-41286255D01*
X110229965Y-41261962D01*
X110131362Y-41247100D01*
X109868638Y-41247100D01*
X109785762Y-41259591D01*
X109608858Y-41286255D01*
X109608845Y-41286258D01*
X109357799Y-41363695D01*
X109121092Y-41477688D01*
X108904022Y-41625683D01*
X108711432Y-41804379D01*
X108547625Y-42009788D01*
X108547622Y-42009791D01*
X108416265Y-42237308D01*
X108416259Y-42237320D01*
X108320282Y-42481868D01*
X108261818Y-42738008D01*
X108242185Y-42999999D01*
X108242185Y-43000000D01*
X51757815Y-43000000D01*
X51738182Y-42738011D01*
X51679720Y-42481875D01*
X51583737Y-42237313D01*
X51452375Y-42009788D01*
X51288570Y-41804382D01*
X51095980Y-41625685D01*
X50878908Y-41477688D01*
X50642202Y-41363696D01*
X50642200Y-41363695D01*
X50391154Y-41286258D01*
X50391151Y-41286257D01*
X50391147Y-41286256D01*
X50391141Y-41286255D01*
X50229965Y-41261962D01*
X50131362Y-41247100D01*
X49868638Y-41247100D01*
X49785762Y-41259591D01*
X49608858Y-41286255D01*
X49608845Y-41286258D01*
X49357799Y-41363695D01*
X49121092Y-41477688D01*
X48904022Y-41625683D01*
X48711432Y-41804379D01*
X48547625Y-42009788D01*
X48547622Y-42009791D01*
X48416265Y-42237308D01*
X48416259Y-42237320D01*
X48320282Y-42481868D01*
X48261818Y-42738008D01*
X48242185Y-42999999D01*
X48242185Y-43000000D01*
X47300530Y-43000000D01*
X47300559Y-42998952D01*
X47317356Y-42699862D01*
X47317828Y-42695669D01*
X47367829Y-42401384D01*
X47368768Y-42397270D01*
X47414851Y-42237313D01*
X47451402Y-42110440D01*
X47452795Y-42106462D01*
X47567026Y-41830683D01*
X47568857Y-41826881D01*
X47581294Y-41804379D01*
X47713250Y-41565619D01*
X47715484Y-41562064D01*
X47888232Y-41318599D01*
X47890845Y-41315323D01*
X48089770Y-41092725D01*
X48092725Y-41089770D01*
X48315323Y-40890845D01*
X48318599Y-40888232D01*
X48562064Y-40715484D01*
X48565619Y-40713250D01*
X48826887Y-40568853D01*
X48830676Y-40567029D01*
X49000804Y-40496559D01*
X49106462Y-40452795D01*
X49110440Y-40451402D01*
X49397274Y-40368766D01*
X49401384Y-40367829D01*
X49695669Y-40317828D01*
X49699862Y-40317356D01*
X49998953Y-40300559D01*
X50001061Y-40300500D01*
X50047595Y-40300500D01*
X109952405Y-40300500D01*
X109998939Y-40300500D01*
X110001047Y-40300559D01*
G37*
%TD.AperFunction*%
%TD*%
%TA.AperFunction,Conductor*%
%TO.N,GND*%
G36*
X106743600Y-55039600D02*
G01*
X103187600Y-55039600D01*
X103187600Y-52746000D01*
X103322200Y-52746000D01*
X104424800Y-52746000D01*
X104473138Y-52763593D01*
X104498858Y-52808142D01*
X104500000Y-52821200D01*
X104500000Y-53178800D01*
X104482407Y-53227138D01*
X104437858Y-53252858D01*
X104424800Y-53254000D01*
X103322201Y-53254000D01*
X103322201Y-54064936D01*
X103328574Y-54145934D01*
X103379051Y-54334320D01*
X103379053Y-54334324D01*
X103467596Y-54508102D01*
X103590331Y-54659668D01*
X103741897Y-54782403D01*
X103915675Y-54870946D01*
X103915679Y-54870948D01*
X104104064Y-54921425D01*
X104185061Y-54927799D01*
X104745999Y-54927799D01*
X104746000Y-54546983D01*
X104763593Y-54498645D01*
X104808142Y-54472925D01*
X104842385Y-54474828D01*
X104928111Y-54500000D01*
X104928114Y-54500000D01*
X105071886Y-54500000D01*
X105071889Y-54500000D01*
X105157614Y-54474829D01*
X105208950Y-54478092D01*
X105246179Y-54513589D01*
X105254000Y-54546983D01*
X105254000Y-54927799D01*
X105814936Y-54927799D01*
X105895934Y-54921425D01*
X106084320Y-54870948D01*
X106084324Y-54870946D01*
X106258102Y-54782403D01*
X106409668Y-54659668D01*
X106532403Y-54508102D01*
X106620946Y-54334324D01*
X106620948Y-54334320D01*
X106671425Y-54145935D01*
X106677800Y-54064938D01*
X106677800Y-53254000D01*
X105575200Y-53254000D01*
X105526862Y-53236407D01*
X105501142Y-53191858D01*
X105500000Y-53178800D01*
X105500000Y-52821200D01*
X105517593Y-52772862D01*
X105562142Y-52747142D01*
X105575200Y-52746000D01*
X106677799Y-52746000D01*
X106677799Y-51935064D01*
X106671425Y-51854065D01*
X106620948Y-51665679D01*
X106620946Y-51665675D01*
X106532403Y-51491897D01*
X106409668Y-51340331D01*
X106258102Y-51217596D01*
X106084324Y-51129053D01*
X106084320Y-51129051D01*
X105895935Y-51078574D01*
X105814938Y-51072200D01*
X105254000Y-51072200D01*
X105254000Y-51453016D01*
X105236407Y-51501354D01*
X105191858Y-51527074D01*
X105157615Y-51525170D01*
X105071894Y-51500001D01*
X105071891Y-51500000D01*
X105071889Y-51500000D01*
X104928111Y-51500000D01*
X104928109Y-51500000D01*
X104928105Y-51500001D01*
X104842385Y-51525170D01*
X104791049Y-51521907D01*
X104753821Y-51486409D01*
X104746000Y-51453016D01*
X104745999Y-51072200D01*
X104185063Y-51072201D01*
X104185064Y-51072201D01*
X104104065Y-51078574D01*
X103915679Y-51129051D01*
X103915675Y-51129053D01*
X103741897Y-51217596D01*
X103590331Y-51340331D01*
X103467596Y-51491897D01*
X103379053Y-51665675D01*
X103379051Y-51665679D01*
X103328574Y-51854064D01*
X103322200Y-51935062D01*
X103322200Y-52746000D01*
X103187600Y-52746000D01*
X103187600Y-50975600D01*
X106743600Y-50975600D01*
X106743600Y-55039600D01*
G37*
%TD.AperFunction*%
%TD*%
M02*
