%TF.GenerationSoftware,KiCad,Pcbnew,7.0.7*%
%TF.CreationDate,2024-03-28T21:46:40-04:00*%
%TF.ProjectId,midi-controller_pot-board_teensy,6d696469-2d63-46f6-9e74-726f6c6c6572,rev?*%
%TF.SameCoordinates,Original*%
%TF.FileFunction,Soldermask,Bot*%
%TF.FilePolarity,Negative*%
%FSLAX46Y46*%
G04 Gerber Fmt 4.6, Leading zero omitted, Abs format (unit mm)*
G04 Created by KiCad (PCBNEW 7.0.7) date 2024-03-28 21:46:40*
%MOMM*%
%LPD*%
G01*
G04 APERTURE LIST*
G04 Aperture macros list*
%AMRoundRect*
0 Rectangle with rounded corners*
0 $1 Rounding radius*
0 $2 $3 $4 $5 $6 $7 $8 $9 X,Y pos of 4 corners*
0 Add a 4 corners polygon primitive as box body*
4,1,4,$2,$3,$4,$5,$6,$7,$8,$9,$2,$3,0*
0 Add four circle primitives for the rounded corners*
1,1,$1+$1,$2,$3*
1,1,$1+$1,$4,$5*
1,1,$1+$1,$6,$7*
1,1,$1+$1,$8,$9*
0 Add four rect primitives between the rounded corners*
20,1,$1+$1,$2,$3,$4,$5,0*
20,1,$1+$1,$4,$5,$6,$7,0*
20,1,$1+$1,$6,$7,$8,$9,0*
20,1,$1+$1,$8,$9,$2,$3,0*%
G04 Aperture macros list end*
%ADD10R,1.800000X1.800000*%
%ADD11C,1.800000*%
%ADD12C,4.500000*%
%ADD13C,3.200000*%
%ADD14RoundRect,0.150000X-0.150000X0.875000X-0.150000X-0.875000X0.150000X-0.875000X0.150000X0.875000X0*%
%ADD15R,1.560000X0.650000*%
%ADD16R,1.300000X0.300000*%
%ADD17R,2.200000X1.800000*%
%ADD18RoundRect,0.150000X0.825000X0.150000X-0.825000X0.150000X-0.825000X-0.150000X0.825000X-0.150000X0*%
G04 APERTURE END LIST*
D10*
%TO.C,RV8*%
X356928000Y-137664000D03*
D11*
X359428000Y-137664000D03*
X361928000Y-137664000D03*
X354428000Y-137664000D03*
X355678000Y-119764000D03*
X360678000Y-119764000D03*
D12*
X351578000Y-126764000D03*
X364778000Y-126764000D03*
%TD*%
D13*
%TO.C,H8*%
X378178000Y-227554000D03*
%TD*%
D10*
%TO.C,RV16*%
X356928000Y-180664000D03*
D11*
X359428000Y-180664000D03*
X361928000Y-180664000D03*
X354428000Y-180664000D03*
X355678000Y-162764000D03*
X360678000Y-162764000D03*
D12*
X351578000Y-169764000D03*
X364778000Y-169764000D03*
%TD*%
D10*
%TO.C,RV24*%
X356928000Y-223664000D03*
D11*
X359428000Y-223664000D03*
X361928000Y-223664000D03*
X354428000Y-223664000D03*
X355678000Y-205764000D03*
X360678000Y-205764000D03*
D12*
X351578000Y-212764000D03*
X364778000Y-212764000D03*
%TD*%
D10*
%TO.C,RV2*%
X146928000Y-137664000D03*
D11*
X149428000Y-137664000D03*
X151928000Y-137664000D03*
X144428000Y-137664000D03*
X145678000Y-119764000D03*
X150678000Y-119764000D03*
D12*
X141578000Y-126764000D03*
X154778000Y-126764000D03*
%TD*%
D10*
%TO.C,RV10*%
X146928000Y-180664000D03*
D11*
X149428000Y-180664000D03*
X151928000Y-180664000D03*
X144428000Y-180664000D03*
X145678000Y-162764000D03*
X150678000Y-162764000D03*
D12*
X141578000Y-169764000D03*
X154778000Y-169764000D03*
%TD*%
D10*
%TO.C,RV11*%
X181928000Y-180664000D03*
D11*
X184428000Y-180664000D03*
X186928000Y-180664000D03*
X179428000Y-180664000D03*
X180678000Y-162764000D03*
X185678000Y-162764000D03*
D12*
X176578000Y-169764000D03*
X189778000Y-169764000D03*
%TD*%
D13*
%TO.C,H6*%
X378178000Y-184554000D03*
%TD*%
%TO.C,H3*%
X97178000Y-141554000D03*
%TD*%
D10*
%TO.C,RV15*%
X321928000Y-180664000D03*
D11*
X324428000Y-180664000D03*
X326928000Y-180664000D03*
X319428000Y-180664000D03*
X320678000Y-162764000D03*
X325678000Y-162764000D03*
D12*
X316578000Y-169764000D03*
X329778000Y-169764000D03*
%TD*%
D10*
%TO.C,RV6*%
X286928000Y-137664000D03*
D11*
X289428000Y-137664000D03*
X291928000Y-137664000D03*
X284428000Y-137664000D03*
X285678000Y-119764000D03*
X290678000Y-119764000D03*
D12*
X281578000Y-126764000D03*
X294778000Y-126764000D03*
%TD*%
D10*
%TO.C,RV21*%
X251928000Y-223664000D03*
D11*
X254428000Y-223664000D03*
X256928000Y-223664000D03*
X249428000Y-223664000D03*
X250678000Y-205764000D03*
X255678000Y-205764000D03*
D12*
X246578000Y-212764000D03*
X259778000Y-212764000D03*
%TD*%
D10*
%TO.C,RV23*%
X321928000Y-223664000D03*
D11*
X324428000Y-223664000D03*
X326928000Y-223664000D03*
X319428000Y-223664000D03*
X320678000Y-205764000D03*
X325678000Y-205764000D03*
D12*
X316578000Y-212764000D03*
X329778000Y-212764000D03*
%TD*%
D10*
%TO.C,RV13*%
X251928000Y-180664000D03*
D11*
X254428000Y-180664000D03*
X256928000Y-180664000D03*
X249428000Y-180664000D03*
X250678000Y-162764000D03*
X255678000Y-162764000D03*
D12*
X246578000Y-169764000D03*
X259778000Y-169764000D03*
%TD*%
D10*
%TO.C,RV3*%
X181928000Y-137664000D03*
D11*
X184428000Y-137664000D03*
X186928000Y-137664000D03*
X179428000Y-137664000D03*
X180678000Y-119764000D03*
X185678000Y-119764000D03*
D12*
X176578000Y-126764000D03*
X189778000Y-126764000D03*
%TD*%
D10*
%TO.C,RV1*%
X111928000Y-137664000D03*
D11*
X114428000Y-137664000D03*
X116928000Y-137664000D03*
X109428000Y-137664000D03*
X110678000Y-119764000D03*
X115678000Y-119764000D03*
D12*
X106578000Y-126764000D03*
X119778000Y-126764000D03*
%TD*%
D10*
%TO.C,RV9*%
X111928000Y-180664000D03*
D11*
X114428000Y-180664000D03*
X116928000Y-180664000D03*
X109428000Y-180664000D03*
X110678000Y-162764000D03*
X115678000Y-162764000D03*
D12*
X106578000Y-169764000D03*
X119778000Y-169764000D03*
%TD*%
D10*
%TO.C,RV14*%
X286928000Y-180664000D03*
D11*
X289428000Y-180664000D03*
X291928000Y-180664000D03*
X284428000Y-180664000D03*
X285678000Y-162764000D03*
X290678000Y-162764000D03*
D12*
X281578000Y-169764000D03*
X294778000Y-169764000D03*
%TD*%
D10*
%TO.C,RV7*%
X321928000Y-137664000D03*
D11*
X324428000Y-137664000D03*
X326928000Y-137664000D03*
X319428000Y-137664000D03*
X320678000Y-119764000D03*
X325678000Y-119764000D03*
D12*
X316578000Y-126764000D03*
X329778000Y-126764000D03*
%TD*%
D13*
%TO.C,H1*%
X97178000Y-98554000D03*
%TD*%
%TO.C,H7*%
X97178000Y-227554000D03*
%TD*%
%TO.C,H2*%
X378178000Y-98554000D03*
%TD*%
D10*
%TO.C,RV20*%
X216928000Y-223664000D03*
D11*
X219428000Y-223664000D03*
X221928000Y-223664000D03*
X214428000Y-223664000D03*
X215678000Y-205764000D03*
X220678000Y-205764000D03*
D12*
X211578000Y-212764000D03*
X224778000Y-212764000D03*
%TD*%
D10*
%TO.C,RV4*%
X216928000Y-137664000D03*
D11*
X219428000Y-137664000D03*
X221928000Y-137664000D03*
X214428000Y-137664000D03*
X215678000Y-119764000D03*
X220678000Y-119764000D03*
D12*
X211578000Y-126764000D03*
X224778000Y-126764000D03*
%TD*%
D10*
%TO.C,RV17*%
X111928000Y-223664000D03*
D11*
X114428000Y-223664000D03*
X116928000Y-223664000D03*
X109428000Y-223664000D03*
X110678000Y-205764000D03*
X115678000Y-205764000D03*
D12*
X106578000Y-212764000D03*
X119778000Y-212764000D03*
%TD*%
D10*
%TO.C,RV18*%
X146928000Y-223664000D03*
D11*
X149428000Y-223664000D03*
X151928000Y-223664000D03*
X144428000Y-223664000D03*
X145678000Y-205764000D03*
X150678000Y-205764000D03*
D12*
X141578000Y-212764000D03*
X154778000Y-212764000D03*
%TD*%
D13*
%TO.C,H5*%
X97178000Y-184554000D03*
%TD*%
D10*
%TO.C,RV19*%
X181928000Y-223664000D03*
D11*
X184428000Y-223664000D03*
X186928000Y-223664000D03*
X179428000Y-223664000D03*
X180678000Y-205764000D03*
X185678000Y-205764000D03*
D12*
X176578000Y-212764000D03*
X189778000Y-212764000D03*
%TD*%
D10*
%TO.C,RV5*%
X251928000Y-137664000D03*
D11*
X254428000Y-137664000D03*
X256928000Y-137664000D03*
X249428000Y-137664000D03*
X250678000Y-119764000D03*
X255678000Y-119764000D03*
D12*
X246578000Y-126764000D03*
X259778000Y-126764000D03*
%TD*%
D10*
%TO.C,RV12*%
X216928000Y-180664000D03*
D11*
X219428000Y-180664000D03*
X221928000Y-180664000D03*
X214428000Y-180664000D03*
X215678000Y-162764000D03*
X220678000Y-162764000D03*
D12*
X211578000Y-169764000D03*
X224778000Y-169764000D03*
%TD*%
D10*
%TO.C,RV22*%
X286928000Y-223664000D03*
D11*
X289428000Y-223664000D03*
X291928000Y-223664000D03*
X284428000Y-223664000D03*
X285678000Y-205764000D03*
X290678000Y-205764000D03*
D12*
X281578000Y-212764000D03*
X294778000Y-212764000D03*
%TD*%
D13*
%TO.C,H4*%
X378178000Y-141554000D03*
%TD*%
D14*
%TO.C,U9*%
X123193000Y-188904000D03*
X124463000Y-188904000D03*
X125733000Y-188904000D03*
X127003000Y-188904000D03*
X128273000Y-188904000D03*
X129543000Y-188904000D03*
X130813000Y-188904000D03*
X132083000Y-188904000D03*
X133353000Y-188904000D03*
X134623000Y-188904000D03*
X135893000Y-188904000D03*
X137163000Y-188904000D03*
X137163000Y-198204000D03*
X135893000Y-198204000D03*
X134623000Y-198204000D03*
X133353000Y-198204000D03*
X132083000Y-198204000D03*
X130813000Y-198204000D03*
X129543000Y-198204000D03*
X128273000Y-198204000D03*
X127003000Y-198204000D03*
X125733000Y-198204000D03*
X124463000Y-198204000D03*
X123193000Y-198204000D03*
%TD*%
D15*
%TO.C,U10*%
X135528000Y-170604000D03*
X135528000Y-171554000D03*
X135528000Y-172504000D03*
X132828000Y-172504000D03*
X132828000Y-170604000D03*
%TD*%
D16*
%TO.C,J2*%
X104028000Y-154554000D03*
X104028000Y-154054000D03*
X104028000Y-153554000D03*
X104028000Y-153054000D03*
X104028000Y-152554000D03*
X104028000Y-152054000D03*
X104028000Y-151554000D03*
X104028000Y-151054000D03*
X104028000Y-150554000D03*
X104028000Y-150054000D03*
X104028000Y-149554000D03*
X104028000Y-149054000D03*
X104028000Y-148554000D03*
X104028000Y-148054000D03*
X104028000Y-147554000D03*
D17*
X100778000Y-156454000D03*
X100778000Y-145654000D03*
%TD*%
D16*
%TO.C,J3*%
X104028000Y-197554000D03*
X104028000Y-197054000D03*
X104028000Y-196554000D03*
X104028000Y-196054000D03*
X104028000Y-195554000D03*
X104028000Y-195054000D03*
X104028000Y-194554000D03*
X104028000Y-194054000D03*
X104028000Y-193554000D03*
X104028000Y-193054000D03*
X104028000Y-192554000D03*
X104028000Y-192054000D03*
X104028000Y-191554000D03*
X104028000Y-191054000D03*
X104028000Y-190554000D03*
D17*
X100778000Y-199454000D03*
X100778000Y-188654000D03*
%TD*%
D18*
%TO.C,U7*%
X343653000Y-107744000D03*
X343653000Y-109014000D03*
X343653000Y-110284000D03*
X343653000Y-111554000D03*
X343653000Y-112824000D03*
X343653000Y-114094000D03*
X343653000Y-115364000D03*
X338703000Y-115364000D03*
X338703000Y-114094000D03*
X338703000Y-112824000D03*
X338703000Y-111554000D03*
X338703000Y-110284000D03*
X338703000Y-109014000D03*
X338703000Y-107744000D03*
%TD*%
D16*
%TO.C,J1*%
X104028000Y-111554000D03*
X104028000Y-111054000D03*
X104028000Y-110554000D03*
X104028000Y-110054000D03*
X104028000Y-109554000D03*
X104028000Y-109054000D03*
X104028000Y-108554000D03*
X104028000Y-108054000D03*
X104028000Y-107554000D03*
X104028000Y-107054000D03*
X104028000Y-106554000D03*
X104028000Y-106054000D03*
X104028000Y-105554000D03*
X104028000Y-105054000D03*
X104028000Y-104554000D03*
D17*
X100778000Y-113454000D03*
X100778000Y-102654000D03*
%TD*%
D16*
%TO.C,J4*%
X371328000Y-153304000D03*
X371328000Y-153804000D03*
X371328000Y-154304000D03*
X371328000Y-154804000D03*
X371328000Y-155304000D03*
X371328000Y-155804000D03*
X371328000Y-156304000D03*
X371328000Y-156804000D03*
X371328000Y-157304000D03*
X371328000Y-157804000D03*
X371328000Y-158304000D03*
X371328000Y-158804000D03*
X371328000Y-159304000D03*
X371328000Y-159804000D03*
X371328000Y-160304000D03*
X371328000Y-160804000D03*
X371328000Y-161304000D03*
X371328000Y-161804000D03*
X371328000Y-162304000D03*
X371328000Y-162804000D03*
X371328000Y-163304000D03*
X371328000Y-163804000D03*
X371328000Y-164304000D03*
X371328000Y-164804000D03*
X371328000Y-165304000D03*
X371328000Y-165804000D03*
X371328000Y-166304000D03*
X371328000Y-166804000D03*
X371328000Y-167304000D03*
X371328000Y-167804000D03*
X371328000Y-168304000D03*
X371328000Y-168804000D03*
X371328000Y-169304000D03*
X371328000Y-169804000D03*
X371328000Y-170304000D03*
X371328000Y-170804000D03*
X371328000Y-171304000D03*
X371328000Y-171804000D03*
X371328000Y-172304000D03*
X371328000Y-172804000D03*
D17*
X374578000Y-151404000D03*
X374578000Y-174704000D03*
%TD*%
D14*
%TO.C,U8*%
X123193000Y-145904000D03*
X124463000Y-145904000D03*
X125733000Y-145904000D03*
X127003000Y-145904000D03*
X128273000Y-145904000D03*
X129543000Y-145904000D03*
X130813000Y-145904000D03*
X132083000Y-145904000D03*
X133353000Y-145904000D03*
X134623000Y-145904000D03*
X135893000Y-145904000D03*
X137163000Y-145904000D03*
X137163000Y-155204000D03*
X135893000Y-155204000D03*
X134623000Y-155204000D03*
X133353000Y-155204000D03*
X132083000Y-155204000D03*
X130813000Y-155204000D03*
X129543000Y-155204000D03*
X128273000Y-155204000D03*
X127003000Y-155204000D03*
X125733000Y-155204000D03*
X124463000Y-155204000D03*
X123193000Y-155204000D03*
%TD*%
M02*
