M48
; DRILL file {KiCad 7.0.7} date Thu Mar 28 21:46:42 2024
; FORMAT={-:-/ absolute / inch / decimal}
; #@! TF.CreationDate,2024-03-28T21:46:42-04:00
; #@! TF.GenerationSoftware,Kicad,Pcbnew,7.0.7
; #@! TF.FileFunction,Plated,1,2,PTH
FMAT,2
INCH
; #@! TA.AperFunction,Plated,PTH,ViaDrill
T1C0.0100
; #@! TA.AperFunction,Plated,PTH,ComponentDrill
T2C0.0394
; #@! TA.AperFunction,Plated,PTH,ComponentDrill
T3C0.1000
; #@! TA.AperFunction,Plated,PTH,ComponentDrill
T4C0.1181
%
G90
G05
T1
X3.8379Y-6.2921
X3.8679Y-6.2921
X3.8979Y-6.2921
X3.9489Y-4.3541
X3.9489Y-6.0461
X3.9489Y-7.7371
X3.9679Y-4.3335
X3.9679Y-6.0261
X3.9679Y-7.7191
X3.9879Y-4.3141
X3.9879Y-6.0061
X3.9879Y-7.7001
X4.0079Y-7.6791
X4.0079Y-4.2941
X4.0079Y-5.9871
X4.0273Y-4.2741
X4.0273Y-5.9661
X4.0273Y-7.6601
X4.0459Y-4.1141
X4.0459Y-4.1541
X4.0459Y-4.1941
X4.0459Y-5.8081
X4.0459Y-5.8481
X4.0465Y-7.5415
X4.0479Y-4.3921
X4.0479Y-5.8881
X4.0479Y-6.0861
X4.0479Y-7.5021
X4.0479Y-7.5801
X4.0479Y-7.6201
X4.0479Y-7.7781
X4.0482Y-4.2344
X4.0491Y-5.9273
X4.0799Y-6.2921
X4.0959Y-4.4181
X4.0959Y-6.1121
X4.0959Y-7.8001
X4.1079Y-6.2921
X4.1139Y-3.9561
X4.1359Y-6.2921
X4.1399Y-6.0861
X4.1419Y-3.9561
X4.1419Y-4.3921
X4.1419Y-7.7781
X4.1421Y-7.6399
X4.1427Y-5.8291
X4.143Y-5.947
X4.1439Y-4.2541
X4.1439Y-4.1361
X4.1439Y-4.1761
X4.1439Y-4.2151
X4.1439Y-5.8681
X4.1439Y-5.9081
X4.1439Y-7.5991
X4.1459Y-7.5211
X4.1459Y-7.5601
X4.1679Y-3.9561
X4.3079Y-5.2341
X4.3099Y-6.9281
X4.3099Y-8.6201
X4.3579Y-4.3661
X4.5039Y-5.2141
X4.5079Y-6.9081
X4.5079Y-8.6021
X4.8499Y-4.2541
X4.8499Y-6.0481
X4.8499Y-7.6401
X4.8499Y-7.7401
X4.8999Y-7.6241
X4.9001Y-7.9461
X4.9039Y-4.2351
X4.9499Y-7.6001
X4.9499Y-7.9261
X4.9539Y-4.2151
X4.9999Y-7.5791
X4.9999Y-7.9061
X5.0019Y-4.1951
X5.0499Y-7.5601
X5.0501Y-7.8861
X5.0519Y-4.174
X5.0979Y-4.1551
X5.0999Y-7.5411
X5.0999Y-7.8661
X5.1479Y-4.1351
X5.1519Y-7.5211
X5.1999Y-4.1141
X5.1999Y-5.8101
X5.1999Y-7.5001
X5.2239Y-5.9481
X5.2499Y-5.8301
X5.2739Y-5.9281
X5.2819Y-6.7161
X5.2999Y-5.8521
X5.3279Y-5.9081
X5.3499Y-5.8701
X5.3999Y-5.8921
X5.4439Y-7.7341
X5.6879Y-5.2821
X5.6879Y-8.6581
X5.6899Y-6.9661
X5.7379Y-4.4161
X5.8839Y-5.2631
X5.8859Y-6.9471
X5.8859Y-8.6401
X6.4239Y-4.9501
X6.4239Y-5.9821
X6.4239Y-6.6381
X6.4239Y-8.3361
X6.4919Y-5.1241
X6.4919Y-6.8181
X6.4919Y-8.5101
X6.4939Y-4.8921
X6.4939Y-6.5841
X6.4959Y-8.2781
X6.5179Y-5.1241
X6.5179Y-5.9621
X6.5179Y-6.8181
X6.5179Y-8.5101
X6.5439Y-6.0021
X6.5674Y-5.2341
X6.5679Y-4.9981
X6.5679Y-6.6901
X6.5679Y-6.9281
X6.5679Y-8.3841
X6.5679Y-8.6201
X6.5939Y-4.9981
X6.5939Y-5.2821
X6.5939Y-6.6901
X6.5939Y-6.9661
X6.5939Y-8.3841
X6.5939Y-8.6581
X6.6199Y-4.9981
X6.6199Y-5.2821
X6.6199Y-6.6901
X6.6199Y-8.6581
X6.6199Y-8.3841
X6.6219Y-6.9661
X6.6459Y-4.9981
X6.6459Y-5.2341
X6.6459Y-6.6901
X6.6459Y-6.9281
X6.6459Y-8.3841
X6.6484Y-8.6206
X6.6719Y-6.6901
X6.6719Y-4.9981
X6.6719Y-5.1241
X6.6719Y-6.0211
X6.6719Y-6.8181
X6.6719Y-8.5101
X6.6739Y-6.1121
X6.6739Y-8.3841
X6.6939Y-6.039
X6.6959Y-6.0921
X6.7159Y-6.1901
X6.7359Y-6.1711
X7.0639Y-5.2821
X7.0639Y-6.9661
X7.0639Y-8.6601
X7.1159Y-4.4681
X7.2619Y-6.9471
X7.2619Y-8.6401
X7.2639Y-5.2531
X8.4419Y-5.2351
X8.4419Y-6.9271
X8.4439Y-8.6221
X8.4939Y-4.5161
X8.6359Y-8.6021
X8.6389Y-5.2161
X8.6399Y-6.9081
X9.8219Y-5.2301
X9.8219Y-6.9281
X9.8219Y-8.6221
X9.8699Y-4.4441
X10.0179Y-5.2141
X10.0179Y-6.9081
X10.0199Y-8.6021
X11.1979Y-5.2721
X11.1999Y-6.9681
X11.1999Y-8.6601
X11.2479Y-4.3921
X11.3939Y-8.6411
X11.3959Y-5.2521
X11.3959Y-6.9471
X11.9359Y-4.9501
X11.9359Y-5.9821
X11.9359Y-6.6401
X11.9359Y-8.3341
X12.0039Y-5.1241
X12.0039Y-6.8181
X12.0039Y-8.5101
X12.0059Y-4.8961
X12.0059Y-8.2801
X12.0079Y-6.5901
X12.0299Y-5.1241
X12.0299Y-5.9621
X12.0299Y-6.8181
X12.0299Y-8.5101
X12.0559Y-6.0011
X12.0799Y-4.9981
X12.0799Y-5.2321
X12.0799Y-6.6901
X12.0799Y-6.9281
X12.0799Y-8.3841
X12.0799Y-8.6221
X12.1039Y-6.9661
X12.1059Y-4.9981
X12.1059Y-5.2701
X12.1059Y-6.6901
X12.1059Y-8.3841
X12.1059Y-8.6601
X12.1319Y-4.9981
X12.1319Y-6.6901
X12.1319Y-6.9661
X12.1319Y-8.6601
X12.1319Y-8.3841
X12.1339Y-5.2701
X12.1579Y-4.9981
X12.1579Y-5.2321
X12.1579Y-6.6901
X12.1579Y-6.9261
X12.1579Y-8.3841
X12.1579Y-8.6221
X12.1819Y-6.0571
X12.1839Y-4.9981
X12.1839Y-5.1241
X12.1839Y-6.6901
X12.1839Y-6.8181
X12.1839Y-8.3841
X12.1839Y-8.5101
X12.1859Y-6.1521
X12.2059Y-6.0731
X12.2079Y-6.1341
X12.2269Y-6.2261
X12.2479Y-6.2091
X12.5759Y-5.27
X12.5759Y-6.9661
X12.5759Y-8.6601
X12.6239Y-4.3421
X12.7719Y-6.9451
X12.7719Y-8.6411
X12.7739Y-5.2511
X13.2739Y-4.2421
X13.2739Y-4.3421
X13.2739Y-4.3921
X13.2739Y-4.4421
X13.3939Y-4.2921
X13.3979Y-4.4921
X13.3979Y-4.5401
X13.4699Y-4.3421
X13.4699Y-4.3901
X13.4699Y-4.4421
X13.4699Y-4.4921
X13.5979Y-4.2901
X13.9539Y-6.9271
X13.9539Y-8.6221
X13.9559Y-5.2331
X14.0019Y-4.3181
X14.1499Y-8.6021
X14.1519Y-5.2141
X14.1519Y-6.9081
X14.5039Y-5.1261
X14.5049Y-6.8161
X14.5239Y-8.5201
X14.5539Y-7.7551
X14.5699Y-6.1541
X14.5699Y-6.2107
X14.5719Y-6.2507
X14.5719Y-6.2907
X14.5719Y-6.3307
X14.5719Y-6.3698
X14.5719Y-6.4087
X14.572Y-6.449
X14.5978Y-7.737
X14.641Y-7.7181
X14.6606Y-6.7443
X14.6679Y-6.2707
X14.6679Y-6.4287
X14.6679Y-6.4687
X14.6699Y-6.1541
X14.6699Y-6.1907
X14.6699Y-6.2307
X14.6699Y-6.3107
X14.6704Y-6.3506
X14.6707Y-6.3894
X14.6795Y-6.723
X14.6985Y-6.7043
X14.7171Y-6.6836
X14.7355Y-6.6653
X14.7535Y-6.6442
X14.7539Y-6.5281
X14.7729Y-6.4878
X14.7731Y-6.6246
X14.7919Y-6.5079
X14.7925Y-6.6063
T2
X4.3082Y-5.4198
X4.3082Y-7.1128
X4.3082Y-8.8057
X4.3574Y-4.7151
X4.3574Y-6.408
X4.3574Y-8.1009
X4.4066Y-5.4198
X4.4066Y-7.1128
X4.4066Y-8.8057
X4.505Y-5.4198
X4.505Y-7.1128
X4.505Y-8.8057
X4.5543Y-4.7151
X4.5543Y-6.408
X4.5543Y-8.1009
X4.6035Y-5.4198
X4.6035Y-7.1128
X4.6035Y-8.8057
X5.6861Y-5.4198
X5.6861Y-7.1128
X5.6861Y-8.8057
X5.7354Y-4.7151
X5.7354Y-6.408
X5.7354Y-8.1009
X5.7846Y-5.4198
X5.7846Y-7.1128
X5.7846Y-8.8057
X5.883Y-5.4198
X5.883Y-7.1128
X5.883Y-8.8057
X5.9322Y-4.7151
X5.9322Y-6.408
X5.9322Y-8.1009
X5.9814Y-5.4198
X5.9814Y-7.1128
X5.9814Y-8.8057
X7.0641Y-5.4198
X7.0641Y-7.1128
X7.0641Y-8.8057
X7.1133Y-4.7151
X7.1133Y-6.408
X7.1133Y-8.1009
X7.1625Y-5.4198
X7.1625Y-7.1128
X7.1625Y-8.8057
X7.2609Y-5.4198
X7.2609Y-7.1128
X7.2609Y-8.8057
X7.3102Y-4.7151
X7.3102Y-6.408
X7.3102Y-8.1009
X7.3594Y-5.4198
X7.3594Y-7.1128
X7.3594Y-8.8057
X8.442Y-5.4198
X8.442Y-7.1128
X8.442Y-8.8057
X8.4913Y-4.7151
X8.4913Y-6.408
X8.4913Y-8.1009
X8.5405Y-5.4198
X8.5405Y-7.1128
X8.5405Y-8.8057
X8.6389Y-5.4198
X8.6389Y-7.1128
X8.6389Y-8.8057
X8.6881Y-4.7151
X8.6881Y-6.408
X8.6881Y-8.1009
X8.7373Y-5.4198
X8.7373Y-7.1128
X8.7373Y-8.8057
X9.82Y-5.4198
X9.82Y-7.1128
X9.82Y-8.8057
X9.8692Y-4.7151
X9.8692Y-6.408
X9.8692Y-8.1009
X9.9184Y-5.4198
X9.9184Y-7.1128
X9.9184Y-8.8057
X10.0169Y-5.4198
X10.0169Y-7.1128
X10.0169Y-8.8057
X10.0661Y-4.7151
X10.0661Y-6.408
X10.0661Y-8.1009
X10.1153Y-5.4198
X10.1153Y-7.1128
X10.1153Y-8.8057
X11.198Y-5.4198
X11.198Y-7.1128
X11.198Y-8.8057
X11.2472Y-4.7151
X11.2472Y-6.408
X11.2472Y-8.1009
X11.2964Y-5.4198
X11.2964Y-7.1128
X11.2964Y-8.8057
X11.3948Y-5.4198
X11.3948Y-7.1128
X11.3948Y-8.8057
X11.444Y-4.7151
X11.444Y-6.408
X11.444Y-8.1009
X11.4932Y-5.4198
X11.4932Y-7.1128
X11.4932Y-8.8057
X12.5759Y-5.4198
X12.5759Y-7.1128
X12.5759Y-8.8057
X12.6251Y-4.7151
X12.6251Y-6.408
X12.6251Y-8.1009
X12.6743Y-5.4198
X12.6743Y-7.1128
X12.6743Y-8.8057
X12.7728Y-5.4198
X12.7728Y-7.1128
X12.7728Y-8.8057
X12.822Y-4.7151
X12.822Y-6.408
X12.822Y-8.1009
X12.8712Y-5.4198
X12.8712Y-7.1128
X12.8712Y-8.8057
X13.9539Y-5.4198
X13.9539Y-7.1128
X13.9539Y-8.8057
X14.0031Y-4.7151
X14.0031Y-6.408
X14.0031Y-8.1009
X14.0523Y-5.4198
X14.0523Y-7.1128
X14.0523Y-8.8057
X14.1507Y-5.4198
X14.1507Y-7.1128
X14.1507Y-8.8057
X14.1999Y-4.7151
X14.1999Y-6.408
X14.1999Y-8.1009
X14.2491Y-5.4198
X14.2491Y-7.1128
X14.2491Y-8.8057
T3
X3.8259Y-3.8801
X3.8259Y-5.573
X3.8259Y-7.2659
X3.8259Y-8.9588
X14.8889Y-3.8801
X14.8889Y-5.573
X14.8889Y-7.2659
X14.8889Y-8.9588
T4
X4.196Y-4.9907
X4.196Y-6.6836
X4.196Y-8.3765
X4.7157Y-4.9907
X4.7157Y-6.6836
X4.7157Y-8.3765
X5.5739Y-4.9907
X5.5739Y-6.6836
X5.5739Y-8.3765
X6.0936Y-4.9907
X6.0936Y-6.6836
X6.0936Y-8.3765
X6.9519Y-4.9907
X6.9519Y-6.6836
X6.9519Y-8.3765
X7.4716Y-4.9907
X7.4716Y-6.6836
X7.4716Y-8.3765
X8.3298Y-4.9907
X8.3298Y-6.6836
X8.3298Y-8.3765
X8.8495Y-4.9907
X8.8495Y-6.6836
X8.8495Y-8.3765
X9.7078Y-4.9907
X9.7078Y-6.6836
X9.7078Y-8.3765
X10.2275Y-4.9907
X10.2275Y-6.6836
X10.2275Y-8.3765
X11.0857Y-4.9907
X11.0857Y-6.6836
X11.0857Y-8.3765
X11.6054Y-4.9907
X11.6054Y-6.6836
X11.6054Y-8.3765
X12.4637Y-4.9907
X12.4637Y-6.6836
X12.4637Y-8.3765
X12.9834Y-4.9907
X12.9834Y-6.6836
X12.9834Y-8.3765
X13.8417Y-4.9907
X13.8417Y-6.6836
X13.8417Y-8.3765
X14.3613Y-4.9907
X14.3613Y-6.6836
X14.3613Y-8.3765
T0
M30
