%TF.GenerationSoftware,KiCad,Pcbnew,7.0.7*%
%TF.CreationDate,2024-03-28T21:46:40-04:00*%
%TF.ProjectId,midi-controller_pot-board_teensy,6d696469-2d63-46f6-9e74-726f6c6c6572,rev?*%
%TF.SameCoordinates,Original*%
%TF.FileFunction,Paste,Top*%
%TF.FilePolarity,Positive*%
%FSLAX46Y46*%
G04 Gerber Fmt 4.6, Leading zero omitted, Abs format (unit mm)*
G04 Created by KiCad (PCBNEW 7.0.7) date 2024-03-28 21:46:40*
%MOMM*%
%LPD*%
G01*
G04 APERTURE LIST*
G04 Aperture macros list*
%AMRoundRect*
0 Rectangle with rounded corners*
0 $1 Rounding radius*
0 $2 $3 $4 $5 $6 $7 $8 $9 X,Y pos of 4 corners*
0 Add a 4 corners polygon primitive as box body*
4,1,4,$2,$3,$4,$5,$6,$7,$8,$9,$2,$3,0*
0 Add four circle primitives for the rounded corners*
1,1,$1+$1,$2,$3*
1,1,$1+$1,$4,$5*
1,1,$1+$1,$6,$7*
1,1,$1+$1,$8,$9*
0 Add four rect primitives between the rounded corners*
20,1,$1+$1,$2,$3,$4,$5,0*
20,1,$1+$1,$4,$5,$6,$7,0*
20,1,$1+$1,$6,$7,$8,$9,0*
20,1,$1+$1,$8,$9,$2,$3,0*%
G04 Aperture macros list end*
%ADD10RoundRect,0.225000X0.375000X-0.225000X0.375000X0.225000X-0.375000X0.225000X-0.375000X-0.225000X0*%
%ADD11RoundRect,0.100000X0.100000X-0.637500X0.100000X0.637500X-0.100000X0.637500X-0.100000X-0.637500X0*%
G04 APERTURE END LIST*
D10*
%TO.C,D5*%
X265178000Y-130204000D03*
X265178000Y-126904000D03*
%TD*%
D11*
%TO.C,U1*%
X164903000Y-131416500D03*
X165553000Y-131416500D03*
X166203000Y-131416500D03*
X166853000Y-131416500D03*
X167503000Y-131416500D03*
X168153000Y-131416500D03*
X168803000Y-131416500D03*
X169453000Y-131416500D03*
X169453000Y-125691500D03*
X168803000Y-125691500D03*
X168153000Y-125691500D03*
X167503000Y-125691500D03*
X166853000Y-125691500D03*
X166203000Y-125691500D03*
X165553000Y-125691500D03*
X164903000Y-125691500D03*
%TD*%
D10*
%TO.C,D8*%
X370178000Y-130204000D03*
X370178000Y-126904000D03*
%TD*%
%TO.C,D2*%
X160178000Y-130204000D03*
X160178000Y-126904000D03*
%TD*%
%TO.C,D22*%
X300178000Y-216414000D03*
X300178000Y-213114000D03*
%TD*%
%TO.C,D17*%
X125178000Y-216414000D03*
X125178000Y-213114000D03*
%TD*%
%TO.C,D24*%
X370178000Y-216414000D03*
X370178000Y-213114000D03*
%TD*%
D11*
%TO.C,U4*%
X304903000Y-174416500D03*
X305553000Y-174416500D03*
X306203000Y-174416500D03*
X306853000Y-174416500D03*
X307503000Y-174416500D03*
X308153000Y-174416500D03*
X308803000Y-174416500D03*
X309453000Y-174416500D03*
X309453000Y-168691500D03*
X308803000Y-168691500D03*
X308153000Y-168691500D03*
X307503000Y-168691500D03*
X306853000Y-168691500D03*
X306203000Y-168691500D03*
X305553000Y-168691500D03*
X304903000Y-168691500D03*
%TD*%
D10*
%TO.C,D10*%
X160178000Y-173204000D03*
X160178000Y-169904000D03*
%TD*%
%TO.C,D6*%
X300178000Y-130204000D03*
X300178000Y-126904000D03*
%TD*%
%TO.C,D12*%
X230178000Y-173204000D03*
X230178000Y-169904000D03*
%TD*%
%TO.C,D15*%
X335178000Y-173204000D03*
X335178000Y-169904000D03*
%TD*%
%TO.C,D4*%
X230178000Y-130204000D03*
X230178000Y-126904000D03*
%TD*%
%TO.C,D13*%
X265178000Y-173204000D03*
X265178000Y-169904000D03*
%TD*%
%TO.C,D18*%
X160178000Y-216414000D03*
X160178000Y-213114000D03*
%TD*%
%TO.C,D16*%
X370178000Y-173204000D03*
X370178000Y-169904000D03*
%TD*%
%TO.C,D23*%
X335178000Y-216414000D03*
X335178000Y-213114000D03*
%TD*%
D11*
%TO.C,U5*%
X164903000Y-217416500D03*
X165553000Y-217416500D03*
X166203000Y-217416500D03*
X166853000Y-217416500D03*
X167503000Y-217416500D03*
X168153000Y-217416500D03*
X168803000Y-217416500D03*
X169453000Y-217416500D03*
X169453000Y-211691500D03*
X168803000Y-211691500D03*
X168153000Y-211691500D03*
X167503000Y-211691500D03*
X166853000Y-211691500D03*
X166203000Y-211691500D03*
X165553000Y-211691500D03*
X164903000Y-211691500D03*
%TD*%
D10*
%TO.C,D3*%
X195178000Y-130204000D03*
X195178000Y-126904000D03*
%TD*%
%TO.C,D14*%
X300178000Y-173204000D03*
X300178000Y-169904000D03*
%TD*%
%TO.C,D21*%
X265178000Y-216414000D03*
X265178000Y-213114000D03*
%TD*%
%TO.C,D20*%
X230178000Y-216414000D03*
X230178000Y-213114000D03*
%TD*%
D11*
%TO.C,U2*%
X304903000Y-131416500D03*
X305553000Y-131416500D03*
X306203000Y-131416500D03*
X306853000Y-131416500D03*
X307503000Y-131416500D03*
X308153000Y-131416500D03*
X308803000Y-131416500D03*
X309453000Y-131416500D03*
X309453000Y-125691500D03*
X308803000Y-125691500D03*
X308153000Y-125691500D03*
X307503000Y-125691500D03*
X306853000Y-125691500D03*
X306203000Y-125691500D03*
X305553000Y-125691500D03*
X304903000Y-125691500D03*
%TD*%
D10*
%TO.C,D9*%
X125178000Y-173204000D03*
X125178000Y-169904000D03*
%TD*%
D11*
%TO.C,U6*%
X304903000Y-217416500D03*
X305553000Y-217416500D03*
X306203000Y-217416500D03*
X306853000Y-217416500D03*
X307503000Y-217416500D03*
X308153000Y-217416500D03*
X308803000Y-217416500D03*
X309453000Y-217416500D03*
X309453000Y-211691500D03*
X308803000Y-211691500D03*
X308153000Y-211691500D03*
X307503000Y-211691500D03*
X306853000Y-211691500D03*
X306203000Y-211691500D03*
X305553000Y-211691500D03*
X304903000Y-211691500D03*
%TD*%
D10*
%TO.C,D11*%
X195178000Y-173204000D03*
X195178000Y-169904000D03*
%TD*%
%TO.C,D1*%
X125178000Y-130204000D03*
X125178000Y-126904000D03*
%TD*%
%TO.C,D7*%
X335178000Y-130204000D03*
X335178000Y-126904000D03*
%TD*%
D11*
%TO.C,U3*%
X164903000Y-174416500D03*
X165553000Y-174416500D03*
X166203000Y-174416500D03*
X166853000Y-174416500D03*
X167503000Y-174416500D03*
X168153000Y-174416500D03*
X168803000Y-174416500D03*
X169453000Y-174416500D03*
X169453000Y-168691500D03*
X168803000Y-168691500D03*
X168153000Y-168691500D03*
X167503000Y-168691500D03*
X166853000Y-168691500D03*
X166203000Y-168691500D03*
X165553000Y-168691500D03*
X164903000Y-168691500D03*
%TD*%
D10*
%TO.C,D19*%
X195178000Y-216414000D03*
X195178000Y-213114000D03*
%TD*%
M02*
